%TF.GenerationSoftware,KiCad,Pcbnew,(6.0.10)*%
%TF.CreationDate,2023-02-26T14:05:18-05:00*%
%TF.ProjectId,ECG_2.0,4543475f-322e-4302-9e6b-696361645f70,rev?*%
%TF.SameCoordinates,Original*%
%TF.FileFunction,Copper,L4,Bot*%
%TF.FilePolarity,Positive*%
%FSLAX46Y46*%
G04 Gerber Fmt 4.6, Leading zero omitted, Abs format (unit mm)*
G04 Created by KiCad (PCBNEW (6.0.10)) date 2023-02-26 14:05:18*
%MOMM*%
%LPD*%
G01*
G04 APERTURE LIST*
%TA.AperFunction,ComponentPad*%
%ADD10O,1.700000X0.900000*%
%TD*%
%TA.AperFunction,WasherPad*%
%ADD11O,1.700000X0.900000*%
%TD*%
%TA.AperFunction,WasherPad*%
%ADD12O,2.000000X0.900000*%
%TD*%
%TA.AperFunction,ComponentPad*%
%ADD13R,1.700000X1.700000*%
%TD*%
%TA.AperFunction,ComponentPad*%
%ADD14O,1.700000X1.700000*%
%TD*%
%TA.AperFunction,WasherPad*%
%ADD15O,0.750000X1.550000*%
%TD*%
%TA.AperFunction,ComponentPad*%
%ADD16C,1.524000*%
%TD*%
%TA.AperFunction,WasherPad*%
%ADD17O,1.550000X0.750000*%
%TD*%
%TA.AperFunction,ViaPad*%
%ADD18C,0.800000*%
%TD*%
%TA.AperFunction,Conductor*%
%ADD19C,0.375000*%
%TD*%
G04 APERTURE END LIST*
D10*
%TO.P,U9,17,SHIELD*%
%TO.N,unconnected-(U9-Pad17)*%
X253995500Y-81880000D03*
D11*
%TO.P,U9,*%
%TO.N,*%
X253995500Y-90530000D03*
D12*
X249825500Y-90530000D03*
X249825500Y-81880000D03*
%TD*%
D13*
%TO.P,J2,1,Pin_1*%
%TO.N,+3V3*%
X245247000Y-77089000D03*
D14*
%TO.P,J2,2,Pin_2*%
%TO.N,/TX*%
X247787000Y-77089000D03*
%TO.P,J2,3,Pin_3*%
%TO.N,/RX*%
X250327000Y-77089000D03*
%TO.P,J2,4,Pin_4*%
%TO.N,GND*%
X252867000Y-77089000D03*
%TD*%
D13*
%TO.P,J1,1,Pin_1*%
%TO.N,+LO*%
X219964000Y-86863000D03*
D14*
%TO.P,J1,2,Pin_2*%
%TO.N,-LO*%
X219964000Y-84323000D03*
%TO.P,J1,3,Pin_3*%
%TO.N,Output*%
X219964000Y-81783000D03*
%TO.P,J1,4,Pin_4*%
%TO.N,+3V3*%
X219964000Y-79243000D03*
%TO.P,J1,5,Pin_5*%
%TO.N,GND*%
X219964000Y-76703000D03*
%TD*%
D15*
%TO.P,U7,*%
%TO.N,*%
X235422000Y-104394000D03*
X243622000Y-104394000D03*
D16*
%TO.P,U7,1*%
%TO.N,+4V*%
X237522000Y-104394000D03*
%TO.P,U7,2*%
%TO.N,+BATT*%
X239522000Y-104394000D03*
%TO.P,U7,3*%
%TO.N,unconnected-(U7-Pad3)*%
X241522000Y-104394000D03*
%TD*%
D17*
%TO.P,U5,*%
%TO.N,*%
X250577000Y-100976000D03*
X250577000Y-92776000D03*
D16*
%TO.P,U5,1*%
%TO.N,+5V*%
X250577000Y-98876000D03*
%TO.P,U5,2*%
%TO.N,In_5V*%
X250577000Y-96876000D03*
%TO.P,U5,3*%
%TO.N,unconnected-(U5-Pad3)*%
X250577000Y-94876000D03*
%TD*%
D15*
%TO.P,U4,*%
%TO.N,*%
X223202000Y-103124000D03*
X215002000Y-103124000D03*
D16*
%TO.P,U4,1*%
%TO.N,+BATT*%
X217102000Y-103124000D03*
%TO.P,U4,2*%
%TO.N,BatO*%
X219102000Y-103124000D03*
%TO.P,U4,3*%
%TO.N,unconnected-(U4-Pad3)*%
X221102000Y-103124000D03*
%TD*%
D18*
%TO.N,+5V*%
X240220500Y-89217500D03*
%TO.N,+3V3*%
X221363500Y-80642500D03*
X223012000Y-93218000D03*
X220091000Y-97536000D03*
X216027000Y-97536000D03*
X232918000Y-95504000D03*
%TO.N,BTN*%
X231075281Y-92459965D03*
X232410000Y-87288398D03*
%TO.N,+BATT*%
X238760000Y-92202000D03*
X237490000Y-95250000D03*
%TO.N,GND*%
X248158000Y-81026000D03*
X237236000Y-83947000D03*
X244094000Y-106299000D03*
X244221000Y-97282000D03*
X226060000Y-90424000D03*
X225933000Y-75692000D03*
X233680000Y-101600000D03*
X233045000Y-91821000D03*
X218440000Y-89916000D03*
X247634000Y-85852000D03*
X253746000Y-99568000D03*
%TO.N,+5V*%
X234696000Y-92583000D03*
X247904000Y-102108000D03*
%TO.N,In_5V*%
X250690000Y-88638000D03*
X251376211Y-83374070D03*
%TO.N,Net-(D1-Pad1)*%
X240157000Y-90297000D03*
X254381000Y-102235000D03*
%TO.N,Net-(D2-Pad1)*%
X254508000Y-105156000D03*
X240279701Y-91444299D03*
%TO.N,+LO*%
X236982000Y-87884000D03*
X221869000Y-86868000D03*
%TO.N,-LO*%
X221996000Y-84582000D03*
X236347000Y-86741000D03*
%TO.N,LED*%
X217424000Y-82804000D03*
X233680000Y-87122000D03*
%TO.N,VSS*%
X233934000Y-103886000D03*
X226568000Y-101600000D03*
X224282000Y-109982000D03*
%TD*%
D19*
%TO.N,In_5V*%
X251376211Y-87951789D02*
X250690000Y-88638000D01*
X251376211Y-83374070D02*
X251376211Y-87951789D01*
%TD*%
%TA.AperFunction,Conductor*%
%TO.N,GND*%
G36*
X255781690Y-74950002D02*
G01*
X255828183Y-75003658D01*
X255839569Y-75055979D01*
X255842966Y-95096124D01*
X255847878Y-124079981D01*
X255827888Y-124148103D01*
X255774241Y-124194605D01*
X255721879Y-124206000D01*
X214349107Y-124206000D01*
X214280986Y-124185998D01*
X214234493Y-124132342D01*
X214223108Y-124080246D01*
X214195891Y-109982000D01*
X223676318Y-109982000D01*
X223696956Y-110138762D01*
X223757464Y-110284841D01*
X223853718Y-110410282D01*
X223979159Y-110506536D01*
X224125238Y-110567044D01*
X224282000Y-110587682D01*
X224290188Y-110586604D01*
X224430574Y-110568122D01*
X224438762Y-110567044D01*
X224584841Y-110506536D01*
X224710282Y-110410282D01*
X224806536Y-110284841D01*
X224867044Y-110138762D01*
X224887682Y-109982000D01*
X224867044Y-109825238D01*
X224806536Y-109679159D01*
X224710282Y-109553718D01*
X224584841Y-109457464D01*
X224438762Y-109396956D01*
X224282000Y-109376318D01*
X224125238Y-109396956D01*
X223979159Y-109457464D01*
X223853718Y-109553718D01*
X223757464Y-109679159D01*
X223696956Y-109825238D01*
X223676318Y-109982000D01*
X214195891Y-109982000D01*
X214187742Y-105760604D01*
X214185949Y-104831720D01*
X234846500Y-104831720D01*
X234861313Y-104944236D01*
X234919302Y-105084233D01*
X235011549Y-105204451D01*
X235131767Y-105296698D01*
X235271764Y-105354687D01*
X235422000Y-105374466D01*
X235430188Y-105373388D01*
X235564048Y-105355765D01*
X235572236Y-105354687D01*
X235712233Y-105296698D01*
X235832451Y-105204451D01*
X235924698Y-105084233D01*
X235982687Y-104944236D01*
X235997500Y-104831720D01*
X235997500Y-104380496D01*
X236554937Y-104380496D01*
X236557460Y-104410536D01*
X236569198Y-104550318D01*
X236570732Y-104568590D01*
X236572431Y-104574515D01*
X236614921Y-104722695D01*
X236622760Y-104750034D01*
X236709040Y-104917917D01*
X236712865Y-104922743D01*
X236712867Y-104922746D01*
X236822456Y-105061014D01*
X236822460Y-105061019D01*
X236826285Y-105065844D01*
X236970030Y-105188180D01*
X236975408Y-105191186D01*
X236975410Y-105191187D01*
X237052415Y-105234223D01*
X237134800Y-105280267D01*
X237314317Y-105338595D01*
X237501745Y-105360945D01*
X237507880Y-105360473D01*
X237507882Y-105360473D01*
X237683803Y-105346937D01*
X237683807Y-105346936D01*
X237689945Y-105346464D01*
X237695877Y-105344808D01*
X237695881Y-105344807D01*
X237865804Y-105297363D01*
X237865808Y-105297362D01*
X237871748Y-105295703D01*
X237951297Y-105255520D01*
X238034728Y-105213377D01*
X238034730Y-105213376D01*
X238040229Y-105210598D01*
X238188970Y-105094388D01*
X238192996Y-105089724D01*
X238192999Y-105089721D01*
X238308278Y-104956169D01*
X238308279Y-104956167D01*
X238312307Y-104951501D01*
X238405542Y-104787378D01*
X238407487Y-104781532D01*
X238407964Y-104780460D01*
X238453944Y-104726365D01*
X238521872Y-104705716D01*
X238590179Y-104725069D01*
X238635136Y-104774115D01*
X238709040Y-104917917D01*
X238712865Y-104922743D01*
X238712867Y-104922746D01*
X238822456Y-105061014D01*
X238822460Y-105061019D01*
X238826285Y-105065844D01*
X238970030Y-105188180D01*
X238975408Y-105191186D01*
X238975410Y-105191187D01*
X239052415Y-105234223D01*
X239134800Y-105280267D01*
X239314317Y-105338595D01*
X239501745Y-105360945D01*
X239507880Y-105360473D01*
X239507882Y-105360473D01*
X239683803Y-105346937D01*
X239683807Y-105346936D01*
X239689945Y-105346464D01*
X239695877Y-105344808D01*
X239695881Y-105344807D01*
X239865804Y-105297363D01*
X239865808Y-105297362D01*
X239871748Y-105295703D01*
X239951297Y-105255520D01*
X240034728Y-105213377D01*
X240034730Y-105213376D01*
X240040229Y-105210598D01*
X240188970Y-105094388D01*
X240192996Y-105089724D01*
X240192999Y-105089721D01*
X240308278Y-104956169D01*
X240308279Y-104956167D01*
X240312307Y-104951501D01*
X240405542Y-104787378D01*
X240407487Y-104781532D01*
X240407964Y-104780460D01*
X240453944Y-104726365D01*
X240521872Y-104705716D01*
X240590179Y-104725069D01*
X240635136Y-104774115D01*
X240709040Y-104917917D01*
X240712865Y-104922743D01*
X240712867Y-104922746D01*
X240822456Y-105061014D01*
X240822460Y-105061019D01*
X240826285Y-105065844D01*
X240970030Y-105188180D01*
X240975408Y-105191186D01*
X240975410Y-105191187D01*
X241052415Y-105234223D01*
X241134800Y-105280267D01*
X241314317Y-105338595D01*
X241501745Y-105360945D01*
X241507880Y-105360473D01*
X241507882Y-105360473D01*
X241683803Y-105346937D01*
X241683807Y-105346936D01*
X241689945Y-105346464D01*
X241695877Y-105344808D01*
X241695881Y-105344807D01*
X241865804Y-105297363D01*
X241865808Y-105297362D01*
X241871748Y-105295703D01*
X241951297Y-105255520D01*
X242034728Y-105213377D01*
X242034730Y-105213376D01*
X242040229Y-105210598D01*
X242188970Y-105094388D01*
X242192996Y-105089724D01*
X242192999Y-105089721D01*
X242308278Y-104956169D01*
X242308279Y-104956167D01*
X242312307Y-104951501D01*
X242380352Y-104831720D01*
X243046500Y-104831720D01*
X243061313Y-104944236D01*
X243119302Y-105084233D01*
X243211549Y-105204451D01*
X243331767Y-105296698D01*
X243471764Y-105354687D01*
X243622000Y-105374466D01*
X243630188Y-105373388D01*
X243764048Y-105355765D01*
X243772236Y-105354687D01*
X243912233Y-105296698D01*
X244032451Y-105204451D01*
X244069629Y-105156000D01*
X253902318Y-105156000D01*
X253922956Y-105312762D01*
X253983464Y-105458841D01*
X254079718Y-105584282D01*
X254205159Y-105680536D01*
X254351238Y-105741044D01*
X254508000Y-105761682D01*
X254516188Y-105760604D01*
X254656574Y-105742122D01*
X254664762Y-105741044D01*
X254810841Y-105680536D01*
X254936282Y-105584282D01*
X255032536Y-105458841D01*
X255093044Y-105312762D01*
X255113682Y-105156000D01*
X255093044Y-104999238D01*
X255032536Y-104853159D01*
X254936282Y-104727718D01*
X254810841Y-104631464D01*
X254664762Y-104570956D01*
X254646791Y-104568590D01*
X254516188Y-104551396D01*
X254508000Y-104550318D01*
X254499812Y-104551396D01*
X254369210Y-104568590D01*
X254351238Y-104570956D01*
X254205159Y-104631464D01*
X254079718Y-104727718D01*
X253983464Y-104853159D01*
X253922956Y-104999238D01*
X253902318Y-105156000D01*
X244069629Y-105156000D01*
X244124698Y-105084233D01*
X244182687Y-104944236D01*
X244197500Y-104831720D01*
X244197500Y-103956280D01*
X244188248Y-103886000D01*
X244183765Y-103851952D01*
X244182687Y-103843764D01*
X244124698Y-103703767D01*
X244032451Y-103583549D01*
X243912233Y-103491302D01*
X243772236Y-103433313D01*
X243622000Y-103413534D01*
X243471764Y-103433313D01*
X243331767Y-103491302D01*
X243211549Y-103583549D01*
X243119302Y-103703767D01*
X243061313Y-103843764D01*
X243060235Y-103851952D01*
X243055753Y-103886000D01*
X243046500Y-103956280D01*
X243046500Y-104831720D01*
X242380352Y-104831720D01*
X242405542Y-104787378D01*
X242465123Y-104608272D01*
X242488780Y-104421005D01*
X242489157Y-104394000D01*
X242470738Y-104206145D01*
X242416181Y-104025445D01*
X242327566Y-103858783D01*
X242208266Y-103712508D01*
X242197700Y-103703767D01*
X242067577Y-103596120D01*
X242067574Y-103596118D01*
X242062827Y-103592191D01*
X241896788Y-103502414D01*
X241716474Y-103446597D01*
X241710356Y-103445954D01*
X241710351Y-103445953D01*
X241534881Y-103427511D01*
X241534879Y-103427511D01*
X241528752Y-103426867D01*
X241423197Y-103436473D01*
X241346914Y-103443415D01*
X241346913Y-103443415D01*
X241340773Y-103443974D01*
X241159697Y-103497268D01*
X241154232Y-103500125D01*
X241028594Y-103565807D01*
X240992420Y-103584718D01*
X240845316Y-103702993D01*
X240723986Y-103847588D01*
X240721016Y-103852991D01*
X240721015Y-103852992D01*
X240679833Y-103927901D01*
X240633052Y-104012996D01*
X240631228Y-104011993D01*
X240592054Y-104059415D01*
X240524423Y-104081016D01*
X240455850Y-104062624D01*
X240410204Y-104014204D01*
X240409029Y-104011993D01*
X240327566Y-103858783D01*
X240208266Y-103712508D01*
X240197700Y-103703767D01*
X240067577Y-103596120D01*
X240067574Y-103596118D01*
X240062827Y-103592191D01*
X239896788Y-103502414D01*
X239716474Y-103446597D01*
X239710356Y-103445954D01*
X239710351Y-103445953D01*
X239534881Y-103427511D01*
X239534879Y-103427511D01*
X239528752Y-103426867D01*
X239423197Y-103436473D01*
X239346914Y-103443415D01*
X239346913Y-103443415D01*
X239340773Y-103443974D01*
X239159697Y-103497268D01*
X239154232Y-103500125D01*
X239028594Y-103565807D01*
X238992420Y-103584718D01*
X238845316Y-103702993D01*
X238723986Y-103847588D01*
X238721016Y-103852991D01*
X238721015Y-103852992D01*
X238679833Y-103927901D01*
X238633052Y-104012996D01*
X238631228Y-104011993D01*
X238592054Y-104059415D01*
X238524423Y-104081016D01*
X238455850Y-104062624D01*
X238410204Y-104014204D01*
X238409029Y-104011993D01*
X238327566Y-103858783D01*
X238208266Y-103712508D01*
X238197700Y-103703767D01*
X238067577Y-103596120D01*
X238067574Y-103596118D01*
X238062827Y-103592191D01*
X237896788Y-103502414D01*
X237716474Y-103446597D01*
X237710356Y-103445954D01*
X237710351Y-103445953D01*
X237534881Y-103427511D01*
X237534879Y-103427511D01*
X237528752Y-103426867D01*
X237423197Y-103436473D01*
X237346914Y-103443415D01*
X237346913Y-103443415D01*
X237340773Y-103443974D01*
X237159697Y-103497268D01*
X237154232Y-103500125D01*
X237028594Y-103565807D01*
X236992420Y-103584718D01*
X236845316Y-103702993D01*
X236723986Y-103847588D01*
X236721016Y-103852991D01*
X236721015Y-103852992D01*
X236674939Y-103936804D01*
X236633052Y-104012996D01*
X236575978Y-104192917D01*
X236575292Y-104199036D01*
X236575291Y-104199039D01*
X236562364Y-104314282D01*
X236554937Y-104380496D01*
X235997500Y-104380496D01*
X235997500Y-103956280D01*
X235988248Y-103886000D01*
X235983765Y-103851952D01*
X235982687Y-103843764D01*
X235924698Y-103703767D01*
X235832451Y-103583549D01*
X235712233Y-103491302D01*
X235572236Y-103433313D01*
X235422000Y-103413534D01*
X235271764Y-103433313D01*
X235131767Y-103491302D01*
X235011549Y-103583549D01*
X234919302Y-103703767D01*
X234861313Y-103843764D01*
X234860235Y-103851952D01*
X234855753Y-103886000D01*
X234846500Y-103956280D01*
X234846500Y-104831720D01*
X214185949Y-104831720D01*
X214183648Y-103639705D01*
X214203519Y-103571546D01*
X214257085Y-103524950D01*
X214327339Y-103514710D01*
X214391976Y-103544078D01*
X214430475Y-103603730D01*
X214434569Y-103623013D01*
X214441313Y-103674236D01*
X214499302Y-103814233D01*
X214591549Y-103934451D01*
X214711767Y-104026698D01*
X214851764Y-104084687D01*
X215002000Y-104104466D01*
X215010188Y-104103388D01*
X215144048Y-104085765D01*
X215152236Y-104084687D01*
X215292233Y-104026698D01*
X215412451Y-103934451D01*
X215504698Y-103814233D01*
X215562687Y-103674236D01*
X215577500Y-103561720D01*
X215577500Y-103110496D01*
X216134937Y-103110496D01*
X216135453Y-103116639D01*
X216149198Y-103280318D01*
X216150732Y-103298590D01*
X216152431Y-103304515D01*
X216194921Y-103452695D01*
X216202760Y-103480034D01*
X216215767Y-103505343D01*
X216284820Y-103639705D01*
X216289040Y-103647917D01*
X216292865Y-103652743D01*
X216292867Y-103652746D01*
X216402456Y-103791014D01*
X216402460Y-103791019D01*
X216406285Y-103795844D01*
X216550030Y-103918180D01*
X216555408Y-103921186D01*
X216555410Y-103921187D01*
X216610889Y-103952193D01*
X216714800Y-104010267D01*
X216894317Y-104068595D01*
X217081745Y-104090945D01*
X217087880Y-104090473D01*
X217087882Y-104090473D01*
X217263803Y-104076937D01*
X217263807Y-104076936D01*
X217269945Y-104076464D01*
X217275877Y-104074808D01*
X217275881Y-104074807D01*
X217445804Y-104027363D01*
X217445808Y-104027362D01*
X217451748Y-104025703D01*
X217531297Y-103985520D01*
X217614728Y-103943377D01*
X217614730Y-103943376D01*
X217620229Y-103940598D01*
X217768970Y-103824388D01*
X217772996Y-103819724D01*
X217772999Y-103819721D01*
X217888278Y-103686169D01*
X217888279Y-103686167D01*
X217892307Y-103681501D01*
X217985542Y-103517378D01*
X217987487Y-103511532D01*
X217987964Y-103510460D01*
X218033944Y-103456365D01*
X218101872Y-103435716D01*
X218170179Y-103455069D01*
X218215136Y-103504115D01*
X218259326Y-103590099D01*
X218284820Y-103639705D01*
X218289040Y-103647917D01*
X218292865Y-103652743D01*
X218292867Y-103652746D01*
X218402456Y-103791014D01*
X218402460Y-103791019D01*
X218406285Y-103795844D01*
X218550030Y-103918180D01*
X218555408Y-103921186D01*
X218555410Y-103921187D01*
X218610889Y-103952193D01*
X218714800Y-104010267D01*
X218894317Y-104068595D01*
X219081745Y-104090945D01*
X219087880Y-104090473D01*
X219087882Y-104090473D01*
X219263803Y-104076937D01*
X219263807Y-104076936D01*
X219269945Y-104076464D01*
X219275877Y-104074808D01*
X219275881Y-104074807D01*
X219445804Y-104027363D01*
X219445808Y-104027362D01*
X219451748Y-104025703D01*
X219531297Y-103985520D01*
X219614728Y-103943377D01*
X219614730Y-103943376D01*
X219620229Y-103940598D01*
X219768970Y-103824388D01*
X219772996Y-103819724D01*
X219772999Y-103819721D01*
X219888278Y-103686169D01*
X219888279Y-103686167D01*
X219892307Y-103681501D01*
X219985542Y-103517378D01*
X219987487Y-103511532D01*
X219987964Y-103510460D01*
X220033944Y-103456365D01*
X220101872Y-103435716D01*
X220170179Y-103455069D01*
X220215136Y-103504115D01*
X220259326Y-103590099D01*
X220284820Y-103639705D01*
X220289040Y-103647917D01*
X220292865Y-103652743D01*
X220292867Y-103652746D01*
X220402456Y-103791014D01*
X220402460Y-103791019D01*
X220406285Y-103795844D01*
X220550030Y-103918180D01*
X220555408Y-103921186D01*
X220555410Y-103921187D01*
X220610889Y-103952193D01*
X220714800Y-104010267D01*
X220894317Y-104068595D01*
X221081745Y-104090945D01*
X221087880Y-104090473D01*
X221087882Y-104090473D01*
X221263803Y-104076937D01*
X221263807Y-104076936D01*
X221269945Y-104076464D01*
X221275877Y-104074808D01*
X221275881Y-104074807D01*
X221445804Y-104027363D01*
X221445808Y-104027362D01*
X221451748Y-104025703D01*
X221531297Y-103985520D01*
X221614728Y-103943377D01*
X221614730Y-103943376D01*
X221620229Y-103940598D01*
X221768970Y-103824388D01*
X221772996Y-103819724D01*
X221772999Y-103819721D01*
X221888278Y-103686169D01*
X221888279Y-103686167D01*
X221892307Y-103681501D01*
X221960352Y-103561720D01*
X222626500Y-103561720D01*
X222641313Y-103674236D01*
X222699302Y-103814233D01*
X222791549Y-103934451D01*
X222911767Y-104026698D01*
X223051764Y-104084687D01*
X223202000Y-104104466D01*
X223210188Y-104103388D01*
X223344048Y-104085765D01*
X223352236Y-104084687D01*
X223492233Y-104026698D01*
X223612451Y-103934451D01*
X223649629Y-103886000D01*
X233328318Y-103886000D01*
X233348956Y-104042762D01*
X233409464Y-104188841D01*
X233505718Y-104314282D01*
X233631159Y-104410536D01*
X233777238Y-104471044D01*
X233934000Y-104491682D01*
X233942188Y-104490604D01*
X234082574Y-104472122D01*
X234090762Y-104471044D01*
X234236841Y-104410536D01*
X234362282Y-104314282D01*
X234458536Y-104188841D01*
X234519044Y-104042762D01*
X234539682Y-103886000D01*
X234519044Y-103729238D01*
X234514093Y-103717284D01*
X234487360Y-103652746D01*
X234458536Y-103583159D01*
X234362282Y-103457718D01*
X234236841Y-103361464D01*
X234090762Y-103300956D01*
X234072791Y-103298590D01*
X233942188Y-103281396D01*
X233934000Y-103280318D01*
X233925812Y-103281396D01*
X233795210Y-103298590D01*
X233777238Y-103300956D01*
X233631159Y-103361464D01*
X233505718Y-103457718D01*
X233409464Y-103583159D01*
X233380640Y-103652746D01*
X233353908Y-103717284D01*
X233348956Y-103729238D01*
X233328318Y-103886000D01*
X223649629Y-103886000D01*
X223704698Y-103814233D01*
X223762687Y-103674236D01*
X223777500Y-103561720D01*
X223777500Y-102686280D01*
X223773611Y-102656736D01*
X223763765Y-102581952D01*
X223762687Y-102573764D01*
X223704698Y-102433767D01*
X223612451Y-102313549D01*
X223492233Y-102221302D01*
X223352236Y-102163313D01*
X223202000Y-102143534D01*
X223051764Y-102163313D01*
X222911767Y-102221302D01*
X222791549Y-102313549D01*
X222699302Y-102433767D01*
X222641313Y-102573764D01*
X222640235Y-102581952D01*
X222630390Y-102656736D01*
X222626500Y-102686280D01*
X222626500Y-103561720D01*
X221960352Y-103561720D01*
X221985542Y-103517378D01*
X222045123Y-103338272D01*
X222068780Y-103151005D01*
X222069157Y-103124000D01*
X222050738Y-102936145D01*
X221996181Y-102755445D01*
X221907566Y-102588783D01*
X221788266Y-102442508D01*
X221777700Y-102433767D01*
X221647577Y-102326120D01*
X221647574Y-102326118D01*
X221642827Y-102322191D01*
X221476788Y-102232414D01*
X221296474Y-102176597D01*
X221290356Y-102175954D01*
X221290351Y-102175953D01*
X221114881Y-102157511D01*
X221114879Y-102157511D01*
X221108752Y-102156867D01*
X221003197Y-102166473D01*
X220926914Y-102173415D01*
X220926913Y-102173415D01*
X220920773Y-102173974D01*
X220739697Y-102227268D01*
X220734232Y-102230125D01*
X220683640Y-102256574D01*
X220572420Y-102314718D01*
X220425316Y-102432993D01*
X220303986Y-102577588D01*
X220213052Y-102742996D01*
X220211228Y-102741993D01*
X220172054Y-102789415D01*
X220104423Y-102811016D01*
X220035850Y-102792624D01*
X219990204Y-102744204D01*
X219989029Y-102741993D01*
X219907566Y-102588783D01*
X219788266Y-102442508D01*
X219777700Y-102433767D01*
X219647577Y-102326120D01*
X219647574Y-102326118D01*
X219642827Y-102322191D01*
X219476788Y-102232414D01*
X219296474Y-102176597D01*
X219290356Y-102175954D01*
X219290351Y-102175953D01*
X219114881Y-102157511D01*
X219114879Y-102157511D01*
X219108752Y-102156867D01*
X219003197Y-102166473D01*
X218926914Y-102173415D01*
X218926913Y-102173415D01*
X218920773Y-102173974D01*
X218739697Y-102227268D01*
X218734232Y-102230125D01*
X218683640Y-102256574D01*
X218572420Y-102314718D01*
X218425316Y-102432993D01*
X218303986Y-102577588D01*
X218213052Y-102742996D01*
X218211228Y-102741993D01*
X218172054Y-102789415D01*
X218104423Y-102811016D01*
X218035850Y-102792624D01*
X217990204Y-102744204D01*
X217989029Y-102741993D01*
X217907566Y-102588783D01*
X217788266Y-102442508D01*
X217777700Y-102433767D01*
X217647577Y-102326120D01*
X217647574Y-102326118D01*
X217642827Y-102322191D01*
X217476788Y-102232414D01*
X217296474Y-102176597D01*
X217290356Y-102175954D01*
X217290351Y-102175953D01*
X217114881Y-102157511D01*
X217114879Y-102157511D01*
X217108752Y-102156867D01*
X217003197Y-102166473D01*
X216926914Y-102173415D01*
X216926913Y-102173415D01*
X216920773Y-102173974D01*
X216739697Y-102227268D01*
X216734232Y-102230125D01*
X216683640Y-102256574D01*
X216572420Y-102314718D01*
X216425316Y-102432993D01*
X216303986Y-102577588D01*
X216301016Y-102582991D01*
X216301015Y-102582992D01*
X216216019Y-102737599D01*
X216213052Y-102742996D01*
X216155978Y-102922917D01*
X216134937Y-103110496D01*
X215577500Y-103110496D01*
X215577500Y-102686280D01*
X215573611Y-102656736D01*
X215563765Y-102581952D01*
X215562687Y-102573764D01*
X215504698Y-102433767D01*
X215412451Y-102313549D01*
X215292233Y-102221302D01*
X215152236Y-102163313D01*
X215002000Y-102143534D01*
X214851764Y-102163313D01*
X214711767Y-102221302D01*
X214591549Y-102313549D01*
X214499302Y-102433767D01*
X214441313Y-102573764D01*
X214440235Y-102581952D01*
X214432608Y-102639883D01*
X214403885Y-102704810D01*
X214344620Y-102743901D01*
X214273628Y-102744746D01*
X214213450Y-102707075D01*
X214183191Y-102642850D01*
X214181686Y-102623679D01*
X214181610Y-102584007D01*
X214179710Y-101600000D01*
X225962318Y-101600000D01*
X225982956Y-101756762D01*
X226043464Y-101902841D01*
X226139718Y-102028282D01*
X226265159Y-102124536D01*
X226411238Y-102185044D01*
X226568000Y-102205682D01*
X226576188Y-102204604D01*
X226716574Y-102186122D01*
X226724762Y-102185044D01*
X226870841Y-102124536D01*
X226892391Y-102108000D01*
X247298318Y-102108000D01*
X247299396Y-102116188D01*
X247313791Y-102225526D01*
X247318956Y-102264762D01*
X247379464Y-102410841D01*
X247475718Y-102536282D01*
X247601159Y-102632536D01*
X247747238Y-102693044D01*
X247904000Y-102713682D01*
X247912188Y-102712604D01*
X248052574Y-102694122D01*
X248060762Y-102693044D01*
X248206841Y-102632536D01*
X248332282Y-102536282D01*
X248428536Y-102410841D01*
X248489044Y-102264762D01*
X248492963Y-102235000D01*
X253775318Y-102235000D01*
X253795956Y-102391762D01*
X253856464Y-102537841D01*
X253952718Y-102663282D01*
X254078159Y-102759536D01*
X254224238Y-102820044D01*
X254381000Y-102840682D01*
X254389188Y-102839604D01*
X254529574Y-102821122D01*
X254537762Y-102820044D01*
X254683841Y-102759536D01*
X254809282Y-102663282D01*
X254905536Y-102537841D01*
X254966044Y-102391762D01*
X254986682Y-102235000D01*
X254966044Y-102078238D01*
X254905536Y-101932159D01*
X254809282Y-101806718D01*
X254683841Y-101710464D01*
X254537762Y-101649956D01*
X254381000Y-101629318D01*
X254224238Y-101649956D01*
X254078159Y-101710464D01*
X253952718Y-101806718D01*
X253856464Y-101932159D01*
X253795956Y-102078238D01*
X253775318Y-102235000D01*
X248492963Y-102235000D01*
X248494210Y-102225526D01*
X248508604Y-102116188D01*
X248509682Y-102108000D01*
X248489044Y-101951238D01*
X248428536Y-101805159D01*
X248332282Y-101679718D01*
X248206841Y-101583464D01*
X248060762Y-101522956D01*
X247904000Y-101502318D01*
X247747238Y-101522956D01*
X247601159Y-101583464D01*
X247475718Y-101679718D01*
X247379464Y-101805159D01*
X247318956Y-101951238D01*
X247298318Y-102108000D01*
X226892391Y-102108000D01*
X226996282Y-102028282D01*
X227092536Y-101902841D01*
X227153044Y-101756762D01*
X227173682Y-101600000D01*
X227153044Y-101443238D01*
X227092536Y-101297159D01*
X226996282Y-101171718D01*
X226870841Y-101075464D01*
X226724762Y-101014956D01*
X226568000Y-100994318D01*
X226411238Y-101014956D01*
X226265159Y-101075464D01*
X226139718Y-101171718D01*
X226043464Y-101297159D01*
X225982956Y-101443238D01*
X225962318Y-101600000D01*
X214179710Y-101600000D01*
X214178505Y-100976000D01*
X249596534Y-100976000D01*
X249616313Y-101126236D01*
X249674302Y-101266233D01*
X249766549Y-101386451D01*
X249886767Y-101478698D01*
X250026764Y-101536687D01*
X250139280Y-101551500D01*
X251014720Y-101551500D01*
X251127236Y-101536687D01*
X251267233Y-101478698D01*
X251387451Y-101386451D01*
X251479698Y-101266233D01*
X251537687Y-101126236D01*
X251557466Y-100976000D01*
X251537687Y-100825764D01*
X251479698Y-100685767D01*
X251387451Y-100565549D01*
X251267233Y-100473302D01*
X251127236Y-100415313D01*
X251014720Y-100400500D01*
X250139280Y-100400500D01*
X250026764Y-100415313D01*
X249886767Y-100473302D01*
X249766549Y-100565549D01*
X249674302Y-100685767D01*
X249616313Y-100825764D01*
X249596534Y-100976000D01*
X214178505Y-100976000D01*
X214174425Y-98862496D01*
X249609937Y-98862496D01*
X249625732Y-99050590D01*
X249677760Y-99232034D01*
X249764040Y-99399917D01*
X249767865Y-99404743D01*
X249767867Y-99404746D01*
X249877456Y-99543014D01*
X249877460Y-99543019D01*
X249881285Y-99547844D01*
X250025030Y-99670180D01*
X250030408Y-99673186D01*
X250030410Y-99673187D01*
X250107415Y-99716223D01*
X250189800Y-99762267D01*
X250369317Y-99820595D01*
X250556745Y-99842945D01*
X250562880Y-99842473D01*
X250562882Y-99842473D01*
X250738803Y-99828937D01*
X250738807Y-99828936D01*
X250744945Y-99828464D01*
X250750877Y-99826808D01*
X250750881Y-99826807D01*
X250920804Y-99779363D01*
X250920808Y-99779362D01*
X250926748Y-99777703D01*
X251006297Y-99737520D01*
X251089728Y-99695377D01*
X251089730Y-99695376D01*
X251095229Y-99692598D01*
X251243970Y-99576388D01*
X251247996Y-99571724D01*
X251247999Y-99571721D01*
X251363278Y-99438169D01*
X251363279Y-99438167D01*
X251367307Y-99433501D01*
X251460542Y-99269378D01*
X251520123Y-99090272D01*
X251543780Y-98903005D01*
X251544157Y-98876000D01*
X251525738Y-98688145D01*
X251471181Y-98507445D01*
X251382566Y-98340783D01*
X251263266Y-98194508D01*
X251257475Y-98189717D01*
X251122577Y-98078120D01*
X251122574Y-98078118D01*
X251117827Y-98074191D01*
X251112407Y-98071261D01*
X251112402Y-98071257D01*
X250954052Y-97985638D01*
X250903643Y-97935643D01*
X250888265Y-97866332D01*
X250912801Y-97799710D01*
X250957170Y-97762336D01*
X251089728Y-97695377D01*
X251089730Y-97695376D01*
X251095229Y-97692598D01*
X251243970Y-97576388D01*
X251247996Y-97571724D01*
X251247999Y-97571721D01*
X251363278Y-97438169D01*
X251363279Y-97438167D01*
X251367307Y-97433501D01*
X251460542Y-97269378D01*
X251520123Y-97090272D01*
X251543780Y-96903005D01*
X251544157Y-96876000D01*
X251525738Y-96688145D01*
X251471181Y-96507445D01*
X251382566Y-96340783D01*
X251263266Y-96194508D01*
X251257475Y-96189717D01*
X251122577Y-96078120D01*
X251122574Y-96078118D01*
X251117827Y-96074191D01*
X251112407Y-96071261D01*
X251112402Y-96071257D01*
X250954052Y-95985638D01*
X250903643Y-95935643D01*
X250888265Y-95866332D01*
X250912801Y-95799710D01*
X250957170Y-95762336D01*
X251089728Y-95695377D01*
X251089730Y-95695376D01*
X251095229Y-95692598D01*
X251243970Y-95576388D01*
X251247996Y-95571724D01*
X251247999Y-95571721D01*
X251363278Y-95438169D01*
X251363279Y-95438167D01*
X251367307Y-95433501D01*
X251460542Y-95269378D01*
X251520123Y-95090272D01*
X251543780Y-94903005D01*
X251544157Y-94876000D01*
X251525738Y-94688145D01*
X251471181Y-94507445D01*
X251382566Y-94340783D01*
X251263266Y-94194508D01*
X251257475Y-94189717D01*
X251122577Y-94078120D01*
X251122574Y-94078118D01*
X251117827Y-94074191D01*
X250951788Y-93984414D01*
X250771474Y-93928597D01*
X250765356Y-93927954D01*
X250765351Y-93927953D01*
X250589881Y-93909511D01*
X250589879Y-93909511D01*
X250583752Y-93908867D01*
X250468125Y-93919390D01*
X250401914Y-93925415D01*
X250401913Y-93925415D01*
X250395773Y-93925974D01*
X250214697Y-93979268D01*
X250047420Y-94066718D01*
X249900316Y-94184993D01*
X249778986Y-94329588D01*
X249688052Y-94494996D01*
X249630978Y-94674917D01*
X249630292Y-94681036D01*
X249630291Y-94681039D01*
X249614511Y-94821718D01*
X249609937Y-94862496D01*
X249625732Y-95050590D01*
X249627431Y-95056515D01*
X249671095Y-95208789D01*
X249677760Y-95232034D01*
X249764040Y-95399917D01*
X249767865Y-95404743D01*
X249767867Y-95404746D01*
X249877456Y-95543014D01*
X249877460Y-95543019D01*
X249881285Y-95547844D01*
X250025030Y-95670180D01*
X250030408Y-95673186D01*
X250030410Y-95673187D01*
X250070115Y-95695377D01*
X250189800Y-95762267D01*
X250190596Y-95762526D01*
X250243597Y-95806946D01*
X250264717Y-95874728D01*
X250245838Y-95943169D01*
X250197110Y-95988462D01*
X250047420Y-96066718D01*
X249900316Y-96184993D01*
X249778986Y-96329588D01*
X249688052Y-96494996D01*
X249630978Y-96674917D01*
X249609937Y-96862496D01*
X249610453Y-96868639D01*
X249622869Y-97016491D01*
X249625732Y-97050590D01*
X249677760Y-97232034D01*
X249693944Y-97263525D01*
X249757621Y-97387426D01*
X249764040Y-97399917D01*
X249767865Y-97404743D01*
X249767867Y-97404746D01*
X249877456Y-97543014D01*
X249877460Y-97543019D01*
X249881285Y-97547844D01*
X250025030Y-97670180D01*
X250030408Y-97673186D01*
X250030410Y-97673187D01*
X250070115Y-97695377D01*
X250189800Y-97762267D01*
X250190596Y-97762526D01*
X250243597Y-97806946D01*
X250264717Y-97874728D01*
X250245838Y-97943169D01*
X250197109Y-97988463D01*
X250053201Y-98063696D01*
X250047420Y-98066718D01*
X249900316Y-98184993D01*
X249778986Y-98329588D01*
X249688052Y-98494996D01*
X249630978Y-98674917D01*
X249609937Y-98862496D01*
X214174425Y-98862496D01*
X214171865Y-97536000D01*
X215421318Y-97536000D01*
X215441956Y-97692762D01*
X215502464Y-97838841D01*
X215598718Y-97964282D01*
X215724159Y-98060536D01*
X215870238Y-98121044D01*
X216027000Y-98141682D01*
X216035188Y-98140604D01*
X216175574Y-98122122D01*
X216183762Y-98121044D01*
X216329841Y-98060536D01*
X216455282Y-97964282D01*
X216551536Y-97838841D01*
X216612044Y-97692762D01*
X216632682Y-97536000D01*
X219485318Y-97536000D01*
X219505956Y-97692762D01*
X219566464Y-97838841D01*
X219662718Y-97964282D01*
X219788159Y-98060536D01*
X219934238Y-98121044D01*
X220091000Y-98141682D01*
X220099188Y-98140604D01*
X220239574Y-98122122D01*
X220247762Y-98121044D01*
X220393841Y-98060536D01*
X220519282Y-97964282D01*
X220615536Y-97838841D01*
X220676044Y-97692762D01*
X220696682Y-97536000D01*
X220676044Y-97379238D01*
X220615536Y-97233159D01*
X220519282Y-97107718D01*
X220393841Y-97011464D01*
X220247762Y-96950956D01*
X220091000Y-96930318D01*
X219934238Y-96950956D01*
X219788159Y-97011464D01*
X219662718Y-97107718D01*
X219566464Y-97233159D01*
X219505956Y-97379238D01*
X219485318Y-97536000D01*
X216632682Y-97536000D01*
X216612044Y-97379238D01*
X216551536Y-97233159D01*
X216455282Y-97107718D01*
X216329841Y-97011464D01*
X216183762Y-96950956D01*
X216027000Y-96930318D01*
X215870238Y-96950956D01*
X215724159Y-97011464D01*
X215598718Y-97107718D01*
X215502464Y-97233159D01*
X215441956Y-97379238D01*
X215421318Y-97536000D01*
X214171865Y-97536000D01*
X214167942Y-95504000D01*
X232312318Y-95504000D01*
X232332956Y-95660762D01*
X232393464Y-95806841D01*
X232489718Y-95932282D01*
X232615159Y-96028536D01*
X232761238Y-96089044D01*
X232918000Y-96109682D01*
X232926188Y-96108604D01*
X233066574Y-96090122D01*
X233074762Y-96089044D01*
X233220841Y-96028536D01*
X233346282Y-95932282D01*
X233442536Y-95806841D01*
X233503044Y-95660762D01*
X233523682Y-95504000D01*
X233503044Y-95347238D01*
X233462767Y-95250000D01*
X236884318Y-95250000D01*
X236885396Y-95258188D01*
X236903334Y-95394438D01*
X236904956Y-95406762D01*
X236965464Y-95552841D01*
X237061718Y-95678282D01*
X237068264Y-95683305D01*
X237080375Y-95692598D01*
X237187159Y-95774536D01*
X237265150Y-95806841D01*
X237317353Y-95828464D01*
X237333238Y-95835044D01*
X237490000Y-95855682D01*
X237498188Y-95854604D01*
X237638574Y-95836122D01*
X237646762Y-95835044D01*
X237662648Y-95828464D01*
X237714850Y-95806841D01*
X237792841Y-95774536D01*
X237899625Y-95692598D01*
X237911736Y-95683305D01*
X237918282Y-95678282D01*
X238014536Y-95552841D01*
X238075044Y-95406762D01*
X238076667Y-95394438D01*
X238094604Y-95258188D01*
X238095682Y-95250000D01*
X238075044Y-95093238D01*
X238014536Y-94947159D01*
X237918282Y-94821718D01*
X237792841Y-94725464D01*
X237665053Y-94672532D01*
X237654391Y-94668116D01*
X237646762Y-94664956D01*
X237490000Y-94644318D01*
X237333238Y-94664956D01*
X237325609Y-94668116D01*
X237314947Y-94672532D01*
X237187159Y-94725464D01*
X237061718Y-94821718D01*
X236965464Y-94947159D01*
X236904956Y-95093238D01*
X236884318Y-95250000D01*
X233462767Y-95250000D01*
X233442536Y-95201159D01*
X233346282Y-95075718D01*
X233220841Y-94979464D01*
X233074762Y-94918956D01*
X232918000Y-94898318D01*
X232761238Y-94918956D01*
X232615159Y-94979464D01*
X232489718Y-95075718D01*
X232393464Y-95201159D01*
X232332956Y-95347238D01*
X232312318Y-95504000D01*
X214167942Y-95504000D01*
X214163529Y-93218000D01*
X222406318Y-93218000D01*
X222407396Y-93226188D01*
X222423894Y-93351500D01*
X222426956Y-93374762D01*
X222487464Y-93520841D01*
X222583718Y-93646282D01*
X222709159Y-93742536D01*
X222855238Y-93803044D01*
X223012000Y-93823682D01*
X223020188Y-93822604D01*
X223160574Y-93804122D01*
X223168762Y-93803044D01*
X223314841Y-93742536D01*
X223440282Y-93646282D01*
X223536536Y-93520841D01*
X223597044Y-93374762D01*
X223600107Y-93351500D01*
X223616604Y-93226188D01*
X223617682Y-93218000D01*
X223597044Y-93061238D01*
X223536536Y-92915159D01*
X223440282Y-92789718D01*
X223314841Y-92693464D01*
X223168762Y-92632956D01*
X223012000Y-92612318D01*
X222855238Y-92632956D01*
X222709159Y-92693464D01*
X222583718Y-92789718D01*
X222487464Y-92915159D01*
X222426956Y-93061238D01*
X222406318Y-93218000D01*
X214163529Y-93218000D01*
X214162697Y-92787044D01*
X214162066Y-92459965D01*
X230469599Y-92459965D01*
X230490237Y-92616727D01*
X230550745Y-92762806D01*
X230646999Y-92888247D01*
X230772440Y-92984501D01*
X230918519Y-93045009D01*
X231075281Y-93065647D01*
X231083469Y-93064569D01*
X231223855Y-93046087D01*
X231232043Y-93045009D01*
X231378122Y-92984501D01*
X231503563Y-92888247D01*
X231599817Y-92762806D01*
X231660325Y-92616727D01*
X231664765Y-92583000D01*
X234090318Y-92583000D01*
X234110956Y-92739762D01*
X234171464Y-92885841D01*
X234267718Y-93011282D01*
X234393159Y-93107536D01*
X234539238Y-93168044D01*
X234696000Y-93188682D01*
X234704188Y-93187604D01*
X234844574Y-93169122D01*
X234852762Y-93168044D01*
X234998841Y-93107536D01*
X235124282Y-93011282D01*
X235220536Y-92885841D01*
X235281044Y-92739762D01*
X235301682Y-92583000D01*
X235281044Y-92426238D01*
X235220536Y-92280159D01*
X235160563Y-92202000D01*
X238154318Y-92202000D01*
X238174956Y-92358762D01*
X238235464Y-92504841D01*
X238331718Y-92630282D01*
X238457159Y-92726536D01*
X238603238Y-92787044D01*
X238760000Y-92807682D01*
X238768188Y-92806604D01*
X238908574Y-92788122D01*
X238916762Y-92787044D01*
X238943425Y-92776000D01*
X249596534Y-92776000D01*
X249616313Y-92926236D01*
X249674302Y-93066233D01*
X249766549Y-93186451D01*
X249886767Y-93278698D01*
X250026764Y-93336687D01*
X250139280Y-93351500D01*
X251014720Y-93351500D01*
X251127236Y-93336687D01*
X251267233Y-93278698D01*
X251387451Y-93186451D01*
X251479698Y-93066233D01*
X251537687Y-92926236D01*
X251557466Y-92776000D01*
X251537687Y-92625764D01*
X251479698Y-92485767D01*
X251387451Y-92365549D01*
X251267233Y-92273302D01*
X251127236Y-92215313D01*
X251014720Y-92200500D01*
X250139280Y-92200500D01*
X250026764Y-92215313D01*
X249886767Y-92273302D01*
X249766549Y-92365549D01*
X249674302Y-92485767D01*
X249616313Y-92625764D01*
X249596534Y-92776000D01*
X238943425Y-92776000D01*
X239062841Y-92726536D01*
X239188282Y-92630282D01*
X239284536Y-92504841D01*
X239345044Y-92358762D01*
X239365682Y-92202000D01*
X239345044Y-92045238D01*
X239284536Y-91899159D01*
X239188282Y-91773718D01*
X239062841Y-91677464D01*
X238916762Y-91616956D01*
X238760000Y-91596318D01*
X238603238Y-91616956D01*
X238457159Y-91677464D01*
X238331718Y-91773718D01*
X238235464Y-91899159D01*
X238174956Y-92045238D01*
X238154318Y-92202000D01*
X235160563Y-92202000D01*
X235124282Y-92154718D01*
X234998841Y-92058464D01*
X234852762Y-91997956D01*
X234696000Y-91977318D01*
X234539238Y-91997956D01*
X234393159Y-92058464D01*
X234267718Y-92154718D01*
X234171464Y-92280159D01*
X234110956Y-92426238D01*
X234090318Y-92583000D01*
X231664765Y-92583000D01*
X231680963Y-92459965D01*
X231660325Y-92303203D01*
X231599817Y-92157124D01*
X231503563Y-92031683D01*
X231378122Y-91935429D01*
X231232043Y-91874921D01*
X231075281Y-91854283D01*
X230918519Y-91874921D01*
X230772440Y-91935429D01*
X230646999Y-92031683D01*
X230550745Y-92157124D01*
X230490237Y-92303203D01*
X230469599Y-92459965D01*
X214162066Y-92459965D01*
X214157890Y-90297000D01*
X239551318Y-90297000D01*
X239571956Y-90453762D01*
X239632464Y-90599841D01*
X239728718Y-90725282D01*
X239849529Y-90817983D01*
X239891395Y-90875320D01*
X239895617Y-90946191D01*
X239861919Y-91007040D01*
X239857965Y-91010994D01*
X239851419Y-91016017D01*
X239755165Y-91141458D01*
X239694657Y-91287537D01*
X239674019Y-91444299D01*
X239694657Y-91601061D01*
X239755165Y-91747140D01*
X239851419Y-91872581D01*
X239976860Y-91968835D01*
X240122939Y-92029343D01*
X240279701Y-92049981D01*
X240287889Y-92048903D01*
X240428275Y-92030421D01*
X240436463Y-92029343D01*
X240582542Y-91968835D01*
X240707983Y-91872581D01*
X240804237Y-91747140D01*
X240864745Y-91601061D01*
X240885383Y-91444299D01*
X240864745Y-91287537D01*
X240804237Y-91141458D01*
X240707983Y-91016017D01*
X240587172Y-90923316D01*
X240545306Y-90865979D01*
X240541084Y-90795108D01*
X240574782Y-90734259D01*
X240578737Y-90730304D01*
X240585282Y-90725282D01*
X240681536Y-90599841D01*
X240727518Y-90488830D01*
X248621124Y-90488830D01*
X248631444Y-90652860D01*
X248682232Y-90809171D01*
X248770298Y-90947940D01*
X248776077Y-90953367D01*
X248776078Y-90953368D01*
X248867112Y-91038854D01*
X248890107Y-91060448D01*
X248897051Y-91064265D01*
X248897053Y-91064267D01*
X248961886Y-91099909D01*
X249034132Y-91139627D01*
X249041804Y-91141597D01*
X249041807Y-91141598D01*
X249185645Y-91178529D01*
X249185648Y-91178529D01*
X249193323Y-91180500D01*
X250416425Y-91180500D01*
X250474190Y-91173203D01*
X250530693Y-91166065D01*
X250530696Y-91166064D01*
X250538558Y-91165071D01*
X250545925Y-91162154D01*
X250545926Y-91162154D01*
X250597844Y-91141598D01*
X250691371Y-91104568D01*
X250824337Y-91007963D01*
X250929100Y-90881326D01*
X250999079Y-90732613D01*
X251000564Y-90724830D01*
X251000565Y-90724826D01*
X251028391Y-90578956D01*
X251028391Y-90578954D01*
X251029876Y-90571170D01*
X251024696Y-90488830D01*
X252941124Y-90488830D01*
X252951444Y-90652860D01*
X253002232Y-90809171D01*
X253090298Y-90947940D01*
X253096077Y-90953367D01*
X253096078Y-90953368D01*
X253187112Y-91038854D01*
X253210107Y-91060448D01*
X253217051Y-91064265D01*
X253217053Y-91064267D01*
X253281886Y-91099909D01*
X253354132Y-91139627D01*
X253361804Y-91141597D01*
X253361807Y-91141598D01*
X253505645Y-91178529D01*
X253505648Y-91178529D01*
X253513323Y-91180500D01*
X254436425Y-91180500D01*
X254494190Y-91173203D01*
X254550693Y-91166065D01*
X254550696Y-91166064D01*
X254558558Y-91165071D01*
X254565925Y-91162154D01*
X254565926Y-91162154D01*
X254617844Y-91141598D01*
X254711371Y-91104568D01*
X254844337Y-91007963D01*
X254949100Y-90881326D01*
X255019079Y-90732613D01*
X255020564Y-90724830D01*
X255020565Y-90724826D01*
X255048391Y-90578956D01*
X255048391Y-90578954D01*
X255049876Y-90571170D01*
X255039556Y-90407140D01*
X254988768Y-90250829D01*
X254900702Y-90112060D01*
X254780893Y-89999552D01*
X254773949Y-89995735D01*
X254773947Y-89995733D01*
X254695334Y-89952515D01*
X254636868Y-89920373D01*
X254629196Y-89918403D01*
X254629193Y-89918402D01*
X254485355Y-89881471D01*
X254485352Y-89881471D01*
X254477677Y-89879500D01*
X253554575Y-89879500D01*
X253496810Y-89886797D01*
X253440307Y-89893935D01*
X253440304Y-89893936D01*
X253432442Y-89894929D01*
X253425075Y-89897846D01*
X253425074Y-89897846D01*
X253390367Y-89911588D01*
X253279629Y-89955432D01*
X253273218Y-89960090D01*
X253273216Y-89960091D01*
X253224159Y-89995733D01*
X253146663Y-90052037D01*
X253041900Y-90178674D01*
X252971921Y-90327387D01*
X252970436Y-90335170D01*
X252970435Y-90335174D01*
X252946358Y-90461391D01*
X252941124Y-90488830D01*
X251024696Y-90488830D01*
X251019556Y-90407140D01*
X250968768Y-90250829D01*
X250880702Y-90112060D01*
X250760893Y-89999552D01*
X250753949Y-89995735D01*
X250753947Y-89995733D01*
X250675334Y-89952515D01*
X250616868Y-89920373D01*
X250609196Y-89918403D01*
X250609193Y-89918402D01*
X250465355Y-89881471D01*
X250465352Y-89881471D01*
X250457677Y-89879500D01*
X249234575Y-89879500D01*
X249176810Y-89886797D01*
X249120307Y-89893935D01*
X249120304Y-89893936D01*
X249112442Y-89894929D01*
X249105075Y-89897846D01*
X249105074Y-89897846D01*
X249070367Y-89911588D01*
X248959629Y-89955432D01*
X248953218Y-89960090D01*
X248953216Y-89960091D01*
X248904159Y-89995733D01*
X248826663Y-90052037D01*
X248721900Y-90178674D01*
X248651921Y-90327387D01*
X248650436Y-90335170D01*
X248650435Y-90335174D01*
X248626358Y-90461391D01*
X248621124Y-90488830D01*
X240727518Y-90488830D01*
X240742044Y-90453762D01*
X240762682Y-90297000D01*
X240742044Y-90140238D01*
X240681536Y-89994159D01*
X240585282Y-89868718D01*
X240585387Y-89868638D01*
X240553415Y-89810088D01*
X240558480Y-89739273D01*
X240599833Y-89683342D01*
X240642233Y-89650808D01*
X240642236Y-89650805D01*
X240648782Y-89645782D01*
X240745036Y-89520341D01*
X240805544Y-89374262D01*
X240826182Y-89217500D01*
X240805544Y-89060738D01*
X240745036Y-88914659D01*
X240648782Y-88789218D01*
X240523341Y-88692964D01*
X240390646Y-88638000D01*
X250084318Y-88638000D01*
X250104956Y-88794762D01*
X250165464Y-88940841D01*
X250261718Y-89066282D01*
X250387159Y-89162536D01*
X250533238Y-89223044D01*
X250690000Y-89243682D01*
X250698188Y-89242604D01*
X250838574Y-89224122D01*
X250846762Y-89223044D01*
X250992841Y-89162536D01*
X251118282Y-89066282D01*
X251214536Y-88940841D01*
X251275044Y-88794762D01*
X251295682Y-88638000D01*
X251295012Y-88632911D01*
X251314606Y-88566180D01*
X251331509Y-88545206D01*
X251672159Y-88204556D01*
X251672162Y-88204552D01*
X251694022Y-88182692D01*
X251698521Y-88173862D01*
X251698524Y-88173858D01*
X251703556Y-88163981D01*
X251713887Y-88147122D01*
X251720401Y-88138157D01*
X251720403Y-88138154D01*
X251726230Y-88130133D01*
X251732114Y-88112023D01*
X251732718Y-88110164D01*
X251740286Y-88091894D01*
X251745319Y-88082016D01*
X251745320Y-88082014D01*
X251749820Y-88073182D01*
X251751371Y-88063392D01*
X251751372Y-88063388D01*
X251753108Y-88052430D01*
X251757721Y-88033215D01*
X251764210Y-88013242D01*
X251764210Y-87982328D01*
X251764211Y-87982322D01*
X251764211Y-83893300D01*
X251784213Y-83825179D01*
X251799556Y-83806140D01*
X251804493Y-83802352D01*
X251900747Y-83676911D01*
X251961255Y-83530832D01*
X251981893Y-83374070D01*
X251961255Y-83217308D01*
X251900747Y-83071229D01*
X251804493Y-82945788D01*
X251679052Y-82849534D01*
X251532973Y-82789026D01*
X251376211Y-82768388D01*
X251219449Y-82789026D01*
X251073370Y-82849534D01*
X250947929Y-82945788D01*
X250851675Y-83071229D01*
X250791167Y-83217308D01*
X250770529Y-83374070D01*
X250791167Y-83530832D01*
X250851675Y-83676911D01*
X250947929Y-83802352D01*
X250951999Y-83805475D01*
X250985331Y-83866512D01*
X250988211Y-83893300D01*
X250988211Y-87738884D01*
X250968209Y-87807005D01*
X250951306Y-87827979D01*
X250782794Y-87996491D01*
X250720482Y-88030517D01*
X250696171Y-88033130D01*
X250690000Y-88032318D01*
X250533238Y-88052956D01*
X250387159Y-88113464D01*
X250343295Y-88147122D01*
X250282995Y-88193392D01*
X250261718Y-88209718D01*
X250165464Y-88335159D01*
X250104956Y-88481238D01*
X250084318Y-88638000D01*
X240390646Y-88638000D01*
X240377262Y-88632456D01*
X240220500Y-88611818D01*
X240063738Y-88632456D01*
X239917659Y-88692964D01*
X239792218Y-88789218D01*
X239695964Y-88914659D01*
X239635456Y-89060738D01*
X239614818Y-89217500D01*
X239635456Y-89374262D01*
X239695964Y-89520341D01*
X239791703Y-89645110D01*
X239791703Y-89645111D01*
X239792218Y-89645782D01*
X239792113Y-89645862D01*
X239824085Y-89704412D01*
X239819020Y-89775227D01*
X239777667Y-89831158D01*
X239735267Y-89863692D01*
X239735264Y-89863695D01*
X239728718Y-89868718D01*
X239632464Y-89994159D01*
X239571956Y-90140238D01*
X239551318Y-90297000D01*
X214157890Y-90297000D01*
X214152940Y-87732748D01*
X218913500Y-87732748D01*
X218925133Y-87791231D01*
X218969448Y-87857552D01*
X219035769Y-87901867D01*
X219047938Y-87904288D01*
X219047939Y-87904288D01*
X219088184Y-87912293D01*
X219094252Y-87913500D01*
X220833748Y-87913500D01*
X220839816Y-87912293D01*
X220880061Y-87904288D01*
X220880062Y-87904288D01*
X220892231Y-87901867D01*
X220958552Y-87857552D01*
X221002867Y-87791231D01*
X221014500Y-87732748D01*
X221014500Y-86900428D01*
X221023298Y-86870466D01*
X221019958Y-86863376D01*
X221260397Y-86863376D01*
X221261396Y-86864930D01*
X221265422Y-86883982D01*
X221279799Y-86993187D01*
X221283956Y-87024762D01*
X221344464Y-87170841D01*
X221349491Y-87177392D01*
X221428386Y-87280210D01*
X221440718Y-87296282D01*
X221566159Y-87392536D01*
X221712238Y-87453044D01*
X221869000Y-87473682D01*
X221877188Y-87472604D01*
X222017574Y-87454122D01*
X222025762Y-87453044D01*
X222171841Y-87392536D01*
X222297282Y-87296282D01*
X222303332Y-87288398D01*
X231804318Y-87288398D01*
X231824956Y-87445160D01*
X231885464Y-87591239D01*
X231981718Y-87716680D01*
X232107159Y-87812934D01*
X232253238Y-87873442D01*
X232410000Y-87894080D01*
X232418188Y-87893002D01*
X232558574Y-87874520D01*
X232566762Y-87873442D01*
X232712841Y-87812934D01*
X232838282Y-87716680D01*
X232934536Y-87591239D01*
X232973232Y-87497819D01*
X233017781Y-87442538D01*
X233085144Y-87420117D01*
X233153935Y-87437675D01*
X233189603Y-87469332D01*
X233251718Y-87550282D01*
X233377159Y-87646536D01*
X233523238Y-87707044D01*
X233680000Y-87727682D01*
X233688188Y-87726604D01*
X233828574Y-87708122D01*
X233836762Y-87707044D01*
X233982841Y-87646536D01*
X234108282Y-87550282D01*
X234204536Y-87424841D01*
X234265044Y-87278762D01*
X234285682Y-87122000D01*
X234265044Y-86965238D01*
X234204536Y-86819159D01*
X234144563Y-86741000D01*
X235741318Y-86741000D01*
X235761956Y-86897762D01*
X235822464Y-87043841D01*
X235918718Y-87169282D01*
X236044159Y-87265536D01*
X236190238Y-87326044D01*
X236347000Y-87346682D01*
X236368427Y-87343861D01*
X236438575Y-87354800D01*
X236491674Y-87401928D01*
X236510864Y-87470282D01*
X236490053Y-87538160D01*
X236484836Y-87545487D01*
X236457464Y-87581159D01*
X236396956Y-87727238D01*
X236376318Y-87884000D01*
X236396956Y-88040762D01*
X236457464Y-88186841D01*
X236553718Y-88312282D01*
X236560264Y-88317305D01*
X236583532Y-88335159D01*
X236679159Y-88408536D01*
X236825238Y-88469044D01*
X236982000Y-88489682D01*
X236990188Y-88488604D01*
X237130574Y-88470122D01*
X237138762Y-88469044D01*
X237284841Y-88408536D01*
X237380468Y-88335159D01*
X237403736Y-88317305D01*
X237410282Y-88312282D01*
X237506536Y-88186841D01*
X237567044Y-88040762D01*
X237587682Y-87884000D01*
X237567044Y-87727238D01*
X237506536Y-87581159D01*
X237410282Y-87455718D01*
X237393106Y-87442538D01*
X237340181Y-87401928D01*
X237284841Y-87359464D01*
X237138762Y-87298956D01*
X236982000Y-87278318D01*
X236960573Y-87281139D01*
X236890425Y-87270200D01*
X236837326Y-87223072D01*
X236818136Y-87154718D01*
X236838947Y-87086840D01*
X236844164Y-87079513D01*
X236866509Y-87050392D01*
X236871536Y-87043841D01*
X236932044Y-86897762D01*
X236952682Y-86741000D01*
X236932044Y-86584238D01*
X236871536Y-86438159D01*
X236775282Y-86312718D01*
X236649841Y-86216464D01*
X236503762Y-86155956D01*
X236347000Y-86135318D01*
X236190238Y-86155956D01*
X236044159Y-86216464D01*
X235918718Y-86312718D01*
X235822464Y-86438159D01*
X235761956Y-86584238D01*
X235741318Y-86741000D01*
X234144563Y-86741000D01*
X234108282Y-86693718D01*
X233982841Y-86597464D01*
X233836762Y-86536956D01*
X233680000Y-86516318D01*
X233523238Y-86536956D01*
X233377159Y-86597464D01*
X233251718Y-86693718D01*
X233155464Y-86819159D01*
X233134212Y-86870466D01*
X233116768Y-86912579D01*
X233072219Y-86967860D01*
X233004856Y-86990281D01*
X232936065Y-86972723D01*
X232900396Y-86941065D01*
X232843305Y-86866662D01*
X232838282Y-86860116D01*
X232827729Y-86852018D01*
X232719392Y-86768889D01*
X232712841Y-86763862D01*
X232566762Y-86703354D01*
X232410000Y-86682716D01*
X232253238Y-86703354D01*
X232107159Y-86763862D01*
X232100608Y-86768889D01*
X231992272Y-86852018D01*
X231981718Y-86860116D01*
X231976695Y-86866662D01*
X231963405Y-86883982D01*
X231885464Y-86985557D01*
X231824956Y-87131636D01*
X231804318Y-87288398D01*
X222303332Y-87288398D01*
X222309615Y-87280210D01*
X222388509Y-87177392D01*
X222393536Y-87170841D01*
X222454044Y-87024762D01*
X222458584Y-86990281D01*
X222473604Y-86876188D01*
X222474682Y-86868000D01*
X222454044Y-86711238D01*
X222393536Y-86565159D01*
X222297282Y-86439718D01*
X222171841Y-86343464D01*
X222025762Y-86282956D01*
X221869000Y-86262318D01*
X221712238Y-86282956D01*
X221566159Y-86343464D01*
X221440718Y-86439718D01*
X221344464Y-86565159D01*
X221283956Y-86711238D01*
X221282878Y-86719426D01*
X221265422Y-86852018D01*
X221260397Y-86863376D01*
X221019958Y-86863376D01*
X221016005Y-86854987D01*
X221014500Y-86835572D01*
X221014500Y-85993252D01*
X221002867Y-85934769D01*
X220958552Y-85868448D01*
X220892231Y-85824133D01*
X220880062Y-85821712D01*
X220880061Y-85821712D01*
X220839816Y-85813707D01*
X220833748Y-85812500D01*
X219094252Y-85812500D01*
X219088184Y-85813707D01*
X219047939Y-85821712D01*
X219047938Y-85821712D01*
X219035769Y-85824133D01*
X218969448Y-85868448D01*
X218925133Y-85934769D01*
X218913500Y-85993252D01*
X218913500Y-87732748D01*
X214152940Y-87732748D01*
X214146329Y-84308262D01*
X218908520Y-84308262D01*
X218925759Y-84513553D01*
X218982544Y-84711586D01*
X218985359Y-84717063D01*
X218985360Y-84717066D01*
X219073897Y-84889341D01*
X219076712Y-84894818D01*
X219204677Y-85056270D01*
X219361564Y-85189791D01*
X219541398Y-85290297D01*
X219636238Y-85321113D01*
X219731471Y-85352056D01*
X219731475Y-85352057D01*
X219737329Y-85353959D01*
X219941894Y-85378351D01*
X219948029Y-85377879D01*
X219948031Y-85377879D01*
X220004039Y-85373569D01*
X220147300Y-85362546D01*
X220153230Y-85360890D01*
X220153232Y-85360890D01*
X220339797Y-85308800D01*
X220339796Y-85308800D01*
X220345725Y-85307145D01*
X220351214Y-85304372D01*
X220351220Y-85304370D01*
X220524116Y-85217033D01*
X220529610Y-85214258D01*
X220590042Y-85167044D01*
X220663444Y-85109696D01*
X220691951Y-85087424D01*
X220826564Y-84931472D01*
X220847387Y-84894818D01*
X220925276Y-84757707D01*
X220928323Y-84752344D01*
X220984989Y-84582000D01*
X221390318Y-84582000D01*
X221410956Y-84738762D01*
X221471464Y-84884841D01*
X221567718Y-85010282D01*
X221693159Y-85106536D01*
X221839238Y-85167044D01*
X221996000Y-85187682D01*
X222004188Y-85186604D01*
X222144574Y-85168122D01*
X222152762Y-85167044D01*
X222298841Y-85106536D01*
X222424282Y-85010282D01*
X222520536Y-84884841D01*
X222581044Y-84738762D01*
X222601682Y-84582000D01*
X222581044Y-84425238D01*
X222520536Y-84279159D01*
X222424282Y-84153718D01*
X222298841Y-84057464D01*
X222152762Y-83996956D01*
X221996000Y-83976318D01*
X221839238Y-83996956D01*
X221693159Y-84057464D01*
X221567718Y-84153718D01*
X221471464Y-84279159D01*
X221410956Y-84425238D01*
X221390318Y-84582000D01*
X220984989Y-84582000D01*
X220993351Y-84556863D01*
X221019171Y-84352474D01*
X221019583Y-84323000D01*
X220999480Y-84117970D01*
X220939935Y-83920749D01*
X220843218Y-83738849D01*
X220769859Y-83648902D01*
X220716906Y-83583975D01*
X220716903Y-83583972D01*
X220713011Y-83579200D01*
X220695786Y-83564950D01*
X220559025Y-83451811D01*
X220559021Y-83451809D01*
X220554275Y-83447882D01*
X220373055Y-83349897D01*
X220176254Y-83288977D01*
X220170129Y-83288333D01*
X220170128Y-83288333D01*
X219977498Y-83268087D01*
X219977496Y-83268087D01*
X219971369Y-83267443D01*
X219884529Y-83275346D01*
X219772342Y-83285555D01*
X219772339Y-83285556D01*
X219766203Y-83286114D01*
X219568572Y-83344280D01*
X219386002Y-83439726D01*
X219381201Y-83443586D01*
X219381198Y-83443588D01*
X219263200Y-83538461D01*
X219225447Y-83568815D01*
X219093024Y-83726630D01*
X219090056Y-83732028D01*
X219090053Y-83732033D01*
X219050379Y-83804201D01*
X218993776Y-83907162D01*
X218931484Y-84103532D01*
X218930798Y-84109649D01*
X218930797Y-84109653D01*
X218912519Y-84272608D01*
X218908520Y-84308262D01*
X214146329Y-84308262D01*
X214143425Y-82804000D01*
X216818318Y-82804000D01*
X216838956Y-82960762D01*
X216899464Y-83106841D01*
X216995718Y-83232282D01*
X217121159Y-83328536D01*
X217267238Y-83389044D01*
X217424000Y-83409682D01*
X217432188Y-83408604D01*
X217572574Y-83390122D01*
X217580762Y-83389044D01*
X217726841Y-83328536D01*
X217852282Y-83232282D01*
X217948536Y-83106841D01*
X218009044Y-82960762D01*
X218029682Y-82804000D01*
X218009044Y-82647238D01*
X217948536Y-82501159D01*
X217852282Y-82375718D01*
X217726841Y-82279464D01*
X217580762Y-82218956D01*
X217424000Y-82198318D01*
X217267238Y-82218956D01*
X217121159Y-82279464D01*
X216995718Y-82375718D01*
X216899464Y-82501159D01*
X216838956Y-82647238D01*
X216818318Y-82804000D01*
X214143425Y-82804000D01*
X214141426Y-81768262D01*
X218908520Y-81768262D01*
X218925759Y-81973553D01*
X218927458Y-81979478D01*
X218954799Y-82074826D01*
X218982544Y-82171586D01*
X218985359Y-82177063D01*
X218985360Y-82177066D01*
X219047481Y-82297940D01*
X219076712Y-82354818D01*
X219204677Y-82516270D01*
X219361564Y-82649791D01*
X219366942Y-82652797D01*
X219366944Y-82652798D01*
X219398563Y-82670469D01*
X219541398Y-82750297D01*
X219600394Y-82769466D01*
X219731471Y-82812056D01*
X219731475Y-82812057D01*
X219737329Y-82813959D01*
X219941894Y-82838351D01*
X219948029Y-82837879D01*
X219948031Y-82837879D01*
X220004039Y-82833569D01*
X220147300Y-82822546D01*
X220153230Y-82820890D01*
X220153232Y-82820890D01*
X220339797Y-82768800D01*
X220339796Y-82768800D01*
X220345725Y-82767145D01*
X220351214Y-82764372D01*
X220351220Y-82764370D01*
X220524116Y-82677033D01*
X220529610Y-82674258D01*
X220691951Y-82547424D01*
X220706560Y-82530500D01*
X220822540Y-82396134D01*
X220822540Y-82396133D01*
X220826564Y-82391472D01*
X220847387Y-82354818D01*
X220879698Y-82297940D01*
X220928323Y-82212344D01*
X220993351Y-82016863D01*
X221015842Y-81838830D01*
X248621124Y-81838830D01*
X248631444Y-82002860D01*
X248633893Y-82010396D01*
X248633893Y-82010398D01*
X248635994Y-82016863D01*
X248682232Y-82159171D01*
X248770298Y-82297940D01*
X248776077Y-82303367D01*
X248776078Y-82303368D01*
X248827711Y-82351854D01*
X248890107Y-82410448D01*
X248897051Y-82414265D01*
X248897053Y-82414267D01*
X248961886Y-82449909D01*
X249034132Y-82489627D01*
X249041804Y-82491597D01*
X249041807Y-82491598D01*
X249185645Y-82528529D01*
X249185648Y-82528529D01*
X249193323Y-82530500D01*
X250416425Y-82530500D01*
X250474190Y-82523203D01*
X250530693Y-82516065D01*
X250530696Y-82516064D01*
X250538558Y-82515071D01*
X250545925Y-82512154D01*
X250545926Y-82512154D01*
X250580633Y-82498412D01*
X250691371Y-82454568D01*
X250824337Y-82357963D01*
X250929100Y-82231326D01*
X250940787Y-82206491D01*
X250957211Y-82171586D01*
X250999079Y-82082613D01*
X251000564Y-82074830D01*
X251000565Y-82074826D01*
X251028391Y-81928956D01*
X251028391Y-81928954D01*
X251029876Y-81921170D01*
X251024696Y-81838830D01*
X252941124Y-81838830D01*
X252951444Y-82002860D01*
X252953893Y-82010396D01*
X252953893Y-82010398D01*
X252955994Y-82016863D01*
X253002232Y-82159171D01*
X253090298Y-82297940D01*
X253096077Y-82303367D01*
X253096078Y-82303368D01*
X253147711Y-82351854D01*
X253210107Y-82410448D01*
X253217051Y-82414265D01*
X253217053Y-82414267D01*
X253281886Y-82449909D01*
X253354132Y-82489627D01*
X253361804Y-82491597D01*
X253361807Y-82491598D01*
X253505645Y-82528529D01*
X253505648Y-82528529D01*
X253513323Y-82530500D01*
X254436425Y-82530500D01*
X254494190Y-82523203D01*
X254550693Y-82516065D01*
X254550696Y-82516064D01*
X254558558Y-82515071D01*
X254565925Y-82512154D01*
X254565926Y-82512154D01*
X254600633Y-82498412D01*
X254711371Y-82454568D01*
X254844337Y-82357963D01*
X254949100Y-82231326D01*
X254960787Y-82206491D01*
X254977211Y-82171586D01*
X255019079Y-82082613D01*
X255020564Y-82074830D01*
X255020565Y-82074826D01*
X255048391Y-81928956D01*
X255048391Y-81928954D01*
X255049876Y-81921170D01*
X255041183Y-81783000D01*
X255040054Y-81765051D01*
X255040054Y-81765049D01*
X255039556Y-81757140D01*
X254988768Y-81600829D01*
X254900702Y-81462060D01*
X254780893Y-81349552D01*
X254773949Y-81345735D01*
X254773947Y-81345733D01*
X254659598Y-81282869D01*
X254636868Y-81270373D01*
X254629196Y-81268403D01*
X254629193Y-81268402D01*
X254485355Y-81231471D01*
X254485352Y-81231471D01*
X254477677Y-81229500D01*
X253554575Y-81229500D01*
X253496810Y-81236797D01*
X253440307Y-81243935D01*
X253440304Y-81243936D01*
X253432442Y-81244929D01*
X253425075Y-81247846D01*
X253425074Y-81247846D01*
X253390367Y-81261588D01*
X253279629Y-81305432D01*
X253273218Y-81310090D01*
X253273216Y-81310091D01*
X253186581Y-81373035D01*
X253146663Y-81402037D01*
X253041900Y-81528674D01*
X252971921Y-81677387D01*
X252970436Y-81685170D01*
X252970435Y-81685174D01*
X252945483Y-81815978D01*
X252941124Y-81838830D01*
X251024696Y-81838830D01*
X251021183Y-81783000D01*
X251020054Y-81765051D01*
X251020054Y-81765049D01*
X251019556Y-81757140D01*
X250968768Y-81600829D01*
X250880702Y-81462060D01*
X250760893Y-81349552D01*
X250753949Y-81345735D01*
X250753947Y-81345733D01*
X250639598Y-81282869D01*
X250616868Y-81270373D01*
X250609196Y-81268403D01*
X250609193Y-81268402D01*
X250465355Y-81231471D01*
X250465352Y-81231471D01*
X250457677Y-81229500D01*
X249234575Y-81229500D01*
X249176810Y-81236797D01*
X249120307Y-81243935D01*
X249120304Y-81243936D01*
X249112442Y-81244929D01*
X249105075Y-81247846D01*
X249105074Y-81247846D01*
X249070367Y-81261588D01*
X248959629Y-81305432D01*
X248953218Y-81310090D01*
X248953216Y-81310091D01*
X248866581Y-81373035D01*
X248826663Y-81402037D01*
X248721900Y-81528674D01*
X248651921Y-81677387D01*
X248650436Y-81685170D01*
X248650435Y-81685174D01*
X248625483Y-81815978D01*
X248621124Y-81838830D01*
X221015842Y-81838830D01*
X221019171Y-81812474D01*
X221019583Y-81783000D01*
X220999480Y-81577970D01*
X220939935Y-81380749D01*
X220937046Y-81375315D01*
X220937042Y-81375306D01*
X220924865Y-81352406D01*
X220910545Y-81282869D01*
X220936092Y-81216628D01*
X220993397Y-81174715D01*
X221064264Y-81170436D01*
X221084334Y-81176843D01*
X221199108Y-81224384D01*
X221199111Y-81224385D01*
X221206738Y-81227544D01*
X221214926Y-81228622D01*
X221285119Y-81237863D01*
X221363500Y-81248182D01*
X221371688Y-81247104D01*
X221512074Y-81228622D01*
X221520262Y-81227544D01*
X221666341Y-81167036D01*
X221791782Y-81070782D01*
X221888036Y-80945341D01*
X221948544Y-80799262D01*
X221969182Y-80642500D01*
X221948544Y-80485738D01*
X221888036Y-80339659D01*
X221791782Y-80214218D01*
X221666341Y-80117964D01*
X221520262Y-80057456D01*
X221363500Y-80036818D01*
X221206738Y-80057456D01*
X221060659Y-80117964D01*
X220935218Y-80214218D01*
X220838964Y-80339659D01*
X220778456Y-80485738D01*
X220757818Y-80642500D01*
X220778456Y-80799262D01*
X220778867Y-80800253D01*
X220777254Y-80867902D01*
X220737458Y-80926696D01*
X220672193Y-80954642D01*
X220602180Y-80942867D01*
X220576923Y-80926618D01*
X220559025Y-80911811D01*
X220559021Y-80911809D01*
X220554275Y-80907882D01*
X220373055Y-80809897D01*
X220176254Y-80748977D01*
X220170129Y-80748333D01*
X220170128Y-80748333D01*
X219977498Y-80728087D01*
X219977496Y-80728087D01*
X219971369Y-80727443D01*
X219884529Y-80735346D01*
X219772342Y-80745555D01*
X219772339Y-80745556D01*
X219766203Y-80746114D01*
X219568572Y-80804280D01*
X219386002Y-80899726D01*
X219381201Y-80903586D01*
X219381198Y-80903588D01*
X219338758Y-80937711D01*
X219225447Y-81028815D01*
X219093024Y-81186630D01*
X219090056Y-81192028D01*
X219090053Y-81192033D01*
X219046986Y-81270373D01*
X218993776Y-81367162D01*
X218931484Y-81563532D01*
X218930798Y-81569649D01*
X218930797Y-81569653D01*
X218909207Y-81762137D01*
X218908520Y-81768262D01*
X214141426Y-81768262D01*
X214136523Y-79228262D01*
X218908520Y-79228262D01*
X218925759Y-79433553D01*
X218982544Y-79631586D01*
X218985359Y-79637063D01*
X218985360Y-79637066D01*
X219006247Y-79677707D01*
X219076712Y-79814818D01*
X219204677Y-79976270D01*
X219361564Y-80109791D01*
X219366942Y-80112797D01*
X219366944Y-80112798D01*
X219398563Y-80130469D01*
X219541398Y-80210297D01*
X219636238Y-80241113D01*
X219731471Y-80272056D01*
X219731475Y-80272057D01*
X219737329Y-80273959D01*
X219941894Y-80298351D01*
X219948029Y-80297879D01*
X219948031Y-80297879D01*
X220004039Y-80293569D01*
X220147300Y-80282546D01*
X220153230Y-80280890D01*
X220153232Y-80280890D01*
X220339797Y-80228800D01*
X220339796Y-80228800D01*
X220345725Y-80227145D01*
X220351214Y-80224372D01*
X220351220Y-80224370D01*
X220524116Y-80137033D01*
X220529610Y-80134258D01*
X220550466Y-80117964D01*
X220687101Y-80011213D01*
X220691951Y-80007424D01*
X220826564Y-79851472D01*
X220847387Y-79814818D01*
X220925276Y-79677707D01*
X220928323Y-79672344D01*
X220993351Y-79476863D01*
X221019171Y-79272474D01*
X221019583Y-79243000D01*
X220999480Y-79037970D01*
X220939935Y-78840749D01*
X220843218Y-78658849D01*
X220769859Y-78568902D01*
X220716906Y-78503975D01*
X220716903Y-78503972D01*
X220713011Y-78499200D01*
X220695786Y-78484950D01*
X220559025Y-78371811D01*
X220559021Y-78371809D01*
X220554275Y-78367882D01*
X220373055Y-78269897D01*
X220176254Y-78208977D01*
X220170129Y-78208333D01*
X220170128Y-78208333D01*
X219977498Y-78188087D01*
X219977496Y-78188087D01*
X219971369Y-78187443D01*
X219884529Y-78195346D01*
X219772342Y-78205555D01*
X219772339Y-78205556D01*
X219766203Y-78206114D01*
X219568572Y-78264280D01*
X219386002Y-78359726D01*
X219381201Y-78363586D01*
X219381198Y-78363588D01*
X219370971Y-78371811D01*
X219225447Y-78488815D01*
X219093024Y-78646630D01*
X219090056Y-78652028D01*
X219090053Y-78652033D01*
X219083315Y-78664290D01*
X218993776Y-78827162D01*
X218931484Y-79023532D01*
X218930798Y-79029649D01*
X218930797Y-79029653D01*
X218909207Y-79222137D01*
X218908520Y-79228262D01*
X214136523Y-79228262D01*
X214134072Y-77958748D01*
X244196500Y-77958748D01*
X244197707Y-77964816D01*
X244201331Y-77983033D01*
X244208133Y-78017231D01*
X244252448Y-78083552D01*
X244318769Y-78127867D01*
X244330938Y-78130288D01*
X244330939Y-78130288D01*
X244371184Y-78138293D01*
X244377252Y-78139500D01*
X246116748Y-78139500D01*
X246122816Y-78138293D01*
X246163061Y-78130288D01*
X246163062Y-78130288D01*
X246175231Y-78127867D01*
X246241552Y-78083552D01*
X246285867Y-78017231D01*
X246292670Y-77983033D01*
X246296293Y-77964816D01*
X246297500Y-77958748D01*
X246297500Y-77074262D01*
X246731520Y-77074262D01*
X246748759Y-77279553D01*
X246805544Y-77477586D01*
X246808359Y-77483063D01*
X246808360Y-77483066D01*
X246829247Y-77523707D01*
X246899712Y-77660818D01*
X247027677Y-77822270D01*
X247184564Y-77955791D01*
X247364398Y-78056297D01*
X247448280Y-78083552D01*
X247554471Y-78118056D01*
X247554475Y-78118057D01*
X247560329Y-78119959D01*
X247764894Y-78144351D01*
X247771029Y-78143879D01*
X247771031Y-78143879D01*
X247843625Y-78138293D01*
X247970300Y-78128546D01*
X247976230Y-78126890D01*
X247976232Y-78126890D01*
X248162797Y-78074800D01*
X248162796Y-78074800D01*
X248168725Y-78073145D01*
X248174214Y-78070372D01*
X248174220Y-78070370D01*
X248347116Y-77983033D01*
X248352610Y-77980258D01*
X248514951Y-77853424D01*
X248649564Y-77697472D01*
X248670387Y-77660818D01*
X248748276Y-77523707D01*
X248751323Y-77518344D01*
X248816351Y-77322863D01*
X248842171Y-77118474D01*
X248842583Y-77089000D01*
X248841138Y-77074262D01*
X249271520Y-77074262D01*
X249288759Y-77279553D01*
X249345544Y-77477586D01*
X249348359Y-77483063D01*
X249348360Y-77483066D01*
X249369247Y-77523707D01*
X249439712Y-77660818D01*
X249567677Y-77822270D01*
X249724564Y-77955791D01*
X249904398Y-78056297D01*
X249988280Y-78083552D01*
X250094471Y-78118056D01*
X250094475Y-78118057D01*
X250100329Y-78119959D01*
X250304894Y-78144351D01*
X250311029Y-78143879D01*
X250311031Y-78143879D01*
X250383625Y-78138293D01*
X250510300Y-78128546D01*
X250516230Y-78126890D01*
X250516232Y-78126890D01*
X250702797Y-78074800D01*
X250702796Y-78074800D01*
X250708725Y-78073145D01*
X250714214Y-78070372D01*
X250714220Y-78070370D01*
X250887116Y-77983033D01*
X250892610Y-77980258D01*
X251054951Y-77853424D01*
X251189564Y-77697472D01*
X251210387Y-77660818D01*
X251288276Y-77523707D01*
X251291323Y-77518344D01*
X251356351Y-77322863D01*
X251382171Y-77118474D01*
X251382583Y-77089000D01*
X251362480Y-76883970D01*
X251302935Y-76686749D01*
X251206218Y-76504849D01*
X251132859Y-76414902D01*
X251079906Y-76349975D01*
X251079903Y-76349972D01*
X251076011Y-76345200D01*
X251058786Y-76330950D01*
X250922025Y-76217811D01*
X250922021Y-76217809D01*
X250917275Y-76213882D01*
X250736055Y-76115897D01*
X250539254Y-76054977D01*
X250533129Y-76054333D01*
X250533128Y-76054333D01*
X250340498Y-76034087D01*
X250340496Y-76034087D01*
X250334369Y-76033443D01*
X250247529Y-76041346D01*
X250135342Y-76051555D01*
X250135339Y-76051556D01*
X250129203Y-76052114D01*
X249931572Y-76110280D01*
X249749002Y-76205726D01*
X249744201Y-76209586D01*
X249744198Y-76209588D01*
X249593254Y-76330950D01*
X249588447Y-76334815D01*
X249456024Y-76492630D01*
X249453056Y-76498028D01*
X249453053Y-76498033D01*
X249446315Y-76510290D01*
X249356776Y-76673162D01*
X249294484Y-76869532D01*
X249293798Y-76875649D01*
X249293797Y-76875653D01*
X249272207Y-77068137D01*
X249271520Y-77074262D01*
X248841138Y-77074262D01*
X248822480Y-76883970D01*
X248762935Y-76686749D01*
X248666218Y-76504849D01*
X248592859Y-76414902D01*
X248539906Y-76349975D01*
X248539903Y-76349972D01*
X248536011Y-76345200D01*
X248518786Y-76330950D01*
X248382025Y-76217811D01*
X248382021Y-76217809D01*
X248377275Y-76213882D01*
X248196055Y-76115897D01*
X247999254Y-76054977D01*
X247993129Y-76054333D01*
X247993128Y-76054333D01*
X247800498Y-76034087D01*
X247800496Y-76034087D01*
X247794369Y-76033443D01*
X247707529Y-76041346D01*
X247595342Y-76051555D01*
X247595339Y-76051556D01*
X247589203Y-76052114D01*
X247391572Y-76110280D01*
X247209002Y-76205726D01*
X247204201Y-76209586D01*
X247204198Y-76209588D01*
X247053254Y-76330950D01*
X247048447Y-76334815D01*
X246916024Y-76492630D01*
X246913056Y-76498028D01*
X246913053Y-76498033D01*
X246906315Y-76510290D01*
X246816776Y-76673162D01*
X246754484Y-76869532D01*
X246753798Y-76875649D01*
X246753797Y-76875653D01*
X246732207Y-77068137D01*
X246731520Y-77074262D01*
X246297500Y-77074262D01*
X246297500Y-76219252D01*
X246285867Y-76160769D01*
X246241552Y-76094448D01*
X246175231Y-76050133D01*
X246163062Y-76047712D01*
X246163061Y-76047712D01*
X246122816Y-76039707D01*
X246116748Y-76038500D01*
X244377252Y-76038500D01*
X244371184Y-76039707D01*
X244330939Y-76047712D01*
X244330938Y-76047712D01*
X244318769Y-76050133D01*
X244252448Y-76094448D01*
X244208133Y-76160769D01*
X244196500Y-76219252D01*
X244196500Y-77958748D01*
X214134072Y-77958748D01*
X214128469Y-75056243D01*
X214148340Y-74988084D01*
X214201906Y-74941488D01*
X214254469Y-74930000D01*
X255713569Y-74930000D01*
X255781690Y-74950002D01*
G37*
%TD.AperFunction*%
%TD*%
M02*
