M48
; DRILL file {KiCad (6.0.10)} date Sun Feb 26 14:05:21 2023
; FORMAT={-:-/ absolute / metric / decimal}
; #@! TF.CreationDate,2023-02-26T14:05:21-05:00
; #@! TF.GenerationSoftware,Kicad,Pcbnew,(6.0.10)
; #@! TF.FileFunction,Plated,1,4,PTH
FMAT,2
METRIC
; #@! TA.AperFunction,Plated,PTH,ViaDrill
T1C0.400
; #@! TA.AperFunction,Plated,PTH,ComponentDrill
T2C0.600
; #@! TA.AperFunction,Plated,PTH,ComponentDrill
T3C0.762
; #@! TA.AperFunction,Plated,PTH,ComponentDrill
T4C1.000
%
G90
G05
T1
X216.027Y-97.536
X217.424Y-82.804
X218.44Y-89.916
X220.091Y-97.536
X221.363Y-80.642
X221.869Y-86.868
X221.996Y-84.582
X223.012Y-93.218
X224.282Y-109.982
X225.933Y-75.692
X226.06Y-90.424
X226.568Y-101.6
X231.075Y-92.46
X232.41Y-87.288
X232.918Y-95.504
X233.045Y-91.821
X233.68Y-87.122
X233.68Y-101.6
X233.934Y-103.886
X234.696Y-92.583
X236.347Y-86.741
X236.982Y-87.884
X237.236Y-83.947
X237.49Y-95.25
X238.76Y-92.202
X240.157Y-90.297
X240.22Y-89.218
X240.28Y-91.444
X244.094Y-106.299
X244.221Y-97.282
X247.634Y-85.852
X247.904Y-102.108
X248.158Y-81.026
X250.69Y-88.638
X251.376Y-83.374
X253.746Y-99.568
X254.381Y-102.235
X254.508Y-105.156
T3
X217.102Y-103.124
X219.102Y-103.124
X221.102Y-103.124
X237.522Y-104.394
X239.522Y-104.394
X241.522Y-104.394
X250.577Y-94.876
X250.577Y-96.876
X250.577Y-98.876
T4
X219.964Y-76.703
X219.964Y-79.243
X219.964Y-81.783
X219.964Y-84.323
X219.964Y-86.863
X245.247Y-77.089
X247.787Y-77.089
X250.327Y-77.089
X252.867Y-77.089
T2
G00X253.595Y-81.88
M15
G01X254.395Y-81.88
M16
G05
T0
M30
