M48
; DRILL file {KiCad (6.0.10)} date Mon Feb 27 18:56:01 2023
; FORMAT={-:-/ absolute / inch / decimal}
; #@! TF.CreationDate,2023-02-27T18:56:01-05:00
; #@! TF.GenerationSoftware,Kicad,Pcbnew,(6.0.10)
; #@! TF.FileFunction,Plated,1,4,PTH
FMAT,2
INCH
; #@! TA.AperFunction,Plated,PTH,ViaDrill
T1C0.0157
; #@! TA.AperFunction,Plated,PTH,ComponentDrill
T2C0.0236
; #@! TA.AperFunction,Plated,PTH,ComponentDrill
T3C0.0300
; #@! TA.AperFunction,Plated,PTH,ComponentDrill
T4C0.0394
%
G90
G05
T1
X8.505Y-3.84
X8.56Y-3.26
X8.6Y-3.54
X8.665Y-3.84
X8.7151Y-3.1749
X8.735Y-3.42
X8.74Y-3.33
X8.78Y-3.67
X8.83Y-4.33
X8.895Y-2.98
X8.9Y-3.56
X8.92Y-4.0
X9.0975Y-3.6402
X9.15Y-3.4366
X9.17Y-3.76
X9.175Y-3.615
X9.2Y-3.43
X9.2Y-4.0
X9.21Y-4.09
X9.24Y-3.645
X9.305Y-3.415
X9.33Y-3.46
X9.34Y-3.305
X9.35Y-3.75
X9.4Y-3.63
X9.455Y-3.555
X9.4575Y-3.5125
X9.4598Y-3.6002
X9.61Y-4.185
X9.615Y-3.83
X9.7494Y-3.38
X9.76Y-4.02
X9.77Y-3.19
X9.8697Y-3.4897
X9.8967Y-3.2824
X9.99Y-3.92
X10.015Y-4.025
X10.02Y-4.14
T3
X8.5473Y-4.06
X8.6261Y-4.06
X8.7048Y-4.06
X9.3513Y-4.11
X9.43Y-4.11
X9.5087Y-4.11
X9.8652Y-3.7353
X9.8652Y-3.814
X9.8652Y-3.8928
T4
X8.66Y-3.0198
X8.66Y-3.1198
X8.66Y-3.2198
X8.66Y-3.3198
X8.66Y-3.4198
X9.6554Y-3.035
X9.7554Y-3.035
X9.8554Y-3.035
X9.9554Y-3.035
T2
G00X9.9841Y-3.2236
M15
G01X10.0156Y-3.2236
M16
G05
T0
M30
