%TF.GenerationSoftware,KiCad,Pcbnew,(6.0.10)*%
%TF.CreationDate,2023-02-26T14:05:22-05:00*%
%TF.ProjectId,ECG_2.0,4543475f-322e-4302-9e6b-696361645f70,rev?*%
%TF.SameCoordinates,Original*%
%TF.FileFunction,Drillmap*%
%TF.FilePolarity,Positive*%
%FSLAX45Y45*%
G04 Gerber Fmt 4.5, Leading zero omitted, Abs format (unit mm)*
G04 Created by KiCad (PCBNEW (6.0.10)) date 2023-02-26 14:05:22*
%MOMM*%
%LPD*%
G01*
G04 APERTURE LIST*
%ADD10C,0.100000*%
%ADD11C,0.200000*%
%ADD12C,0.050000*%
%ADD13C,0.060000*%
G04 APERTURE END LIST*
D10*
X21549360Y-6908800D02*
X25450800Y-6908800D01*
X25603935Y-7080430D02*
X25605018Y-13471070D01*
X25452618Y-13623470D02*
X21598342Y-13625649D01*
X21404219Y-13422449D02*
G75*
G03*
X21607419Y-13625649I203200J0D01*
G01*
X25452618Y-13623470D02*
G75*
G03*
X25605018Y-13471070I0J152400D01*
G01*
X21548870Y-6908823D02*
G75*
G03*
X21392963Y-7072443I7904J-163620D01*
G01*
X21404219Y-13422449D02*
X21391880Y-7030720D01*
X25602117Y-7062283D02*
G75*
G03*
X25449717Y-6909883I-152400J0D01*
G01*
D11*
D12*
X21475200Y-10287400D02*
X21525200Y-10337400D01*
X21525200Y-10287400D02*
X21475200Y-10337400D01*
D11*
X21525200Y-10352400D02*
X21525200Y-10272400D01*
X21475200Y-10352400D02*
X21475200Y-10272400D01*
X21525200Y-10272400D02*
G75*
G03*
X21475200Y-10272400I-25000J0D01*
G01*
X21475200Y-10352400D02*
G75*
G03*
X21525200Y-10352400I25000J0D01*
G01*
D12*
X22295200Y-10287400D02*
X22345200Y-10337400D01*
X22345200Y-10287400D02*
X22295200Y-10337400D01*
D11*
X22345200Y-10352400D02*
X22345200Y-10272400D01*
X22295200Y-10352400D02*
X22295200Y-10272400D01*
X22345200Y-10272400D02*
G75*
G03*
X22295200Y-10272400I-25000J0D01*
G01*
X22295200Y-10352400D02*
G75*
G03*
X22345200Y-10352400I25000J0D01*
G01*
D12*
X23517200Y-10414400D02*
X23567200Y-10464400D01*
X23567200Y-10414400D02*
X23517200Y-10464400D01*
D11*
X23567200Y-10479400D02*
X23567200Y-10399400D01*
X23517200Y-10479400D02*
X23517200Y-10399400D01*
X23567200Y-10399400D02*
G75*
G03*
X23517200Y-10399400I-25000J0D01*
G01*
X23517200Y-10479400D02*
G75*
G03*
X23567200Y-10479400I25000J0D01*
G01*
D12*
X24337200Y-10414400D02*
X24387200Y-10464400D01*
X24387200Y-10414400D02*
X24337200Y-10464400D01*
D11*
X24387200Y-10479400D02*
X24387200Y-10399400D01*
X24337200Y-10479400D02*
X24337200Y-10399400D01*
X24387200Y-10399400D02*
G75*
G03*
X24337200Y-10399400I-25000J0D01*
G01*
X24337200Y-10479400D02*
G75*
G03*
X24387200Y-10479400I25000J0D01*
G01*
D12*
X25032700Y-9252600D02*
X25082700Y-9302600D01*
X25082700Y-9252600D02*
X25032700Y-9302600D01*
D11*
X25097700Y-9252600D02*
X25017700Y-9252600D01*
X25097700Y-9302600D02*
X25017700Y-9302600D01*
X25017700Y-9252600D02*
G75*
G03*
X25017700Y-9302600I0J-25000D01*
G01*
X25097700Y-9302600D02*
G75*
G03*
X25097700Y-9252600I0J25000D01*
G01*
D12*
X25032700Y-10072600D02*
X25082700Y-10122600D01*
X25082700Y-10072600D02*
X25032700Y-10122600D01*
D11*
X25097700Y-10072600D02*
X25017700Y-10072600D01*
X25097700Y-10122600D02*
X25017700Y-10122600D01*
X25017700Y-10072600D02*
G75*
G03*
X25017700Y-10122600I0J-25000D01*
G01*
X25097700Y-10122600D02*
G75*
G03*
X25097700Y-10072600I0J25000D01*
G01*
D13*
X25012550Y-8188000D02*
G75*
G03*
X25012550Y-8188000I-30000J0D01*
G01*
D11*
X24927550Y-8218000D02*
X25037550Y-8218000D01*
X24927550Y-8158000D02*
X25037550Y-8158000D01*
X25037550Y-8218000D02*
G75*
G03*
X25037550Y-8158000I0J30000D01*
G01*
X24927550Y-8158000D02*
G75*
G03*
X24927550Y-8218000I0J-30000D01*
G01*
D13*
X25012550Y-9053000D02*
G75*
G03*
X25012550Y-9053000I-30000J0D01*
G01*
D11*
X24927550Y-9083000D02*
X25037550Y-9083000D01*
X24927550Y-9023000D02*
X25037550Y-9023000D01*
X25037550Y-9083000D02*
G75*
G03*
X25037550Y-9023000I0J30000D01*
G01*
X24927550Y-9023000D02*
G75*
G03*
X24927550Y-9083000I0J-30000D01*
G01*
D13*
X25429550Y-9053000D02*
G75*
G03*
X25429550Y-9053000I-30000J0D01*
G01*
D11*
X25359550Y-9083000D02*
X25439550Y-9083000D01*
X25359550Y-9023000D02*
X25439550Y-9023000D01*
X25439550Y-9083000D02*
G75*
G03*
X25439550Y-9023000I0J30000D01*
G01*
X25359550Y-9023000D02*
G75*
G03*
X25359550Y-9083000I0J-30000D01*
G01*
X21644499Y-13941126D02*
X21644499Y-13741126D01*
X21692118Y-13741126D01*
X21720690Y-13750649D01*
X21739737Y-13769697D01*
X21749261Y-13788745D01*
X21758785Y-13826840D01*
X21758785Y-13855411D01*
X21749261Y-13893507D01*
X21739737Y-13912554D01*
X21720690Y-13931602D01*
X21692118Y-13941126D01*
X21644499Y-13941126D01*
X21844499Y-13941126D02*
X21844499Y-13807792D01*
X21844499Y-13845887D02*
X21854023Y-13826840D01*
X21863547Y-13817316D01*
X21882594Y-13807792D01*
X21901642Y-13807792D01*
X21968309Y-13941126D02*
X21968309Y-13807792D01*
X21968309Y-13741126D02*
X21958785Y-13750649D01*
X21968309Y-13760173D01*
X21977832Y-13750649D01*
X21968309Y-13741126D01*
X21968309Y-13760173D01*
X22092118Y-13941126D02*
X22073070Y-13931602D01*
X22063547Y-13912554D01*
X22063547Y-13741126D01*
X22196880Y-13941126D02*
X22177832Y-13931602D01*
X22168309Y-13912554D01*
X22168309Y-13741126D01*
X22425451Y-13941126D02*
X22425451Y-13741126D01*
X22492118Y-13883983D01*
X22558785Y-13741126D01*
X22558785Y-13941126D01*
X22739737Y-13941126D02*
X22739737Y-13836364D01*
X22730213Y-13817316D01*
X22711166Y-13807792D01*
X22673070Y-13807792D01*
X22654023Y-13817316D01*
X22739737Y-13931602D02*
X22720689Y-13941126D01*
X22673070Y-13941126D01*
X22654023Y-13931602D01*
X22644499Y-13912554D01*
X22644499Y-13893507D01*
X22654023Y-13874459D01*
X22673070Y-13864935D01*
X22720689Y-13864935D01*
X22739737Y-13855411D01*
X22834975Y-13807792D02*
X22834975Y-14007792D01*
X22834975Y-13817316D02*
X22854023Y-13807792D01*
X22892118Y-13807792D01*
X22911166Y-13817316D01*
X22920689Y-13826840D01*
X22930213Y-13845887D01*
X22930213Y-13903030D01*
X22920689Y-13922078D01*
X22911166Y-13931602D01*
X22892118Y-13941126D01*
X22854023Y-13941126D01*
X22834975Y-13931602D01*
X23015928Y-13922078D02*
X23025451Y-13931602D01*
X23015928Y-13941126D01*
X23006404Y-13931602D01*
X23015928Y-13922078D01*
X23015928Y-13941126D01*
X23015928Y-13817316D02*
X23025451Y-13826840D01*
X23015928Y-13836364D01*
X23006404Y-13826840D01*
X23015928Y-13817316D01*
X23015928Y-13836364D01*
D12*
X21336880Y-14245649D02*
X21386880Y-14295649D01*
X21386880Y-14245649D02*
X21336880Y-14295649D01*
D11*
X21682594Y-14161126D02*
X21701642Y-14161126D01*
X21720690Y-14170649D01*
X21730213Y-14180173D01*
X21739737Y-14199221D01*
X21749261Y-14237316D01*
X21749261Y-14284935D01*
X21739737Y-14323030D01*
X21730213Y-14342078D01*
X21720690Y-14351602D01*
X21701642Y-14361126D01*
X21682594Y-14361126D01*
X21663547Y-14351602D01*
X21654023Y-14342078D01*
X21644499Y-14323030D01*
X21634975Y-14284935D01*
X21634975Y-14237316D01*
X21644499Y-14199221D01*
X21654023Y-14180173D01*
X21663547Y-14170649D01*
X21682594Y-14161126D01*
X21834975Y-14342078D02*
X21844499Y-14351602D01*
X21834975Y-14361126D01*
X21825451Y-14351602D01*
X21834975Y-14342078D01*
X21834975Y-14361126D01*
X22025451Y-14161126D02*
X21930213Y-14161126D01*
X21920690Y-14256364D01*
X21930213Y-14246840D01*
X21949261Y-14237316D01*
X21996880Y-14237316D01*
X22015928Y-14246840D01*
X22025451Y-14256364D01*
X22034975Y-14275411D01*
X22034975Y-14323030D01*
X22025451Y-14342078D01*
X22015928Y-14351602D01*
X21996880Y-14361126D01*
X21949261Y-14361126D01*
X21930213Y-14351602D01*
X21920690Y-14342078D01*
X22158785Y-14161126D02*
X22177832Y-14161126D01*
X22196880Y-14170649D01*
X22206404Y-14180173D01*
X22215928Y-14199221D01*
X22225451Y-14237316D01*
X22225451Y-14284935D01*
X22215928Y-14323030D01*
X22206404Y-14342078D01*
X22196880Y-14351602D01*
X22177832Y-14361126D01*
X22158785Y-14361126D01*
X22139737Y-14351602D01*
X22130213Y-14342078D01*
X22120690Y-14323030D01*
X22111166Y-14284935D01*
X22111166Y-14237316D01*
X22120690Y-14199221D01*
X22130213Y-14180173D01*
X22139737Y-14170649D01*
X22158785Y-14161126D01*
X22349261Y-14161126D02*
X22368309Y-14161126D01*
X22387356Y-14170649D01*
X22396880Y-14180173D01*
X22406404Y-14199221D01*
X22415928Y-14237316D01*
X22415928Y-14284935D01*
X22406404Y-14323030D01*
X22396880Y-14342078D01*
X22387356Y-14351602D01*
X22368309Y-14361126D01*
X22349261Y-14361126D01*
X22330213Y-14351602D01*
X22320690Y-14342078D01*
X22311166Y-14323030D01*
X22301642Y-14284935D01*
X22301642Y-14237316D01*
X22311166Y-14199221D01*
X22320690Y-14180173D01*
X22330213Y-14170649D01*
X22349261Y-14161126D01*
X22501642Y-14361126D02*
X22501642Y-14227792D01*
X22501642Y-14246840D02*
X22511166Y-14237316D01*
X22530213Y-14227792D01*
X22558785Y-14227792D01*
X22577832Y-14237316D01*
X22587356Y-14256364D01*
X22587356Y-14361126D01*
X22587356Y-14256364D02*
X22596880Y-14237316D01*
X22615928Y-14227792D01*
X22644499Y-14227792D01*
X22663547Y-14237316D01*
X22673070Y-14256364D01*
X22673070Y-14361126D01*
X22768308Y-14361126D02*
X22768308Y-14227792D01*
X22768308Y-14246840D02*
X22777832Y-14237316D01*
X22796880Y-14227792D01*
X22825451Y-14227792D01*
X22844499Y-14237316D01*
X22854023Y-14256364D01*
X22854023Y-14361126D01*
X22854023Y-14256364D02*
X22863547Y-14237316D01*
X22882594Y-14227792D01*
X22911166Y-14227792D01*
X22930213Y-14237316D01*
X22939737Y-14256364D01*
X22939737Y-14361126D01*
X23330213Y-14151602D02*
X23158785Y-14408745D01*
X23587356Y-14161126D02*
X23606404Y-14161126D01*
X23625451Y-14170649D01*
X23634975Y-14180173D01*
X23644499Y-14199221D01*
X23654023Y-14237316D01*
X23654023Y-14284935D01*
X23644499Y-14323030D01*
X23634975Y-14342078D01*
X23625451Y-14351602D01*
X23606404Y-14361126D01*
X23587356Y-14361126D01*
X23568308Y-14351602D01*
X23558785Y-14342078D01*
X23549261Y-14323030D01*
X23539737Y-14284935D01*
X23539737Y-14237316D01*
X23549261Y-14199221D01*
X23558785Y-14180173D01*
X23568308Y-14170649D01*
X23587356Y-14161126D01*
X23739737Y-14342078D02*
X23749261Y-14351602D01*
X23739737Y-14361126D01*
X23730213Y-14351602D01*
X23739737Y-14342078D01*
X23739737Y-14361126D01*
X23873070Y-14161126D02*
X23892118Y-14161126D01*
X23911166Y-14170649D01*
X23920689Y-14180173D01*
X23930213Y-14199221D01*
X23939737Y-14237316D01*
X23939737Y-14284935D01*
X23930213Y-14323030D01*
X23920689Y-14342078D01*
X23911166Y-14351602D01*
X23892118Y-14361126D01*
X23873070Y-14361126D01*
X23854023Y-14351602D01*
X23844499Y-14342078D01*
X23834975Y-14323030D01*
X23825451Y-14284935D01*
X23825451Y-14237316D01*
X23834975Y-14199221D01*
X23844499Y-14180173D01*
X23854023Y-14170649D01*
X23873070Y-14161126D01*
X24130213Y-14361126D02*
X24015928Y-14361126D01*
X24073070Y-14361126D02*
X24073070Y-14161126D01*
X24054023Y-14189697D01*
X24034975Y-14208745D01*
X24015928Y-14218268D01*
X24225451Y-14361126D02*
X24263547Y-14361126D01*
X24282594Y-14351602D01*
X24292118Y-14342078D01*
X24311166Y-14313507D01*
X24320689Y-14275411D01*
X24320689Y-14199221D01*
X24311166Y-14180173D01*
X24301642Y-14170649D01*
X24282594Y-14161126D01*
X24244499Y-14161126D01*
X24225451Y-14170649D01*
X24215928Y-14180173D01*
X24206404Y-14199221D01*
X24206404Y-14246840D01*
X24215928Y-14265887D01*
X24225451Y-14275411D01*
X24244499Y-14284935D01*
X24282594Y-14284935D01*
X24301642Y-14275411D01*
X24311166Y-14265887D01*
X24320689Y-14246840D01*
X24387356Y-14161126D02*
X24520689Y-14161126D01*
X24434975Y-14361126D01*
X24587356Y-14161126D02*
X24587356Y-14199221D01*
X24663547Y-14161126D02*
X24663547Y-14199221D01*
X24958785Y-14437316D02*
X24949261Y-14427792D01*
X24930213Y-14399221D01*
X24920689Y-14380173D01*
X24911166Y-14351602D01*
X24901642Y-14303983D01*
X24901642Y-14265887D01*
X24911166Y-14218268D01*
X24920689Y-14189697D01*
X24930213Y-14170649D01*
X24949261Y-14142078D01*
X24958785Y-14132554D01*
X25073070Y-14161126D02*
X25092118Y-14161126D01*
X25111166Y-14170649D01*
X25120689Y-14180173D01*
X25130213Y-14199221D01*
X25139737Y-14237316D01*
X25139737Y-14284935D01*
X25130213Y-14323030D01*
X25120689Y-14342078D01*
X25111166Y-14351602D01*
X25092118Y-14361126D01*
X25073070Y-14361126D01*
X25054023Y-14351602D01*
X25044499Y-14342078D01*
X25034975Y-14323030D01*
X25025451Y-14284935D01*
X25025451Y-14237316D01*
X25034975Y-14199221D01*
X25044499Y-14180173D01*
X25054023Y-14170649D01*
X25073070Y-14161126D01*
X25377832Y-14361126D02*
X25377832Y-14161126D01*
X25463547Y-14361126D02*
X25463547Y-14256364D01*
X25454023Y-14237316D01*
X25434975Y-14227792D01*
X25406404Y-14227792D01*
X25387356Y-14237316D01*
X25377832Y-14246840D01*
X25587356Y-14361126D02*
X25568308Y-14351602D01*
X25558785Y-14342078D01*
X25549261Y-14323030D01*
X25549261Y-14265887D01*
X25558785Y-14246840D01*
X25568308Y-14237316D01*
X25587356Y-14227792D01*
X25615928Y-14227792D01*
X25634975Y-14237316D01*
X25644499Y-14246840D01*
X25654023Y-14265887D01*
X25654023Y-14323030D01*
X25644499Y-14342078D01*
X25634975Y-14351602D01*
X25615928Y-14361126D01*
X25587356Y-14361126D01*
X25768308Y-14361126D02*
X25749261Y-14351602D01*
X25739737Y-14332554D01*
X25739737Y-14161126D01*
X25920689Y-14351602D02*
X25901642Y-14361126D01*
X25863547Y-14361126D01*
X25844499Y-14351602D01*
X25834975Y-14332554D01*
X25834975Y-14256364D01*
X25844499Y-14237316D01*
X25863547Y-14227792D01*
X25901642Y-14227792D01*
X25920689Y-14237316D01*
X25930213Y-14256364D01*
X25930213Y-14275411D01*
X25834975Y-14294459D01*
X26006404Y-14351602D02*
X26025451Y-14361126D01*
X26063547Y-14361126D01*
X26082594Y-14351602D01*
X26092118Y-14332554D01*
X26092118Y-14323030D01*
X26082594Y-14303983D01*
X26063547Y-14294459D01*
X26034975Y-14294459D01*
X26015928Y-14284935D01*
X26006404Y-14265887D01*
X26006404Y-14256364D01*
X26015928Y-14237316D01*
X26034975Y-14227792D01*
X26063547Y-14227792D01*
X26082594Y-14237316D01*
X26330213Y-14284935D02*
X26482594Y-14284935D01*
X26406404Y-14361126D02*
X26406404Y-14208745D01*
X26815928Y-14161126D02*
X26777832Y-14161126D01*
X26758785Y-14170649D01*
X26749261Y-14180173D01*
X26730213Y-14208745D01*
X26720689Y-14246840D01*
X26720689Y-14323030D01*
X26730213Y-14342078D01*
X26739737Y-14351602D01*
X26758785Y-14361126D01*
X26796880Y-14361126D01*
X26815928Y-14351602D01*
X26825451Y-14342078D01*
X26834975Y-14323030D01*
X26834975Y-14275411D01*
X26825451Y-14256364D01*
X26815928Y-14246840D01*
X26796880Y-14237316D01*
X26758785Y-14237316D01*
X26739737Y-14246840D01*
X26730213Y-14256364D01*
X26720689Y-14275411D01*
X27063547Y-14351602D02*
X27082594Y-14361126D01*
X27120689Y-14361126D01*
X27139737Y-14351602D01*
X27149261Y-14332554D01*
X27149261Y-14323030D01*
X27139737Y-14303983D01*
X27120689Y-14294459D01*
X27092118Y-14294459D01*
X27073070Y-14284935D01*
X27063547Y-14265887D01*
X27063547Y-14256364D01*
X27073070Y-14237316D01*
X27092118Y-14227792D01*
X27120689Y-14227792D01*
X27139737Y-14237316D01*
X27263547Y-14361126D02*
X27244499Y-14351602D01*
X27234975Y-14332554D01*
X27234975Y-14161126D01*
X27368308Y-14361126D02*
X27349261Y-14351602D01*
X27339737Y-14342078D01*
X27330213Y-14323030D01*
X27330213Y-14265887D01*
X27339737Y-14246840D01*
X27349261Y-14237316D01*
X27368308Y-14227792D01*
X27396880Y-14227792D01*
X27415928Y-14237316D01*
X27425451Y-14246840D01*
X27434975Y-14265887D01*
X27434975Y-14323030D01*
X27425451Y-14342078D01*
X27415928Y-14351602D01*
X27396880Y-14361126D01*
X27368308Y-14361126D01*
X27492118Y-14227792D02*
X27568308Y-14227792D01*
X27520689Y-14161126D02*
X27520689Y-14332554D01*
X27530213Y-14351602D01*
X27549261Y-14361126D01*
X27568308Y-14361126D01*
X27625451Y-14351602D02*
X27644499Y-14361126D01*
X27682594Y-14361126D01*
X27701642Y-14351602D01*
X27711166Y-14332554D01*
X27711166Y-14323030D01*
X27701642Y-14303983D01*
X27682594Y-14294459D01*
X27654023Y-14294459D01*
X27634975Y-14284935D01*
X27625451Y-14265887D01*
X27625451Y-14256364D01*
X27634975Y-14237316D01*
X27654023Y-14227792D01*
X27682594Y-14227792D01*
X27701642Y-14237316D01*
X27777832Y-14437316D02*
X27787356Y-14427792D01*
X27806404Y-14399221D01*
X27815928Y-14380173D01*
X27825451Y-14351602D01*
X27834975Y-14303983D01*
X27834975Y-14265887D01*
X27825451Y-14218268D01*
X27815928Y-14189697D01*
X27806404Y-14170649D01*
X27787356Y-14142078D01*
X27777832Y-14132554D01*
X28139737Y-14437316D02*
X28130213Y-14427792D01*
X28111166Y-14399221D01*
X28101642Y-14380173D01*
X28092118Y-14351602D01*
X28082594Y-14303983D01*
X28082594Y-14265887D01*
X28092118Y-14218268D01*
X28101642Y-14189697D01*
X28111166Y-14170649D01*
X28130213Y-14142078D01*
X28139737Y-14132554D01*
X28215928Y-14227792D02*
X28215928Y-14361126D01*
X28215928Y-14246840D02*
X28225451Y-14237316D01*
X28244499Y-14227792D01*
X28273070Y-14227792D01*
X28292118Y-14237316D01*
X28301642Y-14256364D01*
X28301642Y-14361126D01*
X28425451Y-14361126D02*
X28406404Y-14351602D01*
X28396880Y-14342078D01*
X28387356Y-14323030D01*
X28387356Y-14265887D01*
X28396880Y-14246840D01*
X28406404Y-14237316D01*
X28425451Y-14227792D01*
X28454023Y-14227792D01*
X28473070Y-14237316D01*
X28482594Y-14246840D01*
X28492118Y-14265887D01*
X28492118Y-14323030D01*
X28482594Y-14342078D01*
X28473070Y-14351602D01*
X28454023Y-14361126D01*
X28425451Y-14361126D01*
X28549261Y-14227792D02*
X28625451Y-14227792D01*
X28577832Y-14161126D02*
X28577832Y-14332554D01*
X28587356Y-14351602D01*
X28606404Y-14361126D01*
X28625451Y-14361126D01*
X28844499Y-14227792D02*
X28844499Y-14427792D01*
X28844499Y-14237316D02*
X28863547Y-14227792D01*
X28901642Y-14227792D01*
X28920689Y-14237316D01*
X28930213Y-14246840D01*
X28939737Y-14265887D01*
X28939737Y-14323030D01*
X28930213Y-14342078D01*
X28920689Y-14351602D01*
X28901642Y-14361126D01*
X28863547Y-14361126D01*
X28844499Y-14351602D01*
X29054023Y-14361126D02*
X29034975Y-14351602D01*
X29025451Y-14332554D01*
X29025451Y-14161126D01*
X29215928Y-14361126D02*
X29215928Y-14256364D01*
X29206404Y-14237316D01*
X29187356Y-14227792D01*
X29149261Y-14227792D01*
X29130213Y-14237316D01*
X29215928Y-14351602D02*
X29196880Y-14361126D01*
X29149261Y-14361126D01*
X29130213Y-14351602D01*
X29120689Y-14332554D01*
X29120689Y-14313507D01*
X29130213Y-14294459D01*
X29149261Y-14284935D01*
X29196880Y-14284935D01*
X29215928Y-14275411D01*
X29282594Y-14227792D02*
X29358785Y-14227792D01*
X29311166Y-14161126D02*
X29311166Y-14332554D01*
X29320689Y-14351602D01*
X29339737Y-14361126D01*
X29358785Y-14361126D01*
X29501642Y-14351602D02*
X29482594Y-14361126D01*
X29444499Y-14361126D01*
X29425451Y-14351602D01*
X29415928Y-14332554D01*
X29415928Y-14256364D01*
X29425451Y-14237316D01*
X29444499Y-14227792D01*
X29482594Y-14227792D01*
X29501642Y-14237316D01*
X29511166Y-14256364D01*
X29511166Y-14275411D01*
X29415928Y-14294459D01*
X29682594Y-14361126D02*
X29682594Y-14161126D01*
X29682594Y-14351602D02*
X29663547Y-14361126D01*
X29625451Y-14361126D01*
X29606404Y-14351602D01*
X29596880Y-14342078D01*
X29587356Y-14323030D01*
X29587356Y-14265887D01*
X29596880Y-14246840D01*
X29606404Y-14237316D01*
X29625451Y-14227792D01*
X29663547Y-14227792D01*
X29682594Y-14237316D01*
X29758785Y-14437316D02*
X29768308Y-14427792D01*
X29787356Y-14399221D01*
X29796880Y-14380173D01*
X29806404Y-14351602D01*
X29815928Y-14303983D01*
X29815928Y-14265887D01*
X29806404Y-14218268D01*
X29796880Y-14189697D01*
X29787356Y-14170649D01*
X29768308Y-14142078D01*
X29758785Y-14132554D01*
D13*
X21386880Y-14534649D02*
G75*
G03*
X21386880Y-14534649I-30000J0D01*
G01*
D11*
X21682594Y-14425126D02*
X21701642Y-14425126D01*
X21720690Y-14434649D01*
X21730213Y-14444173D01*
X21739737Y-14463221D01*
X21749261Y-14501316D01*
X21749261Y-14548935D01*
X21739737Y-14587030D01*
X21730213Y-14606078D01*
X21720690Y-14615602D01*
X21701642Y-14625126D01*
X21682594Y-14625126D01*
X21663547Y-14615602D01*
X21654023Y-14606078D01*
X21644499Y-14587030D01*
X21634975Y-14548935D01*
X21634975Y-14501316D01*
X21644499Y-14463221D01*
X21654023Y-14444173D01*
X21663547Y-14434649D01*
X21682594Y-14425126D01*
X21834975Y-14606078D02*
X21844499Y-14615602D01*
X21834975Y-14625126D01*
X21825451Y-14615602D01*
X21834975Y-14606078D01*
X21834975Y-14625126D01*
X22015928Y-14425126D02*
X21977832Y-14425126D01*
X21958785Y-14434649D01*
X21949261Y-14444173D01*
X21930213Y-14472745D01*
X21920690Y-14510840D01*
X21920690Y-14587030D01*
X21930213Y-14606078D01*
X21939737Y-14615602D01*
X21958785Y-14625126D01*
X21996880Y-14625126D01*
X22015928Y-14615602D01*
X22025451Y-14606078D01*
X22034975Y-14587030D01*
X22034975Y-14539411D01*
X22025451Y-14520364D01*
X22015928Y-14510840D01*
X21996880Y-14501316D01*
X21958785Y-14501316D01*
X21939737Y-14510840D01*
X21930213Y-14520364D01*
X21920690Y-14539411D01*
X22158785Y-14425126D02*
X22177832Y-14425126D01*
X22196880Y-14434649D01*
X22206404Y-14444173D01*
X22215928Y-14463221D01*
X22225451Y-14501316D01*
X22225451Y-14548935D01*
X22215928Y-14587030D01*
X22206404Y-14606078D01*
X22196880Y-14615602D01*
X22177832Y-14625126D01*
X22158785Y-14625126D01*
X22139737Y-14615602D01*
X22130213Y-14606078D01*
X22120690Y-14587030D01*
X22111166Y-14548935D01*
X22111166Y-14501316D01*
X22120690Y-14463221D01*
X22130213Y-14444173D01*
X22139737Y-14434649D01*
X22158785Y-14425126D01*
X22349261Y-14425126D02*
X22368309Y-14425126D01*
X22387356Y-14434649D01*
X22396880Y-14444173D01*
X22406404Y-14463221D01*
X22415928Y-14501316D01*
X22415928Y-14548935D01*
X22406404Y-14587030D01*
X22396880Y-14606078D01*
X22387356Y-14615602D01*
X22368309Y-14625126D01*
X22349261Y-14625126D01*
X22330213Y-14615602D01*
X22320690Y-14606078D01*
X22311166Y-14587030D01*
X22301642Y-14548935D01*
X22301642Y-14501316D01*
X22311166Y-14463221D01*
X22320690Y-14444173D01*
X22330213Y-14434649D01*
X22349261Y-14425126D01*
X22501642Y-14625126D02*
X22501642Y-14491792D01*
X22501642Y-14510840D02*
X22511166Y-14501316D01*
X22530213Y-14491792D01*
X22558785Y-14491792D01*
X22577832Y-14501316D01*
X22587356Y-14520364D01*
X22587356Y-14625126D01*
X22587356Y-14520364D02*
X22596880Y-14501316D01*
X22615928Y-14491792D01*
X22644499Y-14491792D01*
X22663547Y-14501316D01*
X22673070Y-14520364D01*
X22673070Y-14625126D01*
X22768308Y-14625126D02*
X22768308Y-14491792D01*
X22768308Y-14510840D02*
X22777832Y-14501316D01*
X22796880Y-14491792D01*
X22825451Y-14491792D01*
X22844499Y-14501316D01*
X22854023Y-14520364D01*
X22854023Y-14625126D01*
X22854023Y-14520364D02*
X22863547Y-14501316D01*
X22882594Y-14491792D01*
X22911166Y-14491792D01*
X22930213Y-14501316D01*
X22939737Y-14520364D01*
X22939737Y-14625126D01*
X23330213Y-14415602D02*
X23158785Y-14672745D01*
X23587356Y-14425126D02*
X23606404Y-14425126D01*
X23625451Y-14434649D01*
X23634975Y-14444173D01*
X23644499Y-14463221D01*
X23654023Y-14501316D01*
X23654023Y-14548935D01*
X23644499Y-14587030D01*
X23634975Y-14606078D01*
X23625451Y-14615602D01*
X23606404Y-14625126D01*
X23587356Y-14625126D01*
X23568308Y-14615602D01*
X23558785Y-14606078D01*
X23549261Y-14587030D01*
X23539737Y-14548935D01*
X23539737Y-14501316D01*
X23549261Y-14463221D01*
X23558785Y-14444173D01*
X23568308Y-14434649D01*
X23587356Y-14425126D01*
X23739737Y-14606078D02*
X23749261Y-14615602D01*
X23739737Y-14625126D01*
X23730213Y-14615602D01*
X23739737Y-14606078D01*
X23739737Y-14625126D01*
X23873070Y-14425126D02*
X23892118Y-14425126D01*
X23911166Y-14434649D01*
X23920689Y-14444173D01*
X23930213Y-14463221D01*
X23939737Y-14501316D01*
X23939737Y-14548935D01*
X23930213Y-14587030D01*
X23920689Y-14606078D01*
X23911166Y-14615602D01*
X23892118Y-14625126D01*
X23873070Y-14625126D01*
X23854023Y-14615602D01*
X23844499Y-14606078D01*
X23834975Y-14587030D01*
X23825451Y-14548935D01*
X23825451Y-14501316D01*
X23834975Y-14463221D01*
X23844499Y-14444173D01*
X23854023Y-14434649D01*
X23873070Y-14425126D01*
X24015928Y-14444173D02*
X24025451Y-14434649D01*
X24044499Y-14425126D01*
X24092118Y-14425126D01*
X24111166Y-14434649D01*
X24120689Y-14444173D01*
X24130213Y-14463221D01*
X24130213Y-14482268D01*
X24120689Y-14510840D01*
X24006404Y-14625126D01*
X24130213Y-14625126D01*
X24196880Y-14425126D02*
X24320689Y-14425126D01*
X24254023Y-14501316D01*
X24282594Y-14501316D01*
X24301642Y-14510840D01*
X24311166Y-14520364D01*
X24320689Y-14539411D01*
X24320689Y-14587030D01*
X24311166Y-14606078D01*
X24301642Y-14615602D01*
X24282594Y-14625126D01*
X24225451Y-14625126D01*
X24206404Y-14615602D01*
X24196880Y-14606078D01*
X24492118Y-14425126D02*
X24454023Y-14425126D01*
X24434975Y-14434649D01*
X24425451Y-14444173D01*
X24406404Y-14472745D01*
X24396880Y-14510840D01*
X24396880Y-14587030D01*
X24406404Y-14606078D01*
X24415928Y-14615602D01*
X24434975Y-14625126D01*
X24473070Y-14625126D01*
X24492118Y-14615602D01*
X24501642Y-14606078D01*
X24511166Y-14587030D01*
X24511166Y-14539411D01*
X24501642Y-14520364D01*
X24492118Y-14510840D01*
X24473070Y-14501316D01*
X24434975Y-14501316D01*
X24415928Y-14510840D01*
X24406404Y-14520364D01*
X24396880Y-14539411D01*
X24587356Y-14425126D02*
X24587356Y-14463221D01*
X24663547Y-14425126D02*
X24663547Y-14463221D01*
X24958785Y-14701316D02*
X24949261Y-14691792D01*
X24930213Y-14663221D01*
X24920689Y-14644173D01*
X24911166Y-14615602D01*
X24901642Y-14567983D01*
X24901642Y-14529887D01*
X24911166Y-14482268D01*
X24920689Y-14453697D01*
X24930213Y-14434649D01*
X24949261Y-14406078D01*
X24958785Y-14396554D01*
X25073070Y-14425126D02*
X25092118Y-14425126D01*
X25111166Y-14434649D01*
X25120689Y-14444173D01*
X25130213Y-14463221D01*
X25139737Y-14501316D01*
X25139737Y-14548935D01*
X25130213Y-14587030D01*
X25120689Y-14606078D01*
X25111166Y-14615602D01*
X25092118Y-14625126D01*
X25073070Y-14625126D01*
X25054023Y-14615602D01*
X25044499Y-14606078D01*
X25034975Y-14587030D01*
X25025451Y-14548935D01*
X25025451Y-14501316D01*
X25034975Y-14463221D01*
X25044499Y-14444173D01*
X25054023Y-14434649D01*
X25073070Y-14425126D01*
X25377832Y-14625126D02*
X25377832Y-14425126D01*
X25463547Y-14625126D02*
X25463547Y-14520364D01*
X25454023Y-14501316D01*
X25434975Y-14491792D01*
X25406404Y-14491792D01*
X25387356Y-14501316D01*
X25377832Y-14510840D01*
X25587356Y-14625126D02*
X25568308Y-14615602D01*
X25558785Y-14606078D01*
X25549261Y-14587030D01*
X25549261Y-14529887D01*
X25558785Y-14510840D01*
X25568308Y-14501316D01*
X25587356Y-14491792D01*
X25615928Y-14491792D01*
X25634975Y-14501316D01*
X25644499Y-14510840D01*
X25654023Y-14529887D01*
X25654023Y-14587030D01*
X25644499Y-14606078D01*
X25634975Y-14615602D01*
X25615928Y-14625126D01*
X25587356Y-14625126D01*
X25768308Y-14625126D02*
X25749261Y-14615602D01*
X25739737Y-14596554D01*
X25739737Y-14425126D01*
X25920689Y-14615602D02*
X25901642Y-14625126D01*
X25863547Y-14625126D01*
X25844499Y-14615602D01*
X25834975Y-14596554D01*
X25834975Y-14520364D01*
X25844499Y-14501316D01*
X25863547Y-14491792D01*
X25901642Y-14491792D01*
X25920689Y-14501316D01*
X25930213Y-14520364D01*
X25930213Y-14539411D01*
X25834975Y-14558459D01*
X26006404Y-14615602D02*
X26025451Y-14625126D01*
X26063547Y-14625126D01*
X26082594Y-14615602D01*
X26092118Y-14596554D01*
X26092118Y-14587030D01*
X26082594Y-14567983D01*
X26063547Y-14558459D01*
X26034975Y-14558459D01*
X26015928Y-14548935D01*
X26006404Y-14529887D01*
X26006404Y-14520364D01*
X26015928Y-14501316D01*
X26034975Y-14491792D01*
X26063547Y-14491792D01*
X26082594Y-14501316D01*
X26330213Y-14548935D02*
X26482594Y-14548935D01*
X26406404Y-14625126D02*
X26406404Y-14472745D01*
X26711166Y-14425126D02*
X26834975Y-14425126D01*
X26768308Y-14501316D01*
X26796880Y-14501316D01*
X26815928Y-14510840D01*
X26825451Y-14520364D01*
X26834975Y-14539411D01*
X26834975Y-14587030D01*
X26825451Y-14606078D01*
X26815928Y-14615602D01*
X26796880Y-14625126D01*
X26739737Y-14625126D01*
X26720689Y-14615602D01*
X26711166Y-14606078D01*
X27063547Y-14615602D02*
X27082594Y-14625126D01*
X27120689Y-14625126D01*
X27139737Y-14615602D01*
X27149261Y-14596554D01*
X27149261Y-14587030D01*
X27139737Y-14567983D01*
X27120689Y-14558459D01*
X27092118Y-14558459D01*
X27073070Y-14548935D01*
X27063547Y-14529887D01*
X27063547Y-14520364D01*
X27073070Y-14501316D01*
X27092118Y-14491792D01*
X27120689Y-14491792D01*
X27139737Y-14501316D01*
X27263547Y-14625126D02*
X27244499Y-14615602D01*
X27234975Y-14596554D01*
X27234975Y-14425126D01*
X27368308Y-14625126D02*
X27349261Y-14615602D01*
X27339737Y-14606078D01*
X27330213Y-14587030D01*
X27330213Y-14529887D01*
X27339737Y-14510840D01*
X27349261Y-14501316D01*
X27368308Y-14491792D01*
X27396880Y-14491792D01*
X27415928Y-14501316D01*
X27425451Y-14510840D01*
X27434975Y-14529887D01*
X27434975Y-14587030D01*
X27425451Y-14606078D01*
X27415928Y-14615602D01*
X27396880Y-14625126D01*
X27368308Y-14625126D01*
X27492118Y-14491792D02*
X27568308Y-14491792D01*
X27520689Y-14425126D02*
X27520689Y-14596554D01*
X27530213Y-14615602D01*
X27549261Y-14625126D01*
X27568308Y-14625126D01*
X27625451Y-14615602D02*
X27644499Y-14625126D01*
X27682594Y-14625126D01*
X27701642Y-14615602D01*
X27711166Y-14596554D01*
X27711166Y-14587030D01*
X27701642Y-14567983D01*
X27682594Y-14558459D01*
X27654023Y-14558459D01*
X27634975Y-14548935D01*
X27625451Y-14529887D01*
X27625451Y-14520364D01*
X27634975Y-14501316D01*
X27654023Y-14491792D01*
X27682594Y-14491792D01*
X27701642Y-14501316D01*
X27777832Y-14701316D02*
X27787356Y-14691792D01*
X27806404Y-14663221D01*
X27815928Y-14644173D01*
X27825451Y-14615602D01*
X27834975Y-14567983D01*
X27834975Y-14529887D01*
X27825451Y-14482268D01*
X27815928Y-14453697D01*
X27806404Y-14434649D01*
X27787356Y-14406078D01*
X27777832Y-14396554D01*
X28139737Y-14701316D02*
X28130213Y-14691792D01*
X28111166Y-14663221D01*
X28101642Y-14644173D01*
X28092118Y-14615602D01*
X28082594Y-14567983D01*
X28082594Y-14529887D01*
X28092118Y-14482268D01*
X28101642Y-14453697D01*
X28111166Y-14434649D01*
X28130213Y-14406078D01*
X28139737Y-14396554D01*
X28215928Y-14491792D02*
X28215928Y-14625126D01*
X28215928Y-14510840D02*
X28225451Y-14501316D01*
X28244499Y-14491792D01*
X28273070Y-14491792D01*
X28292118Y-14501316D01*
X28301642Y-14520364D01*
X28301642Y-14625126D01*
X28425451Y-14625126D02*
X28406404Y-14615602D01*
X28396880Y-14606078D01*
X28387356Y-14587030D01*
X28387356Y-14529887D01*
X28396880Y-14510840D01*
X28406404Y-14501316D01*
X28425451Y-14491792D01*
X28454023Y-14491792D01*
X28473070Y-14501316D01*
X28482594Y-14510840D01*
X28492118Y-14529887D01*
X28492118Y-14587030D01*
X28482594Y-14606078D01*
X28473070Y-14615602D01*
X28454023Y-14625126D01*
X28425451Y-14625126D01*
X28549261Y-14491792D02*
X28625451Y-14491792D01*
X28577832Y-14425126D02*
X28577832Y-14596554D01*
X28587356Y-14615602D01*
X28606404Y-14625126D01*
X28625451Y-14625126D01*
X28844499Y-14491792D02*
X28844499Y-14691792D01*
X28844499Y-14501316D02*
X28863547Y-14491792D01*
X28901642Y-14491792D01*
X28920689Y-14501316D01*
X28930213Y-14510840D01*
X28939737Y-14529887D01*
X28939737Y-14587030D01*
X28930213Y-14606078D01*
X28920689Y-14615602D01*
X28901642Y-14625126D01*
X28863547Y-14625126D01*
X28844499Y-14615602D01*
X29054023Y-14625126D02*
X29034975Y-14615602D01*
X29025451Y-14596554D01*
X29025451Y-14425126D01*
X29215928Y-14625126D02*
X29215928Y-14520364D01*
X29206404Y-14501316D01*
X29187356Y-14491792D01*
X29149261Y-14491792D01*
X29130213Y-14501316D01*
X29215928Y-14615602D02*
X29196880Y-14625126D01*
X29149261Y-14625126D01*
X29130213Y-14615602D01*
X29120689Y-14596554D01*
X29120689Y-14577507D01*
X29130213Y-14558459D01*
X29149261Y-14548935D01*
X29196880Y-14548935D01*
X29215928Y-14539411D01*
X29282594Y-14491792D02*
X29358785Y-14491792D01*
X29311166Y-14425126D02*
X29311166Y-14596554D01*
X29320689Y-14615602D01*
X29339737Y-14625126D01*
X29358785Y-14625126D01*
X29501642Y-14615602D02*
X29482594Y-14625126D01*
X29444499Y-14625126D01*
X29425451Y-14615602D01*
X29415928Y-14596554D01*
X29415928Y-14520364D01*
X29425451Y-14501316D01*
X29444499Y-14491792D01*
X29482594Y-14491792D01*
X29501642Y-14501316D01*
X29511166Y-14520364D01*
X29511166Y-14539411D01*
X29415928Y-14558459D01*
X29682594Y-14625126D02*
X29682594Y-14425126D01*
X29682594Y-14615602D02*
X29663547Y-14625126D01*
X29625451Y-14625126D01*
X29606404Y-14615602D01*
X29596880Y-14606078D01*
X29587356Y-14587030D01*
X29587356Y-14529887D01*
X29596880Y-14510840D01*
X29606404Y-14501316D01*
X29625451Y-14491792D01*
X29663547Y-14491792D01*
X29682594Y-14501316D01*
X29758785Y-14701316D02*
X29768308Y-14691792D01*
X29787356Y-14663221D01*
X29796880Y-14644173D01*
X29806404Y-14615602D01*
X29815928Y-14567983D01*
X29815928Y-14529887D01*
X29806404Y-14482268D01*
X29796880Y-14453697D01*
X29787356Y-14434649D01*
X29768308Y-14406078D01*
X29758785Y-14396554D01*
M02*
