%TF.GenerationSoftware,KiCad,Pcbnew,(6.0.10)*%
%TF.CreationDate,2023-02-27T19:57:09-05:00*%
%TF.ProjectId,ECG_2.0,4543475f-322e-4302-9e6b-696361645f70,rev?*%
%TF.SameCoordinates,Original*%
%TF.FileFunction,Drillmap*%
%TF.FilePolarity,Positive*%
%FSLAX45Y45*%
G04 Gerber Fmt 4.5, Leading zero omitted, Abs format (unit mm)*
G04 Created by KiCad (PCBNEW (6.0.10)) date 2023-02-27 19:57:09*
%MOMM*%
%LPD*%
G01*
G04 APERTURE LIST*
%ADD10C,0.100000*%
%ADD11C,0.200000*%
%ADD12C,0.050000*%
%ADD13C,0.060000*%
G04 APERTURE END LIST*
D10*
X21386800Y-13665200D02*
G75*
G03*
X21590000Y-13868400I203200J0D01*
G01*
X25450800Y-13868400D02*
G75*
G03*
X25603200Y-13716000I0J152400D01*
G01*
X25608824Y-7062331D02*
X25603200Y-13716000D01*
X25608824Y-7062331D02*
G75*
G03*
X25450800Y-6903172I-158024J1131D01*
G01*
X21539200Y-6903172D02*
G75*
G03*
X21381172Y-7061200I0J-158028D01*
G01*
X25450800Y-13868400D02*
X21590000Y-13868400D01*
X21386800Y-13665200D02*
X21381172Y-7061200D01*
X21539200Y-6903172D02*
X25450800Y-6903172D01*
D11*
D12*
X21475200Y-10287400D02*
X21525200Y-10337400D01*
X21525200Y-10287400D02*
X21475200Y-10337400D01*
D11*
X21525200Y-10352400D02*
X21525200Y-10272400D01*
X21475200Y-10352400D02*
X21475200Y-10272400D01*
X21525200Y-10272400D02*
G75*
G03*
X21475200Y-10272400I-25000J0D01*
G01*
X21475200Y-10352400D02*
G75*
G03*
X21525200Y-10352400I25000J0D01*
G01*
D12*
X22295200Y-10287400D02*
X22345200Y-10337400D01*
X22345200Y-10287400D02*
X22295200Y-10337400D01*
D11*
X22345200Y-10352400D02*
X22345200Y-10272400D01*
X22295200Y-10352400D02*
X22295200Y-10272400D01*
X22345200Y-10272400D02*
G75*
G03*
X22295200Y-10272400I-25000J0D01*
G01*
X22295200Y-10352400D02*
G75*
G03*
X22345200Y-10352400I25000J0D01*
G01*
D12*
X23517200Y-10414400D02*
X23567200Y-10464400D01*
X23567200Y-10414400D02*
X23517200Y-10464400D01*
D11*
X23567200Y-10479400D02*
X23567200Y-10399400D01*
X23517200Y-10479400D02*
X23517200Y-10399400D01*
X23567200Y-10399400D02*
G75*
G03*
X23517200Y-10399400I-25000J0D01*
G01*
X23517200Y-10479400D02*
G75*
G03*
X23567200Y-10479400I25000J0D01*
G01*
D12*
X24337200Y-10414400D02*
X24387200Y-10464400D01*
X24387200Y-10414400D02*
X24337200Y-10464400D01*
D11*
X24387200Y-10479400D02*
X24387200Y-10399400D01*
X24337200Y-10479400D02*
X24337200Y-10399400D01*
X24387200Y-10399400D02*
G75*
G03*
X24337200Y-10399400I-25000J0D01*
G01*
X24337200Y-10479400D02*
G75*
G03*
X24387200Y-10479400I25000J0D01*
G01*
D12*
X25032700Y-9252600D02*
X25082700Y-9302600D01*
X25082700Y-9252600D02*
X25032700Y-9302600D01*
D11*
X25097700Y-9252600D02*
X25017700Y-9252600D01*
X25097700Y-9302600D02*
X25017700Y-9302600D01*
X25017700Y-9252600D02*
G75*
G03*
X25017700Y-9302600I0J-25000D01*
G01*
X25097700Y-9302600D02*
G75*
G03*
X25097700Y-9252600I0J25000D01*
G01*
D12*
X25032700Y-10072600D02*
X25082700Y-10122600D01*
X25082700Y-10072600D02*
X25032700Y-10122600D01*
D11*
X25097700Y-10072600D02*
X25017700Y-10072600D01*
X25097700Y-10122600D02*
X25017700Y-10122600D01*
X25017700Y-10072600D02*
G75*
G03*
X25017700Y-10122600I0J-25000D01*
G01*
X25097700Y-10122600D02*
G75*
G03*
X25097700Y-10072600I0J25000D01*
G01*
D13*
X25012550Y-8188000D02*
G75*
G03*
X25012550Y-8188000I-30000J0D01*
G01*
D11*
X24927550Y-8218000D02*
X25037550Y-8218000D01*
X24927550Y-8158000D02*
X25037550Y-8158000D01*
X25037550Y-8218000D02*
G75*
G03*
X25037550Y-8158000I0J30000D01*
G01*
X24927550Y-8158000D02*
G75*
G03*
X24927550Y-8218000I0J-30000D01*
G01*
D13*
X25012550Y-9053000D02*
G75*
G03*
X25012550Y-9053000I-30000J0D01*
G01*
D11*
X24927550Y-9083000D02*
X25037550Y-9083000D01*
X24927550Y-9023000D02*
X25037550Y-9023000D01*
X25037550Y-9083000D02*
G75*
G03*
X25037550Y-9023000I0J30000D01*
G01*
X24927550Y-9023000D02*
G75*
G03*
X24927550Y-9083000I0J-30000D01*
G01*
D13*
X25429550Y-9053000D02*
G75*
G03*
X25429550Y-9053000I-30000J0D01*
G01*
D11*
X25359550Y-9083000D02*
X25439550Y-9083000D01*
X25359550Y-9023000D02*
X25439550Y-9023000D01*
X25439550Y-9083000D02*
G75*
G03*
X25439550Y-9023000I0J30000D01*
G01*
X25359550Y-9023000D02*
G75*
G03*
X25359550Y-9083000I0J-30000D01*
G01*
X21633791Y-14183876D02*
X21633791Y-13983876D01*
X21681410Y-13983876D01*
X21709982Y-13993400D01*
X21729029Y-14012448D01*
X21738553Y-14031495D01*
X21748077Y-14069590D01*
X21748077Y-14098162D01*
X21738553Y-14136257D01*
X21729029Y-14155305D01*
X21709982Y-14174352D01*
X21681410Y-14183876D01*
X21633791Y-14183876D01*
X21833791Y-14183876D02*
X21833791Y-14050543D01*
X21833791Y-14088638D02*
X21843315Y-14069590D01*
X21852839Y-14060067D01*
X21871886Y-14050543D01*
X21890934Y-14050543D01*
X21957601Y-14183876D02*
X21957601Y-14050543D01*
X21957601Y-13983876D02*
X21948077Y-13993400D01*
X21957601Y-14002924D01*
X21967124Y-13993400D01*
X21957601Y-13983876D01*
X21957601Y-14002924D01*
X22081410Y-14183876D02*
X22062363Y-14174352D01*
X22052839Y-14155305D01*
X22052839Y-13983876D01*
X22186172Y-14183876D02*
X22167124Y-14174352D01*
X22157601Y-14155305D01*
X22157601Y-13983876D01*
X22414743Y-14183876D02*
X22414743Y-13983876D01*
X22481410Y-14126733D01*
X22548077Y-13983876D01*
X22548077Y-14183876D01*
X22729029Y-14183876D02*
X22729029Y-14079114D01*
X22719505Y-14060067D01*
X22700458Y-14050543D01*
X22662362Y-14050543D01*
X22643315Y-14060067D01*
X22729029Y-14174352D02*
X22709982Y-14183876D01*
X22662362Y-14183876D01*
X22643315Y-14174352D01*
X22633791Y-14155305D01*
X22633791Y-14136257D01*
X22643315Y-14117209D01*
X22662362Y-14107686D01*
X22709982Y-14107686D01*
X22729029Y-14098162D01*
X22824267Y-14050543D02*
X22824267Y-14250543D01*
X22824267Y-14060067D02*
X22843315Y-14050543D01*
X22881410Y-14050543D01*
X22900458Y-14060067D01*
X22909982Y-14069590D01*
X22919505Y-14088638D01*
X22919505Y-14145781D01*
X22909982Y-14164828D01*
X22900458Y-14174352D01*
X22881410Y-14183876D01*
X22843315Y-14183876D01*
X22824267Y-14174352D01*
X23005220Y-14164828D02*
X23014743Y-14174352D01*
X23005220Y-14183876D01*
X22995696Y-14174352D01*
X23005220Y-14164828D01*
X23005220Y-14183876D01*
X23005220Y-14060067D02*
X23014743Y-14069590D01*
X23005220Y-14079114D01*
X22995696Y-14069590D01*
X23005220Y-14060067D01*
X23005220Y-14079114D01*
D12*
X21326172Y-14488400D02*
X21376172Y-14538400D01*
X21376172Y-14488400D02*
X21326172Y-14538400D01*
D11*
X21671886Y-14403876D02*
X21690934Y-14403876D01*
X21709982Y-14413400D01*
X21719505Y-14422924D01*
X21729029Y-14441971D01*
X21738553Y-14480067D01*
X21738553Y-14527686D01*
X21729029Y-14565781D01*
X21719505Y-14584828D01*
X21709982Y-14594352D01*
X21690934Y-14603876D01*
X21671886Y-14603876D01*
X21652839Y-14594352D01*
X21643315Y-14584828D01*
X21633791Y-14565781D01*
X21624267Y-14527686D01*
X21624267Y-14480067D01*
X21633791Y-14441971D01*
X21643315Y-14422924D01*
X21652839Y-14413400D01*
X21671886Y-14403876D01*
X21824267Y-14584828D02*
X21833791Y-14594352D01*
X21824267Y-14603876D01*
X21814744Y-14594352D01*
X21824267Y-14584828D01*
X21824267Y-14603876D01*
X22014744Y-14403876D02*
X21919505Y-14403876D01*
X21909982Y-14499114D01*
X21919505Y-14489590D01*
X21938553Y-14480067D01*
X21986172Y-14480067D01*
X22005220Y-14489590D01*
X22014744Y-14499114D01*
X22024267Y-14518162D01*
X22024267Y-14565781D01*
X22014744Y-14584828D01*
X22005220Y-14594352D01*
X21986172Y-14603876D01*
X21938553Y-14603876D01*
X21919505Y-14594352D01*
X21909982Y-14584828D01*
X22148077Y-14403876D02*
X22167124Y-14403876D01*
X22186172Y-14413400D01*
X22195696Y-14422924D01*
X22205220Y-14441971D01*
X22214744Y-14480067D01*
X22214744Y-14527686D01*
X22205220Y-14565781D01*
X22195696Y-14584828D01*
X22186172Y-14594352D01*
X22167124Y-14603876D01*
X22148077Y-14603876D01*
X22129029Y-14594352D01*
X22119505Y-14584828D01*
X22109982Y-14565781D01*
X22100458Y-14527686D01*
X22100458Y-14480067D01*
X22109982Y-14441971D01*
X22119505Y-14422924D01*
X22129029Y-14413400D01*
X22148077Y-14403876D01*
X22338553Y-14403876D02*
X22357601Y-14403876D01*
X22376648Y-14413400D01*
X22386172Y-14422924D01*
X22395696Y-14441971D01*
X22405220Y-14480067D01*
X22405220Y-14527686D01*
X22395696Y-14565781D01*
X22386172Y-14584828D01*
X22376648Y-14594352D01*
X22357601Y-14603876D01*
X22338553Y-14603876D01*
X22319505Y-14594352D01*
X22309982Y-14584828D01*
X22300458Y-14565781D01*
X22290934Y-14527686D01*
X22290934Y-14480067D01*
X22300458Y-14441971D01*
X22309982Y-14422924D01*
X22319505Y-14413400D01*
X22338553Y-14403876D01*
X22490934Y-14603876D02*
X22490934Y-14470543D01*
X22490934Y-14489590D02*
X22500458Y-14480067D01*
X22519505Y-14470543D01*
X22548077Y-14470543D01*
X22567124Y-14480067D01*
X22576648Y-14499114D01*
X22576648Y-14603876D01*
X22576648Y-14499114D02*
X22586172Y-14480067D01*
X22605220Y-14470543D01*
X22633791Y-14470543D01*
X22652839Y-14480067D01*
X22662362Y-14499114D01*
X22662362Y-14603876D01*
X22757601Y-14603876D02*
X22757601Y-14470543D01*
X22757601Y-14489590D02*
X22767124Y-14480067D01*
X22786172Y-14470543D01*
X22814743Y-14470543D01*
X22833791Y-14480067D01*
X22843315Y-14499114D01*
X22843315Y-14603876D01*
X22843315Y-14499114D02*
X22852839Y-14480067D01*
X22871886Y-14470543D01*
X22900458Y-14470543D01*
X22919505Y-14480067D01*
X22929029Y-14499114D01*
X22929029Y-14603876D01*
X23319505Y-14394352D02*
X23148077Y-14651495D01*
X23576648Y-14403876D02*
X23595696Y-14403876D01*
X23614743Y-14413400D01*
X23624267Y-14422924D01*
X23633791Y-14441971D01*
X23643315Y-14480067D01*
X23643315Y-14527686D01*
X23633791Y-14565781D01*
X23624267Y-14584828D01*
X23614743Y-14594352D01*
X23595696Y-14603876D01*
X23576648Y-14603876D01*
X23557601Y-14594352D01*
X23548077Y-14584828D01*
X23538553Y-14565781D01*
X23529029Y-14527686D01*
X23529029Y-14480067D01*
X23538553Y-14441971D01*
X23548077Y-14422924D01*
X23557601Y-14413400D01*
X23576648Y-14403876D01*
X23729029Y-14584828D02*
X23738553Y-14594352D01*
X23729029Y-14603876D01*
X23719505Y-14594352D01*
X23729029Y-14584828D01*
X23729029Y-14603876D01*
X23862362Y-14403876D02*
X23881410Y-14403876D01*
X23900458Y-14413400D01*
X23909982Y-14422924D01*
X23919505Y-14441971D01*
X23929029Y-14480067D01*
X23929029Y-14527686D01*
X23919505Y-14565781D01*
X23909982Y-14584828D01*
X23900458Y-14594352D01*
X23881410Y-14603876D01*
X23862362Y-14603876D01*
X23843315Y-14594352D01*
X23833791Y-14584828D01*
X23824267Y-14565781D01*
X23814743Y-14527686D01*
X23814743Y-14480067D01*
X23824267Y-14441971D01*
X23833791Y-14422924D01*
X23843315Y-14413400D01*
X23862362Y-14403876D01*
X24119505Y-14603876D02*
X24005220Y-14603876D01*
X24062362Y-14603876D02*
X24062362Y-14403876D01*
X24043315Y-14432448D01*
X24024267Y-14451495D01*
X24005220Y-14461019D01*
X24214743Y-14603876D02*
X24252839Y-14603876D01*
X24271886Y-14594352D01*
X24281410Y-14584828D01*
X24300458Y-14556257D01*
X24309982Y-14518162D01*
X24309982Y-14441971D01*
X24300458Y-14422924D01*
X24290934Y-14413400D01*
X24271886Y-14403876D01*
X24233791Y-14403876D01*
X24214743Y-14413400D01*
X24205220Y-14422924D01*
X24195696Y-14441971D01*
X24195696Y-14489590D01*
X24205220Y-14508638D01*
X24214743Y-14518162D01*
X24233791Y-14527686D01*
X24271886Y-14527686D01*
X24290934Y-14518162D01*
X24300458Y-14508638D01*
X24309982Y-14489590D01*
X24376648Y-14403876D02*
X24509982Y-14403876D01*
X24424267Y-14603876D01*
X24576648Y-14403876D02*
X24576648Y-14441971D01*
X24652839Y-14403876D02*
X24652839Y-14441971D01*
X24948077Y-14680067D02*
X24938553Y-14670543D01*
X24919505Y-14641971D01*
X24909982Y-14622924D01*
X24900458Y-14594352D01*
X24890934Y-14546733D01*
X24890934Y-14508638D01*
X24900458Y-14461019D01*
X24909982Y-14432448D01*
X24919505Y-14413400D01*
X24938553Y-14384828D01*
X24948077Y-14375305D01*
X25062362Y-14403876D02*
X25081410Y-14403876D01*
X25100458Y-14413400D01*
X25109982Y-14422924D01*
X25119505Y-14441971D01*
X25129029Y-14480067D01*
X25129029Y-14527686D01*
X25119505Y-14565781D01*
X25109982Y-14584828D01*
X25100458Y-14594352D01*
X25081410Y-14603876D01*
X25062362Y-14603876D01*
X25043315Y-14594352D01*
X25033791Y-14584828D01*
X25024267Y-14565781D01*
X25014743Y-14527686D01*
X25014743Y-14480067D01*
X25024267Y-14441971D01*
X25033791Y-14422924D01*
X25043315Y-14413400D01*
X25062362Y-14403876D01*
X25367124Y-14603876D02*
X25367124Y-14403876D01*
X25452839Y-14603876D02*
X25452839Y-14499114D01*
X25443315Y-14480067D01*
X25424267Y-14470543D01*
X25395696Y-14470543D01*
X25376648Y-14480067D01*
X25367124Y-14489590D01*
X25576648Y-14603876D02*
X25557601Y-14594352D01*
X25548077Y-14584828D01*
X25538553Y-14565781D01*
X25538553Y-14508638D01*
X25548077Y-14489590D01*
X25557601Y-14480067D01*
X25576648Y-14470543D01*
X25605220Y-14470543D01*
X25624267Y-14480067D01*
X25633791Y-14489590D01*
X25643315Y-14508638D01*
X25643315Y-14565781D01*
X25633791Y-14584828D01*
X25624267Y-14594352D01*
X25605220Y-14603876D01*
X25576648Y-14603876D01*
X25757601Y-14603876D02*
X25738553Y-14594352D01*
X25729029Y-14575305D01*
X25729029Y-14403876D01*
X25909982Y-14594352D02*
X25890934Y-14603876D01*
X25852839Y-14603876D01*
X25833791Y-14594352D01*
X25824267Y-14575305D01*
X25824267Y-14499114D01*
X25833791Y-14480067D01*
X25852839Y-14470543D01*
X25890934Y-14470543D01*
X25909982Y-14480067D01*
X25919505Y-14499114D01*
X25919505Y-14518162D01*
X25824267Y-14537209D01*
X25995696Y-14594352D02*
X26014743Y-14603876D01*
X26052839Y-14603876D01*
X26071886Y-14594352D01*
X26081410Y-14575305D01*
X26081410Y-14565781D01*
X26071886Y-14546733D01*
X26052839Y-14537209D01*
X26024267Y-14537209D01*
X26005220Y-14527686D01*
X25995696Y-14508638D01*
X25995696Y-14499114D01*
X26005220Y-14480067D01*
X26024267Y-14470543D01*
X26052839Y-14470543D01*
X26071886Y-14480067D01*
X26319505Y-14527686D02*
X26471886Y-14527686D01*
X26395696Y-14603876D02*
X26395696Y-14451495D01*
X26805220Y-14403876D02*
X26767124Y-14403876D01*
X26748077Y-14413400D01*
X26738553Y-14422924D01*
X26719505Y-14451495D01*
X26709982Y-14489590D01*
X26709982Y-14565781D01*
X26719505Y-14584828D01*
X26729029Y-14594352D01*
X26748077Y-14603876D01*
X26786172Y-14603876D01*
X26805220Y-14594352D01*
X26814743Y-14584828D01*
X26824267Y-14565781D01*
X26824267Y-14518162D01*
X26814743Y-14499114D01*
X26805220Y-14489590D01*
X26786172Y-14480067D01*
X26748077Y-14480067D01*
X26729029Y-14489590D01*
X26719505Y-14499114D01*
X26709982Y-14518162D01*
X27052839Y-14594352D02*
X27071886Y-14603876D01*
X27109982Y-14603876D01*
X27129029Y-14594352D01*
X27138553Y-14575305D01*
X27138553Y-14565781D01*
X27129029Y-14546733D01*
X27109982Y-14537209D01*
X27081410Y-14537209D01*
X27062362Y-14527686D01*
X27052839Y-14508638D01*
X27052839Y-14499114D01*
X27062362Y-14480067D01*
X27081410Y-14470543D01*
X27109982Y-14470543D01*
X27129029Y-14480067D01*
X27252839Y-14603876D02*
X27233791Y-14594352D01*
X27224267Y-14575305D01*
X27224267Y-14403876D01*
X27357601Y-14603876D02*
X27338553Y-14594352D01*
X27329029Y-14584828D01*
X27319505Y-14565781D01*
X27319505Y-14508638D01*
X27329029Y-14489590D01*
X27338553Y-14480067D01*
X27357601Y-14470543D01*
X27386172Y-14470543D01*
X27405220Y-14480067D01*
X27414743Y-14489590D01*
X27424267Y-14508638D01*
X27424267Y-14565781D01*
X27414743Y-14584828D01*
X27405220Y-14594352D01*
X27386172Y-14603876D01*
X27357601Y-14603876D01*
X27481410Y-14470543D02*
X27557601Y-14470543D01*
X27509982Y-14403876D02*
X27509982Y-14575305D01*
X27519505Y-14594352D01*
X27538553Y-14603876D01*
X27557601Y-14603876D01*
X27614743Y-14594352D02*
X27633791Y-14603876D01*
X27671886Y-14603876D01*
X27690934Y-14594352D01*
X27700458Y-14575305D01*
X27700458Y-14565781D01*
X27690934Y-14546733D01*
X27671886Y-14537209D01*
X27643315Y-14537209D01*
X27624267Y-14527686D01*
X27614743Y-14508638D01*
X27614743Y-14499114D01*
X27624267Y-14480067D01*
X27643315Y-14470543D01*
X27671886Y-14470543D01*
X27690934Y-14480067D01*
X27767124Y-14680067D02*
X27776648Y-14670543D01*
X27795696Y-14641971D01*
X27805220Y-14622924D01*
X27814743Y-14594352D01*
X27824267Y-14546733D01*
X27824267Y-14508638D01*
X27814743Y-14461019D01*
X27805220Y-14432448D01*
X27795696Y-14413400D01*
X27776648Y-14384828D01*
X27767124Y-14375305D01*
X28129029Y-14680067D02*
X28119505Y-14670543D01*
X28100458Y-14641971D01*
X28090934Y-14622924D01*
X28081410Y-14594352D01*
X28071886Y-14546733D01*
X28071886Y-14508638D01*
X28081410Y-14461019D01*
X28090934Y-14432448D01*
X28100458Y-14413400D01*
X28119505Y-14384828D01*
X28129029Y-14375305D01*
X28205220Y-14470543D02*
X28205220Y-14603876D01*
X28205220Y-14489590D02*
X28214743Y-14480067D01*
X28233791Y-14470543D01*
X28262362Y-14470543D01*
X28281410Y-14480067D01*
X28290934Y-14499114D01*
X28290934Y-14603876D01*
X28414743Y-14603876D02*
X28395696Y-14594352D01*
X28386172Y-14584828D01*
X28376648Y-14565781D01*
X28376648Y-14508638D01*
X28386172Y-14489590D01*
X28395696Y-14480067D01*
X28414743Y-14470543D01*
X28443315Y-14470543D01*
X28462362Y-14480067D01*
X28471886Y-14489590D01*
X28481410Y-14508638D01*
X28481410Y-14565781D01*
X28471886Y-14584828D01*
X28462362Y-14594352D01*
X28443315Y-14603876D01*
X28414743Y-14603876D01*
X28538553Y-14470543D02*
X28614743Y-14470543D01*
X28567124Y-14403876D02*
X28567124Y-14575305D01*
X28576648Y-14594352D01*
X28595696Y-14603876D01*
X28614743Y-14603876D01*
X28833791Y-14470543D02*
X28833791Y-14670543D01*
X28833791Y-14480067D02*
X28852839Y-14470543D01*
X28890934Y-14470543D01*
X28909982Y-14480067D01*
X28919505Y-14489590D01*
X28929029Y-14508638D01*
X28929029Y-14565781D01*
X28919505Y-14584828D01*
X28909982Y-14594352D01*
X28890934Y-14603876D01*
X28852839Y-14603876D01*
X28833791Y-14594352D01*
X29043315Y-14603876D02*
X29024267Y-14594352D01*
X29014743Y-14575305D01*
X29014743Y-14403876D01*
X29205220Y-14603876D02*
X29205220Y-14499114D01*
X29195696Y-14480067D01*
X29176648Y-14470543D01*
X29138553Y-14470543D01*
X29119505Y-14480067D01*
X29205220Y-14594352D02*
X29186172Y-14603876D01*
X29138553Y-14603876D01*
X29119505Y-14594352D01*
X29109982Y-14575305D01*
X29109982Y-14556257D01*
X29119505Y-14537209D01*
X29138553Y-14527686D01*
X29186172Y-14527686D01*
X29205220Y-14518162D01*
X29271886Y-14470543D02*
X29348077Y-14470543D01*
X29300458Y-14403876D02*
X29300458Y-14575305D01*
X29309982Y-14594352D01*
X29329029Y-14603876D01*
X29348077Y-14603876D01*
X29490934Y-14594352D02*
X29471886Y-14603876D01*
X29433791Y-14603876D01*
X29414743Y-14594352D01*
X29405220Y-14575305D01*
X29405220Y-14499114D01*
X29414743Y-14480067D01*
X29433791Y-14470543D01*
X29471886Y-14470543D01*
X29490934Y-14480067D01*
X29500458Y-14499114D01*
X29500458Y-14518162D01*
X29405220Y-14537209D01*
X29671886Y-14603876D02*
X29671886Y-14403876D01*
X29671886Y-14594352D02*
X29652839Y-14603876D01*
X29614743Y-14603876D01*
X29595696Y-14594352D01*
X29586172Y-14584828D01*
X29576648Y-14565781D01*
X29576648Y-14508638D01*
X29586172Y-14489590D01*
X29595696Y-14480067D01*
X29614743Y-14470543D01*
X29652839Y-14470543D01*
X29671886Y-14480067D01*
X29748077Y-14680067D02*
X29757601Y-14670543D01*
X29776648Y-14641971D01*
X29786172Y-14622924D01*
X29795696Y-14594352D01*
X29805220Y-14546733D01*
X29805220Y-14508638D01*
X29795696Y-14461019D01*
X29786172Y-14432448D01*
X29776648Y-14413400D01*
X29757601Y-14384828D01*
X29748077Y-14375305D01*
D13*
X21376172Y-14777400D02*
G75*
G03*
X21376172Y-14777400I-30000J0D01*
G01*
D11*
X21671886Y-14667876D02*
X21690934Y-14667876D01*
X21709982Y-14677400D01*
X21719505Y-14686924D01*
X21729029Y-14705971D01*
X21738553Y-14744067D01*
X21738553Y-14791686D01*
X21729029Y-14829781D01*
X21719505Y-14848828D01*
X21709982Y-14858352D01*
X21690934Y-14867876D01*
X21671886Y-14867876D01*
X21652839Y-14858352D01*
X21643315Y-14848828D01*
X21633791Y-14829781D01*
X21624267Y-14791686D01*
X21624267Y-14744067D01*
X21633791Y-14705971D01*
X21643315Y-14686924D01*
X21652839Y-14677400D01*
X21671886Y-14667876D01*
X21824267Y-14848828D02*
X21833791Y-14858352D01*
X21824267Y-14867876D01*
X21814744Y-14858352D01*
X21824267Y-14848828D01*
X21824267Y-14867876D01*
X22005220Y-14667876D02*
X21967124Y-14667876D01*
X21948077Y-14677400D01*
X21938553Y-14686924D01*
X21919505Y-14715495D01*
X21909982Y-14753590D01*
X21909982Y-14829781D01*
X21919505Y-14848828D01*
X21929029Y-14858352D01*
X21948077Y-14867876D01*
X21986172Y-14867876D01*
X22005220Y-14858352D01*
X22014744Y-14848828D01*
X22024267Y-14829781D01*
X22024267Y-14782162D01*
X22014744Y-14763114D01*
X22005220Y-14753590D01*
X21986172Y-14744067D01*
X21948077Y-14744067D01*
X21929029Y-14753590D01*
X21919505Y-14763114D01*
X21909982Y-14782162D01*
X22148077Y-14667876D02*
X22167124Y-14667876D01*
X22186172Y-14677400D01*
X22195696Y-14686924D01*
X22205220Y-14705971D01*
X22214744Y-14744067D01*
X22214744Y-14791686D01*
X22205220Y-14829781D01*
X22195696Y-14848828D01*
X22186172Y-14858352D01*
X22167124Y-14867876D01*
X22148077Y-14867876D01*
X22129029Y-14858352D01*
X22119505Y-14848828D01*
X22109982Y-14829781D01*
X22100458Y-14791686D01*
X22100458Y-14744067D01*
X22109982Y-14705971D01*
X22119505Y-14686924D01*
X22129029Y-14677400D01*
X22148077Y-14667876D01*
X22338553Y-14667876D02*
X22357601Y-14667876D01*
X22376648Y-14677400D01*
X22386172Y-14686924D01*
X22395696Y-14705971D01*
X22405220Y-14744067D01*
X22405220Y-14791686D01*
X22395696Y-14829781D01*
X22386172Y-14848828D01*
X22376648Y-14858352D01*
X22357601Y-14867876D01*
X22338553Y-14867876D01*
X22319505Y-14858352D01*
X22309982Y-14848828D01*
X22300458Y-14829781D01*
X22290934Y-14791686D01*
X22290934Y-14744067D01*
X22300458Y-14705971D01*
X22309982Y-14686924D01*
X22319505Y-14677400D01*
X22338553Y-14667876D01*
X22490934Y-14867876D02*
X22490934Y-14734543D01*
X22490934Y-14753590D02*
X22500458Y-14744067D01*
X22519505Y-14734543D01*
X22548077Y-14734543D01*
X22567124Y-14744067D01*
X22576648Y-14763114D01*
X22576648Y-14867876D01*
X22576648Y-14763114D02*
X22586172Y-14744067D01*
X22605220Y-14734543D01*
X22633791Y-14734543D01*
X22652839Y-14744067D01*
X22662362Y-14763114D01*
X22662362Y-14867876D01*
X22757601Y-14867876D02*
X22757601Y-14734543D01*
X22757601Y-14753590D02*
X22767124Y-14744067D01*
X22786172Y-14734543D01*
X22814743Y-14734543D01*
X22833791Y-14744067D01*
X22843315Y-14763114D01*
X22843315Y-14867876D01*
X22843315Y-14763114D02*
X22852839Y-14744067D01*
X22871886Y-14734543D01*
X22900458Y-14734543D01*
X22919505Y-14744067D01*
X22929029Y-14763114D01*
X22929029Y-14867876D01*
X23319505Y-14658352D02*
X23148077Y-14915495D01*
X23576648Y-14667876D02*
X23595696Y-14667876D01*
X23614743Y-14677400D01*
X23624267Y-14686924D01*
X23633791Y-14705971D01*
X23643315Y-14744067D01*
X23643315Y-14791686D01*
X23633791Y-14829781D01*
X23624267Y-14848828D01*
X23614743Y-14858352D01*
X23595696Y-14867876D01*
X23576648Y-14867876D01*
X23557601Y-14858352D01*
X23548077Y-14848828D01*
X23538553Y-14829781D01*
X23529029Y-14791686D01*
X23529029Y-14744067D01*
X23538553Y-14705971D01*
X23548077Y-14686924D01*
X23557601Y-14677400D01*
X23576648Y-14667876D01*
X23729029Y-14848828D02*
X23738553Y-14858352D01*
X23729029Y-14867876D01*
X23719505Y-14858352D01*
X23729029Y-14848828D01*
X23729029Y-14867876D01*
X23862362Y-14667876D02*
X23881410Y-14667876D01*
X23900458Y-14677400D01*
X23909982Y-14686924D01*
X23919505Y-14705971D01*
X23929029Y-14744067D01*
X23929029Y-14791686D01*
X23919505Y-14829781D01*
X23909982Y-14848828D01*
X23900458Y-14858352D01*
X23881410Y-14867876D01*
X23862362Y-14867876D01*
X23843315Y-14858352D01*
X23833791Y-14848828D01*
X23824267Y-14829781D01*
X23814743Y-14791686D01*
X23814743Y-14744067D01*
X23824267Y-14705971D01*
X23833791Y-14686924D01*
X23843315Y-14677400D01*
X23862362Y-14667876D01*
X24005220Y-14686924D02*
X24014743Y-14677400D01*
X24033791Y-14667876D01*
X24081410Y-14667876D01*
X24100458Y-14677400D01*
X24109982Y-14686924D01*
X24119505Y-14705971D01*
X24119505Y-14725019D01*
X24109982Y-14753590D01*
X23995696Y-14867876D01*
X24119505Y-14867876D01*
X24186172Y-14667876D02*
X24309982Y-14667876D01*
X24243315Y-14744067D01*
X24271886Y-14744067D01*
X24290934Y-14753590D01*
X24300458Y-14763114D01*
X24309982Y-14782162D01*
X24309982Y-14829781D01*
X24300458Y-14848828D01*
X24290934Y-14858352D01*
X24271886Y-14867876D01*
X24214743Y-14867876D01*
X24195696Y-14858352D01*
X24186172Y-14848828D01*
X24481410Y-14667876D02*
X24443315Y-14667876D01*
X24424267Y-14677400D01*
X24414743Y-14686924D01*
X24395696Y-14715495D01*
X24386172Y-14753590D01*
X24386172Y-14829781D01*
X24395696Y-14848828D01*
X24405220Y-14858352D01*
X24424267Y-14867876D01*
X24462362Y-14867876D01*
X24481410Y-14858352D01*
X24490934Y-14848828D01*
X24500458Y-14829781D01*
X24500458Y-14782162D01*
X24490934Y-14763114D01*
X24481410Y-14753590D01*
X24462362Y-14744067D01*
X24424267Y-14744067D01*
X24405220Y-14753590D01*
X24395696Y-14763114D01*
X24386172Y-14782162D01*
X24576648Y-14667876D02*
X24576648Y-14705971D01*
X24652839Y-14667876D02*
X24652839Y-14705971D01*
X24948077Y-14944067D02*
X24938553Y-14934543D01*
X24919505Y-14905971D01*
X24909982Y-14886924D01*
X24900458Y-14858352D01*
X24890934Y-14810733D01*
X24890934Y-14772638D01*
X24900458Y-14725019D01*
X24909982Y-14696448D01*
X24919505Y-14677400D01*
X24938553Y-14648828D01*
X24948077Y-14639305D01*
X25062362Y-14667876D02*
X25081410Y-14667876D01*
X25100458Y-14677400D01*
X25109982Y-14686924D01*
X25119505Y-14705971D01*
X25129029Y-14744067D01*
X25129029Y-14791686D01*
X25119505Y-14829781D01*
X25109982Y-14848828D01*
X25100458Y-14858352D01*
X25081410Y-14867876D01*
X25062362Y-14867876D01*
X25043315Y-14858352D01*
X25033791Y-14848828D01*
X25024267Y-14829781D01*
X25014743Y-14791686D01*
X25014743Y-14744067D01*
X25024267Y-14705971D01*
X25033791Y-14686924D01*
X25043315Y-14677400D01*
X25062362Y-14667876D01*
X25367124Y-14867876D02*
X25367124Y-14667876D01*
X25452839Y-14867876D02*
X25452839Y-14763114D01*
X25443315Y-14744067D01*
X25424267Y-14734543D01*
X25395696Y-14734543D01*
X25376648Y-14744067D01*
X25367124Y-14753590D01*
X25576648Y-14867876D02*
X25557601Y-14858352D01*
X25548077Y-14848828D01*
X25538553Y-14829781D01*
X25538553Y-14772638D01*
X25548077Y-14753590D01*
X25557601Y-14744067D01*
X25576648Y-14734543D01*
X25605220Y-14734543D01*
X25624267Y-14744067D01*
X25633791Y-14753590D01*
X25643315Y-14772638D01*
X25643315Y-14829781D01*
X25633791Y-14848828D01*
X25624267Y-14858352D01*
X25605220Y-14867876D01*
X25576648Y-14867876D01*
X25757601Y-14867876D02*
X25738553Y-14858352D01*
X25729029Y-14839305D01*
X25729029Y-14667876D01*
X25909982Y-14858352D02*
X25890934Y-14867876D01*
X25852839Y-14867876D01*
X25833791Y-14858352D01*
X25824267Y-14839305D01*
X25824267Y-14763114D01*
X25833791Y-14744067D01*
X25852839Y-14734543D01*
X25890934Y-14734543D01*
X25909982Y-14744067D01*
X25919505Y-14763114D01*
X25919505Y-14782162D01*
X25824267Y-14801209D01*
X25995696Y-14858352D02*
X26014743Y-14867876D01*
X26052839Y-14867876D01*
X26071886Y-14858352D01*
X26081410Y-14839305D01*
X26081410Y-14829781D01*
X26071886Y-14810733D01*
X26052839Y-14801209D01*
X26024267Y-14801209D01*
X26005220Y-14791686D01*
X25995696Y-14772638D01*
X25995696Y-14763114D01*
X26005220Y-14744067D01*
X26024267Y-14734543D01*
X26052839Y-14734543D01*
X26071886Y-14744067D01*
X26319505Y-14791686D02*
X26471886Y-14791686D01*
X26395696Y-14867876D02*
X26395696Y-14715495D01*
X26700458Y-14667876D02*
X26824267Y-14667876D01*
X26757601Y-14744067D01*
X26786172Y-14744067D01*
X26805220Y-14753590D01*
X26814743Y-14763114D01*
X26824267Y-14782162D01*
X26824267Y-14829781D01*
X26814743Y-14848828D01*
X26805220Y-14858352D01*
X26786172Y-14867876D01*
X26729029Y-14867876D01*
X26709982Y-14858352D01*
X26700458Y-14848828D01*
X27052839Y-14858352D02*
X27071886Y-14867876D01*
X27109982Y-14867876D01*
X27129029Y-14858352D01*
X27138553Y-14839305D01*
X27138553Y-14829781D01*
X27129029Y-14810733D01*
X27109982Y-14801209D01*
X27081410Y-14801209D01*
X27062362Y-14791686D01*
X27052839Y-14772638D01*
X27052839Y-14763114D01*
X27062362Y-14744067D01*
X27081410Y-14734543D01*
X27109982Y-14734543D01*
X27129029Y-14744067D01*
X27252839Y-14867876D02*
X27233791Y-14858352D01*
X27224267Y-14839305D01*
X27224267Y-14667876D01*
X27357601Y-14867876D02*
X27338553Y-14858352D01*
X27329029Y-14848828D01*
X27319505Y-14829781D01*
X27319505Y-14772638D01*
X27329029Y-14753590D01*
X27338553Y-14744067D01*
X27357601Y-14734543D01*
X27386172Y-14734543D01*
X27405220Y-14744067D01*
X27414743Y-14753590D01*
X27424267Y-14772638D01*
X27424267Y-14829781D01*
X27414743Y-14848828D01*
X27405220Y-14858352D01*
X27386172Y-14867876D01*
X27357601Y-14867876D01*
X27481410Y-14734543D02*
X27557601Y-14734543D01*
X27509982Y-14667876D02*
X27509982Y-14839305D01*
X27519505Y-14858352D01*
X27538553Y-14867876D01*
X27557601Y-14867876D01*
X27614743Y-14858352D02*
X27633791Y-14867876D01*
X27671886Y-14867876D01*
X27690934Y-14858352D01*
X27700458Y-14839305D01*
X27700458Y-14829781D01*
X27690934Y-14810733D01*
X27671886Y-14801209D01*
X27643315Y-14801209D01*
X27624267Y-14791686D01*
X27614743Y-14772638D01*
X27614743Y-14763114D01*
X27624267Y-14744067D01*
X27643315Y-14734543D01*
X27671886Y-14734543D01*
X27690934Y-14744067D01*
X27767124Y-14944067D02*
X27776648Y-14934543D01*
X27795696Y-14905971D01*
X27805220Y-14886924D01*
X27814743Y-14858352D01*
X27824267Y-14810733D01*
X27824267Y-14772638D01*
X27814743Y-14725019D01*
X27805220Y-14696448D01*
X27795696Y-14677400D01*
X27776648Y-14648828D01*
X27767124Y-14639305D01*
X28129029Y-14944067D02*
X28119505Y-14934543D01*
X28100458Y-14905971D01*
X28090934Y-14886924D01*
X28081410Y-14858352D01*
X28071886Y-14810733D01*
X28071886Y-14772638D01*
X28081410Y-14725019D01*
X28090934Y-14696448D01*
X28100458Y-14677400D01*
X28119505Y-14648828D01*
X28129029Y-14639305D01*
X28205220Y-14734543D02*
X28205220Y-14867876D01*
X28205220Y-14753590D02*
X28214743Y-14744067D01*
X28233791Y-14734543D01*
X28262362Y-14734543D01*
X28281410Y-14744067D01*
X28290934Y-14763114D01*
X28290934Y-14867876D01*
X28414743Y-14867876D02*
X28395696Y-14858352D01*
X28386172Y-14848828D01*
X28376648Y-14829781D01*
X28376648Y-14772638D01*
X28386172Y-14753590D01*
X28395696Y-14744067D01*
X28414743Y-14734543D01*
X28443315Y-14734543D01*
X28462362Y-14744067D01*
X28471886Y-14753590D01*
X28481410Y-14772638D01*
X28481410Y-14829781D01*
X28471886Y-14848828D01*
X28462362Y-14858352D01*
X28443315Y-14867876D01*
X28414743Y-14867876D01*
X28538553Y-14734543D02*
X28614743Y-14734543D01*
X28567124Y-14667876D02*
X28567124Y-14839305D01*
X28576648Y-14858352D01*
X28595696Y-14867876D01*
X28614743Y-14867876D01*
X28833791Y-14734543D02*
X28833791Y-14934543D01*
X28833791Y-14744067D02*
X28852839Y-14734543D01*
X28890934Y-14734543D01*
X28909982Y-14744067D01*
X28919505Y-14753590D01*
X28929029Y-14772638D01*
X28929029Y-14829781D01*
X28919505Y-14848828D01*
X28909982Y-14858352D01*
X28890934Y-14867876D01*
X28852839Y-14867876D01*
X28833791Y-14858352D01*
X29043315Y-14867876D02*
X29024267Y-14858352D01*
X29014743Y-14839305D01*
X29014743Y-14667876D01*
X29205220Y-14867876D02*
X29205220Y-14763114D01*
X29195696Y-14744067D01*
X29176648Y-14734543D01*
X29138553Y-14734543D01*
X29119505Y-14744067D01*
X29205220Y-14858352D02*
X29186172Y-14867876D01*
X29138553Y-14867876D01*
X29119505Y-14858352D01*
X29109982Y-14839305D01*
X29109982Y-14820257D01*
X29119505Y-14801209D01*
X29138553Y-14791686D01*
X29186172Y-14791686D01*
X29205220Y-14782162D01*
X29271886Y-14734543D02*
X29348077Y-14734543D01*
X29300458Y-14667876D02*
X29300458Y-14839305D01*
X29309982Y-14858352D01*
X29329029Y-14867876D01*
X29348077Y-14867876D01*
X29490934Y-14858352D02*
X29471886Y-14867876D01*
X29433791Y-14867876D01*
X29414743Y-14858352D01*
X29405220Y-14839305D01*
X29405220Y-14763114D01*
X29414743Y-14744067D01*
X29433791Y-14734543D01*
X29471886Y-14734543D01*
X29490934Y-14744067D01*
X29500458Y-14763114D01*
X29500458Y-14782162D01*
X29405220Y-14801209D01*
X29671886Y-14867876D02*
X29671886Y-14667876D01*
X29671886Y-14858352D02*
X29652839Y-14867876D01*
X29614743Y-14867876D01*
X29595696Y-14858352D01*
X29586172Y-14848828D01*
X29576648Y-14829781D01*
X29576648Y-14772638D01*
X29586172Y-14753590D01*
X29595696Y-14744067D01*
X29614743Y-14734543D01*
X29652839Y-14734543D01*
X29671886Y-14744067D01*
X29748077Y-14944067D02*
X29757601Y-14934543D01*
X29776648Y-14905971D01*
X29786172Y-14886924D01*
X29795696Y-14858352D01*
X29805220Y-14810733D01*
X29805220Y-14772638D01*
X29795696Y-14725019D01*
X29786172Y-14696448D01*
X29776648Y-14677400D01*
X29757601Y-14648828D01*
X29748077Y-14639305D01*
M02*
