%TF.GenerationSoftware,KiCad,Pcbnew,(6.0.10)*%
%TF.CreationDate,2023-02-27T18:56:03-05:00*%
%TF.ProjectId,ECG_2.0,4543475f-322e-4302-9e6b-696361645f70,rev?*%
%TF.SameCoordinates,Original*%
%TF.FileFunction,Drillmap*%
%TF.FilePolarity,Positive*%
%FSLAX45Y45*%
G04 Gerber Fmt 4.5, Leading zero omitted, Abs format (unit mm)*
G04 Created by KiCad (PCBNEW (6.0.10)) date 2023-02-27 18:56:03*
%MOMM*%
%LPD*%
G01*
G04 APERTURE LIST*
%ADD10C,0.100000*%
%ADD11C,0.200000*%
%ADD12C,0.050000*%
%ADD13C,0.060000*%
G04 APERTURE END LIST*
D10*
X25603935Y-7080430D02*
X25605018Y-13765710D01*
X25452618Y-13918110D02*
X21598342Y-13920289D01*
X21404221Y-13717089D02*
G75*
G03*
X21607419Y-13920289I203200J-1D01*
G01*
X25452618Y-13918108D02*
G75*
G03*
X25605018Y-13765710I2J152398D01*
G01*
X21549360Y-6918967D02*
G75*
G03*
X21392963Y-7072443I-9550J-146693D01*
G01*
X21404219Y-13717089D02*
X21391880Y-7030720D01*
X21549360Y-6908800D02*
X25450800Y-6908800D01*
X25602117Y-7062283D02*
G75*
G03*
X25449717Y-6909883I-152397J3D01*
G01*
D11*
D12*
X21475200Y-10287400D02*
X21525200Y-10337400D01*
X21525200Y-10287400D02*
X21475200Y-10337400D01*
D11*
X21525200Y-10352400D02*
X21525200Y-10272400D01*
X21475200Y-10352400D02*
X21475200Y-10272400D01*
X21525200Y-10272400D02*
G75*
G03*
X21475200Y-10272400I-25000J0D01*
G01*
X21475200Y-10352400D02*
G75*
G03*
X21525200Y-10352400I25000J0D01*
G01*
D12*
X22295200Y-10287400D02*
X22345200Y-10337400D01*
X22345200Y-10287400D02*
X22295200Y-10337400D01*
D11*
X22345200Y-10352400D02*
X22345200Y-10272400D01*
X22295200Y-10352400D02*
X22295200Y-10272400D01*
X22345200Y-10272400D02*
G75*
G03*
X22295200Y-10272400I-25000J0D01*
G01*
X22295200Y-10352400D02*
G75*
G03*
X22345200Y-10352400I25000J0D01*
G01*
D12*
X23517200Y-10414400D02*
X23567200Y-10464400D01*
X23567200Y-10414400D02*
X23517200Y-10464400D01*
D11*
X23567200Y-10479400D02*
X23567200Y-10399400D01*
X23517200Y-10479400D02*
X23517200Y-10399400D01*
X23567200Y-10399400D02*
G75*
G03*
X23517200Y-10399400I-25000J0D01*
G01*
X23517200Y-10479400D02*
G75*
G03*
X23567200Y-10479400I25000J0D01*
G01*
D12*
X24337200Y-10414400D02*
X24387200Y-10464400D01*
X24387200Y-10414400D02*
X24337200Y-10464400D01*
D11*
X24387200Y-10479400D02*
X24387200Y-10399400D01*
X24337200Y-10479400D02*
X24337200Y-10399400D01*
X24387200Y-10399400D02*
G75*
G03*
X24337200Y-10399400I-25000J0D01*
G01*
X24337200Y-10479400D02*
G75*
G03*
X24387200Y-10479400I25000J0D01*
G01*
D12*
X25032700Y-9252600D02*
X25082700Y-9302600D01*
X25082700Y-9252600D02*
X25032700Y-9302600D01*
D11*
X25097700Y-9252600D02*
X25017700Y-9252600D01*
X25097700Y-9302600D02*
X25017700Y-9302600D01*
X25017700Y-9252600D02*
G75*
G03*
X25017700Y-9302600I0J-25000D01*
G01*
X25097700Y-9302600D02*
G75*
G03*
X25097700Y-9252600I0J25000D01*
G01*
D12*
X25032700Y-10072600D02*
X25082700Y-10122600D01*
X25082700Y-10072600D02*
X25032700Y-10122600D01*
D11*
X25097700Y-10072600D02*
X25017700Y-10072600D01*
X25097700Y-10122600D02*
X25017700Y-10122600D01*
X25017700Y-10072600D02*
G75*
G03*
X25017700Y-10122600I0J-25000D01*
G01*
X25097700Y-10122600D02*
G75*
G03*
X25097700Y-10072600I0J25000D01*
G01*
D13*
X25012550Y-8188000D02*
G75*
G03*
X25012550Y-8188000I-30000J0D01*
G01*
D11*
X24927550Y-8218000D02*
X25037550Y-8218000D01*
X24927550Y-8158000D02*
X25037550Y-8158000D01*
X25037550Y-8218000D02*
G75*
G03*
X25037550Y-8158000I0J30000D01*
G01*
X24927550Y-8158000D02*
G75*
G03*
X24927550Y-8218000I0J-30000D01*
G01*
D13*
X25012550Y-9053000D02*
G75*
G03*
X25012550Y-9053000I-30000J0D01*
G01*
D11*
X24927550Y-9083000D02*
X25037550Y-9083000D01*
X24927550Y-9023000D02*
X25037550Y-9023000D01*
X25037550Y-9083000D02*
G75*
G03*
X25037550Y-9023000I0J30000D01*
G01*
X24927550Y-9023000D02*
G75*
G03*
X24927550Y-9083000I0J-30000D01*
G01*
D13*
X25429550Y-9053000D02*
G75*
G03*
X25429550Y-9053000I-30000J0D01*
G01*
D11*
X25359550Y-9083000D02*
X25439550Y-9083000D01*
X25359550Y-9023000D02*
X25439550Y-9023000D01*
X25439550Y-9083000D02*
G75*
G03*
X25439550Y-9023000I0J30000D01*
G01*
X25359550Y-9023000D02*
G75*
G03*
X25359550Y-9083000I0J-30000D01*
G01*
X21644499Y-14235766D02*
X21644499Y-14035766D01*
X21692118Y-14035766D01*
X21720690Y-14045289D01*
X21739737Y-14064337D01*
X21749261Y-14083385D01*
X21758785Y-14121480D01*
X21758785Y-14150051D01*
X21749261Y-14188147D01*
X21739737Y-14207194D01*
X21720690Y-14226242D01*
X21692118Y-14235766D01*
X21644499Y-14235766D01*
X21844499Y-14235766D02*
X21844499Y-14102432D01*
X21844499Y-14140527D02*
X21854023Y-14121480D01*
X21863547Y-14111956D01*
X21882594Y-14102432D01*
X21901642Y-14102432D01*
X21968309Y-14235766D02*
X21968309Y-14102432D01*
X21968309Y-14035766D02*
X21958785Y-14045289D01*
X21968309Y-14054813D01*
X21977832Y-14045289D01*
X21968309Y-14035766D01*
X21968309Y-14054813D01*
X22092118Y-14235766D02*
X22073070Y-14226242D01*
X22063547Y-14207194D01*
X22063547Y-14035766D01*
X22196880Y-14235766D02*
X22177832Y-14226242D01*
X22168309Y-14207194D01*
X22168309Y-14035766D01*
X22425451Y-14235766D02*
X22425451Y-14035766D01*
X22492118Y-14178623D01*
X22558785Y-14035766D01*
X22558785Y-14235766D01*
X22739737Y-14235766D02*
X22739737Y-14131004D01*
X22730213Y-14111956D01*
X22711166Y-14102432D01*
X22673070Y-14102432D01*
X22654023Y-14111956D01*
X22739737Y-14226242D02*
X22720689Y-14235766D01*
X22673070Y-14235766D01*
X22654023Y-14226242D01*
X22644499Y-14207194D01*
X22644499Y-14188147D01*
X22654023Y-14169099D01*
X22673070Y-14159575D01*
X22720689Y-14159575D01*
X22739737Y-14150051D01*
X22834975Y-14102432D02*
X22834975Y-14302432D01*
X22834975Y-14111956D02*
X22854023Y-14102432D01*
X22892118Y-14102432D01*
X22911166Y-14111956D01*
X22920689Y-14121480D01*
X22930213Y-14140527D01*
X22930213Y-14197670D01*
X22920689Y-14216718D01*
X22911166Y-14226242D01*
X22892118Y-14235766D01*
X22854023Y-14235766D01*
X22834975Y-14226242D01*
X23015928Y-14216718D02*
X23025451Y-14226242D01*
X23015928Y-14235766D01*
X23006404Y-14226242D01*
X23015928Y-14216718D01*
X23015928Y-14235766D01*
X23015928Y-14111956D02*
X23025451Y-14121480D01*
X23015928Y-14131004D01*
X23006404Y-14121480D01*
X23015928Y-14111956D01*
X23015928Y-14131004D01*
D12*
X21336880Y-14540289D02*
X21386880Y-14590289D01*
X21386880Y-14540289D02*
X21336880Y-14590289D01*
D11*
X21682594Y-14455766D02*
X21701642Y-14455766D01*
X21720690Y-14465289D01*
X21730213Y-14474813D01*
X21739737Y-14493861D01*
X21749261Y-14531956D01*
X21749261Y-14579575D01*
X21739737Y-14617670D01*
X21730213Y-14636718D01*
X21720690Y-14646242D01*
X21701642Y-14655766D01*
X21682594Y-14655766D01*
X21663547Y-14646242D01*
X21654023Y-14636718D01*
X21644499Y-14617670D01*
X21634975Y-14579575D01*
X21634975Y-14531956D01*
X21644499Y-14493861D01*
X21654023Y-14474813D01*
X21663547Y-14465289D01*
X21682594Y-14455766D01*
X21834975Y-14636718D02*
X21844499Y-14646242D01*
X21834975Y-14655766D01*
X21825451Y-14646242D01*
X21834975Y-14636718D01*
X21834975Y-14655766D01*
X22025451Y-14455766D02*
X21930213Y-14455766D01*
X21920690Y-14551004D01*
X21930213Y-14541480D01*
X21949261Y-14531956D01*
X21996880Y-14531956D01*
X22015928Y-14541480D01*
X22025451Y-14551004D01*
X22034975Y-14570051D01*
X22034975Y-14617670D01*
X22025451Y-14636718D01*
X22015928Y-14646242D01*
X21996880Y-14655766D01*
X21949261Y-14655766D01*
X21930213Y-14646242D01*
X21920690Y-14636718D01*
X22158785Y-14455766D02*
X22177832Y-14455766D01*
X22196880Y-14465289D01*
X22206404Y-14474813D01*
X22215928Y-14493861D01*
X22225451Y-14531956D01*
X22225451Y-14579575D01*
X22215928Y-14617670D01*
X22206404Y-14636718D01*
X22196880Y-14646242D01*
X22177832Y-14655766D01*
X22158785Y-14655766D01*
X22139737Y-14646242D01*
X22130213Y-14636718D01*
X22120690Y-14617670D01*
X22111166Y-14579575D01*
X22111166Y-14531956D01*
X22120690Y-14493861D01*
X22130213Y-14474813D01*
X22139737Y-14465289D01*
X22158785Y-14455766D01*
X22349261Y-14455766D02*
X22368309Y-14455766D01*
X22387356Y-14465289D01*
X22396880Y-14474813D01*
X22406404Y-14493861D01*
X22415928Y-14531956D01*
X22415928Y-14579575D01*
X22406404Y-14617670D01*
X22396880Y-14636718D01*
X22387356Y-14646242D01*
X22368309Y-14655766D01*
X22349261Y-14655766D01*
X22330213Y-14646242D01*
X22320690Y-14636718D01*
X22311166Y-14617670D01*
X22301642Y-14579575D01*
X22301642Y-14531956D01*
X22311166Y-14493861D01*
X22320690Y-14474813D01*
X22330213Y-14465289D01*
X22349261Y-14455766D01*
X22501642Y-14655766D02*
X22501642Y-14522432D01*
X22501642Y-14541480D02*
X22511166Y-14531956D01*
X22530213Y-14522432D01*
X22558785Y-14522432D01*
X22577832Y-14531956D01*
X22587356Y-14551004D01*
X22587356Y-14655766D01*
X22587356Y-14551004D02*
X22596880Y-14531956D01*
X22615928Y-14522432D01*
X22644499Y-14522432D01*
X22663547Y-14531956D01*
X22673070Y-14551004D01*
X22673070Y-14655766D01*
X22768308Y-14655766D02*
X22768308Y-14522432D01*
X22768308Y-14541480D02*
X22777832Y-14531956D01*
X22796880Y-14522432D01*
X22825451Y-14522432D01*
X22844499Y-14531956D01*
X22854023Y-14551004D01*
X22854023Y-14655766D01*
X22854023Y-14551004D02*
X22863547Y-14531956D01*
X22882594Y-14522432D01*
X22911166Y-14522432D01*
X22930213Y-14531956D01*
X22939737Y-14551004D01*
X22939737Y-14655766D01*
X23330213Y-14446242D02*
X23158785Y-14703385D01*
X23587356Y-14455766D02*
X23606404Y-14455766D01*
X23625451Y-14465289D01*
X23634975Y-14474813D01*
X23644499Y-14493861D01*
X23654023Y-14531956D01*
X23654023Y-14579575D01*
X23644499Y-14617670D01*
X23634975Y-14636718D01*
X23625451Y-14646242D01*
X23606404Y-14655766D01*
X23587356Y-14655766D01*
X23568308Y-14646242D01*
X23558785Y-14636718D01*
X23549261Y-14617670D01*
X23539737Y-14579575D01*
X23539737Y-14531956D01*
X23549261Y-14493861D01*
X23558785Y-14474813D01*
X23568308Y-14465289D01*
X23587356Y-14455766D01*
X23739737Y-14636718D02*
X23749261Y-14646242D01*
X23739737Y-14655766D01*
X23730213Y-14646242D01*
X23739737Y-14636718D01*
X23739737Y-14655766D01*
X23873070Y-14455766D02*
X23892118Y-14455766D01*
X23911166Y-14465289D01*
X23920689Y-14474813D01*
X23930213Y-14493861D01*
X23939737Y-14531956D01*
X23939737Y-14579575D01*
X23930213Y-14617670D01*
X23920689Y-14636718D01*
X23911166Y-14646242D01*
X23892118Y-14655766D01*
X23873070Y-14655766D01*
X23854023Y-14646242D01*
X23844499Y-14636718D01*
X23834975Y-14617670D01*
X23825451Y-14579575D01*
X23825451Y-14531956D01*
X23834975Y-14493861D01*
X23844499Y-14474813D01*
X23854023Y-14465289D01*
X23873070Y-14455766D01*
X24130213Y-14655766D02*
X24015928Y-14655766D01*
X24073070Y-14655766D02*
X24073070Y-14455766D01*
X24054023Y-14484337D01*
X24034975Y-14503385D01*
X24015928Y-14512908D01*
X24225451Y-14655766D02*
X24263547Y-14655766D01*
X24282594Y-14646242D01*
X24292118Y-14636718D01*
X24311166Y-14608147D01*
X24320689Y-14570051D01*
X24320689Y-14493861D01*
X24311166Y-14474813D01*
X24301642Y-14465289D01*
X24282594Y-14455766D01*
X24244499Y-14455766D01*
X24225451Y-14465289D01*
X24215928Y-14474813D01*
X24206404Y-14493861D01*
X24206404Y-14541480D01*
X24215928Y-14560527D01*
X24225451Y-14570051D01*
X24244499Y-14579575D01*
X24282594Y-14579575D01*
X24301642Y-14570051D01*
X24311166Y-14560527D01*
X24320689Y-14541480D01*
X24387356Y-14455766D02*
X24520689Y-14455766D01*
X24434975Y-14655766D01*
X24587356Y-14455766D02*
X24587356Y-14493861D01*
X24663547Y-14455766D02*
X24663547Y-14493861D01*
X24958785Y-14731956D02*
X24949261Y-14722432D01*
X24930213Y-14693861D01*
X24920689Y-14674813D01*
X24911166Y-14646242D01*
X24901642Y-14598623D01*
X24901642Y-14560527D01*
X24911166Y-14512908D01*
X24920689Y-14484337D01*
X24930213Y-14465289D01*
X24949261Y-14436718D01*
X24958785Y-14427194D01*
X25073070Y-14455766D02*
X25092118Y-14455766D01*
X25111166Y-14465289D01*
X25120689Y-14474813D01*
X25130213Y-14493861D01*
X25139737Y-14531956D01*
X25139737Y-14579575D01*
X25130213Y-14617670D01*
X25120689Y-14636718D01*
X25111166Y-14646242D01*
X25092118Y-14655766D01*
X25073070Y-14655766D01*
X25054023Y-14646242D01*
X25044499Y-14636718D01*
X25034975Y-14617670D01*
X25025451Y-14579575D01*
X25025451Y-14531956D01*
X25034975Y-14493861D01*
X25044499Y-14474813D01*
X25054023Y-14465289D01*
X25073070Y-14455766D01*
X25377832Y-14655766D02*
X25377832Y-14455766D01*
X25463547Y-14655766D02*
X25463547Y-14551004D01*
X25454023Y-14531956D01*
X25434975Y-14522432D01*
X25406404Y-14522432D01*
X25387356Y-14531956D01*
X25377832Y-14541480D01*
X25587356Y-14655766D02*
X25568308Y-14646242D01*
X25558785Y-14636718D01*
X25549261Y-14617670D01*
X25549261Y-14560527D01*
X25558785Y-14541480D01*
X25568308Y-14531956D01*
X25587356Y-14522432D01*
X25615928Y-14522432D01*
X25634975Y-14531956D01*
X25644499Y-14541480D01*
X25654023Y-14560527D01*
X25654023Y-14617670D01*
X25644499Y-14636718D01*
X25634975Y-14646242D01*
X25615928Y-14655766D01*
X25587356Y-14655766D01*
X25768308Y-14655766D02*
X25749261Y-14646242D01*
X25739737Y-14627194D01*
X25739737Y-14455766D01*
X25920689Y-14646242D02*
X25901642Y-14655766D01*
X25863547Y-14655766D01*
X25844499Y-14646242D01*
X25834975Y-14627194D01*
X25834975Y-14551004D01*
X25844499Y-14531956D01*
X25863547Y-14522432D01*
X25901642Y-14522432D01*
X25920689Y-14531956D01*
X25930213Y-14551004D01*
X25930213Y-14570051D01*
X25834975Y-14589099D01*
X26006404Y-14646242D02*
X26025451Y-14655766D01*
X26063547Y-14655766D01*
X26082594Y-14646242D01*
X26092118Y-14627194D01*
X26092118Y-14617670D01*
X26082594Y-14598623D01*
X26063547Y-14589099D01*
X26034975Y-14589099D01*
X26015928Y-14579575D01*
X26006404Y-14560527D01*
X26006404Y-14551004D01*
X26015928Y-14531956D01*
X26034975Y-14522432D01*
X26063547Y-14522432D01*
X26082594Y-14531956D01*
X26330213Y-14579575D02*
X26482594Y-14579575D01*
X26406404Y-14655766D02*
X26406404Y-14503385D01*
X26815928Y-14455766D02*
X26777832Y-14455766D01*
X26758785Y-14465289D01*
X26749261Y-14474813D01*
X26730213Y-14503385D01*
X26720689Y-14541480D01*
X26720689Y-14617670D01*
X26730213Y-14636718D01*
X26739737Y-14646242D01*
X26758785Y-14655766D01*
X26796880Y-14655766D01*
X26815928Y-14646242D01*
X26825451Y-14636718D01*
X26834975Y-14617670D01*
X26834975Y-14570051D01*
X26825451Y-14551004D01*
X26815928Y-14541480D01*
X26796880Y-14531956D01*
X26758785Y-14531956D01*
X26739737Y-14541480D01*
X26730213Y-14551004D01*
X26720689Y-14570051D01*
X27063547Y-14646242D02*
X27082594Y-14655766D01*
X27120689Y-14655766D01*
X27139737Y-14646242D01*
X27149261Y-14627194D01*
X27149261Y-14617670D01*
X27139737Y-14598623D01*
X27120689Y-14589099D01*
X27092118Y-14589099D01*
X27073070Y-14579575D01*
X27063547Y-14560527D01*
X27063547Y-14551004D01*
X27073070Y-14531956D01*
X27092118Y-14522432D01*
X27120689Y-14522432D01*
X27139737Y-14531956D01*
X27263547Y-14655766D02*
X27244499Y-14646242D01*
X27234975Y-14627194D01*
X27234975Y-14455766D01*
X27368308Y-14655766D02*
X27349261Y-14646242D01*
X27339737Y-14636718D01*
X27330213Y-14617670D01*
X27330213Y-14560527D01*
X27339737Y-14541480D01*
X27349261Y-14531956D01*
X27368308Y-14522432D01*
X27396880Y-14522432D01*
X27415928Y-14531956D01*
X27425451Y-14541480D01*
X27434975Y-14560527D01*
X27434975Y-14617670D01*
X27425451Y-14636718D01*
X27415928Y-14646242D01*
X27396880Y-14655766D01*
X27368308Y-14655766D01*
X27492118Y-14522432D02*
X27568308Y-14522432D01*
X27520689Y-14455766D02*
X27520689Y-14627194D01*
X27530213Y-14646242D01*
X27549261Y-14655766D01*
X27568308Y-14655766D01*
X27625451Y-14646242D02*
X27644499Y-14655766D01*
X27682594Y-14655766D01*
X27701642Y-14646242D01*
X27711166Y-14627194D01*
X27711166Y-14617670D01*
X27701642Y-14598623D01*
X27682594Y-14589099D01*
X27654023Y-14589099D01*
X27634975Y-14579575D01*
X27625451Y-14560527D01*
X27625451Y-14551004D01*
X27634975Y-14531956D01*
X27654023Y-14522432D01*
X27682594Y-14522432D01*
X27701642Y-14531956D01*
X27777832Y-14731956D02*
X27787356Y-14722432D01*
X27806404Y-14693861D01*
X27815928Y-14674813D01*
X27825451Y-14646242D01*
X27834975Y-14598623D01*
X27834975Y-14560527D01*
X27825451Y-14512908D01*
X27815928Y-14484337D01*
X27806404Y-14465289D01*
X27787356Y-14436718D01*
X27777832Y-14427194D01*
X28139737Y-14731956D02*
X28130213Y-14722432D01*
X28111166Y-14693861D01*
X28101642Y-14674813D01*
X28092118Y-14646242D01*
X28082594Y-14598623D01*
X28082594Y-14560527D01*
X28092118Y-14512908D01*
X28101642Y-14484337D01*
X28111166Y-14465289D01*
X28130213Y-14436718D01*
X28139737Y-14427194D01*
X28215928Y-14522432D02*
X28215928Y-14655766D01*
X28215928Y-14541480D02*
X28225451Y-14531956D01*
X28244499Y-14522432D01*
X28273070Y-14522432D01*
X28292118Y-14531956D01*
X28301642Y-14551004D01*
X28301642Y-14655766D01*
X28425451Y-14655766D02*
X28406404Y-14646242D01*
X28396880Y-14636718D01*
X28387356Y-14617670D01*
X28387356Y-14560527D01*
X28396880Y-14541480D01*
X28406404Y-14531956D01*
X28425451Y-14522432D01*
X28454023Y-14522432D01*
X28473070Y-14531956D01*
X28482594Y-14541480D01*
X28492118Y-14560527D01*
X28492118Y-14617670D01*
X28482594Y-14636718D01*
X28473070Y-14646242D01*
X28454023Y-14655766D01*
X28425451Y-14655766D01*
X28549261Y-14522432D02*
X28625451Y-14522432D01*
X28577832Y-14455766D02*
X28577832Y-14627194D01*
X28587356Y-14646242D01*
X28606404Y-14655766D01*
X28625451Y-14655766D01*
X28844499Y-14522432D02*
X28844499Y-14722432D01*
X28844499Y-14531956D02*
X28863547Y-14522432D01*
X28901642Y-14522432D01*
X28920689Y-14531956D01*
X28930213Y-14541480D01*
X28939737Y-14560527D01*
X28939737Y-14617670D01*
X28930213Y-14636718D01*
X28920689Y-14646242D01*
X28901642Y-14655766D01*
X28863547Y-14655766D01*
X28844499Y-14646242D01*
X29054023Y-14655766D02*
X29034975Y-14646242D01*
X29025451Y-14627194D01*
X29025451Y-14455766D01*
X29215928Y-14655766D02*
X29215928Y-14551004D01*
X29206404Y-14531956D01*
X29187356Y-14522432D01*
X29149261Y-14522432D01*
X29130213Y-14531956D01*
X29215928Y-14646242D02*
X29196880Y-14655766D01*
X29149261Y-14655766D01*
X29130213Y-14646242D01*
X29120689Y-14627194D01*
X29120689Y-14608147D01*
X29130213Y-14589099D01*
X29149261Y-14579575D01*
X29196880Y-14579575D01*
X29215928Y-14570051D01*
X29282594Y-14522432D02*
X29358785Y-14522432D01*
X29311166Y-14455766D02*
X29311166Y-14627194D01*
X29320689Y-14646242D01*
X29339737Y-14655766D01*
X29358785Y-14655766D01*
X29501642Y-14646242D02*
X29482594Y-14655766D01*
X29444499Y-14655766D01*
X29425451Y-14646242D01*
X29415928Y-14627194D01*
X29415928Y-14551004D01*
X29425451Y-14531956D01*
X29444499Y-14522432D01*
X29482594Y-14522432D01*
X29501642Y-14531956D01*
X29511166Y-14551004D01*
X29511166Y-14570051D01*
X29415928Y-14589099D01*
X29682594Y-14655766D02*
X29682594Y-14455766D01*
X29682594Y-14646242D02*
X29663547Y-14655766D01*
X29625451Y-14655766D01*
X29606404Y-14646242D01*
X29596880Y-14636718D01*
X29587356Y-14617670D01*
X29587356Y-14560527D01*
X29596880Y-14541480D01*
X29606404Y-14531956D01*
X29625451Y-14522432D01*
X29663547Y-14522432D01*
X29682594Y-14531956D01*
X29758785Y-14731956D02*
X29768308Y-14722432D01*
X29787356Y-14693861D01*
X29796880Y-14674813D01*
X29806404Y-14646242D01*
X29815928Y-14598623D01*
X29815928Y-14560527D01*
X29806404Y-14512908D01*
X29796880Y-14484337D01*
X29787356Y-14465289D01*
X29768308Y-14436718D01*
X29758785Y-14427194D01*
D13*
X21386880Y-14829289D02*
G75*
G03*
X21386880Y-14829289I-30000J0D01*
G01*
D11*
X21682594Y-14719766D02*
X21701642Y-14719766D01*
X21720690Y-14729289D01*
X21730213Y-14738813D01*
X21739737Y-14757861D01*
X21749261Y-14795956D01*
X21749261Y-14843575D01*
X21739737Y-14881670D01*
X21730213Y-14900718D01*
X21720690Y-14910242D01*
X21701642Y-14919766D01*
X21682594Y-14919766D01*
X21663547Y-14910242D01*
X21654023Y-14900718D01*
X21644499Y-14881670D01*
X21634975Y-14843575D01*
X21634975Y-14795956D01*
X21644499Y-14757861D01*
X21654023Y-14738813D01*
X21663547Y-14729289D01*
X21682594Y-14719766D01*
X21834975Y-14900718D02*
X21844499Y-14910242D01*
X21834975Y-14919766D01*
X21825451Y-14910242D01*
X21834975Y-14900718D01*
X21834975Y-14919766D01*
X22015928Y-14719766D02*
X21977832Y-14719766D01*
X21958785Y-14729289D01*
X21949261Y-14738813D01*
X21930213Y-14767385D01*
X21920690Y-14805480D01*
X21920690Y-14881670D01*
X21930213Y-14900718D01*
X21939737Y-14910242D01*
X21958785Y-14919766D01*
X21996880Y-14919766D01*
X22015928Y-14910242D01*
X22025451Y-14900718D01*
X22034975Y-14881670D01*
X22034975Y-14834051D01*
X22025451Y-14815004D01*
X22015928Y-14805480D01*
X21996880Y-14795956D01*
X21958785Y-14795956D01*
X21939737Y-14805480D01*
X21930213Y-14815004D01*
X21920690Y-14834051D01*
X22158785Y-14719766D02*
X22177832Y-14719766D01*
X22196880Y-14729289D01*
X22206404Y-14738813D01*
X22215928Y-14757861D01*
X22225451Y-14795956D01*
X22225451Y-14843575D01*
X22215928Y-14881670D01*
X22206404Y-14900718D01*
X22196880Y-14910242D01*
X22177832Y-14919766D01*
X22158785Y-14919766D01*
X22139737Y-14910242D01*
X22130213Y-14900718D01*
X22120690Y-14881670D01*
X22111166Y-14843575D01*
X22111166Y-14795956D01*
X22120690Y-14757861D01*
X22130213Y-14738813D01*
X22139737Y-14729289D01*
X22158785Y-14719766D01*
X22349261Y-14719766D02*
X22368309Y-14719766D01*
X22387356Y-14729289D01*
X22396880Y-14738813D01*
X22406404Y-14757861D01*
X22415928Y-14795956D01*
X22415928Y-14843575D01*
X22406404Y-14881670D01*
X22396880Y-14900718D01*
X22387356Y-14910242D01*
X22368309Y-14919766D01*
X22349261Y-14919766D01*
X22330213Y-14910242D01*
X22320690Y-14900718D01*
X22311166Y-14881670D01*
X22301642Y-14843575D01*
X22301642Y-14795956D01*
X22311166Y-14757861D01*
X22320690Y-14738813D01*
X22330213Y-14729289D01*
X22349261Y-14719766D01*
X22501642Y-14919766D02*
X22501642Y-14786432D01*
X22501642Y-14805480D02*
X22511166Y-14795956D01*
X22530213Y-14786432D01*
X22558785Y-14786432D01*
X22577832Y-14795956D01*
X22587356Y-14815004D01*
X22587356Y-14919766D01*
X22587356Y-14815004D02*
X22596880Y-14795956D01*
X22615928Y-14786432D01*
X22644499Y-14786432D01*
X22663547Y-14795956D01*
X22673070Y-14815004D01*
X22673070Y-14919766D01*
X22768308Y-14919766D02*
X22768308Y-14786432D01*
X22768308Y-14805480D02*
X22777832Y-14795956D01*
X22796880Y-14786432D01*
X22825451Y-14786432D01*
X22844499Y-14795956D01*
X22854023Y-14815004D01*
X22854023Y-14919766D01*
X22854023Y-14815004D02*
X22863547Y-14795956D01*
X22882594Y-14786432D01*
X22911166Y-14786432D01*
X22930213Y-14795956D01*
X22939737Y-14815004D01*
X22939737Y-14919766D01*
X23330213Y-14710242D02*
X23158785Y-14967385D01*
X23587356Y-14719766D02*
X23606404Y-14719766D01*
X23625451Y-14729289D01*
X23634975Y-14738813D01*
X23644499Y-14757861D01*
X23654023Y-14795956D01*
X23654023Y-14843575D01*
X23644499Y-14881670D01*
X23634975Y-14900718D01*
X23625451Y-14910242D01*
X23606404Y-14919766D01*
X23587356Y-14919766D01*
X23568308Y-14910242D01*
X23558785Y-14900718D01*
X23549261Y-14881670D01*
X23539737Y-14843575D01*
X23539737Y-14795956D01*
X23549261Y-14757861D01*
X23558785Y-14738813D01*
X23568308Y-14729289D01*
X23587356Y-14719766D01*
X23739737Y-14900718D02*
X23749261Y-14910242D01*
X23739737Y-14919766D01*
X23730213Y-14910242D01*
X23739737Y-14900718D01*
X23739737Y-14919766D01*
X23873070Y-14719766D02*
X23892118Y-14719766D01*
X23911166Y-14729289D01*
X23920689Y-14738813D01*
X23930213Y-14757861D01*
X23939737Y-14795956D01*
X23939737Y-14843575D01*
X23930213Y-14881670D01*
X23920689Y-14900718D01*
X23911166Y-14910242D01*
X23892118Y-14919766D01*
X23873070Y-14919766D01*
X23854023Y-14910242D01*
X23844499Y-14900718D01*
X23834975Y-14881670D01*
X23825451Y-14843575D01*
X23825451Y-14795956D01*
X23834975Y-14757861D01*
X23844499Y-14738813D01*
X23854023Y-14729289D01*
X23873070Y-14719766D01*
X24015928Y-14738813D02*
X24025451Y-14729289D01*
X24044499Y-14719766D01*
X24092118Y-14719766D01*
X24111166Y-14729289D01*
X24120689Y-14738813D01*
X24130213Y-14757861D01*
X24130213Y-14776908D01*
X24120689Y-14805480D01*
X24006404Y-14919766D01*
X24130213Y-14919766D01*
X24196880Y-14719766D02*
X24320689Y-14719766D01*
X24254023Y-14795956D01*
X24282594Y-14795956D01*
X24301642Y-14805480D01*
X24311166Y-14815004D01*
X24320689Y-14834051D01*
X24320689Y-14881670D01*
X24311166Y-14900718D01*
X24301642Y-14910242D01*
X24282594Y-14919766D01*
X24225451Y-14919766D01*
X24206404Y-14910242D01*
X24196880Y-14900718D01*
X24492118Y-14719766D02*
X24454023Y-14719766D01*
X24434975Y-14729289D01*
X24425451Y-14738813D01*
X24406404Y-14767385D01*
X24396880Y-14805480D01*
X24396880Y-14881670D01*
X24406404Y-14900718D01*
X24415928Y-14910242D01*
X24434975Y-14919766D01*
X24473070Y-14919766D01*
X24492118Y-14910242D01*
X24501642Y-14900718D01*
X24511166Y-14881670D01*
X24511166Y-14834051D01*
X24501642Y-14815004D01*
X24492118Y-14805480D01*
X24473070Y-14795956D01*
X24434975Y-14795956D01*
X24415928Y-14805480D01*
X24406404Y-14815004D01*
X24396880Y-14834051D01*
X24587356Y-14719766D02*
X24587356Y-14757861D01*
X24663547Y-14719766D02*
X24663547Y-14757861D01*
X24958785Y-14995956D02*
X24949261Y-14986432D01*
X24930213Y-14957861D01*
X24920689Y-14938813D01*
X24911166Y-14910242D01*
X24901642Y-14862623D01*
X24901642Y-14824527D01*
X24911166Y-14776908D01*
X24920689Y-14748337D01*
X24930213Y-14729289D01*
X24949261Y-14700718D01*
X24958785Y-14691194D01*
X25073070Y-14719766D02*
X25092118Y-14719766D01*
X25111166Y-14729289D01*
X25120689Y-14738813D01*
X25130213Y-14757861D01*
X25139737Y-14795956D01*
X25139737Y-14843575D01*
X25130213Y-14881670D01*
X25120689Y-14900718D01*
X25111166Y-14910242D01*
X25092118Y-14919766D01*
X25073070Y-14919766D01*
X25054023Y-14910242D01*
X25044499Y-14900718D01*
X25034975Y-14881670D01*
X25025451Y-14843575D01*
X25025451Y-14795956D01*
X25034975Y-14757861D01*
X25044499Y-14738813D01*
X25054023Y-14729289D01*
X25073070Y-14719766D01*
X25377832Y-14919766D02*
X25377832Y-14719766D01*
X25463547Y-14919766D02*
X25463547Y-14815004D01*
X25454023Y-14795956D01*
X25434975Y-14786432D01*
X25406404Y-14786432D01*
X25387356Y-14795956D01*
X25377832Y-14805480D01*
X25587356Y-14919766D02*
X25568308Y-14910242D01*
X25558785Y-14900718D01*
X25549261Y-14881670D01*
X25549261Y-14824527D01*
X25558785Y-14805480D01*
X25568308Y-14795956D01*
X25587356Y-14786432D01*
X25615928Y-14786432D01*
X25634975Y-14795956D01*
X25644499Y-14805480D01*
X25654023Y-14824527D01*
X25654023Y-14881670D01*
X25644499Y-14900718D01*
X25634975Y-14910242D01*
X25615928Y-14919766D01*
X25587356Y-14919766D01*
X25768308Y-14919766D02*
X25749261Y-14910242D01*
X25739737Y-14891194D01*
X25739737Y-14719766D01*
X25920689Y-14910242D02*
X25901642Y-14919766D01*
X25863547Y-14919766D01*
X25844499Y-14910242D01*
X25834975Y-14891194D01*
X25834975Y-14815004D01*
X25844499Y-14795956D01*
X25863547Y-14786432D01*
X25901642Y-14786432D01*
X25920689Y-14795956D01*
X25930213Y-14815004D01*
X25930213Y-14834051D01*
X25834975Y-14853099D01*
X26006404Y-14910242D02*
X26025451Y-14919766D01*
X26063547Y-14919766D01*
X26082594Y-14910242D01*
X26092118Y-14891194D01*
X26092118Y-14881670D01*
X26082594Y-14862623D01*
X26063547Y-14853099D01*
X26034975Y-14853099D01*
X26015928Y-14843575D01*
X26006404Y-14824527D01*
X26006404Y-14815004D01*
X26015928Y-14795956D01*
X26034975Y-14786432D01*
X26063547Y-14786432D01*
X26082594Y-14795956D01*
X26330213Y-14843575D02*
X26482594Y-14843575D01*
X26406404Y-14919766D02*
X26406404Y-14767385D01*
X26711166Y-14719766D02*
X26834975Y-14719766D01*
X26768308Y-14795956D01*
X26796880Y-14795956D01*
X26815928Y-14805480D01*
X26825451Y-14815004D01*
X26834975Y-14834051D01*
X26834975Y-14881670D01*
X26825451Y-14900718D01*
X26815928Y-14910242D01*
X26796880Y-14919766D01*
X26739737Y-14919766D01*
X26720689Y-14910242D01*
X26711166Y-14900718D01*
X27063547Y-14910242D02*
X27082594Y-14919766D01*
X27120689Y-14919766D01*
X27139737Y-14910242D01*
X27149261Y-14891194D01*
X27149261Y-14881670D01*
X27139737Y-14862623D01*
X27120689Y-14853099D01*
X27092118Y-14853099D01*
X27073070Y-14843575D01*
X27063547Y-14824527D01*
X27063547Y-14815004D01*
X27073070Y-14795956D01*
X27092118Y-14786432D01*
X27120689Y-14786432D01*
X27139737Y-14795956D01*
X27263547Y-14919766D02*
X27244499Y-14910242D01*
X27234975Y-14891194D01*
X27234975Y-14719766D01*
X27368308Y-14919766D02*
X27349261Y-14910242D01*
X27339737Y-14900718D01*
X27330213Y-14881670D01*
X27330213Y-14824527D01*
X27339737Y-14805480D01*
X27349261Y-14795956D01*
X27368308Y-14786432D01*
X27396880Y-14786432D01*
X27415928Y-14795956D01*
X27425451Y-14805480D01*
X27434975Y-14824527D01*
X27434975Y-14881670D01*
X27425451Y-14900718D01*
X27415928Y-14910242D01*
X27396880Y-14919766D01*
X27368308Y-14919766D01*
X27492118Y-14786432D02*
X27568308Y-14786432D01*
X27520689Y-14719766D02*
X27520689Y-14891194D01*
X27530213Y-14910242D01*
X27549261Y-14919766D01*
X27568308Y-14919766D01*
X27625451Y-14910242D02*
X27644499Y-14919766D01*
X27682594Y-14919766D01*
X27701642Y-14910242D01*
X27711166Y-14891194D01*
X27711166Y-14881670D01*
X27701642Y-14862623D01*
X27682594Y-14853099D01*
X27654023Y-14853099D01*
X27634975Y-14843575D01*
X27625451Y-14824527D01*
X27625451Y-14815004D01*
X27634975Y-14795956D01*
X27654023Y-14786432D01*
X27682594Y-14786432D01*
X27701642Y-14795956D01*
X27777832Y-14995956D02*
X27787356Y-14986432D01*
X27806404Y-14957861D01*
X27815928Y-14938813D01*
X27825451Y-14910242D01*
X27834975Y-14862623D01*
X27834975Y-14824527D01*
X27825451Y-14776908D01*
X27815928Y-14748337D01*
X27806404Y-14729289D01*
X27787356Y-14700718D01*
X27777832Y-14691194D01*
X28139737Y-14995956D02*
X28130213Y-14986432D01*
X28111166Y-14957861D01*
X28101642Y-14938813D01*
X28092118Y-14910242D01*
X28082594Y-14862623D01*
X28082594Y-14824527D01*
X28092118Y-14776908D01*
X28101642Y-14748337D01*
X28111166Y-14729289D01*
X28130213Y-14700718D01*
X28139737Y-14691194D01*
X28215928Y-14786432D02*
X28215928Y-14919766D01*
X28215928Y-14805480D02*
X28225451Y-14795956D01*
X28244499Y-14786432D01*
X28273070Y-14786432D01*
X28292118Y-14795956D01*
X28301642Y-14815004D01*
X28301642Y-14919766D01*
X28425451Y-14919766D02*
X28406404Y-14910242D01*
X28396880Y-14900718D01*
X28387356Y-14881670D01*
X28387356Y-14824527D01*
X28396880Y-14805480D01*
X28406404Y-14795956D01*
X28425451Y-14786432D01*
X28454023Y-14786432D01*
X28473070Y-14795956D01*
X28482594Y-14805480D01*
X28492118Y-14824527D01*
X28492118Y-14881670D01*
X28482594Y-14900718D01*
X28473070Y-14910242D01*
X28454023Y-14919766D01*
X28425451Y-14919766D01*
X28549261Y-14786432D02*
X28625451Y-14786432D01*
X28577832Y-14719766D02*
X28577832Y-14891194D01*
X28587356Y-14910242D01*
X28606404Y-14919766D01*
X28625451Y-14919766D01*
X28844499Y-14786432D02*
X28844499Y-14986432D01*
X28844499Y-14795956D02*
X28863547Y-14786432D01*
X28901642Y-14786432D01*
X28920689Y-14795956D01*
X28930213Y-14805480D01*
X28939737Y-14824527D01*
X28939737Y-14881670D01*
X28930213Y-14900718D01*
X28920689Y-14910242D01*
X28901642Y-14919766D01*
X28863547Y-14919766D01*
X28844499Y-14910242D01*
X29054023Y-14919766D02*
X29034975Y-14910242D01*
X29025451Y-14891194D01*
X29025451Y-14719766D01*
X29215928Y-14919766D02*
X29215928Y-14815004D01*
X29206404Y-14795956D01*
X29187356Y-14786432D01*
X29149261Y-14786432D01*
X29130213Y-14795956D01*
X29215928Y-14910242D02*
X29196880Y-14919766D01*
X29149261Y-14919766D01*
X29130213Y-14910242D01*
X29120689Y-14891194D01*
X29120689Y-14872147D01*
X29130213Y-14853099D01*
X29149261Y-14843575D01*
X29196880Y-14843575D01*
X29215928Y-14834051D01*
X29282594Y-14786432D02*
X29358785Y-14786432D01*
X29311166Y-14719766D02*
X29311166Y-14891194D01*
X29320689Y-14910242D01*
X29339737Y-14919766D01*
X29358785Y-14919766D01*
X29501642Y-14910242D02*
X29482594Y-14919766D01*
X29444499Y-14919766D01*
X29425451Y-14910242D01*
X29415928Y-14891194D01*
X29415928Y-14815004D01*
X29425451Y-14795956D01*
X29444499Y-14786432D01*
X29482594Y-14786432D01*
X29501642Y-14795956D01*
X29511166Y-14815004D01*
X29511166Y-14834051D01*
X29415928Y-14853099D01*
X29682594Y-14919766D02*
X29682594Y-14719766D01*
X29682594Y-14910242D02*
X29663547Y-14919766D01*
X29625451Y-14919766D01*
X29606404Y-14910242D01*
X29596880Y-14900718D01*
X29587356Y-14881670D01*
X29587356Y-14824527D01*
X29596880Y-14805480D01*
X29606404Y-14795956D01*
X29625451Y-14786432D01*
X29663547Y-14786432D01*
X29682594Y-14795956D01*
X29758785Y-14995956D02*
X29768308Y-14986432D01*
X29787356Y-14957861D01*
X29796880Y-14938813D01*
X29806404Y-14910242D01*
X29815928Y-14862623D01*
X29815928Y-14824527D01*
X29806404Y-14776908D01*
X29796880Y-14748337D01*
X29787356Y-14729289D01*
X29768308Y-14700718D01*
X29758785Y-14691194D01*
M02*
