%TF.GenerationSoftware,KiCad,Pcbnew,(6.0.10)*%
%TF.CreationDate,2023-02-26T14:05:18-05:00*%
%TF.ProjectId,ECG_2.0,4543475f-322e-4302-9e6b-696361645f70,rev?*%
%TF.SameCoordinates,Original*%
%TF.FileFunction,Copper,L2,Inr*%
%TF.FilePolarity,Positive*%
%FSLAX46Y46*%
G04 Gerber Fmt 4.6, Leading zero omitted, Abs format (unit mm)*
G04 Created by KiCad (PCBNEW (6.0.10)) date 2023-02-26 14:05:18*
%MOMM*%
%LPD*%
G01*
G04 APERTURE LIST*
%TA.AperFunction,ComponentPad*%
%ADD10O,1.700000X0.900000*%
%TD*%
%TA.AperFunction,ComponentPad*%
%ADD11R,1.700000X1.700000*%
%TD*%
%TA.AperFunction,ComponentPad*%
%ADD12O,1.700000X1.700000*%
%TD*%
%TA.AperFunction,ComponentPad*%
%ADD13C,1.524000*%
%TD*%
%TA.AperFunction,ViaPad*%
%ADD14C,0.800000*%
%TD*%
%TA.AperFunction,Conductor*%
%ADD15C,0.250000*%
%TD*%
%TA.AperFunction,Conductor*%
%ADD16C,0.375000*%
%TD*%
G04 APERTURE END LIST*
D10*
%TO.N,unconnected-(U9-Pad17)*%
%TO.C,U9*%
X253995500Y-81880000D03*
%TD*%
D11*
%TO.N,+3V3*%
%TO.C,J2*%
X245247000Y-77089000D03*
D12*
%TO.N,/TX*%
X247787000Y-77089000D03*
%TO.N,/RX*%
X250327000Y-77089000D03*
%TO.N,GND*%
X252867000Y-77089000D03*
%TD*%
D11*
%TO.N,+LO*%
%TO.C,J1*%
X219964000Y-86863000D03*
D12*
%TO.N,-LO*%
X219964000Y-84323000D03*
%TO.N,Output*%
X219964000Y-81783000D03*
%TO.N,+3V3*%
X219964000Y-79243000D03*
%TO.N,GND*%
X219964000Y-76703000D03*
%TD*%
D13*
%TO.N,+4V*%
%TO.C,U7*%
X237522000Y-104394000D03*
%TO.N,+BATT*%
X239522000Y-104394000D03*
%TO.N,unconnected-(U7-Pad3)*%
X241522000Y-104394000D03*
%TD*%
%TO.N,+5V*%
%TO.C,U5*%
X250577000Y-98876000D03*
%TO.N,In_5V*%
X250577000Y-96876000D03*
%TO.N,unconnected-(U5-Pad3)*%
X250577000Y-94876000D03*
%TD*%
%TO.N,+BATT*%
%TO.C,U4*%
X217102000Y-103124000D03*
%TO.N,BatO*%
X219102000Y-103124000D03*
%TO.N,unconnected-(U4-Pad3)*%
X221102000Y-103124000D03*
%TD*%
D14*
%TO.N,+5V*%
X240220500Y-89217500D03*
%TO.N,+3V3*%
X221363500Y-80642500D03*
X223012000Y-93218000D03*
X220091000Y-97536000D03*
X216027000Y-97536000D03*
X232918000Y-95504000D03*
%TO.N,BTN*%
X231075281Y-92459965D03*
X232410000Y-87288398D03*
%TO.N,+BATT*%
X238760000Y-92202000D03*
X237490000Y-95250000D03*
%TO.N,GND*%
X248158000Y-81026000D03*
X237236000Y-83947000D03*
X244094000Y-106299000D03*
X244221000Y-97282000D03*
X226060000Y-90424000D03*
X225933000Y-75692000D03*
X233680000Y-101600000D03*
X233045000Y-91821000D03*
X218440000Y-89916000D03*
X247634000Y-85852000D03*
X253746000Y-99568000D03*
%TO.N,+5V*%
X234696000Y-92583000D03*
X247904000Y-102108000D03*
%TO.N,In_5V*%
X250690000Y-88638000D03*
X251376211Y-83374070D03*
%TO.N,Net-(D1-Pad1)*%
X240157000Y-90297000D03*
X254381000Y-102235000D03*
%TO.N,Net-(D2-Pad1)*%
X254508000Y-105156000D03*
X240279701Y-91444299D03*
%TO.N,+LO*%
X236982000Y-87884000D03*
X221869000Y-86868000D03*
%TO.N,-LO*%
X221996000Y-84582000D03*
X236347000Y-86741000D03*
%TO.N,LED*%
X217424000Y-82804000D03*
X233680000Y-87122000D03*
%TO.N,VSS*%
X233934000Y-103886000D03*
X226568000Y-101600000D03*
X224282000Y-109982000D03*
%TD*%
D15*
%TO.N,BTN*%
X232410000Y-91125246D02*
X231075281Y-92459965D01*
X232410000Y-87288398D02*
X232410000Y-91125246D01*
D16*
%TO.N,+BATT*%
X237490000Y-93472000D02*
X237490000Y-95250000D01*
X238760000Y-92202000D02*
X237490000Y-93472000D01*
%TO.N,In_5V*%
X252095000Y-95358000D02*
X252095000Y-89916000D01*
X252095000Y-89916000D02*
X250817000Y-88638000D01*
X250817000Y-88638000D02*
X250690000Y-88638000D01*
X250577000Y-96876000D02*
X252095000Y-95358000D01*
D15*
%TO.N,Net-(D1-Pad1)*%
X249174000Y-101346000D02*
X249174000Y-99314000D01*
X254381000Y-102235000D02*
X250063000Y-102235000D01*
X249174000Y-99314000D02*
X240157000Y-90297000D01*
X250063000Y-102235000D02*
X249174000Y-101346000D01*
%TO.N,Net-(D2-Pad1)*%
X240279701Y-91689701D02*
X248724000Y-100134000D01*
X248724000Y-100134000D02*
X248724000Y-101658000D01*
X252222000Y-105156000D02*
X254508000Y-105156000D01*
X248724000Y-101658000D02*
X252222000Y-105156000D01*
X240279701Y-91444299D02*
X240279701Y-91689701D01*
%TD*%
%TA.AperFunction,Conductor*%
%TO.N,+3V3*%
G36*
X225641497Y-74950002D02*
G01*
X225687990Y-75003658D01*
X225698094Y-75073932D01*
X225668600Y-75138512D01*
X225636934Y-75164658D01*
X225630159Y-75167464D01*
X225504718Y-75263718D01*
X225408464Y-75389159D01*
X225347956Y-75535238D01*
X225327318Y-75692000D01*
X225347956Y-75848762D01*
X225408464Y-75994841D01*
X225504718Y-76120282D01*
X225630159Y-76216536D01*
X225776238Y-76277044D01*
X225933000Y-76297682D01*
X225941188Y-76296604D01*
X225968298Y-76293035D01*
X226089762Y-76277044D01*
X226235841Y-76216536D01*
X226361282Y-76120282D01*
X226457536Y-75994841D01*
X226518044Y-75848762D01*
X226538682Y-75692000D01*
X226518044Y-75535238D01*
X226457536Y-75389159D01*
X226361282Y-75263718D01*
X226235841Y-75167464D01*
X226229263Y-75164739D01*
X226180632Y-75113738D01*
X226167194Y-75044025D01*
X226193580Y-74978113D01*
X226251412Y-74936931D01*
X226292624Y-74930000D01*
X255713569Y-74930000D01*
X255781690Y-74950002D01*
X255828183Y-75003658D01*
X255839569Y-75055979D01*
X255842484Y-92252340D01*
X255847861Y-123978382D01*
X255827871Y-124046503D01*
X255774224Y-124093005D01*
X255721862Y-124104400D01*
X214348911Y-124104400D01*
X214280790Y-124084398D01*
X214234297Y-124030742D01*
X214222911Y-123978643D01*
X214222911Y-123978379D01*
X214184320Y-103988038D01*
X214183494Y-103559940D01*
X214501500Y-103559940D01*
X214505602Y-103588580D01*
X214514791Y-103652746D01*
X214516677Y-103665918D01*
X214520391Y-103674086D01*
X214520391Y-103674087D01*
X214531777Y-103699129D01*
X214576016Y-103796428D01*
X214581878Y-103803231D01*
X214663740Y-103898237D01*
X214663743Y-103898240D01*
X214669600Y-103905037D01*
X214789905Y-103983015D01*
X214927261Y-104024093D01*
X214936237Y-104024148D01*
X214936238Y-104024148D01*
X214996445Y-104024516D01*
X215070624Y-104024969D01*
X215208471Y-103985572D01*
X215329720Y-103909070D01*
X215424623Y-103801612D01*
X215485553Y-103671837D01*
X215502500Y-103562991D01*
X215502500Y-103110496D01*
X216134937Y-103110496D01*
X216150732Y-103298590D01*
X216152431Y-103304515D01*
X216192260Y-103443415D01*
X216202760Y-103480034D01*
X216229679Y-103532412D01*
X216268567Y-103608080D01*
X216289040Y-103647917D01*
X216292865Y-103652743D01*
X216292867Y-103652746D01*
X216402456Y-103791014D01*
X216402460Y-103791019D01*
X216406285Y-103795844D01*
X216550030Y-103918180D01*
X216555408Y-103921186D01*
X216555410Y-103921187D01*
X216607332Y-103950205D01*
X216714800Y-104010267D01*
X216894317Y-104068595D01*
X217081745Y-104090945D01*
X217087880Y-104090473D01*
X217087882Y-104090473D01*
X217263803Y-104076937D01*
X217263807Y-104076936D01*
X217269945Y-104076464D01*
X217275877Y-104074808D01*
X217275881Y-104074807D01*
X217445804Y-104027363D01*
X217445808Y-104027362D01*
X217451748Y-104025703D01*
X217540675Y-103980783D01*
X217614728Y-103943377D01*
X217614730Y-103943376D01*
X217620229Y-103940598D01*
X217768970Y-103824388D01*
X217772996Y-103819724D01*
X217772999Y-103819721D01*
X217888278Y-103686169D01*
X217888279Y-103686167D01*
X217892307Y-103681501D01*
X217985542Y-103517378D01*
X217987487Y-103511532D01*
X217987964Y-103510460D01*
X218033944Y-103456365D01*
X218101872Y-103435716D01*
X218170179Y-103455069D01*
X218215136Y-103504115D01*
X218289040Y-103647917D01*
X218292865Y-103652743D01*
X218292867Y-103652746D01*
X218402456Y-103791014D01*
X218402460Y-103791019D01*
X218406285Y-103795844D01*
X218550030Y-103918180D01*
X218555408Y-103921186D01*
X218555410Y-103921187D01*
X218607332Y-103950205D01*
X218714800Y-104010267D01*
X218894317Y-104068595D01*
X219081745Y-104090945D01*
X219087880Y-104090473D01*
X219087882Y-104090473D01*
X219263803Y-104076937D01*
X219263807Y-104076936D01*
X219269945Y-104076464D01*
X219275877Y-104074808D01*
X219275881Y-104074807D01*
X219445804Y-104027363D01*
X219445808Y-104027362D01*
X219451748Y-104025703D01*
X219575690Y-103963096D01*
X219645512Y-103950236D01*
X219711203Y-103977166D01*
X219751906Y-104035336D01*
X219758500Y-104075562D01*
X219758500Y-111380000D01*
X219763196Y-111423681D01*
X219774582Y-111476023D01*
X219777070Y-111486203D01*
X219820079Y-111566916D01*
X219866572Y-111620572D01*
X219884165Y-111638527D01*
X219963983Y-111683174D01*
X219984588Y-111689224D01*
X220027781Y-111701907D01*
X220027785Y-111701908D01*
X220032104Y-111703176D01*
X220036552Y-111703816D01*
X220036559Y-111703817D01*
X220085552Y-111710861D01*
X220085559Y-111710862D01*
X220090000Y-111711500D01*
X234316000Y-111711500D01*
X234319346Y-111711140D01*
X234319351Y-111711140D01*
X234356317Y-111707166D01*
X234356323Y-111707165D01*
X234359681Y-111706804D01*
X234412023Y-111695418D01*
X234412717Y-111695248D01*
X234412736Y-111695244D01*
X234413870Y-111694967D01*
X234422203Y-111692930D01*
X234502916Y-111649921D01*
X234516066Y-111638527D01*
X234555111Y-111604694D01*
X234555112Y-111604693D01*
X234556572Y-111603428D01*
X234574527Y-111585835D01*
X234619174Y-111506017D01*
X234639176Y-111437896D01*
X234639817Y-111433441D01*
X234646861Y-111384448D01*
X234646862Y-111384441D01*
X234647500Y-111380000D01*
X234647500Y-106299000D01*
X243488318Y-106299000D01*
X243508956Y-106455762D01*
X243569464Y-106601841D01*
X243665718Y-106727282D01*
X243791159Y-106823536D01*
X243937238Y-106884044D01*
X244094000Y-106904682D01*
X244102188Y-106903604D01*
X244242574Y-106885122D01*
X244250762Y-106884044D01*
X244396841Y-106823536D01*
X244522282Y-106727282D01*
X244618536Y-106601841D01*
X244679044Y-106455762D01*
X244699682Y-106299000D01*
X244679044Y-106142238D01*
X244618536Y-105996159D01*
X244522282Y-105870718D01*
X244396841Y-105774464D01*
X244250762Y-105713956D01*
X244094000Y-105693318D01*
X243937238Y-105713956D01*
X243791159Y-105774464D01*
X243665718Y-105870718D01*
X243569464Y-105996159D01*
X243508956Y-106142238D01*
X243488318Y-106299000D01*
X234647500Y-106299000D01*
X234647500Y-104829940D01*
X234921500Y-104829940D01*
X234922136Y-104834379D01*
X234934791Y-104922746D01*
X234936677Y-104935918D01*
X234940391Y-104944086D01*
X234940391Y-104944087D01*
X234955821Y-104978023D01*
X234996016Y-105066428D01*
X235001878Y-105073231D01*
X235083740Y-105168237D01*
X235083743Y-105168240D01*
X235089600Y-105175037D01*
X235209905Y-105253015D01*
X235347261Y-105294093D01*
X235356237Y-105294148D01*
X235356238Y-105294148D01*
X235416445Y-105294516D01*
X235490624Y-105294969D01*
X235628471Y-105255572D01*
X235749720Y-105179070D01*
X235844623Y-105071612D01*
X235905553Y-104941837D01*
X235922500Y-104832991D01*
X235922500Y-104380496D01*
X236554937Y-104380496D01*
X236555453Y-104386639D01*
X236569198Y-104550318D01*
X236570732Y-104568590D01*
X236572431Y-104574515D01*
X236614921Y-104722695D01*
X236622760Y-104750034D01*
X236709040Y-104917917D01*
X236712865Y-104922743D01*
X236712867Y-104922746D01*
X236822456Y-105061014D01*
X236822460Y-105061019D01*
X236826285Y-105065844D01*
X236970030Y-105188180D01*
X236975408Y-105191186D01*
X236975410Y-105191187D01*
X237052415Y-105234223D01*
X237134800Y-105280267D01*
X237314317Y-105338595D01*
X237501745Y-105360945D01*
X237507880Y-105360473D01*
X237507882Y-105360473D01*
X237683803Y-105346937D01*
X237683807Y-105346936D01*
X237689945Y-105346464D01*
X237695877Y-105344808D01*
X237695881Y-105344807D01*
X237865804Y-105297363D01*
X237865808Y-105297362D01*
X237871748Y-105295703D01*
X237960675Y-105250783D01*
X238034728Y-105213377D01*
X238034730Y-105213376D01*
X238040229Y-105210598D01*
X238188970Y-105094388D01*
X238192996Y-105089724D01*
X238192999Y-105089721D01*
X238308278Y-104956169D01*
X238308279Y-104956167D01*
X238312307Y-104951501D01*
X238405542Y-104787378D01*
X238407487Y-104781532D01*
X238407964Y-104780460D01*
X238453944Y-104726365D01*
X238521872Y-104705716D01*
X238590179Y-104725069D01*
X238635136Y-104774115D01*
X238709040Y-104917917D01*
X238712865Y-104922743D01*
X238712867Y-104922746D01*
X238822456Y-105061014D01*
X238822460Y-105061019D01*
X238826285Y-105065844D01*
X238970030Y-105188180D01*
X238975408Y-105191186D01*
X238975410Y-105191187D01*
X239052415Y-105234223D01*
X239134800Y-105280267D01*
X239314317Y-105338595D01*
X239501745Y-105360945D01*
X239507880Y-105360473D01*
X239507882Y-105360473D01*
X239683803Y-105346937D01*
X239683807Y-105346936D01*
X239689945Y-105346464D01*
X239695877Y-105344808D01*
X239695881Y-105344807D01*
X239865804Y-105297363D01*
X239865808Y-105297362D01*
X239871748Y-105295703D01*
X239960675Y-105250783D01*
X240034728Y-105213377D01*
X240034730Y-105213376D01*
X240040229Y-105210598D01*
X240188970Y-105094388D01*
X240192996Y-105089724D01*
X240192999Y-105089721D01*
X240308278Y-104956169D01*
X240308279Y-104956167D01*
X240312307Y-104951501D01*
X240405542Y-104787378D01*
X240407487Y-104781532D01*
X240407964Y-104780460D01*
X240453944Y-104726365D01*
X240521872Y-104705716D01*
X240590179Y-104725069D01*
X240635136Y-104774115D01*
X240709040Y-104917917D01*
X240712865Y-104922743D01*
X240712867Y-104922746D01*
X240822456Y-105061014D01*
X240822460Y-105061019D01*
X240826285Y-105065844D01*
X240970030Y-105188180D01*
X240975408Y-105191186D01*
X240975410Y-105191187D01*
X241052415Y-105234223D01*
X241134800Y-105280267D01*
X241314317Y-105338595D01*
X241501745Y-105360945D01*
X241507880Y-105360473D01*
X241507882Y-105360473D01*
X241683803Y-105346937D01*
X241683807Y-105346936D01*
X241689945Y-105346464D01*
X241695877Y-105344808D01*
X241695881Y-105344807D01*
X241865804Y-105297363D01*
X241865808Y-105297362D01*
X241871748Y-105295703D01*
X241960675Y-105250783D01*
X242034728Y-105213377D01*
X242034730Y-105213376D01*
X242040229Y-105210598D01*
X242188970Y-105094388D01*
X242192996Y-105089724D01*
X242192999Y-105089721D01*
X242308278Y-104956169D01*
X242308279Y-104956167D01*
X242312307Y-104951501D01*
X242381363Y-104829940D01*
X243121500Y-104829940D01*
X243122136Y-104834379D01*
X243134791Y-104922746D01*
X243136677Y-104935918D01*
X243140391Y-104944086D01*
X243140391Y-104944087D01*
X243155821Y-104978023D01*
X243196016Y-105066428D01*
X243201878Y-105073231D01*
X243283740Y-105168237D01*
X243283743Y-105168240D01*
X243289600Y-105175037D01*
X243409905Y-105253015D01*
X243547261Y-105294093D01*
X243556237Y-105294148D01*
X243556238Y-105294148D01*
X243616445Y-105294516D01*
X243690624Y-105294969D01*
X243828471Y-105255572D01*
X243949720Y-105179070D01*
X244044623Y-105071612D01*
X244105553Y-104941837D01*
X244122500Y-104832991D01*
X244122500Y-103958060D01*
X244107323Y-103852082D01*
X244103131Y-103842861D01*
X244051700Y-103729746D01*
X244047984Y-103721572D01*
X244017479Y-103686169D01*
X243960260Y-103619763D01*
X243960257Y-103619760D01*
X243954400Y-103612963D01*
X243834095Y-103534985D01*
X243696739Y-103493907D01*
X243687763Y-103493852D01*
X243687762Y-103493852D01*
X243627555Y-103493484D01*
X243553376Y-103493031D01*
X243415529Y-103532428D01*
X243294280Y-103608930D01*
X243199377Y-103716388D01*
X243138447Y-103846163D01*
X243121500Y-103955009D01*
X243121500Y-104829940D01*
X242381363Y-104829940D01*
X242405542Y-104787378D01*
X242465123Y-104608272D01*
X242488780Y-104421005D01*
X242489157Y-104394000D01*
X242470738Y-104206145D01*
X242416181Y-104025445D01*
X242327566Y-103858783D01*
X242317274Y-103846163D01*
X242212161Y-103717284D01*
X242208266Y-103712508D01*
X242202475Y-103707717D01*
X242067577Y-103596120D01*
X242067574Y-103596118D01*
X242062827Y-103592191D01*
X241896788Y-103502414D01*
X241716474Y-103446597D01*
X241710356Y-103445954D01*
X241710351Y-103445953D01*
X241534881Y-103427511D01*
X241534879Y-103427511D01*
X241528752Y-103426867D01*
X241413125Y-103437390D01*
X241346914Y-103443415D01*
X241346913Y-103443415D01*
X241340773Y-103443974D01*
X241159697Y-103497268D01*
X240992420Y-103584718D01*
X240845316Y-103702993D01*
X240841352Y-103707717D01*
X240837332Y-103712508D01*
X240723986Y-103847588D01*
X240721016Y-103852991D01*
X240721015Y-103852992D01*
X240648120Y-103985588D01*
X240633052Y-104012996D01*
X240631228Y-104011993D01*
X240592054Y-104059415D01*
X240524423Y-104081016D01*
X240455850Y-104062624D01*
X240410204Y-104014204D01*
X240409029Y-104011993D01*
X240327566Y-103858783D01*
X240317274Y-103846163D01*
X240212161Y-103717284D01*
X240208266Y-103712508D01*
X240202475Y-103707717D01*
X240067577Y-103596120D01*
X240067574Y-103596118D01*
X240062827Y-103592191D01*
X239896788Y-103502414D01*
X239716474Y-103446597D01*
X239710356Y-103445954D01*
X239710351Y-103445953D01*
X239534881Y-103427511D01*
X239534879Y-103427511D01*
X239528752Y-103426867D01*
X239413125Y-103437390D01*
X239346914Y-103443415D01*
X239346913Y-103443415D01*
X239340773Y-103443974D01*
X239159697Y-103497268D01*
X238992420Y-103584718D01*
X238845316Y-103702993D01*
X238841352Y-103707717D01*
X238837332Y-103712508D01*
X238723986Y-103847588D01*
X238721016Y-103852991D01*
X238721015Y-103852992D01*
X238648120Y-103985588D01*
X238633052Y-104012996D01*
X238631228Y-104011993D01*
X238592054Y-104059415D01*
X238524423Y-104081016D01*
X238455850Y-104062624D01*
X238410204Y-104014204D01*
X238409029Y-104011993D01*
X238327566Y-103858783D01*
X238317274Y-103846163D01*
X238212161Y-103717284D01*
X238208266Y-103712508D01*
X238202475Y-103707717D01*
X238067577Y-103596120D01*
X238067574Y-103596118D01*
X238062827Y-103592191D01*
X237896788Y-103502414D01*
X237716474Y-103446597D01*
X237710356Y-103445954D01*
X237710351Y-103445953D01*
X237534881Y-103427511D01*
X237534879Y-103427511D01*
X237528752Y-103426867D01*
X237413125Y-103437390D01*
X237346914Y-103443415D01*
X237346913Y-103443415D01*
X237340773Y-103443974D01*
X237159697Y-103497268D01*
X236992420Y-103584718D01*
X236845316Y-103702993D01*
X236841352Y-103707717D01*
X236837332Y-103712508D01*
X236723986Y-103847588D01*
X236721016Y-103852991D01*
X236721015Y-103852992D01*
X236648120Y-103985588D01*
X236633052Y-104012996D01*
X236575978Y-104192917D01*
X236554937Y-104380496D01*
X235922500Y-104380496D01*
X235922500Y-103958060D01*
X235907323Y-103852082D01*
X235903131Y-103842861D01*
X235851700Y-103729746D01*
X235847984Y-103721572D01*
X235817479Y-103686169D01*
X235760260Y-103619763D01*
X235760257Y-103619760D01*
X235754400Y-103612963D01*
X235634095Y-103534985D01*
X235496739Y-103493907D01*
X235487763Y-103493852D01*
X235487762Y-103493852D01*
X235427555Y-103493484D01*
X235353376Y-103493031D01*
X235215529Y-103532428D01*
X235094280Y-103608930D01*
X234999377Y-103716388D01*
X234938447Y-103846163D01*
X234921500Y-103955009D01*
X234921500Y-104829940D01*
X234647500Y-104829940D01*
X234647500Y-101959624D01*
X234644654Y-101925542D01*
X234637723Y-101884330D01*
X234602464Y-101799210D01*
X234561282Y-101741378D01*
X234545474Y-101721830D01*
X234538067Y-101716706D01*
X234538065Y-101716704D01*
X234519691Y-101703994D01*
X234475048Y-101648790D01*
X234467337Y-101578213D01*
X234499006Y-101514672D01*
X234508860Y-101505147D01*
X234555108Y-101465073D01*
X234555116Y-101465066D01*
X234556572Y-101463804D01*
X234560911Y-101459553D01*
X234568092Y-101452516D01*
X234574527Y-101446211D01*
X234619174Y-101366393D01*
X234636202Y-101308400D01*
X234637907Y-101302595D01*
X234637908Y-101302591D01*
X234639176Y-101298272D01*
X234639817Y-101293817D01*
X234646861Y-101244824D01*
X234646862Y-101244817D01*
X234647500Y-101240376D01*
X234647500Y-98678000D01*
X234642804Y-98634319D01*
X234631418Y-98581977D01*
X234628930Y-98571797D01*
X234585921Y-98491084D01*
X234539428Y-98437428D01*
X234521835Y-98419473D01*
X234442017Y-98374826D01*
X234400910Y-98362756D01*
X234378219Y-98356093D01*
X234378215Y-98356092D01*
X234373896Y-98354824D01*
X234369448Y-98354184D01*
X234369441Y-98354183D01*
X234320448Y-98347139D01*
X234320441Y-98347138D01*
X234316000Y-98346500D01*
X220090000Y-98346500D01*
X220086654Y-98346860D01*
X220086649Y-98346860D01*
X220049683Y-98350834D01*
X220049677Y-98350835D01*
X220046319Y-98351196D01*
X219993977Y-98362582D01*
X219993283Y-98362752D01*
X219993264Y-98362756D01*
X219992130Y-98363033D01*
X219983797Y-98365070D01*
X219903084Y-98408079D01*
X219897738Y-98412711D01*
X219897737Y-98412712D01*
X219882508Y-98425908D01*
X219849428Y-98454572D01*
X219831473Y-98472165D01*
X219786826Y-98551983D01*
X219766824Y-98620104D01*
X219766184Y-98624552D01*
X219766183Y-98624559D01*
X219759139Y-98673552D01*
X219759138Y-98673559D01*
X219758500Y-98678000D01*
X219758500Y-102173368D01*
X219738498Y-102241489D01*
X219684842Y-102287982D01*
X219614568Y-102298086D01*
X219572572Y-102284204D01*
X219521471Y-102256574D01*
X219482204Y-102235342D01*
X219482200Y-102235341D01*
X219476788Y-102232414D01*
X219296474Y-102176597D01*
X219290356Y-102175954D01*
X219290351Y-102175953D01*
X219114881Y-102157511D01*
X219114879Y-102157511D01*
X219108752Y-102156867D01*
X218993126Y-102167390D01*
X218926914Y-102173415D01*
X218926913Y-102173415D01*
X218920773Y-102173974D01*
X218739697Y-102227268D01*
X218734232Y-102230125D01*
X218683640Y-102256574D01*
X218572420Y-102314718D01*
X218425316Y-102432993D01*
X218421352Y-102437717D01*
X218417332Y-102442508D01*
X218303986Y-102577588D01*
X218213052Y-102742996D01*
X218211228Y-102741993D01*
X218172054Y-102789415D01*
X218104423Y-102811016D01*
X218035850Y-102792624D01*
X217990204Y-102744204D01*
X217989029Y-102741993D01*
X217907566Y-102588783D01*
X217897274Y-102576163D01*
X217792161Y-102447284D01*
X217788266Y-102442508D01*
X217782475Y-102437717D01*
X217647577Y-102326120D01*
X217647574Y-102326118D01*
X217642827Y-102322191D01*
X217476788Y-102232414D01*
X217296474Y-102176597D01*
X217290356Y-102175954D01*
X217290351Y-102175953D01*
X217114881Y-102157511D01*
X217114879Y-102157511D01*
X217108752Y-102156867D01*
X216993126Y-102167390D01*
X216926914Y-102173415D01*
X216926913Y-102173415D01*
X216920773Y-102173974D01*
X216739697Y-102227268D01*
X216734232Y-102230125D01*
X216683640Y-102256574D01*
X216572420Y-102314718D01*
X216425316Y-102432993D01*
X216421352Y-102437717D01*
X216417332Y-102442508D01*
X216303986Y-102577588D01*
X216301016Y-102582991D01*
X216301015Y-102582992D01*
X216216019Y-102737599D01*
X216213052Y-102742996D01*
X216155978Y-102922917D01*
X216155292Y-102929036D01*
X216155291Y-102929039D01*
X216145703Y-103014516D01*
X216134937Y-103110496D01*
X215502500Y-103110496D01*
X215502500Y-102688060D01*
X215495001Y-102635696D01*
X215488596Y-102590968D01*
X215488595Y-102590965D01*
X215487323Y-102582082D01*
X215483131Y-102572861D01*
X215431700Y-102459746D01*
X215427984Y-102451572D01*
X215408646Y-102429129D01*
X215340260Y-102349763D01*
X215340257Y-102349760D01*
X215334400Y-102342963D01*
X215214095Y-102264985D01*
X215076739Y-102223907D01*
X215067763Y-102223852D01*
X215067762Y-102223852D01*
X215007555Y-102223484D01*
X214933376Y-102223031D01*
X214795529Y-102262428D01*
X214674280Y-102338930D01*
X214579377Y-102446388D01*
X214518447Y-102576163D01*
X214501500Y-102685009D01*
X214501500Y-103559940D01*
X214183494Y-103559940D01*
X214167452Y-95250000D01*
X236884318Y-95250000D01*
X236885396Y-95258188D01*
X236903334Y-95394438D01*
X236904956Y-95406762D01*
X236965464Y-95552841D01*
X237061718Y-95678282D01*
X237187159Y-95774536D01*
X237265404Y-95806946D01*
X237317353Y-95828464D01*
X237333238Y-95835044D01*
X237490000Y-95855682D01*
X237498188Y-95854604D01*
X237638574Y-95836122D01*
X237646762Y-95835044D01*
X237662648Y-95828464D01*
X237714596Y-95806946D01*
X237792841Y-95774536D01*
X237918282Y-95678282D01*
X238014536Y-95552841D01*
X238075044Y-95406762D01*
X238076667Y-95394438D01*
X238094604Y-95258188D01*
X238095682Y-95250000D01*
X238075044Y-95093238D01*
X238014536Y-94947159D01*
X237918282Y-94821718D01*
X237914212Y-94818595D01*
X237880880Y-94757558D01*
X237878000Y-94730770D01*
X237878000Y-93684905D01*
X237898002Y-93616784D01*
X237914905Y-93595810D01*
X238667206Y-92843509D01*
X238729518Y-92809483D01*
X238753829Y-92806870D01*
X238760000Y-92807682D01*
X238768188Y-92806604D01*
X238908574Y-92788122D01*
X238916762Y-92787044D01*
X239062841Y-92726536D01*
X239152082Y-92658059D01*
X239181736Y-92635305D01*
X239188282Y-92630282D01*
X239284536Y-92504841D01*
X239345044Y-92358762D01*
X239365682Y-92202000D01*
X239345044Y-92045238D01*
X239284536Y-91899159D01*
X239188282Y-91773718D01*
X239062841Y-91677464D01*
X238916762Y-91616956D01*
X238760000Y-91596318D01*
X238603238Y-91616956D01*
X238457159Y-91677464D01*
X238331718Y-91773718D01*
X238235464Y-91899159D01*
X238174956Y-92045238D01*
X238154318Y-92202000D01*
X238154988Y-92207089D01*
X238135394Y-92273820D01*
X238118491Y-92294794D01*
X237194052Y-93219233D01*
X237194049Y-93219237D01*
X237172189Y-93241097D01*
X237167690Y-93249927D01*
X237167687Y-93249931D01*
X237162655Y-93259808D01*
X237152324Y-93276667D01*
X237145810Y-93285632D01*
X237145808Y-93285635D01*
X237139981Y-93293656D01*
X237136917Y-93303088D01*
X237133493Y-93313625D01*
X237125925Y-93331895D01*
X237120892Y-93341773D01*
X237116391Y-93350607D01*
X237114840Y-93360397D01*
X237114839Y-93360401D01*
X237113103Y-93371359D01*
X237108490Y-93390574D01*
X237102001Y-93410547D01*
X237102001Y-93441461D01*
X237102000Y-93441467D01*
X237102000Y-94730770D01*
X237081998Y-94798891D01*
X237066655Y-94817930D01*
X237061718Y-94821718D01*
X236965464Y-94947159D01*
X236904956Y-95093238D01*
X236884318Y-95250000D01*
X214167452Y-95250000D01*
X214162066Y-92459965D01*
X230469599Y-92459965D01*
X230490237Y-92616727D01*
X230550745Y-92762806D01*
X230646999Y-92888247D01*
X230772440Y-92984501D01*
X230918519Y-93045009D01*
X231075281Y-93065647D01*
X231083469Y-93064569D01*
X231223855Y-93046087D01*
X231232043Y-93045009D01*
X231378122Y-92984501D01*
X231503563Y-92888247D01*
X231599817Y-92762806D01*
X231660325Y-92616727D01*
X231664765Y-92583000D01*
X234090318Y-92583000D01*
X234110956Y-92739762D01*
X234171464Y-92885841D01*
X234267718Y-93011282D01*
X234393159Y-93107536D01*
X234539238Y-93168044D01*
X234696000Y-93188682D01*
X234704188Y-93187604D01*
X234844574Y-93169122D01*
X234852762Y-93168044D01*
X234998841Y-93107536D01*
X235124282Y-93011282D01*
X235220536Y-92885841D01*
X235281044Y-92739762D01*
X235301682Y-92583000D01*
X235281044Y-92426238D01*
X235220536Y-92280159D01*
X235124282Y-92154718D01*
X234998841Y-92058464D01*
X234852762Y-91997956D01*
X234696000Y-91977318D01*
X234539238Y-91997956D01*
X234393159Y-92058464D01*
X234267718Y-92154718D01*
X234171464Y-92280159D01*
X234110956Y-92426238D01*
X234090318Y-92583000D01*
X231664765Y-92583000D01*
X231680963Y-92459965D01*
X231672163Y-92393122D01*
X231683102Y-92322975D01*
X231707990Y-92287582D01*
X232227851Y-91767721D01*
X232290163Y-91733695D01*
X232360978Y-91738760D01*
X232417814Y-91781307D01*
X232441868Y-91840370D01*
X232459956Y-91977762D01*
X232520464Y-92123841D01*
X232616718Y-92249282D01*
X232742159Y-92345536D01*
X232888238Y-92406044D01*
X233045000Y-92426682D01*
X233053188Y-92425604D01*
X233193574Y-92407122D01*
X233201762Y-92406044D01*
X233347841Y-92345536D01*
X233473282Y-92249282D01*
X233569536Y-92123841D01*
X233630044Y-91977762D01*
X233650682Y-91821000D01*
X233630044Y-91664238D01*
X233569536Y-91518159D01*
X233473282Y-91392718D01*
X233347841Y-91296464D01*
X233201762Y-91235956D01*
X233045000Y-91215318D01*
X232893403Y-91235276D01*
X232893401Y-91235276D01*
X232888238Y-91235956D01*
X232888132Y-91235151D01*
X232823838Y-91233618D01*
X232765044Y-91193822D01*
X232736687Y-91124585D01*
X232735980Y-91116505D01*
X232735500Y-91105522D01*
X232735500Y-90297000D01*
X239551318Y-90297000D01*
X239571956Y-90453762D01*
X239632464Y-90599841D01*
X239637491Y-90606392D01*
X239719097Y-90712743D01*
X239728718Y-90725282D01*
X239849529Y-90817983D01*
X239891395Y-90875320D01*
X239895617Y-90946191D01*
X239861919Y-91007040D01*
X239857965Y-91010994D01*
X239851419Y-91016017D01*
X239846396Y-91022563D01*
X239838303Y-91033110D01*
X239755165Y-91141458D01*
X239694657Y-91287537D01*
X239674019Y-91444299D01*
X239694657Y-91601061D01*
X239755165Y-91747140D01*
X239851419Y-91872581D01*
X239976860Y-91968835D01*
X240122939Y-92029343D01*
X240131129Y-92030421D01*
X240138088Y-92032286D01*
X240194572Y-92064898D01*
X244725911Y-96596238D01*
X244759937Y-96658550D01*
X244754872Y-96729365D01*
X244712325Y-96786201D01*
X244645805Y-96811012D01*
X244576431Y-96795921D01*
X244560112Y-96785295D01*
X244530397Y-96762494D01*
X244530392Y-96762491D01*
X244523841Y-96757464D01*
X244377762Y-96696956D01*
X244357421Y-96694278D01*
X244229188Y-96677396D01*
X244221000Y-96676318D01*
X244212812Y-96677396D01*
X244084580Y-96694278D01*
X244064238Y-96696956D01*
X243918159Y-96757464D01*
X243792718Y-96853718D01*
X243696464Y-96979159D01*
X243635956Y-97125238D01*
X243615318Y-97282000D01*
X243635956Y-97438762D01*
X243696464Y-97584841D01*
X243792718Y-97710282D01*
X243918159Y-97806536D01*
X244064238Y-97867044D01*
X244221000Y-97887682D01*
X244229188Y-97886604D01*
X244369574Y-97868122D01*
X244377762Y-97867044D01*
X244523841Y-97806536D01*
X244649282Y-97710282D01*
X244745536Y-97584841D01*
X244806044Y-97438762D01*
X244826682Y-97282000D01*
X244806044Y-97125238D01*
X244745536Y-96979159D01*
X244740508Y-96972606D01*
X244740506Y-96972603D01*
X244717705Y-96942888D01*
X244692104Y-96876668D01*
X244706368Y-96807119D01*
X244755969Y-96756323D01*
X244825159Y-96740407D01*
X244891970Y-96764424D01*
X244906762Y-96777089D01*
X248361595Y-100231922D01*
X248395621Y-100294234D01*
X248398500Y-100321017D01*
X248398500Y-101477124D01*
X248378498Y-101545245D01*
X248324842Y-101591738D01*
X248254568Y-101601842D01*
X248211256Y-101586852D01*
X248206841Y-101583464D01*
X248199215Y-101580305D01*
X248199213Y-101580304D01*
X248068391Y-101526116D01*
X248060762Y-101522956D01*
X247904000Y-101502318D01*
X247747238Y-101522956D01*
X247601159Y-101583464D01*
X247475718Y-101679718D01*
X247379464Y-101805159D01*
X247318956Y-101951238D01*
X247298318Y-102108000D01*
X247299396Y-102116188D01*
X247313791Y-102225526D01*
X247318956Y-102264762D01*
X247379464Y-102410841D01*
X247475718Y-102536282D01*
X247601159Y-102632536D01*
X247747238Y-102693044D01*
X247904000Y-102713682D01*
X247912188Y-102712604D01*
X248052574Y-102694122D01*
X248060762Y-102693044D01*
X248206841Y-102632536D01*
X248332282Y-102536282D01*
X248428536Y-102410841D01*
X248489044Y-102264762D01*
X248500064Y-102181056D01*
X248528786Y-102116129D01*
X248588051Y-102077037D01*
X248659043Y-102076192D01*
X248714081Y-102108407D01*
X251977889Y-105372215D01*
X251985316Y-105380319D01*
X252009545Y-105409194D01*
X252019094Y-105414707D01*
X252042185Y-105428039D01*
X252051456Y-105433945D01*
X252082316Y-105455554D01*
X252092966Y-105458408D01*
X252096134Y-105459885D01*
X252099410Y-105461077D01*
X252108955Y-105466588D01*
X252142699Y-105472538D01*
X252146058Y-105473130D01*
X252156785Y-105475508D01*
X252193193Y-105485264D01*
X252204178Y-105484303D01*
X252204180Y-105484303D01*
X252230728Y-105481980D01*
X252241710Y-105481500D01*
X253938714Y-105481500D01*
X254006835Y-105501502D01*
X254038677Y-105530796D01*
X254079718Y-105584282D01*
X254205159Y-105680536D01*
X254351238Y-105741044D01*
X254508000Y-105761682D01*
X254516188Y-105760604D01*
X254656574Y-105742122D01*
X254664762Y-105741044D01*
X254810841Y-105680536D01*
X254936282Y-105584282D01*
X255032536Y-105458841D01*
X255093044Y-105312762D01*
X255095387Y-105294969D01*
X255112604Y-105164188D01*
X255113682Y-105156000D01*
X255093044Y-104999238D01*
X255032536Y-104853159D01*
X254936282Y-104727718D01*
X254810841Y-104631464D01*
X254664762Y-104570956D01*
X254646791Y-104568590D01*
X254516188Y-104551396D01*
X254508000Y-104550318D01*
X254499812Y-104551396D01*
X254369210Y-104568590D01*
X254351238Y-104570956D01*
X254205159Y-104631464D01*
X254079718Y-104727718D01*
X254074695Y-104734264D01*
X254038677Y-104781204D01*
X253981339Y-104823071D01*
X253938714Y-104830500D01*
X252409016Y-104830500D01*
X252340895Y-104810498D01*
X252319921Y-104793595D01*
X250301921Y-102775595D01*
X250267895Y-102713283D01*
X250272960Y-102642468D01*
X250315507Y-102585632D01*
X250382027Y-102560821D01*
X250391016Y-102560500D01*
X253811714Y-102560500D01*
X253879835Y-102580502D01*
X253911677Y-102609796D01*
X253952718Y-102663282D01*
X253959264Y-102668305D01*
X253979224Y-102683621D01*
X254078159Y-102759536D01*
X254224238Y-102820044D01*
X254381000Y-102840682D01*
X254389188Y-102839604D01*
X254529574Y-102821122D01*
X254537762Y-102820044D01*
X254683841Y-102759536D01*
X254782776Y-102683621D01*
X254802736Y-102668305D01*
X254809282Y-102663282D01*
X254905536Y-102537841D01*
X254966044Y-102391762D01*
X254986682Y-102235000D01*
X254966044Y-102078238D01*
X254905536Y-101932159D01*
X254809282Y-101806718D01*
X254683841Y-101710464D01*
X254537762Y-101649956D01*
X254528906Y-101648790D01*
X254415994Y-101633925D01*
X254381000Y-101629318D01*
X254346006Y-101633925D01*
X254233095Y-101648790D01*
X254224238Y-101649956D01*
X254078159Y-101710464D01*
X253952718Y-101806718D01*
X253947695Y-101813264D01*
X253911677Y-101860204D01*
X253854339Y-101902071D01*
X253811714Y-101909500D01*
X250250016Y-101909500D01*
X250181895Y-101889498D01*
X250160921Y-101872595D01*
X249968996Y-101680670D01*
X249934970Y-101618358D01*
X249940035Y-101547543D01*
X249982582Y-101490707D01*
X250049102Y-101465896D01*
X250077475Y-101467075D01*
X250138009Y-101476500D01*
X251012940Y-101476500D01*
X251054339Y-101470571D01*
X251110032Y-101462596D01*
X251110035Y-101462595D01*
X251118918Y-101461323D01*
X251249428Y-101401984D01*
X251298616Y-101359601D01*
X251351237Y-101314260D01*
X251351240Y-101314257D01*
X251358037Y-101308400D01*
X251436015Y-101188095D01*
X251477093Y-101050739D01*
X251477969Y-100907376D01*
X251438572Y-100769529D01*
X251362070Y-100648280D01*
X251254612Y-100553377D01*
X251124837Y-100492447D01*
X251015991Y-100475500D01*
X250141060Y-100475500D01*
X250099661Y-100481429D01*
X250043968Y-100489404D01*
X250043965Y-100489405D01*
X250035082Y-100490677D01*
X249904572Y-100550016D01*
X249897768Y-100555878D01*
X249897769Y-100555878D01*
X249802763Y-100637740D01*
X249802760Y-100637743D01*
X249795963Y-100643600D01*
X249791082Y-100651131D01*
X249731232Y-100743468D01*
X249677396Y-100789751D01*
X249607083Y-100799582D01*
X249542618Y-100769838D01*
X249504467Y-100709963D01*
X249499500Y-100674935D01*
X249499500Y-99406000D01*
X249519502Y-99337879D01*
X249573158Y-99291386D01*
X249643432Y-99281282D01*
X249708012Y-99310776D01*
X249737567Y-99348406D01*
X249764040Y-99399917D01*
X249767865Y-99404743D01*
X249767867Y-99404746D01*
X249877456Y-99543014D01*
X249877460Y-99543019D01*
X249881285Y-99547844D01*
X250025030Y-99670180D01*
X250030408Y-99673186D01*
X250030410Y-99673187D01*
X250107415Y-99716223D01*
X250189800Y-99762267D01*
X250369317Y-99820595D01*
X250556745Y-99842945D01*
X250562880Y-99842473D01*
X250562882Y-99842473D01*
X250738803Y-99828937D01*
X250738807Y-99828936D01*
X250744945Y-99828464D01*
X250750877Y-99826808D01*
X250750881Y-99826807D01*
X250920804Y-99779363D01*
X250920808Y-99779362D01*
X250926748Y-99777703D01*
X251006297Y-99737520D01*
X251089728Y-99695377D01*
X251089730Y-99695376D01*
X251095229Y-99692598D01*
X251243970Y-99576388D01*
X251247996Y-99571724D01*
X251247999Y-99571721D01*
X251251211Y-99568000D01*
X253140318Y-99568000D01*
X253160956Y-99724762D01*
X253221464Y-99870841D01*
X253317718Y-99996282D01*
X253443159Y-100092536D01*
X253589238Y-100153044D01*
X253746000Y-100173682D01*
X253754188Y-100172604D01*
X253894574Y-100154122D01*
X253902762Y-100153044D01*
X254048841Y-100092536D01*
X254174282Y-99996282D01*
X254270536Y-99870841D01*
X254331044Y-99724762D01*
X254351682Y-99568000D01*
X254331044Y-99411238D01*
X254270536Y-99265159D01*
X254174282Y-99139718D01*
X254048841Y-99043464D01*
X253902762Y-98982956D01*
X253746000Y-98962318D01*
X253589238Y-98982956D01*
X253443159Y-99043464D01*
X253317718Y-99139718D01*
X253221464Y-99265159D01*
X253160956Y-99411238D01*
X253140318Y-99568000D01*
X251251211Y-99568000D01*
X251363278Y-99438169D01*
X251363279Y-99438167D01*
X251367307Y-99433501D01*
X251460542Y-99269378D01*
X251520123Y-99090272D01*
X251543780Y-98903005D01*
X251544157Y-98876000D01*
X251525738Y-98688145D01*
X251471181Y-98507445D01*
X251382566Y-98340783D01*
X251263266Y-98194508D01*
X251257475Y-98189717D01*
X251122577Y-98078120D01*
X251122574Y-98078118D01*
X251117827Y-98074191D01*
X251112407Y-98071261D01*
X251112402Y-98071257D01*
X250954052Y-97985638D01*
X250903643Y-97935643D01*
X250888265Y-97866332D01*
X250912801Y-97799710D01*
X250957170Y-97762336D01*
X251089728Y-97695377D01*
X251089730Y-97695376D01*
X251095229Y-97692598D01*
X251243970Y-97576388D01*
X251247996Y-97571724D01*
X251247999Y-97571721D01*
X251363278Y-97438169D01*
X251363279Y-97438167D01*
X251367307Y-97433501D01*
X251460542Y-97269378D01*
X251520123Y-97090272D01*
X251543780Y-96903005D01*
X251544157Y-96876000D01*
X251525738Y-96688145D01*
X251498331Y-96597369D01*
X251497790Y-96526375D01*
X251529858Y-96471856D01*
X252412811Y-95588903D01*
X252417313Y-95580068D01*
X252417315Y-95580065D01*
X252422350Y-95570184D01*
X252432677Y-95553332D01*
X252439189Y-95544369D01*
X252439190Y-95544367D01*
X252445019Y-95536344D01*
X252451507Y-95516375D01*
X252459075Y-95498105D01*
X252464108Y-95488227D01*
X252464109Y-95488225D01*
X252468609Y-95479393D01*
X252470160Y-95469603D01*
X252470161Y-95469599D01*
X252471897Y-95458641D01*
X252476510Y-95439426D01*
X252482999Y-95419453D01*
X252482999Y-95388539D01*
X252483000Y-95388533D01*
X252483000Y-90564891D01*
X253040920Y-90564891D01*
X253042617Y-90573306D01*
X253042617Y-90573309D01*
X253046429Y-90592211D01*
X253070733Y-90712743D01*
X253139207Y-90847132D01*
X253241299Y-90958156D01*
X253293336Y-90990420D01*
X253362187Y-91033110D01*
X253362190Y-91033111D01*
X253369486Y-91037635D01*
X253514325Y-91079715D01*
X253521303Y-91080227D01*
X253522708Y-91080331D01*
X253522719Y-91080331D01*
X253525015Y-91080500D01*
X254433285Y-91080500D01*
X254437530Y-91079918D01*
X254437537Y-91079918D01*
X254498022Y-91071632D01*
X254544932Y-91065206D01*
X254608645Y-91037635D01*
X254675471Y-91008717D01*
X254675473Y-91008716D01*
X254683355Y-91005305D01*
X254800570Y-90910386D01*
X254887942Y-90787442D01*
X254939033Y-90645532D01*
X254950080Y-90495109D01*
X254920267Y-90347257D01*
X254851793Y-90212868D01*
X254749701Y-90101844D01*
X254668154Y-90051283D01*
X254628813Y-90026890D01*
X254628810Y-90026889D01*
X254621514Y-90022365D01*
X254476675Y-89980285D01*
X254469697Y-89979773D01*
X254468292Y-89979669D01*
X254468281Y-89979669D01*
X254465985Y-89979500D01*
X253557715Y-89979500D01*
X253553470Y-89980082D01*
X253553463Y-89980082D01*
X253498526Y-89987608D01*
X253446068Y-89994794D01*
X253438184Y-89998206D01*
X253438183Y-89998206D01*
X253315529Y-90051283D01*
X253315527Y-90051284D01*
X253307645Y-90054695D01*
X253190430Y-90149614D01*
X253103058Y-90272558D01*
X253051967Y-90414468D01*
X253051338Y-90423030D01*
X253051338Y-90423031D01*
X253049081Y-90453762D01*
X253040920Y-90564891D01*
X252483000Y-90564891D01*
X252483000Y-89885467D01*
X252482999Y-89885461D01*
X252482999Y-89854547D01*
X252476510Y-89834574D01*
X252471897Y-89815359D01*
X252470161Y-89804401D01*
X252470160Y-89804397D01*
X252468609Y-89794607D01*
X252464108Y-89785773D01*
X252459075Y-89775895D01*
X252451507Y-89757625D01*
X252448083Y-89747088D01*
X252445019Y-89737656D01*
X252439192Y-89729635D01*
X252439190Y-89729632D01*
X252432676Y-89720667D01*
X252422345Y-89703808D01*
X252417313Y-89693931D01*
X252417310Y-89693927D01*
X252412811Y-89685097D01*
X252390951Y-89663237D01*
X252390948Y-89663233D01*
X251315308Y-88587593D01*
X251281282Y-88525281D01*
X251279481Y-88514943D01*
X251276122Y-88489427D01*
X251276122Y-88489426D01*
X251275044Y-88481238D01*
X251214536Y-88335159D01*
X251118282Y-88209718D01*
X251097006Y-88193392D01*
X250999392Y-88118491D01*
X250992841Y-88113464D01*
X250846762Y-88052956D01*
X250690000Y-88032318D01*
X250533238Y-88052956D01*
X250387159Y-88113464D01*
X250380608Y-88118491D01*
X250282995Y-88193392D01*
X250261718Y-88209718D01*
X250165464Y-88335159D01*
X250104956Y-88481238D01*
X250084318Y-88638000D01*
X250104956Y-88794762D01*
X250165464Y-88940841D01*
X250261718Y-89066282D01*
X250387159Y-89162536D01*
X250533238Y-89223044D01*
X250690000Y-89243682D01*
X250790962Y-89230390D01*
X250861109Y-89241329D01*
X250896502Y-89266217D01*
X251670095Y-90039810D01*
X251704121Y-90102122D01*
X251707000Y-90128905D01*
X251707000Y-92609358D01*
X251686998Y-92677479D01*
X251633342Y-92723972D01*
X251563068Y-92734076D01*
X251498488Y-92704582D01*
X251459851Y-92643983D01*
X251441038Y-92578158D01*
X251438572Y-92569529D01*
X251362070Y-92448280D01*
X251314247Y-92406044D01*
X251299616Y-92393123D01*
X251254612Y-92353377D01*
X251124837Y-92292447D01*
X251015991Y-92275500D01*
X250141060Y-92275500D01*
X250099661Y-92281429D01*
X250043968Y-92289404D01*
X250043965Y-92289405D01*
X250035082Y-92290677D01*
X250026914Y-92294391D01*
X250026913Y-92294391D01*
X250022796Y-92296263D01*
X249904572Y-92350016D01*
X249897768Y-92355878D01*
X249897769Y-92355878D01*
X249802763Y-92437740D01*
X249802760Y-92437743D01*
X249795963Y-92443600D01*
X249717985Y-92563905D01*
X249676907Y-92701261D01*
X249676852Y-92710237D01*
X249676852Y-92710238D01*
X249676733Y-92729696D01*
X249676031Y-92844624D01*
X249715428Y-92982471D01*
X249791930Y-93103720D01*
X249899388Y-93198623D01*
X250029163Y-93259553D01*
X250138009Y-93276500D01*
X251012940Y-93276500D01*
X251054339Y-93270571D01*
X251110032Y-93262596D01*
X251110035Y-93262595D01*
X251118918Y-93261323D01*
X251249428Y-93201984D01*
X251288817Y-93168044D01*
X251351237Y-93114260D01*
X251351240Y-93114257D01*
X251358037Y-93108400D01*
X251436015Y-92988095D01*
X251460283Y-92906948D01*
X251498964Y-92847414D01*
X251563692Y-92818244D01*
X251633914Y-92828699D01*
X251687337Y-92875460D01*
X251707000Y-92943050D01*
X251707000Y-94445597D01*
X251686998Y-94513718D01*
X251633342Y-94560211D01*
X251563068Y-94570315D01*
X251498488Y-94540821D01*
X251469748Y-94504750D01*
X251467685Y-94500869D01*
X251382566Y-94340783D01*
X251263266Y-94194508D01*
X251257475Y-94189717D01*
X251122577Y-94078120D01*
X251122574Y-94078118D01*
X251117827Y-94074191D01*
X250951788Y-93984414D01*
X250771474Y-93928597D01*
X250765356Y-93927954D01*
X250765351Y-93927953D01*
X250589881Y-93909511D01*
X250589879Y-93909511D01*
X250583752Y-93908867D01*
X250468125Y-93919390D01*
X250401914Y-93925415D01*
X250401913Y-93925415D01*
X250395773Y-93925974D01*
X250214697Y-93979268D01*
X250047420Y-94066718D01*
X249900316Y-94184993D01*
X249778986Y-94329588D01*
X249688052Y-94494996D01*
X249630978Y-94674917D01*
X249630292Y-94681036D01*
X249630291Y-94681039D01*
X249614511Y-94821718D01*
X249609937Y-94862496D01*
X249625732Y-95050590D01*
X249677760Y-95232034D01*
X249680576Y-95237513D01*
X249758196Y-95388545D01*
X249764040Y-95399917D01*
X249767865Y-95404743D01*
X249767867Y-95404746D01*
X249877456Y-95543014D01*
X249877460Y-95543019D01*
X249881285Y-95547844D01*
X250025030Y-95670180D01*
X250030408Y-95673186D01*
X250030410Y-95673187D01*
X250039527Y-95678282D01*
X250189800Y-95762267D01*
X250190596Y-95762526D01*
X250243597Y-95806946D01*
X250264717Y-95874728D01*
X250245838Y-95943169D01*
X250197110Y-95988462D01*
X250047420Y-96066718D01*
X249900316Y-96184993D01*
X249778986Y-96329588D01*
X249688052Y-96494996D01*
X249630978Y-96674917D01*
X249630292Y-96681036D01*
X249630291Y-96681039D01*
X249621155Y-96762491D01*
X249609937Y-96862496D01*
X249610453Y-96868639D01*
X249619184Y-96972608D01*
X249625732Y-97050590D01*
X249677760Y-97232034D01*
X249764040Y-97399917D01*
X249767865Y-97404743D01*
X249767867Y-97404746D01*
X249877456Y-97543014D01*
X249877460Y-97543019D01*
X249881285Y-97547844D01*
X250025030Y-97670180D01*
X250030408Y-97673186D01*
X250030410Y-97673187D01*
X250105772Y-97715305D01*
X250189800Y-97762267D01*
X250190596Y-97762526D01*
X250243597Y-97806946D01*
X250264717Y-97874728D01*
X250245838Y-97943169D01*
X250197110Y-97988462D01*
X250047420Y-98066718D01*
X249900316Y-98184993D01*
X249778986Y-98329588D01*
X249776016Y-98334991D01*
X249776015Y-98334992D01*
X249720459Y-98436048D01*
X249688052Y-98494996D01*
X249630978Y-98674917D01*
X249609937Y-98862496D01*
X249618320Y-98962318D01*
X249620056Y-98982994D01*
X249605825Y-99052550D01*
X249556248Y-99103370D01*
X249487066Y-99119319D01*
X249420244Y-99095333D01*
X249413508Y-99090060D01*
X249398320Y-99077316D01*
X249390215Y-99069889D01*
X240885217Y-90564891D01*
X248720920Y-90564891D01*
X248722617Y-90573306D01*
X248722617Y-90573309D01*
X248726429Y-90592211D01*
X248750733Y-90712743D01*
X248819207Y-90847132D01*
X248921299Y-90958156D01*
X248973336Y-90990420D01*
X249042187Y-91033110D01*
X249042190Y-91033111D01*
X249049486Y-91037635D01*
X249194325Y-91079715D01*
X249201303Y-91080227D01*
X249202708Y-91080331D01*
X249202719Y-91080331D01*
X249205015Y-91080500D01*
X250413285Y-91080500D01*
X250417530Y-91079918D01*
X250417537Y-91079918D01*
X250478022Y-91071632D01*
X250524932Y-91065206D01*
X250588645Y-91037635D01*
X250655471Y-91008717D01*
X250655473Y-91008716D01*
X250663355Y-91005305D01*
X250780570Y-90910386D01*
X250867942Y-90787442D01*
X250919033Y-90645532D01*
X250930080Y-90495109D01*
X250900267Y-90347257D01*
X250831793Y-90212868D01*
X250729701Y-90101844D01*
X250648154Y-90051283D01*
X250608813Y-90026890D01*
X250608810Y-90026889D01*
X250601514Y-90022365D01*
X250456675Y-89980285D01*
X250449697Y-89979773D01*
X250448292Y-89979669D01*
X250448281Y-89979669D01*
X250445985Y-89979500D01*
X249237715Y-89979500D01*
X249233470Y-89980082D01*
X249233463Y-89980082D01*
X249178526Y-89987608D01*
X249126068Y-89994794D01*
X249118184Y-89998206D01*
X249118183Y-89998206D01*
X248995529Y-90051283D01*
X248995527Y-90051284D01*
X248987645Y-90054695D01*
X248870430Y-90149614D01*
X248783058Y-90272558D01*
X248731967Y-90414468D01*
X248731338Y-90423030D01*
X248731338Y-90423031D01*
X248729081Y-90453762D01*
X248720920Y-90564891D01*
X240885217Y-90564891D01*
X240789709Y-90469383D01*
X240755683Y-90407071D01*
X240753882Y-90363842D01*
X240756066Y-90347257D01*
X240762682Y-90297000D01*
X240742044Y-90140238D01*
X240681536Y-89994159D01*
X240585282Y-89868718D01*
X240585387Y-89868638D01*
X240553415Y-89810088D01*
X240558480Y-89739273D01*
X240599833Y-89683342D01*
X240642233Y-89650808D01*
X240642236Y-89650805D01*
X240648782Y-89645782D01*
X240745036Y-89520341D01*
X240805544Y-89374262D01*
X240826182Y-89217500D01*
X240805544Y-89060738D01*
X240745036Y-88914659D01*
X240648782Y-88789218D01*
X240523341Y-88692964D01*
X240377262Y-88632456D01*
X240220500Y-88611818D01*
X240063738Y-88632456D01*
X239917659Y-88692964D01*
X239792218Y-88789218D01*
X239695964Y-88914659D01*
X239635456Y-89060738D01*
X239614818Y-89217500D01*
X239635456Y-89374262D01*
X239695964Y-89520341D01*
X239791703Y-89645110D01*
X239791703Y-89645111D01*
X239792218Y-89645782D01*
X239792113Y-89645862D01*
X239824085Y-89704412D01*
X239819020Y-89775227D01*
X239777667Y-89831158D01*
X239735267Y-89863692D01*
X239735264Y-89863695D01*
X239728718Y-89868718D01*
X239632464Y-89994159D01*
X239571956Y-90140238D01*
X239551318Y-90297000D01*
X232735500Y-90297000D01*
X232735500Y-87857684D01*
X232755502Y-87789563D01*
X232784796Y-87757721D01*
X232831736Y-87721703D01*
X232838282Y-87716680D01*
X232934536Y-87591239D01*
X232973232Y-87497819D01*
X233017781Y-87442538D01*
X233085144Y-87420117D01*
X233153935Y-87437675D01*
X233189603Y-87469332D01*
X233251718Y-87550282D01*
X233377159Y-87646536D01*
X233523238Y-87707044D01*
X233680000Y-87727682D01*
X233688188Y-87726604D01*
X233828574Y-87708122D01*
X233836762Y-87707044D01*
X233982841Y-87646536D01*
X234108282Y-87550282D01*
X234204536Y-87424841D01*
X234265044Y-87278762D01*
X234285682Y-87122000D01*
X234265044Y-86965238D01*
X234204536Y-86819159D01*
X234144563Y-86741000D01*
X235741318Y-86741000D01*
X235761956Y-86897762D01*
X235822464Y-87043841D01*
X235918718Y-87169282D01*
X236044159Y-87265536D01*
X236190238Y-87326044D01*
X236347000Y-87346682D01*
X236368427Y-87343861D01*
X236438575Y-87354800D01*
X236491674Y-87401928D01*
X236510864Y-87470282D01*
X236490053Y-87538160D01*
X236484836Y-87545487D01*
X236457464Y-87581159D01*
X236396956Y-87727238D01*
X236376318Y-87884000D01*
X236396956Y-88040762D01*
X236457464Y-88186841D01*
X236553718Y-88312282D01*
X236560264Y-88317305D01*
X236583532Y-88335159D01*
X236679159Y-88408536D01*
X236825238Y-88469044D01*
X236982000Y-88489682D01*
X236990188Y-88488604D01*
X237130574Y-88470122D01*
X237138762Y-88469044D01*
X237284841Y-88408536D01*
X237380468Y-88335159D01*
X237403736Y-88317305D01*
X237410282Y-88312282D01*
X237506536Y-88186841D01*
X237567044Y-88040762D01*
X237587682Y-87884000D01*
X237567044Y-87727238D01*
X237506536Y-87581159D01*
X237410282Y-87455718D01*
X237393106Y-87442538D01*
X237340181Y-87401928D01*
X237284841Y-87359464D01*
X237138762Y-87298956D01*
X236982000Y-87278318D01*
X236960573Y-87281139D01*
X236890425Y-87270200D01*
X236837326Y-87223072D01*
X236818136Y-87154718D01*
X236838947Y-87086840D01*
X236844164Y-87079513D01*
X236866509Y-87050392D01*
X236871536Y-87043841D01*
X236932044Y-86897762D01*
X236952682Y-86741000D01*
X236932044Y-86584238D01*
X236871536Y-86438159D01*
X236775282Y-86312718D01*
X236649841Y-86216464D01*
X236503762Y-86155956D01*
X236347000Y-86135318D01*
X236190238Y-86155956D01*
X236044159Y-86216464D01*
X235918718Y-86312718D01*
X235822464Y-86438159D01*
X235761956Y-86584238D01*
X235741318Y-86741000D01*
X234144563Y-86741000D01*
X234108282Y-86693718D01*
X233982841Y-86597464D01*
X233836762Y-86536956D01*
X233680000Y-86516318D01*
X233523238Y-86536956D01*
X233377159Y-86597464D01*
X233251718Y-86693718D01*
X233155464Y-86819159D01*
X233134212Y-86870466D01*
X233116768Y-86912579D01*
X233072219Y-86967860D01*
X233004856Y-86990281D01*
X232936065Y-86972723D01*
X232900396Y-86941065D01*
X232843305Y-86866662D01*
X232838282Y-86860116D01*
X232827729Y-86852018D01*
X232719392Y-86768889D01*
X232712841Y-86763862D01*
X232566762Y-86703354D01*
X232410000Y-86682716D01*
X232253238Y-86703354D01*
X232107159Y-86763862D01*
X232100608Y-86768889D01*
X231992272Y-86852018D01*
X231981718Y-86860116D01*
X231976695Y-86866662D01*
X231963405Y-86883982D01*
X231885464Y-86985557D01*
X231824956Y-87131636D01*
X231804318Y-87288398D01*
X231824956Y-87445160D01*
X231885464Y-87591239D01*
X231981718Y-87716680D01*
X231988264Y-87721703D01*
X232035204Y-87757721D01*
X232077071Y-87815059D01*
X232084500Y-87857684D01*
X232084500Y-90938230D01*
X232064498Y-91006351D01*
X232047595Y-91027325D01*
X231247664Y-91827256D01*
X231185352Y-91861282D01*
X231142124Y-91863083D01*
X231075281Y-91854283D01*
X230918519Y-91874921D01*
X230772440Y-91935429D01*
X230646999Y-92031683D01*
X230550745Y-92157124D01*
X230490237Y-92303203D01*
X230489159Y-92311391D01*
X230483302Y-92355878D01*
X230469599Y-92459965D01*
X214162066Y-92459965D01*
X214157155Y-89916000D01*
X217834318Y-89916000D01*
X217854956Y-90072762D01*
X217915464Y-90218841D01*
X218011718Y-90344282D01*
X218137159Y-90440536D01*
X218283238Y-90501044D01*
X218440000Y-90521682D01*
X218448188Y-90520604D01*
X218588574Y-90502122D01*
X218596762Y-90501044D01*
X218742841Y-90440536D01*
X218764391Y-90424000D01*
X225454318Y-90424000D01*
X225474956Y-90580762D01*
X225535464Y-90726841D01*
X225631718Y-90852282D01*
X225757159Y-90948536D01*
X225903238Y-91009044D01*
X226060000Y-91029682D01*
X226068188Y-91028604D01*
X226208574Y-91010122D01*
X226216762Y-91009044D01*
X226362841Y-90948536D01*
X226488282Y-90852282D01*
X226584536Y-90726841D01*
X226645044Y-90580762D01*
X226665682Y-90424000D01*
X226645044Y-90267238D01*
X226584536Y-90121159D01*
X226488282Y-89995718D01*
X226467367Y-89979669D01*
X226369392Y-89904491D01*
X226362841Y-89899464D01*
X226216762Y-89838956D01*
X226060000Y-89818318D01*
X225903238Y-89838956D01*
X225757159Y-89899464D01*
X225750608Y-89904491D01*
X225652634Y-89979669D01*
X225631718Y-89995718D01*
X225535464Y-90121159D01*
X225474956Y-90267238D01*
X225454318Y-90424000D01*
X218764391Y-90424000D01*
X218868282Y-90344282D01*
X218964536Y-90218841D01*
X219025044Y-90072762D01*
X219045682Y-89916000D01*
X219032432Y-89815359D01*
X219026122Y-89767426D01*
X219025044Y-89759238D01*
X218964536Y-89613159D01*
X218868282Y-89487718D01*
X218742841Y-89391464D01*
X218596762Y-89330956D01*
X218440000Y-89310318D01*
X218283238Y-89330956D01*
X218137159Y-89391464D01*
X218011718Y-89487718D01*
X217915464Y-89613159D01*
X217854956Y-89759238D01*
X217853878Y-89767426D01*
X217847568Y-89815359D01*
X217834318Y-89916000D01*
X214157155Y-89916000D01*
X214152941Y-87732748D01*
X218913500Y-87732748D01*
X218925133Y-87791231D01*
X218969448Y-87857552D01*
X219035769Y-87901867D01*
X219047938Y-87904288D01*
X219047939Y-87904288D01*
X219088184Y-87912293D01*
X219094252Y-87913500D01*
X220833748Y-87913500D01*
X220839816Y-87912293D01*
X220880061Y-87904288D01*
X220880062Y-87904288D01*
X220892231Y-87901867D01*
X220958552Y-87857552D01*
X221002867Y-87791231D01*
X221014500Y-87732748D01*
X221014500Y-86900428D01*
X221023298Y-86870466D01*
X221019958Y-86863376D01*
X221260397Y-86863376D01*
X221261396Y-86864930D01*
X221265422Y-86883982D01*
X221279799Y-86993187D01*
X221283956Y-87024762D01*
X221344464Y-87170841D01*
X221349491Y-87177392D01*
X221428386Y-87280210D01*
X221440718Y-87296282D01*
X221566159Y-87392536D01*
X221712238Y-87453044D01*
X221869000Y-87473682D01*
X221877188Y-87472604D01*
X222017574Y-87454122D01*
X222025762Y-87453044D01*
X222171841Y-87392536D01*
X222297282Y-87296282D01*
X222309615Y-87280210D01*
X222388509Y-87177392D01*
X222393536Y-87170841D01*
X222454044Y-87024762D01*
X222458584Y-86990281D01*
X222473604Y-86876188D01*
X222474682Y-86868000D01*
X222454044Y-86711238D01*
X222393536Y-86565159D01*
X222297282Y-86439718D01*
X222171841Y-86343464D01*
X222025762Y-86282956D01*
X221869000Y-86262318D01*
X221712238Y-86282956D01*
X221566159Y-86343464D01*
X221440718Y-86439718D01*
X221344464Y-86565159D01*
X221283956Y-86711238D01*
X221282878Y-86719426D01*
X221265422Y-86852018D01*
X221260397Y-86863376D01*
X221019958Y-86863376D01*
X221016005Y-86854987D01*
X221014500Y-86835572D01*
X221014500Y-85993252D01*
X221002867Y-85934769D01*
X220958552Y-85868448D01*
X220933936Y-85852000D01*
X247028318Y-85852000D01*
X247048956Y-86008762D01*
X247109464Y-86154841D01*
X247205718Y-86280282D01*
X247331159Y-86376536D01*
X247477238Y-86437044D01*
X247634000Y-86457682D01*
X247642188Y-86456604D01*
X247782574Y-86438122D01*
X247790762Y-86437044D01*
X247936841Y-86376536D01*
X248062282Y-86280282D01*
X248158536Y-86154841D01*
X248219044Y-86008762D01*
X248239682Y-85852000D01*
X248219044Y-85695238D01*
X248158536Y-85549159D01*
X248062282Y-85423718D01*
X247936841Y-85327464D01*
X247790762Y-85266956D01*
X247634000Y-85246318D01*
X247477238Y-85266956D01*
X247331159Y-85327464D01*
X247205718Y-85423718D01*
X247109464Y-85549159D01*
X247048956Y-85695238D01*
X247028318Y-85852000D01*
X220933936Y-85852000D01*
X220892231Y-85824133D01*
X220880062Y-85821712D01*
X220880061Y-85821712D01*
X220839816Y-85813707D01*
X220833748Y-85812500D01*
X219094252Y-85812500D01*
X219088184Y-85813707D01*
X219047939Y-85821712D01*
X219047938Y-85821712D01*
X219035769Y-85824133D01*
X218969448Y-85868448D01*
X218925133Y-85934769D01*
X218913500Y-85993252D01*
X218913500Y-87732748D01*
X214152941Y-87732748D01*
X214146330Y-84308262D01*
X218908520Y-84308262D01*
X218909036Y-84314406D01*
X218921809Y-84466509D01*
X218925759Y-84513553D01*
X218982544Y-84711586D01*
X218985359Y-84717063D01*
X218985360Y-84717066D01*
X219073897Y-84889341D01*
X219076712Y-84894818D01*
X219204677Y-85056270D01*
X219361564Y-85189791D01*
X219541398Y-85290297D01*
X219636238Y-85321113D01*
X219731471Y-85352056D01*
X219731475Y-85352057D01*
X219737329Y-85353959D01*
X219941894Y-85378351D01*
X219948029Y-85377879D01*
X219948031Y-85377879D01*
X220004039Y-85373569D01*
X220147300Y-85362546D01*
X220153230Y-85360890D01*
X220153232Y-85360890D01*
X220339797Y-85308800D01*
X220339796Y-85308800D01*
X220345725Y-85307145D01*
X220351214Y-85304372D01*
X220351220Y-85304370D01*
X220524116Y-85217033D01*
X220529610Y-85214258D01*
X220590042Y-85167044D01*
X220663444Y-85109696D01*
X220691951Y-85087424D01*
X220826564Y-84931472D01*
X220847387Y-84894818D01*
X220925276Y-84757707D01*
X220928323Y-84752344D01*
X220984989Y-84582000D01*
X221390318Y-84582000D01*
X221410956Y-84738762D01*
X221471464Y-84884841D01*
X221567718Y-85010282D01*
X221693159Y-85106536D01*
X221839238Y-85167044D01*
X221996000Y-85187682D01*
X222004188Y-85186604D01*
X222144574Y-85168122D01*
X222152762Y-85167044D01*
X222298841Y-85106536D01*
X222424282Y-85010282D01*
X222520536Y-84884841D01*
X222581044Y-84738762D01*
X222601682Y-84582000D01*
X222581044Y-84425238D01*
X222520536Y-84279159D01*
X222424282Y-84153718D01*
X222298841Y-84057464D01*
X222152762Y-83996956D01*
X221996000Y-83976318D01*
X221839238Y-83996956D01*
X221693159Y-84057464D01*
X221567718Y-84153718D01*
X221471464Y-84279159D01*
X221410956Y-84425238D01*
X221390318Y-84582000D01*
X220984989Y-84582000D01*
X220993351Y-84556863D01*
X221019171Y-84352474D01*
X221019583Y-84323000D01*
X220999480Y-84117970D01*
X220947861Y-83947000D01*
X236630318Y-83947000D01*
X236650956Y-84103762D01*
X236711464Y-84249841D01*
X236807718Y-84375282D01*
X236933159Y-84471536D01*
X237079238Y-84532044D01*
X237236000Y-84552682D01*
X237244188Y-84551604D01*
X237250721Y-84550744D01*
X237392762Y-84532044D01*
X237538841Y-84471536D01*
X237664282Y-84375282D01*
X237760536Y-84249841D01*
X237821044Y-84103762D01*
X237841682Y-83947000D01*
X237821044Y-83790238D01*
X237760536Y-83644159D01*
X237664282Y-83518718D01*
X237538841Y-83422464D01*
X237422008Y-83374070D01*
X250770529Y-83374070D01*
X250791167Y-83530832D01*
X250851675Y-83676911D01*
X250947929Y-83802352D01*
X251073370Y-83898606D01*
X251219449Y-83959114D01*
X251376211Y-83979752D01*
X251384399Y-83978674D01*
X251394107Y-83977396D01*
X251532973Y-83959114D01*
X251679052Y-83898606D01*
X251804493Y-83802352D01*
X251900747Y-83676911D01*
X251961255Y-83530832D01*
X251981893Y-83374070D01*
X251961255Y-83217308D01*
X251900747Y-83071229D01*
X251804493Y-82945788D01*
X251679052Y-82849534D01*
X251532973Y-82789026D01*
X251376211Y-82768388D01*
X251219449Y-82789026D01*
X251073370Y-82849534D01*
X250947929Y-82945788D01*
X250851675Y-83071229D01*
X250791167Y-83217308D01*
X250770529Y-83374070D01*
X237422008Y-83374070D01*
X237392762Y-83361956D01*
X237236000Y-83341318D01*
X237079238Y-83361956D01*
X236933159Y-83422464D01*
X236807718Y-83518718D01*
X236711464Y-83644159D01*
X236650956Y-83790238D01*
X236630318Y-83947000D01*
X220947861Y-83947000D01*
X220939935Y-83920749D01*
X220843218Y-83738849D01*
X220760648Y-83637608D01*
X220716906Y-83583975D01*
X220716903Y-83583972D01*
X220713011Y-83579200D01*
X220695786Y-83564950D01*
X220559025Y-83451811D01*
X220559021Y-83451809D01*
X220554275Y-83447882D01*
X220373055Y-83349897D01*
X220176254Y-83288977D01*
X220170129Y-83288333D01*
X220170128Y-83288333D01*
X219977498Y-83268087D01*
X219977496Y-83268087D01*
X219971369Y-83267443D01*
X219884529Y-83275346D01*
X219772342Y-83285555D01*
X219772339Y-83285556D01*
X219766203Y-83286114D01*
X219568572Y-83344280D01*
X219386002Y-83439726D01*
X219381201Y-83443586D01*
X219381198Y-83443588D01*
X219263200Y-83538461D01*
X219225447Y-83568815D01*
X219093024Y-83726630D01*
X219090056Y-83732028D01*
X219090053Y-83732033D01*
X219048634Y-83807375D01*
X218993776Y-83907162D01*
X218931484Y-84103532D01*
X218930798Y-84109649D01*
X218930797Y-84109653D01*
X218915929Y-84242211D01*
X218908520Y-84308262D01*
X214146330Y-84308262D01*
X214143426Y-82804000D01*
X216818318Y-82804000D01*
X216838956Y-82960762D01*
X216899464Y-83106841D01*
X216995718Y-83232282D01*
X217121159Y-83328536D01*
X217267238Y-83389044D01*
X217424000Y-83409682D01*
X217432188Y-83408604D01*
X217572574Y-83390122D01*
X217580762Y-83389044D01*
X217726841Y-83328536D01*
X217852282Y-83232282D01*
X217948536Y-83106841D01*
X218009044Y-82960762D01*
X218029682Y-82804000D01*
X218009044Y-82647238D01*
X217948536Y-82501159D01*
X217852282Y-82375718D01*
X217726841Y-82279464D01*
X217580762Y-82218956D01*
X217424000Y-82198318D01*
X217267238Y-82218956D01*
X217121159Y-82279464D01*
X216995718Y-82375718D01*
X216899464Y-82501159D01*
X216838956Y-82647238D01*
X216818318Y-82804000D01*
X214143426Y-82804000D01*
X214141427Y-81768262D01*
X218908520Y-81768262D01*
X218925759Y-81973553D01*
X218927458Y-81979478D01*
X218970436Y-82129359D01*
X218982544Y-82171586D01*
X218985359Y-82177063D01*
X218985360Y-82177066D01*
X219073897Y-82349341D01*
X219076712Y-82354818D01*
X219204677Y-82516270D01*
X219361564Y-82649791D01*
X219366942Y-82652797D01*
X219366944Y-82652798D01*
X219398563Y-82670469D01*
X219541398Y-82750297D01*
X219600394Y-82769466D01*
X219731471Y-82812056D01*
X219731475Y-82812057D01*
X219737329Y-82813959D01*
X219941894Y-82838351D01*
X219948029Y-82837879D01*
X219948031Y-82837879D01*
X220004039Y-82833569D01*
X220147300Y-82822546D01*
X220153230Y-82820890D01*
X220153232Y-82820890D01*
X220339797Y-82768800D01*
X220339796Y-82768800D01*
X220345725Y-82767145D01*
X220351214Y-82764372D01*
X220351220Y-82764370D01*
X220524116Y-82677033D01*
X220529610Y-82674258D01*
X220691951Y-82547424D01*
X220706560Y-82530500D01*
X220822540Y-82396134D01*
X220822540Y-82396133D01*
X220826564Y-82391472D01*
X220831315Y-82383110D01*
X220879698Y-82297940D01*
X220928323Y-82212344D01*
X220993351Y-82016863D01*
X221006233Y-81914891D01*
X248720920Y-81914891D01*
X248750733Y-82062743D01*
X248819207Y-82197132D01*
X248921299Y-82308156D01*
X248985392Y-82347895D01*
X249042187Y-82383110D01*
X249042190Y-82383111D01*
X249049486Y-82387635D01*
X249194325Y-82429715D01*
X249201303Y-82430227D01*
X249202708Y-82430331D01*
X249202719Y-82430331D01*
X249205015Y-82430500D01*
X250413285Y-82430500D01*
X250417530Y-82429918D01*
X250417537Y-82429918D01*
X250478022Y-82421632D01*
X250524932Y-82415206D01*
X250592160Y-82386114D01*
X250655471Y-82358717D01*
X250655473Y-82358716D01*
X250663355Y-82355305D01*
X250780570Y-82260386D01*
X250867942Y-82137442D01*
X250919033Y-81995532D01*
X250930080Y-81845109D01*
X250928814Y-81838830D01*
X252941124Y-81838830D01*
X252951444Y-82002860D01*
X252953893Y-82010396D01*
X252953893Y-82010398D01*
X252955994Y-82016863D01*
X253002232Y-82159171D01*
X253090298Y-82297940D01*
X253096077Y-82303367D01*
X253096078Y-82303368D01*
X253145627Y-82349897D01*
X253210107Y-82410448D01*
X253217051Y-82414265D01*
X253217053Y-82414267D01*
X253246581Y-82430500D01*
X253354132Y-82489627D01*
X253361804Y-82491597D01*
X253361807Y-82491598D01*
X253505645Y-82528529D01*
X253505648Y-82528529D01*
X253513323Y-82530500D01*
X254436425Y-82530500D01*
X254494190Y-82523203D01*
X254550693Y-82516065D01*
X254550696Y-82516064D01*
X254558558Y-82515071D01*
X254565925Y-82512154D01*
X254565926Y-82512154D01*
X254600633Y-82498412D01*
X254711371Y-82454568D01*
X254745579Y-82429715D01*
X254837923Y-82362623D01*
X254844337Y-82357963D01*
X254949100Y-82231326D01*
X254960787Y-82206491D01*
X254977211Y-82171586D01*
X255019079Y-82082613D01*
X255020564Y-82074830D01*
X255020565Y-82074826D01*
X255048391Y-81928956D01*
X255048391Y-81928954D01*
X255049876Y-81921170D01*
X255041183Y-81783000D01*
X255040054Y-81765051D01*
X255040054Y-81765049D01*
X255039556Y-81757140D01*
X254988768Y-81600829D01*
X254900702Y-81462060D01*
X254885449Y-81447736D01*
X254786670Y-81354977D01*
X254780893Y-81349552D01*
X254773949Y-81345735D01*
X254773947Y-81345733D01*
X254695334Y-81302515D01*
X254636868Y-81270373D01*
X254629196Y-81268403D01*
X254629193Y-81268402D01*
X254485355Y-81231471D01*
X254485352Y-81231471D01*
X254477677Y-81229500D01*
X253554575Y-81229500D01*
X253496810Y-81236797D01*
X253440307Y-81243935D01*
X253440304Y-81243936D01*
X253432442Y-81244929D01*
X253425075Y-81247846D01*
X253425074Y-81247846D01*
X253390367Y-81261588D01*
X253279629Y-81305432D01*
X253273218Y-81310090D01*
X253273216Y-81310091D01*
X253190801Y-81369969D01*
X253146663Y-81402037D01*
X253041900Y-81528674D01*
X253038525Y-81535847D01*
X253038524Y-81535848D01*
X253028786Y-81556542D01*
X252971921Y-81677387D01*
X252970436Y-81685170D01*
X252970435Y-81685174D01*
X252945483Y-81815978D01*
X252941124Y-81838830D01*
X250928814Y-81838830D01*
X250923500Y-81812474D01*
X250915173Y-81771183D01*
X250900267Y-81697257D01*
X250831793Y-81562868D01*
X250729701Y-81451844D01*
X250648154Y-81401283D01*
X250608813Y-81376890D01*
X250608810Y-81376889D01*
X250601514Y-81372365D01*
X250456675Y-81330285D01*
X250449697Y-81329773D01*
X250448292Y-81329669D01*
X250448281Y-81329669D01*
X250445985Y-81329500D01*
X249237715Y-81329500D01*
X249233470Y-81330082D01*
X249233463Y-81330082D01*
X249172978Y-81338368D01*
X249126068Y-81344794D01*
X249118184Y-81348206D01*
X249118183Y-81348206D01*
X248995529Y-81401283D01*
X248995527Y-81401284D01*
X248987645Y-81404695D01*
X248870430Y-81499614D01*
X248814745Y-81577970D01*
X248790475Y-81612122D01*
X248783058Y-81622558D01*
X248731967Y-81764468D01*
X248720920Y-81914891D01*
X221006233Y-81914891D01*
X221019171Y-81812474D01*
X221019583Y-81783000D01*
X220999480Y-81577970D01*
X220939935Y-81380749D01*
X220843218Y-81198849D01*
X220769859Y-81108902D01*
X220716906Y-81043975D01*
X220716903Y-81043972D01*
X220713011Y-81039200D01*
X220697055Y-81026000D01*
X247552318Y-81026000D01*
X247572956Y-81182762D01*
X247633464Y-81328841D01*
X247729718Y-81454282D01*
X247736264Y-81459305D01*
X247748581Y-81468756D01*
X247855159Y-81550536D01*
X248001238Y-81611044D01*
X248158000Y-81631682D01*
X248166188Y-81630604D01*
X248306574Y-81612122D01*
X248314762Y-81611044D01*
X248460841Y-81550536D01*
X248567419Y-81468756D01*
X248579736Y-81459305D01*
X248586282Y-81454282D01*
X248682536Y-81328841D01*
X248743044Y-81182762D01*
X248763682Y-81026000D01*
X248743044Y-80869238D01*
X248682536Y-80723159D01*
X248586282Y-80597718D01*
X248460841Y-80501464D01*
X248314762Y-80440956D01*
X248158000Y-80420318D01*
X248001238Y-80440956D01*
X247855159Y-80501464D01*
X247729718Y-80597718D01*
X247633464Y-80723159D01*
X247572956Y-80869238D01*
X247552318Y-81026000D01*
X220697055Y-81026000D01*
X220695786Y-81024950D01*
X220559025Y-80911811D01*
X220559021Y-80911809D01*
X220554275Y-80907882D01*
X220373055Y-80809897D01*
X220176254Y-80748977D01*
X220170129Y-80748333D01*
X220170128Y-80748333D01*
X219977498Y-80728087D01*
X219977496Y-80728087D01*
X219971369Y-80727443D01*
X219884529Y-80735346D01*
X219772342Y-80745555D01*
X219772339Y-80745556D01*
X219766203Y-80746114D01*
X219568572Y-80804280D01*
X219386002Y-80899726D01*
X219381201Y-80903586D01*
X219381198Y-80903588D01*
X219370971Y-80911811D01*
X219225447Y-81028815D01*
X219093024Y-81186630D01*
X219090056Y-81192028D01*
X219090053Y-81192033D01*
X219046986Y-81270373D01*
X218993776Y-81367162D01*
X218931484Y-81563532D01*
X218930798Y-81569649D01*
X218930797Y-81569653D01*
X218909207Y-81762137D01*
X218908520Y-81768262D01*
X214141427Y-81768262D01*
X214131620Y-76688262D01*
X218908520Y-76688262D01*
X218909036Y-76694406D01*
X218924459Y-76878068D01*
X218925759Y-76893553D01*
X218982544Y-77091586D01*
X218985359Y-77097063D01*
X218985360Y-77097066D01*
X219006247Y-77137707D01*
X219076712Y-77274818D01*
X219204677Y-77436270D01*
X219209370Y-77440264D01*
X219209371Y-77440265D01*
X219294237Y-77512491D01*
X219361564Y-77569791D01*
X219541398Y-77670297D01*
X219608544Y-77692114D01*
X219731471Y-77732056D01*
X219731475Y-77732057D01*
X219737329Y-77733959D01*
X219941894Y-77758351D01*
X219948029Y-77757879D01*
X219948031Y-77757879D01*
X220004039Y-77753569D01*
X220147300Y-77742546D01*
X220153230Y-77740890D01*
X220153232Y-77740890D01*
X220292040Y-77702134D01*
X220345725Y-77687145D01*
X220351214Y-77684372D01*
X220351220Y-77684370D01*
X220524116Y-77597033D01*
X220529610Y-77594258D01*
X220691951Y-77467424D01*
X220826564Y-77311472D01*
X220847387Y-77274818D01*
X220925276Y-77137707D01*
X220928323Y-77132344D01*
X220947644Y-77074262D01*
X246731520Y-77074262D01*
X246748759Y-77279553D01*
X246750458Y-77285478D01*
X246803717Y-77471213D01*
X246805544Y-77477586D01*
X246808359Y-77483063D01*
X246808360Y-77483066D01*
X246865505Y-77594258D01*
X246899712Y-77660818D01*
X247027677Y-77822270D01*
X247184564Y-77955791D01*
X247364398Y-78056297D01*
X247459238Y-78087113D01*
X247554471Y-78118056D01*
X247554475Y-78118057D01*
X247560329Y-78119959D01*
X247764894Y-78144351D01*
X247771029Y-78143879D01*
X247771031Y-78143879D01*
X247827039Y-78139569D01*
X247970300Y-78128546D01*
X247976230Y-78126890D01*
X247976232Y-78126890D01*
X248162797Y-78074800D01*
X248162796Y-78074800D01*
X248168725Y-78073145D01*
X248174214Y-78070372D01*
X248174220Y-78070370D01*
X248347116Y-77983033D01*
X248352610Y-77980258D01*
X248514951Y-77853424D01*
X248597645Y-77757622D01*
X248645540Y-77702134D01*
X248645540Y-77702133D01*
X248649564Y-77697472D01*
X248654491Y-77688800D01*
X248748276Y-77523707D01*
X248751323Y-77518344D01*
X248816351Y-77322863D01*
X248842171Y-77118474D01*
X248842583Y-77089000D01*
X248841138Y-77074262D01*
X249271520Y-77074262D01*
X249288759Y-77279553D01*
X249290458Y-77285478D01*
X249343717Y-77471213D01*
X249345544Y-77477586D01*
X249348359Y-77483063D01*
X249348360Y-77483066D01*
X249405505Y-77594258D01*
X249439712Y-77660818D01*
X249567677Y-77822270D01*
X249724564Y-77955791D01*
X249904398Y-78056297D01*
X249999238Y-78087113D01*
X250094471Y-78118056D01*
X250094475Y-78118057D01*
X250100329Y-78119959D01*
X250304894Y-78144351D01*
X250311029Y-78143879D01*
X250311031Y-78143879D01*
X250367039Y-78139569D01*
X250510300Y-78128546D01*
X250516230Y-78126890D01*
X250516232Y-78126890D01*
X250702797Y-78074800D01*
X250702796Y-78074800D01*
X250708725Y-78073145D01*
X250714214Y-78070372D01*
X250714220Y-78070370D01*
X250887116Y-77983033D01*
X250892610Y-77980258D01*
X251054951Y-77853424D01*
X251137645Y-77757622D01*
X251185540Y-77702134D01*
X251185540Y-77702133D01*
X251189564Y-77697472D01*
X251194491Y-77688800D01*
X251288276Y-77523707D01*
X251291323Y-77518344D01*
X251356351Y-77322863D01*
X251382171Y-77118474D01*
X251382583Y-77089000D01*
X251381138Y-77074262D01*
X251811520Y-77074262D01*
X251828759Y-77279553D01*
X251830458Y-77285478D01*
X251883717Y-77471213D01*
X251885544Y-77477586D01*
X251888359Y-77483063D01*
X251888360Y-77483066D01*
X251945505Y-77594258D01*
X251979712Y-77660818D01*
X252107677Y-77822270D01*
X252264564Y-77955791D01*
X252444398Y-78056297D01*
X252539238Y-78087113D01*
X252634471Y-78118056D01*
X252634475Y-78118057D01*
X252640329Y-78119959D01*
X252844894Y-78144351D01*
X252851029Y-78143879D01*
X252851031Y-78143879D01*
X252907039Y-78139569D01*
X253050300Y-78128546D01*
X253056230Y-78126890D01*
X253056232Y-78126890D01*
X253242797Y-78074800D01*
X253242796Y-78074800D01*
X253248725Y-78073145D01*
X253254214Y-78070372D01*
X253254220Y-78070370D01*
X253427116Y-77983033D01*
X253432610Y-77980258D01*
X253594951Y-77853424D01*
X253677645Y-77757622D01*
X253725540Y-77702134D01*
X253725540Y-77702133D01*
X253729564Y-77697472D01*
X253734491Y-77688800D01*
X253828276Y-77523707D01*
X253831323Y-77518344D01*
X253896351Y-77322863D01*
X253922171Y-77118474D01*
X253922583Y-77089000D01*
X253902480Y-76883970D01*
X253842935Y-76686749D01*
X253746218Y-76504849D01*
X253672859Y-76414902D01*
X253619906Y-76349975D01*
X253619903Y-76349972D01*
X253616011Y-76345200D01*
X253557269Y-76296604D01*
X253462025Y-76217811D01*
X253462021Y-76217809D01*
X253457275Y-76213882D01*
X253276055Y-76115897D01*
X253079254Y-76054977D01*
X253073129Y-76054333D01*
X253073128Y-76054333D01*
X252880498Y-76034087D01*
X252880496Y-76034087D01*
X252874369Y-76033443D01*
X252787529Y-76041346D01*
X252675342Y-76051555D01*
X252675339Y-76051556D01*
X252669203Y-76052114D01*
X252471572Y-76110280D01*
X252466107Y-76113137D01*
X252442832Y-76125305D01*
X252289002Y-76205726D01*
X252284201Y-76209586D01*
X252284198Y-76209588D01*
X252133254Y-76330950D01*
X252128447Y-76334815D01*
X251996024Y-76492630D01*
X251993056Y-76498028D01*
X251993053Y-76498033D01*
X251986315Y-76510290D01*
X251896776Y-76673162D01*
X251834484Y-76869532D01*
X251833798Y-76875649D01*
X251833797Y-76875653D01*
X251826275Y-76942715D01*
X251811520Y-77074262D01*
X251381138Y-77074262D01*
X251362480Y-76883970D01*
X251302935Y-76686749D01*
X251206218Y-76504849D01*
X251132859Y-76414902D01*
X251079906Y-76349975D01*
X251079903Y-76349972D01*
X251076011Y-76345200D01*
X251017269Y-76296604D01*
X250922025Y-76217811D01*
X250922021Y-76217809D01*
X250917275Y-76213882D01*
X250736055Y-76115897D01*
X250539254Y-76054977D01*
X250533129Y-76054333D01*
X250533128Y-76054333D01*
X250340498Y-76034087D01*
X250340496Y-76034087D01*
X250334369Y-76033443D01*
X250247529Y-76041346D01*
X250135342Y-76051555D01*
X250135339Y-76051556D01*
X250129203Y-76052114D01*
X249931572Y-76110280D01*
X249926107Y-76113137D01*
X249902832Y-76125305D01*
X249749002Y-76205726D01*
X249744201Y-76209586D01*
X249744198Y-76209588D01*
X249593254Y-76330950D01*
X249588447Y-76334815D01*
X249456024Y-76492630D01*
X249453056Y-76498028D01*
X249453053Y-76498033D01*
X249446315Y-76510290D01*
X249356776Y-76673162D01*
X249294484Y-76869532D01*
X249293798Y-76875649D01*
X249293797Y-76875653D01*
X249286275Y-76942715D01*
X249271520Y-77074262D01*
X248841138Y-77074262D01*
X248822480Y-76883970D01*
X248762935Y-76686749D01*
X248666218Y-76504849D01*
X248592859Y-76414902D01*
X248539906Y-76349975D01*
X248539903Y-76349972D01*
X248536011Y-76345200D01*
X248477269Y-76296604D01*
X248382025Y-76217811D01*
X248382021Y-76217809D01*
X248377275Y-76213882D01*
X248196055Y-76115897D01*
X247999254Y-76054977D01*
X247993129Y-76054333D01*
X247993128Y-76054333D01*
X247800498Y-76034087D01*
X247800496Y-76034087D01*
X247794369Y-76033443D01*
X247707529Y-76041346D01*
X247595342Y-76051555D01*
X247595339Y-76051556D01*
X247589203Y-76052114D01*
X247391572Y-76110280D01*
X247386107Y-76113137D01*
X247362832Y-76125305D01*
X247209002Y-76205726D01*
X247204201Y-76209586D01*
X247204198Y-76209588D01*
X247053254Y-76330950D01*
X247048447Y-76334815D01*
X246916024Y-76492630D01*
X246913056Y-76498028D01*
X246913053Y-76498033D01*
X246906315Y-76510290D01*
X246816776Y-76673162D01*
X246754484Y-76869532D01*
X246753798Y-76875649D01*
X246753797Y-76875653D01*
X246746275Y-76942715D01*
X246731520Y-77074262D01*
X220947644Y-77074262D01*
X220993351Y-76936863D01*
X221019171Y-76732474D01*
X221019583Y-76703000D01*
X220999480Y-76497970D01*
X220939935Y-76300749D01*
X220843218Y-76118849D01*
X220747422Y-76001392D01*
X220716906Y-75963975D01*
X220716903Y-75963972D01*
X220713011Y-75959200D01*
X220695786Y-75944950D01*
X220559025Y-75831811D01*
X220559021Y-75831809D01*
X220554275Y-75827882D01*
X220373055Y-75729897D01*
X220176254Y-75668977D01*
X220170129Y-75668333D01*
X220170128Y-75668333D01*
X219977498Y-75648087D01*
X219977496Y-75648087D01*
X219971369Y-75647443D01*
X219884529Y-75655346D01*
X219772342Y-75665555D01*
X219772339Y-75665556D01*
X219766203Y-75666114D01*
X219568572Y-75724280D01*
X219386002Y-75819726D01*
X219381201Y-75823586D01*
X219381198Y-75823588D01*
X219230254Y-75944950D01*
X219225447Y-75948815D01*
X219093024Y-76106630D01*
X219090056Y-76112028D01*
X219090053Y-76112033D01*
X219001076Y-76273884D01*
X218993776Y-76287162D01*
X218931484Y-76483532D01*
X218930798Y-76489649D01*
X218930797Y-76489653D01*
X218910819Y-76667765D01*
X218908520Y-76688262D01*
X214131620Y-76688262D01*
X214128469Y-75056243D01*
X214148340Y-74988084D01*
X214201906Y-74941488D01*
X214254469Y-74930000D01*
X225573376Y-74930000D01*
X225641497Y-74950002D01*
G37*
%TD.AperFunction*%
%TD*%
%TA.AperFunction,Conductor*%
%TO.N,VSS*%
G36*
X234384121Y-98572002D02*
G01*
X234430614Y-98625658D01*
X234442000Y-98678000D01*
X234442000Y-101240376D01*
X234421998Y-101308497D01*
X234368342Y-101354990D01*
X234298068Y-101365094D01*
X234233488Y-101335600D01*
X234207342Y-101303934D01*
X234204536Y-101297159D01*
X234108282Y-101171718D01*
X233982841Y-101075464D01*
X233836762Y-101014956D01*
X233680000Y-100994318D01*
X233523238Y-101014956D01*
X233377159Y-101075464D01*
X233251718Y-101171718D01*
X233155464Y-101297159D01*
X233094956Y-101443238D01*
X233074318Y-101600000D01*
X233094956Y-101756762D01*
X233155464Y-101902841D01*
X233251718Y-102028282D01*
X233377159Y-102124536D01*
X233523238Y-102185044D01*
X233680000Y-102205682D01*
X233688188Y-102204604D01*
X233828574Y-102186122D01*
X233836762Y-102185044D01*
X233982841Y-102124536D01*
X234108282Y-102028282D01*
X234204536Y-101902841D01*
X234207261Y-101896263D01*
X234258262Y-101847632D01*
X234327975Y-101834194D01*
X234393887Y-101860580D01*
X234435069Y-101918412D01*
X234442000Y-101959624D01*
X234442000Y-111380000D01*
X234421998Y-111448121D01*
X234368342Y-111494614D01*
X234316000Y-111506000D01*
X220090000Y-111506000D01*
X220021879Y-111485998D01*
X219975386Y-111432342D01*
X219964000Y-111380000D01*
X219964000Y-103588590D01*
X219980443Y-103526354D01*
X219982497Y-103522739D01*
X219982499Y-103522735D01*
X219985542Y-103517378D01*
X219987489Y-103511525D01*
X219987962Y-103510463D01*
X220033941Y-103456367D01*
X220101868Y-103435716D01*
X220170177Y-103455067D01*
X220215136Y-103504115D01*
X220289040Y-103647917D01*
X220292865Y-103652743D01*
X220292867Y-103652746D01*
X220402456Y-103791014D01*
X220402460Y-103791019D01*
X220406285Y-103795844D01*
X220550030Y-103918180D01*
X220555408Y-103921186D01*
X220555410Y-103921187D01*
X220632415Y-103964223D01*
X220714800Y-104010267D01*
X220894317Y-104068595D01*
X221081745Y-104090945D01*
X221087880Y-104090473D01*
X221087882Y-104090473D01*
X221263803Y-104076937D01*
X221263807Y-104076936D01*
X221269945Y-104076464D01*
X221275877Y-104074808D01*
X221275881Y-104074807D01*
X221445804Y-104027363D01*
X221445808Y-104027362D01*
X221451748Y-104025703D01*
X221540675Y-103980783D01*
X221614728Y-103943377D01*
X221614730Y-103943376D01*
X221620229Y-103940598D01*
X221768970Y-103824388D01*
X221772996Y-103819724D01*
X221772999Y-103819721D01*
X221888278Y-103686169D01*
X221888279Y-103686167D01*
X221892307Y-103681501D01*
X221961363Y-103559940D01*
X222701500Y-103559940D01*
X222702136Y-103564379D01*
X222714791Y-103652746D01*
X222716677Y-103665918D01*
X222720391Y-103674086D01*
X222720391Y-103674087D01*
X222735821Y-103708023D01*
X222776016Y-103796428D01*
X222781878Y-103803231D01*
X222863740Y-103898237D01*
X222863743Y-103898240D01*
X222869600Y-103905037D01*
X222989905Y-103983015D01*
X223127261Y-104024093D01*
X223136237Y-104024148D01*
X223136238Y-104024148D01*
X223196445Y-104024516D01*
X223270624Y-104024969D01*
X223408471Y-103985572D01*
X223529720Y-103909070D01*
X223624623Y-103801612D01*
X223685553Y-103671837D01*
X223702500Y-103562991D01*
X223702500Y-102688060D01*
X223687323Y-102582082D01*
X223683131Y-102572861D01*
X223631700Y-102459746D01*
X223627984Y-102451572D01*
X223608646Y-102429129D01*
X223540260Y-102349763D01*
X223540257Y-102349760D01*
X223534400Y-102342963D01*
X223414095Y-102264985D01*
X223276739Y-102223907D01*
X223267763Y-102223852D01*
X223267762Y-102223852D01*
X223207555Y-102223484D01*
X223133376Y-102223031D01*
X222995529Y-102262428D01*
X222874280Y-102338930D01*
X222779377Y-102446388D01*
X222718447Y-102576163D01*
X222701500Y-102685009D01*
X222701500Y-103559940D01*
X221961363Y-103559940D01*
X221985542Y-103517378D01*
X222045123Y-103338272D01*
X222068780Y-103151005D01*
X222069157Y-103124000D01*
X222050738Y-102936145D01*
X221996181Y-102755445D01*
X221907566Y-102588783D01*
X221897274Y-102576163D01*
X221792161Y-102447284D01*
X221788266Y-102442508D01*
X221782475Y-102437717D01*
X221647577Y-102326120D01*
X221647574Y-102326118D01*
X221642827Y-102322191D01*
X221476788Y-102232414D01*
X221296474Y-102176597D01*
X221290356Y-102175954D01*
X221290351Y-102175953D01*
X221114881Y-102157511D01*
X221114879Y-102157511D01*
X221108752Y-102156867D01*
X220993126Y-102167390D01*
X220926914Y-102173415D01*
X220926913Y-102173415D01*
X220920773Y-102173974D01*
X220739697Y-102227268D01*
X220572420Y-102314718D01*
X220425316Y-102432993D01*
X220421352Y-102437717D01*
X220417332Y-102442508D01*
X220303986Y-102577588D01*
X220213052Y-102742996D01*
X220211228Y-102741993D01*
X220172054Y-102789415D01*
X220104423Y-102811016D01*
X220035850Y-102792624D01*
X219990204Y-102744204D01*
X219989029Y-102741993D01*
X219978748Y-102722658D01*
X219964000Y-102663505D01*
X219964000Y-98678000D01*
X219984002Y-98609879D01*
X220037658Y-98563386D01*
X220090000Y-98552000D01*
X234316000Y-98552000D01*
X234384121Y-98572002D01*
G37*
%TD.AperFunction*%
%TD*%
M02*
