%TF.GenerationSoftware,KiCad,Pcbnew,(6.0.10)*%
%TF.CreationDate,2023-02-27T19:56:58-05:00*%
%TF.ProjectId,ECG_2.0,4543475f-322e-4302-9e6b-696361645f70,rev?*%
%TF.SameCoordinates,Original*%
%TF.FileFunction,Legend,Top*%
%TF.FilePolarity,Positive*%
%FSLAX46Y46*%
G04 Gerber Fmt 4.6, Leading zero omitted, Abs format (unit mm)*
G04 Created by KiCad (PCBNEW (6.0.10)) date 2023-02-27 19:56:58*
%MOMM*%
%LPD*%
G01*
G04 APERTURE LIST*
%ADD10C,0.150000*%
%ADD11C,0.400000*%
%ADD12C,0.300000*%
%ADD13C,1.250000*%
%ADD14C,0.125000*%
%ADD15C,0.120000*%
%ADD16C,0.127000*%
%ADD17C,0.200000*%
%ADD18C,0.240000*%
G04 APERTURE END LIST*
D10*
X215392000Y-114300000D02*
X255016000Y-114300000D01*
X255016000Y-114300000D02*
X255016000Y-138176000D01*
X255016000Y-138176000D02*
X215392000Y-138176000D01*
X215392000Y-138176000D02*
X215392000Y-114300000D01*
D11*
X231505714Y-125309142D02*
X230077142Y-125309142D01*
X230077142Y-122309142D01*
X232505714Y-125309142D02*
X232505714Y-122309142D01*
X233934285Y-124166285D02*
X236220000Y-124166285D01*
X237648571Y-125309142D02*
X237648571Y-122309142D01*
X238791428Y-122309142D01*
X239077142Y-122452000D01*
X239220000Y-122594857D01*
X239362857Y-122880571D01*
X239362857Y-123309142D01*
X239220000Y-123594857D01*
X239077142Y-123737714D01*
X238791428Y-123880571D01*
X237648571Y-123880571D01*
X241220000Y-122309142D02*
X241791428Y-122309142D01*
X242077142Y-122452000D01*
X242362857Y-122737714D01*
X242505714Y-123309142D01*
X242505714Y-124309142D01*
X242362857Y-124880571D01*
X242077142Y-125166285D01*
X241791428Y-125309142D01*
X241220000Y-125309142D01*
X240934285Y-125166285D01*
X240648571Y-124880571D01*
X240505714Y-124309142D01*
X240505714Y-123309142D01*
X240648571Y-122737714D01*
X240934285Y-122452000D01*
X241220000Y-122309142D01*
D10*
X250237904Y-71064380D02*
X250237904Y-70064380D01*
X250237904Y-70445333D02*
X250333142Y-70397714D01*
X250523619Y-70397714D01*
X250618857Y-70445333D01*
X250666476Y-70492952D01*
X250714095Y-70588190D01*
X250714095Y-70873904D01*
X250666476Y-70969142D01*
X250618857Y-71016761D01*
X250523619Y-71064380D01*
X250333142Y-71064380D01*
X250237904Y-71016761D01*
X251523619Y-71016761D02*
X251428380Y-71064380D01*
X251237904Y-71064380D01*
X251142666Y-71016761D01*
X251095047Y-70921523D01*
X251095047Y-70540571D01*
X251142666Y-70445333D01*
X251237904Y-70397714D01*
X251428380Y-70397714D01*
X251523619Y-70445333D01*
X251571238Y-70540571D01*
X251571238Y-70635809D01*
X251095047Y-70731047D01*
X251999809Y-71064380D02*
X251999809Y-70064380D01*
X251999809Y-70445333D02*
X252095047Y-70397714D01*
X252285523Y-70397714D01*
X252380761Y-70445333D01*
X252428380Y-70492952D01*
X252476000Y-70588190D01*
X252476000Y-70873904D01*
X252428380Y-70969142D01*
X252380761Y-71016761D01*
X252285523Y-71064380D01*
X252095047Y-71064380D01*
X251999809Y-71016761D01*
X253047428Y-71064380D02*
X252952190Y-71016761D01*
X252904571Y-70969142D01*
X252856952Y-70873904D01*
X252856952Y-70588190D01*
X252904571Y-70492952D01*
X252952190Y-70445333D01*
X253047428Y-70397714D01*
X253190285Y-70397714D01*
X253285523Y-70445333D01*
X253333142Y-70492952D01*
X253380761Y-70588190D01*
X253380761Y-70873904D01*
X253333142Y-70969142D01*
X253285523Y-71016761D01*
X253190285Y-71064380D01*
X253047428Y-71064380D01*
X253809333Y-70397714D02*
X253809333Y-71397714D01*
X253809333Y-70445333D02*
X253904571Y-70397714D01*
X254095047Y-70397714D01*
X254190285Y-70445333D01*
X254237904Y-70492952D01*
X254285523Y-70588190D01*
X254285523Y-70873904D01*
X254237904Y-70969142D01*
X254190285Y-71016761D01*
X254095047Y-71064380D01*
X253904571Y-71064380D01*
X253809333Y-71016761D01*
X254714095Y-70969142D02*
X254761714Y-71016761D01*
X254714095Y-71064380D01*
X254666476Y-71016761D01*
X254714095Y-70969142D01*
X254714095Y-71064380D01*
D12*
X217222000Y-71365371D02*
X217579142Y-72865371D01*
X217864857Y-71793942D01*
X218150571Y-72865371D01*
X218507714Y-71365371D01*
X219079142Y-72079657D02*
X219579142Y-72079657D01*
X219793428Y-72865371D02*
X219079142Y-72865371D01*
X219079142Y-71365371D01*
X219793428Y-71365371D01*
X220436285Y-72293942D02*
X221579142Y-72293942D01*
X222793428Y-72079657D02*
X222293428Y-72079657D01*
X222293428Y-72865371D02*
X222293428Y-71365371D01*
X223007714Y-71365371D01*
X223579142Y-72865371D02*
X223579142Y-71365371D01*
D11*
X248412380Y-135556761D02*
X249079047Y-137556761D01*
X249745714Y-135556761D01*
X251460000Y-137556761D02*
X250317142Y-137556761D01*
X250888571Y-137556761D02*
X250888571Y-135556761D01*
X250698095Y-135842476D01*
X250507619Y-136032952D01*
X250317142Y-136128190D01*
X252317142Y-137366285D02*
X252412380Y-137461523D01*
X252317142Y-137556761D01*
X252221904Y-137461523D01*
X252317142Y-137366285D01*
X252317142Y-137556761D01*
X253650476Y-135556761D02*
X253840952Y-135556761D01*
X254031428Y-135652000D01*
X254126666Y-135747238D01*
X254221904Y-135937714D01*
X254317142Y-136318666D01*
X254317142Y-136794857D01*
X254221904Y-137175809D01*
X254126666Y-137366285D01*
X254031428Y-137461523D01*
X253840952Y-137556761D01*
X253650476Y-137556761D01*
X253460000Y-137461523D01*
X253364761Y-137366285D01*
X253269523Y-137175809D01*
X253174285Y-136794857D01*
X253174285Y-136318666D01*
X253269523Y-135937714D01*
X253364761Y-135747238D01*
X253460000Y-135652000D01*
X253650476Y-135556761D01*
D13*
X216940571Y-134262857D02*
X218607238Y-134262857D01*
X219321523Y-136881904D02*
X216940571Y-136881904D01*
X216940571Y-131881904D01*
X219321523Y-131881904D01*
X224321523Y-136405714D02*
X224083428Y-136643809D01*
X223369142Y-136881904D01*
X222892952Y-136881904D01*
X222178666Y-136643809D01*
X221702476Y-136167619D01*
X221464380Y-135691428D01*
X221226285Y-134739047D01*
X221226285Y-134024761D01*
X221464380Y-133072380D01*
X221702476Y-132596190D01*
X222178666Y-132120000D01*
X222892952Y-131881904D01*
X223369142Y-131881904D01*
X224083428Y-132120000D01*
X224321523Y-132358095D01*
X229083428Y-132120000D02*
X228607238Y-131881904D01*
X227892952Y-131881904D01*
X227178666Y-132120000D01*
X226702476Y-132596190D01*
X226464380Y-133072380D01*
X226226285Y-134024761D01*
X226226285Y-134739047D01*
X226464380Y-135691428D01*
X226702476Y-136167619D01*
X227178666Y-136643809D01*
X227892952Y-136881904D01*
X228369142Y-136881904D01*
X229083428Y-136643809D01*
X229321523Y-136405714D01*
X229321523Y-134739047D01*
X228369142Y-134739047D01*
D10*
%TO.C,U7*%
X240125095Y-102576380D02*
X240125095Y-103385904D01*
X240172714Y-103481142D01*
X240220333Y-103528761D01*
X240315571Y-103576380D01*
X240506047Y-103576380D01*
X240601285Y-103528761D01*
X240648904Y-103481142D01*
X240696523Y-103385904D01*
X240696523Y-102576380D01*
X241077476Y-102576380D02*
X241744142Y-102576380D01*
X241315571Y-103576380D01*
X235152952Y-107548761D02*
X235343428Y-107548761D01*
X235438666Y-107644000D01*
X235533904Y-107834476D01*
X235581523Y-108215428D01*
X235581523Y-108882095D01*
X235533904Y-109263047D01*
X235438666Y-109453523D01*
X235343428Y-109548761D01*
X235152952Y-109548761D01*
X235057714Y-109453523D01*
X234962476Y-109263047D01*
X234914857Y-108882095D01*
X234914857Y-108215428D01*
X234962476Y-107834476D01*
X235057714Y-107644000D01*
X235152952Y-107548761D01*
X236010095Y-109548761D02*
X236010095Y-107548761D01*
X236581523Y-109548761D01*
X236581523Y-107548761D01*
X242033904Y-107548761D02*
X242652952Y-107548761D01*
X242319619Y-108310666D01*
X242462476Y-108310666D01*
X242557714Y-108405904D01*
X242605333Y-108501142D01*
X242652952Y-108691619D01*
X242652952Y-109167809D01*
X242605333Y-109358285D01*
X242557714Y-109453523D01*
X242462476Y-109548761D01*
X242176761Y-109548761D01*
X242081523Y-109453523D01*
X242033904Y-109358285D01*
X242938666Y-107548761D02*
X243272000Y-109548761D01*
X243605333Y-107548761D01*
X243843428Y-107548761D02*
X244462476Y-107548761D01*
X244129142Y-108310666D01*
X244272000Y-108310666D01*
X244367238Y-108405904D01*
X244414857Y-108501142D01*
X244462476Y-108691619D01*
X244462476Y-109167809D01*
X244414857Y-109358285D01*
X244367238Y-109453523D01*
X244272000Y-109548761D01*
X243986285Y-109548761D01*
X243891047Y-109453523D01*
X243843428Y-109358285D01*
%TO.C,U5*%
X253731761Y-101270047D02*
X253731761Y-101079571D01*
X253827000Y-100984333D01*
X254017476Y-100889095D01*
X254398428Y-100841476D01*
X255065095Y-100841476D01*
X255446047Y-100889095D01*
X255636523Y-100984333D01*
X255731761Y-101079571D01*
X255731761Y-101270047D01*
X255636523Y-101365285D01*
X255446047Y-101460523D01*
X255065095Y-101508142D01*
X254398428Y-101508142D01*
X254017476Y-101460523D01*
X253827000Y-101365285D01*
X253731761Y-101270047D01*
X255731761Y-100412904D02*
X253731761Y-100412904D01*
X255731761Y-99841476D01*
X253731761Y-99841476D01*
X253731761Y-93091476D02*
X253731761Y-93567666D01*
X254684142Y-93615285D01*
X254588904Y-93567666D01*
X254493666Y-93472428D01*
X254493666Y-93234333D01*
X254588904Y-93139095D01*
X254684142Y-93091476D01*
X254874619Y-93043857D01*
X255350809Y-93043857D01*
X255541285Y-93091476D01*
X255636523Y-93139095D01*
X255731761Y-93234333D01*
X255731761Y-93472428D01*
X255636523Y-93567666D01*
X255541285Y-93615285D01*
X253731761Y-92758142D02*
X255731761Y-92424809D01*
X253731761Y-92091476D01*
%TO.C,5V*%
X246189523Y-93686380D02*
X245713333Y-93686380D01*
X245665714Y-94162571D01*
X245713333Y-94114952D01*
X245808571Y-94067333D01*
X246046666Y-94067333D01*
X246141904Y-94114952D01*
X246189523Y-94162571D01*
X246237142Y-94257809D01*
X246237142Y-94495904D01*
X246189523Y-94591142D01*
X246141904Y-94638761D01*
X246046666Y-94686380D01*
X245808571Y-94686380D01*
X245713333Y-94638761D01*
X245665714Y-94591142D01*
X246522857Y-93686380D02*
X246856190Y-94686380D01*
X247189523Y-93686380D01*
%TO.C,GND*%
X230378095Y-109228000D02*
X230282857Y-109180380D01*
X230140000Y-109180380D01*
X229997142Y-109228000D01*
X229901904Y-109323238D01*
X229854285Y-109418476D01*
X229806666Y-109608952D01*
X229806666Y-109751809D01*
X229854285Y-109942285D01*
X229901904Y-110037523D01*
X229997142Y-110132761D01*
X230140000Y-110180380D01*
X230235238Y-110180380D01*
X230378095Y-110132761D01*
X230425714Y-110085142D01*
X230425714Y-109751809D01*
X230235238Y-109751809D01*
X230854285Y-110180380D02*
X230854285Y-109180380D01*
X231425714Y-110180380D01*
X231425714Y-109180380D01*
X231901904Y-110180380D02*
X231901904Y-109180380D01*
X232140000Y-109180380D01*
X232282857Y-109228000D01*
X232378095Y-109323238D01*
X232425714Y-109418476D01*
X232473333Y-109608952D01*
X232473333Y-109751809D01*
X232425714Y-109942285D01*
X232378095Y-110037523D01*
X232282857Y-110132761D01*
X232140000Y-110180380D01*
X231901904Y-110180380D01*
D14*
%TO.C,D2*%
X253769904Y-102560380D02*
X253769904Y-101560380D01*
X254008000Y-101560380D01*
X254150857Y-101608000D01*
X254246095Y-101703238D01*
X254293714Y-101798476D01*
X254341333Y-101988952D01*
X254341333Y-102131809D01*
X254293714Y-102322285D01*
X254246095Y-102417523D01*
X254150857Y-102512761D01*
X254008000Y-102560380D01*
X253769904Y-102560380D01*
X254722285Y-101655619D02*
X254769904Y-101608000D01*
X254865142Y-101560380D01*
X255103238Y-101560380D01*
X255198476Y-101608000D01*
X255246095Y-101655619D01*
X255293714Y-101750857D01*
X255293714Y-101846095D01*
X255246095Y-101988952D01*
X254674666Y-102560380D01*
X255293714Y-102560380D01*
D10*
%TO.C,U4*%
X222213904Y-107231142D02*
X222356761Y-107326380D01*
X222404380Y-107421619D01*
X222452000Y-107612095D01*
X222452000Y-107897809D01*
X222404380Y-108088285D01*
X222356761Y-108183523D01*
X222261523Y-108278761D01*
X221880571Y-108278761D01*
X221880571Y-106278761D01*
X222213904Y-106278761D01*
X222309142Y-106374000D01*
X222356761Y-106469238D01*
X222404380Y-106659714D01*
X222404380Y-106850190D01*
X222356761Y-107040666D01*
X222309142Y-107135904D01*
X222213904Y-107231142D01*
X221880571Y-107231142D01*
X222832952Y-107707333D02*
X223309142Y-107707333D01*
X222737714Y-108278761D02*
X223071047Y-106278761D01*
X223404380Y-108278761D01*
X223594857Y-106278761D02*
X224166285Y-106278761D01*
X223880571Y-108278761D02*
X223880571Y-106278761D01*
X214832952Y-106278761D02*
X215023428Y-106278761D01*
X215118666Y-106374000D01*
X215213904Y-106564476D01*
X215261523Y-106945428D01*
X215261523Y-107612095D01*
X215213904Y-107993047D01*
X215118666Y-108183523D01*
X215023428Y-108278761D01*
X214832952Y-108278761D01*
X214737714Y-108183523D01*
X214642476Y-107993047D01*
X214594857Y-107612095D01*
X214594857Y-106945428D01*
X214642476Y-106564476D01*
X214737714Y-106374000D01*
X214832952Y-106278761D01*
X215690095Y-108278761D02*
X215690095Y-106278761D01*
X216261523Y-108278761D01*
X216261523Y-106278761D01*
%TO.C,OUT*%
X232680000Y-87844380D02*
X232870476Y-87844380D01*
X232965714Y-87892000D01*
X233060952Y-87987238D01*
X233108571Y-88177714D01*
X233108571Y-88511047D01*
X233060952Y-88701523D01*
X232965714Y-88796761D01*
X232870476Y-88844380D01*
X232680000Y-88844380D01*
X232584761Y-88796761D01*
X232489523Y-88701523D01*
X232441904Y-88511047D01*
X232441904Y-88177714D01*
X232489523Y-87987238D01*
X232584761Y-87892000D01*
X232680000Y-87844380D01*
X233537142Y-87844380D02*
X233537142Y-88653904D01*
X233584761Y-88749142D01*
X233632380Y-88796761D01*
X233727619Y-88844380D01*
X233918095Y-88844380D01*
X234013333Y-88796761D01*
X234060952Y-88749142D01*
X234108571Y-88653904D01*
X234108571Y-87844380D01*
X234441904Y-87844380D02*
X235013333Y-87844380D01*
X234727619Y-88844380D02*
X234727619Y-87844380D01*
%TO.C,4V*%
X224805904Y-83605714D02*
X224805904Y-84272380D01*
X224567809Y-83224761D02*
X224329714Y-83939047D01*
X224948761Y-83939047D01*
X225186857Y-83272380D02*
X225520190Y-84272380D01*
X225853523Y-83272380D01*
%TO.C,3V3*%
X215169904Y-75652380D02*
X215788952Y-75652380D01*
X215455619Y-76033333D01*
X215598476Y-76033333D01*
X215693714Y-76080952D01*
X215741333Y-76128571D01*
X215788952Y-76223809D01*
X215788952Y-76461904D01*
X215741333Y-76557142D01*
X215693714Y-76604761D01*
X215598476Y-76652380D01*
X215312761Y-76652380D01*
X215217523Y-76604761D01*
X215169904Y-76557142D01*
X216074666Y-75652380D02*
X216408000Y-76652380D01*
X216741333Y-75652380D01*
X216979428Y-75652380D02*
X217598476Y-75652380D01*
X217265142Y-76033333D01*
X217408000Y-76033333D01*
X217503238Y-76080952D01*
X217550857Y-76128571D01*
X217598476Y-76223809D01*
X217598476Y-76461904D01*
X217550857Y-76557142D01*
X217503238Y-76604761D01*
X217408000Y-76652380D01*
X217122285Y-76652380D01*
X217027047Y-76604761D01*
X216979428Y-76557142D01*
%TO.C,U1*%
X219674523Y-112974428D02*
X220436428Y-112974428D01*
X221245952Y-112831571D02*
X221388809Y-112879190D01*
X221436428Y-112926809D01*
X221484047Y-113022047D01*
X221484047Y-113164904D01*
X221436428Y-113260142D01*
X221388809Y-113307761D01*
X221293571Y-113355380D01*
X220912619Y-113355380D01*
X220912619Y-112355380D01*
X221245952Y-112355380D01*
X221341190Y-112403000D01*
X221388809Y-112450619D01*
X221436428Y-112545857D01*
X221436428Y-112641095D01*
X221388809Y-112736333D01*
X221341190Y-112783952D01*
X221245952Y-112831571D01*
X220912619Y-112831571D01*
X221865000Y-113069666D02*
X222341190Y-113069666D01*
X221769761Y-113355380D02*
X222103095Y-112355380D01*
X222436428Y-113355380D01*
X222626904Y-112355380D02*
X223198333Y-112355380D01*
X222912619Y-113355380D02*
X222912619Y-112355380D01*
X214594523Y-112974428D02*
X215356428Y-112974428D01*
X214975476Y-113355380D02*
X214975476Y-112593476D01*
X216165952Y-112831571D02*
X216308809Y-112879190D01*
X216356428Y-112926809D01*
X216404047Y-113022047D01*
X216404047Y-113164904D01*
X216356428Y-113260142D01*
X216308809Y-113307761D01*
X216213571Y-113355380D01*
X215832619Y-113355380D01*
X215832619Y-112355380D01*
X216165952Y-112355380D01*
X216261190Y-112403000D01*
X216308809Y-112450619D01*
X216356428Y-112545857D01*
X216356428Y-112641095D01*
X216308809Y-112736333D01*
X216261190Y-112783952D01*
X216165952Y-112831571D01*
X215832619Y-112831571D01*
X216785000Y-113069666D02*
X217261190Y-113069666D01*
X216689761Y-113355380D02*
X217023095Y-112355380D01*
X217356428Y-113355380D01*
X217546904Y-112355380D02*
X218118333Y-112355380D01*
X217832619Y-113355380D02*
X217832619Y-112355380D01*
D15*
%TO.C,J1*%
X221294000Y-88193000D02*
X219964000Y-88193000D01*
X221294000Y-85593000D02*
X218634000Y-85593000D01*
X218634000Y-85593000D02*
X218634000Y-75373000D01*
X221294000Y-75373000D02*
X218634000Y-75373000D01*
X221294000Y-86863000D02*
X221294000Y-88193000D01*
X221294000Y-85593000D02*
X221294000Y-75373000D01*
%TO.C,U11*%
X231526500Y-102072000D02*
X232326500Y-102072000D01*
X231526500Y-105192000D02*
X230726500Y-105192000D01*
X231526500Y-102072000D02*
X230726500Y-102072000D01*
X231526500Y-105192000D02*
X233326500Y-105192000D01*
%TO.C,L1*%
X227806000Y-98762000D02*
X223806000Y-98762000D01*
X228806000Y-94262000D02*
X228806000Y-97762000D01*
X223806000Y-93262000D02*
X227806000Y-93262000D01*
X222806000Y-97762000D02*
X222806000Y-94262000D01*
X227806000Y-98762000D02*
G75*
G03*
X228806000Y-97762000I1J999999D01*
G01*
X222806000Y-97762000D02*
G75*
G03*
X223806000Y-98762000I1000000J0D01*
G01*
X228806000Y-94262000D02*
G75*
G03*
X227806000Y-93262000I-999999J1D01*
G01*
X223806000Y-93262000D02*
G75*
G03*
X222806000Y-94262000I0J-1000000D01*
G01*
%TO.C,R11*%
X226795064Y-105945000D02*
X226340936Y-105945000D01*
X226795064Y-107415000D02*
X226340936Y-107415000D01*
%TO.C,C12*%
X242543000Y-90670748D02*
X242543000Y-91193252D01*
X241073000Y-90670748D02*
X241073000Y-91193252D01*
%TO.C,R4*%
X215165000Y-83592936D02*
X215165000Y-84047064D01*
X216635000Y-83592936D02*
X216635000Y-84047064D01*
%TO.C,U6*%
X222468000Y-90424000D02*
X222468000Y-89624000D01*
X225588000Y-90424000D02*
X225588000Y-89624000D01*
X225588000Y-90424000D02*
X225588000Y-91224000D01*
X222468000Y-90424000D02*
X222468000Y-92224000D01*
%TO.C,R3*%
X250163064Y-106934000D02*
X249708936Y-106934000D01*
X250163064Y-105464000D02*
X249708936Y-105464000D01*
%TO.C,C13*%
X229643000Y-96766748D02*
X229643000Y-97289252D01*
X231113000Y-96766748D02*
X231113000Y-97289252D01*
D16*
%TO.C,U10*%
X228985000Y-74804000D02*
X228985000Y-69424000D01*
X242185000Y-69424000D02*
X242185000Y-74804000D01*
X228985000Y-69424000D02*
X242185000Y-69424000D01*
D17*
X228435000Y-76424000D02*
G75*
G03*
X228435000Y-76424000I-100000J0D01*
G01*
D15*
%TO.C,R10*%
X250655064Y-79275000D02*
X250200936Y-79275000D01*
X250655064Y-80745000D02*
X250200936Y-80745000D01*
%TO.C,U7*%
X234522000Y-101894000D02*
X244522000Y-101894000D01*
X244522000Y-101894000D02*
X244522000Y-106894000D01*
X244522000Y-106894000D02*
X234522000Y-106894000D01*
X234522000Y-106894000D02*
X234522000Y-101894000D01*
G36*
X240772000Y-108894000D02*
G01*
X238272000Y-108894000D01*
X238272000Y-108394000D01*
X240772000Y-108394000D01*
X240772000Y-108894000D01*
G37*
X240772000Y-108894000D02*
X238272000Y-108894000D01*
X238272000Y-108394000D01*
X240772000Y-108394000D01*
X240772000Y-108894000D01*
G36*
X238522000Y-109644000D02*
G01*
X237522000Y-108644000D01*
X238522000Y-107644000D01*
X238522000Y-109644000D01*
G37*
X238522000Y-109644000D02*
X237522000Y-108644000D01*
X238522000Y-107644000D01*
X238522000Y-109644000D01*
%TO.C,R1*%
X245899000Y-97763064D02*
X245899000Y-97308936D01*
X247369000Y-97763064D02*
X247369000Y-97308936D01*
%TO.C,C1*%
X230878748Y-92991000D02*
X231401252Y-92991000D01*
X230878748Y-94461000D02*
X231401252Y-94461000D01*
D18*
%TO.C,U8*%
X245022000Y-96036000D02*
X245022000Y-99036000D01*
X242522000Y-100536000D02*
X236522000Y-100536000D01*
X236522000Y-94536000D02*
X242522000Y-94536000D01*
X234022000Y-99036000D02*
X234022000Y-96036000D01*
D15*
X242522000Y-101036000D02*
X245022000Y-101036000D01*
D18*
X241643320Y-97536000D02*
G75*
G03*
X241643320Y-97536000I-2121320J0D01*
G01*
D15*
%TO.C,C4*%
X226439248Y-101065000D02*
X226961752Y-101065000D01*
X226439248Y-99595000D02*
X226961752Y-99595000D01*
%TO.C,U5*%
X248077000Y-101901000D02*
X253077000Y-101901000D01*
X253077000Y-101901000D02*
X253077000Y-91901000D01*
X253077000Y-91901000D02*
X248077000Y-91901000D01*
X248077000Y-91901000D02*
X248077000Y-101901000D01*
G36*
X254827000Y-98651000D02*
G01*
X253827000Y-97651000D01*
X255827000Y-97651000D01*
X254827000Y-98651000D01*
G37*
X254827000Y-98651000D02*
X253827000Y-97651000D01*
X255827000Y-97651000D01*
X254827000Y-98651000D01*
G36*
X255077000Y-97901000D02*
G01*
X254577000Y-97901000D01*
X254577000Y-95401000D01*
X255077000Y-95401000D01*
X255077000Y-97901000D01*
G37*
X255077000Y-97901000D02*
X254577000Y-97901000D01*
X254577000Y-95401000D01*
X255077000Y-95401000D01*
X255077000Y-97901000D01*
%TO.C,5V*%
X247580000Y-90494000D02*
X247580000Y-92894000D01*
X245180000Y-90494000D02*
X247580000Y-90494000D01*
X245180000Y-92894000D02*
X245180000Y-90494000D01*
X247580000Y-92894000D02*
X245180000Y-92894000D01*
%TO.C,GND*%
X230194000Y-105988000D02*
X232594000Y-105988000D01*
X232594000Y-108388000D02*
X230194000Y-108388000D01*
X232594000Y-105988000D02*
X232594000Y-108388000D01*
X230194000Y-108388000D02*
X230194000Y-105988000D01*
%TO.C,C5*%
X217797748Y-100176000D02*
X218320252Y-100176000D01*
X217797748Y-98706000D02*
X218320252Y-98706000D01*
%TO.C,J2*%
X254197000Y-78419000D02*
X254197000Y-75759000D01*
X243917000Y-78419000D02*
X243917000Y-77089000D01*
X246517000Y-78419000D02*
X246517000Y-75759000D01*
X246517000Y-78419000D02*
X254197000Y-78419000D01*
X245247000Y-78419000D02*
X243917000Y-78419000D01*
X246517000Y-75759000D02*
X254197000Y-75759000D01*
%TO.C,R8*%
X225832936Y-80545000D02*
X226287064Y-80545000D01*
X225832936Y-82015000D02*
X226287064Y-82015000D01*
%TO.C,C6*%
X228065000Y-89908748D02*
X228065000Y-90431252D01*
X226595000Y-89908748D02*
X226595000Y-90431252D01*
D16*
%TO.C,U9*%
X251145500Y-81735000D02*
X252825500Y-81735000D01*
D17*
X248095500Y-89405000D02*
G75*
G03*
X248095500Y-89405000I-100000J0D01*
G01*
D15*
%TO.C,D2*%
X252946000Y-106907000D02*
X255231000Y-106907000D01*
X255231000Y-105437000D02*
X252946000Y-105437000D01*
X255231000Y-106907000D02*
X255231000Y-105437000D01*
%TO.C,D1*%
X255231000Y-104113000D02*
X255231000Y-102643000D01*
X252946000Y-104113000D02*
X255231000Y-104113000D01*
X255231000Y-102643000D02*
X252946000Y-102643000D01*
%TO.C,Rprog1*%
X230859064Y-91921000D02*
X230404936Y-91921000D01*
X230859064Y-90451000D02*
X230404936Y-90451000D01*
%TO.C,C8*%
X217087500Y-95511252D02*
X217087500Y-94988748D01*
X215617500Y-95511252D02*
X215617500Y-94988748D01*
%TO.C,D3*%
X216635000Y-89597500D02*
X216635000Y-87312500D01*
X215165000Y-89597500D02*
X216635000Y-89597500D01*
X215165000Y-87312500D02*
X215165000Y-89597500D01*
%TO.C,U4*%
X214202000Y-100624000D02*
X224202000Y-100624000D01*
X224202000Y-100624000D02*
X224202000Y-105624000D01*
X224202000Y-105624000D02*
X214202000Y-105624000D01*
X214202000Y-105624000D02*
X214202000Y-100624000D01*
G36*
X220702000Y-107624000D02*
G01*
X218202000Y-107624000D01*
X218202000Y-107124000D01*
X220702000Y-107124000D01*
X220702000Y-107624000D01*
G37*
X220702000Y-107624000D02*
X218202000Y-107624000D01*
X218202000Y-107124000D01*
X220702000Y-107124000D01*
X220702000Y-107624000D01*
G36*
X218452000Y-108374000D02*
G01*
X217452000Y-107374000D01*
X218452000Y-106374000D01*
X218452000Y-108374000D01*
G37*
X218452000Y-108374000D02*
X217452000Y-107374000D01*
X218452000Y-106374000D01*
X218452000Y-108374000D01*
%TO.C,R12*%
X231621064Y-99529000D02*
X231166936Y-99529000D01*
X231621064Y-100999000D02*
X231166936Y-100999000D01*
%TO.C,U3*%
X245094000Y-84165000D02*
X244294000Y-84165000D01*
X245094000Y-84165000D02*
X245894000Y-84165000D01*
X245094000Y-87285000D02*
X246894000Y-87285000D01*
X245094000Y-87285000D02*
X244294000Y-87285000D01*
%TO.C,R6*%
X221461000Y-91159064D02*
X221461000Y-90704936D01*
X219991000Y-91159064D02*
X219991000Y-90704936D01*
%TO.C,D4*%
X223620000Y-77635000D02*
X223620000Y-75350000D01*
X223620000Y-75350000D02*
X222150000Y-75350000D01*
X222150000Y-75350000D02*
X222150000Y-77635000D01*
%TO.C,R5*%
X217959000Y-95477064D02*
X217959000Y-95022936D01*
X219429000Y-95477064D02*
X219429000Y-95022936D01*
%TO.C,C2*%
X245391000Y-104132748D02*
X245391000Y-104655252D01*
X246861000Y-104132748D02*
X246861000Y-104655252D01*
%TO.C,R2*%
X250163064Y-102643000D02*
X249708936Y-102643000D01*
X250163064Y-104113000D02*
X249708936Y-104113000D01*
%TO.C,R9*%
X245829064Y-89635000D02*
X245374936Y-89635000D01*
X245829064Y-88165000D02*
X245374936Y-88165000D01*
%TO.C,OUT*%
X231832000Y-87192000D02*
X231832000Y-89592000D01*
X229432000Y-87192000D02*
X231832000Y-87192000D01*
X229432000Y-89592000D02*
X229432000Y-87192000D01*
X231832000Y-89592000D02*
X229432000Y-89592000D01*
%TO.C,C9*%
X224309000Y-78493252D02*
X224309000Y-77970748D01*
X225779000Y-78493252D02*
X225779000Y-77970748D01*
%TO.C,4V*%
X226244000Y-87052000D02*
X223844000Y-87052000D01*
X223844000Y-84652000D02*
X226244000Y-84652000D01*
X226244000Y-84652000D02*
X226244000Y-87052000D01*
X223844000Y-87052000D02*
X223844000Y-84652000D01*
%TO.C,3V3*%
X217608000Y-77286000D02*
X217608000Y-79686000D01*
X217608000Y-79686000D02*
X215208000Y-79686000D01*
X215208000Y-79686000D02*
X215208000Y-77286000D01*
X215208000Y-77286000D02*
X217608000Y-77286000D01*
%TO.C,C10*%
X226595000Y-78493252D02*
X226595000Y-77970748D01*
X228065000Y-78493252D02*
X228065000Y-77970748D01*
%TO.C,U12*%
X226954500Y-102072000D02*
X227754500Y-102072000D01*
X226954500Y-102072000D02*
X226154500Y-102072000D01*
X226954500Y-105192000D02*
X226154500Y-105192000D01*
X226954500Y-105192000D02*
X228754500Y-105192000D01*
%TO.C,C7*%
X220650000Y-95511252D02*
X220650000Y-94988748D01*
X222120000Y-95511252D02*
X222120000Y-94988748D01*
%TO.C,C3*%
X241053252Y-88365000D02*
X240530748Y-88365000D01*
X241053252Y-86895000D02*
X240530748Y-86895000D01*
%TO.C,R7*%
X222150000Y-80872064D02*
X222150000Y-80417936D01*
X223620000Y-80872064D02*
X223620000Y-80417936D01*
%TO.C,U1*%
X214575000Y-108613000D02*
X223575000Y-108613000D01*
X223575000Y-108613000D02*
X223575000Y-112113000D01*
X223575000Y-112113000D02*
X214575000Y-112113000D01*
X214575000Y-112113000D02*
X214575000Y-108613000D01*
%TO.C,C11*%
X246137000Y-82049252D02*
X246137000Y-81526748D01*
X247607000Y-82049252D02*
X247607000Y-81526748D01*
%TD*%
M02*
