%TF.GenerationSoftware,KiCad,Pcbnew,(6.0.10)*%
%TF.CreationDate,2023-02-26T14:05:22-05:00*%
%TF.ProjectId,ECG_2.0,4543475f-322e-4302-9e6b-696361645f70,rev?*%
%TF.SameCoordinates,Original*%
%TF.FileFunction,Drillmap*%
%TF.FilePolarity,Positive*%
%FSLAX45Y45*%
G04 Gerber Fmt 4.5, Leading zero omitted, Abs format (unit mm)*
G04 Created by KiCad (PCBNEW (6.0.10)) date 2023-02-26 14:05:22*
%MOMM*%
%LPD*%
G01*
G04 APERTURE LIST*
%ADD10C,0.100000*%
%ADD11C,0.200000*%
%ADD12C,0.040000*%
%ADD13C,0.060000*%
%ADD14C,0.076200*%
G04 APERTURE END LIST*
D10*
X21549360Y-6908800D02*
X25450800Y-6908800D01*
X25603935Y-7080430D02*
X25605018Y-13471070D01*
X25452618Y-13623470D02*
X21598342Y-13625649D01*
X21404219Y-13422449D02*
G75*
G03*
X21607419Y-13625649I203200J0D01*
G01*
X25452618Y-13623470D02*
G75*
G03*
X25605018Y-13471070I0J152400D01*
G01*
X21548870Y-6908823D02*
G75*
G03*
X21392963Y-7072443I7904J-163620D01*
G01*
X21404219Y-13422449D02*
X21391880Y-7030720D01*
X25602117Y-7062283D02*
G75*
G03*
X25449717Y-6909883I-152400J0D01*
G01*
D11*
D12*
X21582700Y-9733600D02*
X21622700Y-9773600D01*
X21622700Y-9733600D02*
X21582700Y-9773600D01*
X21722400Y-8260400D02*
X21762400Y-8300400D01*
X21762400Y-8260400D02*
X21722400Y-8300400D01*
X21824000Y-8971600D02*
X21864000Y-9011600D01*
X21864000Y-8971600D02*
X21824000Y-9011600D01*
X21989100Y-9733600D02*
X22029100Y-9773600D01*
X22029100Y-9733600D02*
X21989100Y-9773600D01*
X22116350Y-8044250D02*
X22156350Y-8084250D01*
X22156350Y-8044250D02*
X22116350Y-8084250D01*
X22166900Y-8666800D02*
X22206900Y-8706800D01*
X22206900Y-8666800D02*
X22166900Y-8706800D01*
X22179600Y-8438200D02*
X22219600Y-8478200D01*
X22219600Y-8438200D02*
X22179600Y-8478200D01*
X22281200Y-9301800D02*
X22321200Y-9341800D01*
X22321200Y-9301800D02*
X22281200Y-9341800D01*
X22408200Y-10978200D02*
X22448200Y-11018200D01*
X22448200Y-10978200D02*
X22408200Y-11018200D01*
X22573300Y-7549200D02*
X22613300Y-7589200D01*
X22613300Y-7549200D02*
X22573300Y-7589200D01*
X22586000Y-9022400D02*
X22626000Y-9062400D01*
X22626000Y-9022400D02*
X22586000Y-9062400D01*
X22636800Y-10140000D02*
X22676800Y-10180000D01*
X22676800Y-10140000D02*
X22636800Y-10180000D01*
X23087528Y-9225997D02*
X23127528Y-9265997D01*
X23127528Y-9225997D02*
X23087528Y-9265997D01*
X23221000Y-8708840D02*
X23261000Y-8748840D01*
X23261000Y-8708840D02*
X23221000Y-8748840D01*
X23271800Y-9530400D02*
X23311800Y-9570400D01*
X23311800Y-9530400D02*
X23271800Y-9570400D01*
X23284500Y-9162100D02*
X23324500Y-9202100D01*
X23324500Y-9162100D02*
X23284500Y-9202100D01*
X23348000Y-8692200D02*
X23388000Y-8732200D01*
X23388000Y-8692200D02*
X23348000Y-8732200D01*
X23348000Y-10140000D02*
X23388000Y-10180000D01*
X23388000Y-10140000D02*
X23348000Y-10180000D01*
X23373400Y-10368600D02*
X23413400Y-10408600D01*
X23413400Y-10368600D02*
X23373400Y-10408600D01*
X23449600Y-9238300D02*
X23489600Y-9278300D01*
X23489600Y-9238300D02*
X23449600Y-9278300D01*
X23614700Y-8654100D02*
X23654700Y-8694100D01*
X23654700Y-8654100D02*
X23614700Y-8694100D01*
X23678200Y-8768400D02*
X23718200Y-8808400D01*
X23718200Y-8768400D02*
X23678200Y-8808400D01*
X23703600Y-8374700D02*
X23743600Y-8414700D01*
X23743600Y-8374700D02*
X23703600Y-8414700D01*
X23729000Y-9505000D02*
X23769000Y-9545000D01*
X23769000Y-9505000D02*
X23729000Y-9545000D01*
X23856000Y-9200200D02*
X23896000Y-9240200D01*
X23896000Y-9200200D02*
X23856000Y-9240200D01*
X23995700Y-9009700D02*
X24035700Y-9049700D01*
X24035700Y-9009700D02*
X23995700Y-9049700D01*
X24002050Y-8901750D02*
X24042050Y-8941750D01*
X24042050Y-8901750D02*
X24002050Y-8941750D01*
X24007970Y-9124430D02*
X24047970Y-9164430D01*
X24047970Y-9124430D02*
X24007970Y-9164430D01*
X24389400Y-10609900D02*
X24429400Y-10649900D01*
X24429400Y-10609900D02*
X24389400Y-10649900D01*
X24402100Y-9708200D02*
X24442100Y-9748200D01*
X24442100Y-9708200D02*
X24402100Y-9748200D01*
X24743400Y-8565200D02*
X24783400Y-8605200D01*
X24783400Y-8565200D02*
X24743400Y-8605200D01*
X24770400Y-10190800D02*
X24810400Y-10230800D01*
X24810400Y-10190800D02*
X24770400Y-10230800D01*
X24795800Y-8082600D02*
X24835800Y-8122600D01*
X24835800Y-8082600D02*
X24795800Y-8122600D01*
X25049000Y-8843800D02*
X25089000Y-8883800D01*
X25089000Y-8843800D02*
X25049000Y-8883800D01*
X25117621Y-8317407D02*
X25157621Y-8357407D01*
X25157621Y-8317407D02*
X25117621Y-8357407D01*
X25354600Y-9936800D02*
X25394600Y-9976800D01*
X25394600Y-9936800D02*
X25354600Y-9976800D01*
X25418100Y-10203500D02*
X25458100Y-10243500D01*
X25458100Y-10203500D02*
X25418100Y-10243500D01*
X25430800Y-10495600D02*
X25470800Y-10535600D01*
X25470800Y-10495600D02*
X25430800Y-10535600D01*
D13*
X25429550Y-8188000D02*
G75*
G03*
X25429550Y-8188000I-30000J0D01*
G01*
D11*
X25359550Y-8218000D02*
X25439550Y-8218000D01*
X25359550Y-8158000D02*
X25439550Y-8158000D01*
X25439550Y-8218000D02*
G75*
G03*
X25439550Y-8158000I0J30000D01*
G01*
X25359550Y-8158000D02*
G75*
G03*
X25359550Y-8218000I0J-30000D01*
G01*
D14*
X21710200Y-10274300D02*
X21710200Y-10350500D01*
X21672100Y-10312400D02*
X21748300Y-10312400D01*
X21910200Y-10274300D02*
X21910200Y-10350500D01*
X21872100Y-10312400D02*
X21948300Y-10312400D01*
X22110200Y-10274300D02*
X22110200Y-10350500D01*
X22072100Y-10312400D02*
X22148300Y-10312400D01*
X23752200Y-10401300D02*
X23752200Y-10477500D01*
X23714100Y-10439400D02*
X23790300Y-10439400D01*
X23952200Y-10401300D02*
X23952200Y-10477500D01*
X23914100Y-10439400D02*
X23990300Y-10439400D01*
X24152200Y-10401300D02*
X24152200Y-10477500D01*
X24114100Y-10439400D02*
X24190300Y-10439400D01*
X25057700Y-9449500D02*
X25057700Y-9525700D01*
X25019600Y-9487600D02*
X25095800Y-9487600D01*
X25057700Y-9649500D02*
X25057700Y-9725700D01*
X25019600Y-9687600D02*
X25095800Y-9687600D01*
X25057700Y-9849500D02*
X25057700Y-9925700D01*
X25019600Y-9887600D02*
X25095800Y-9887600D01*
D10*
X22031756Y-7705656D02*
X22031756Y-7634944D01*
X21961044Y-7634944D01*
X21961044Y-7705656D01*
X22031756Y-7705656D01*
X22031756Y-7959656D02*
X22031756Y-7888944D01*
X21961044Y-7888944D01*
X21961044Y-7959656D01*
X22031756Y-7959656D01*
X22031756Y-8213656D02*
X22031756Y-8142944D01*
X21961044Y-8142944D01*
X21961044Y-8213656D01*
X22031756Y-8213656D01*
X22031756Y-8467656D02*
X22031756Y-8396944D01*
X21961044Y-8396944D01*
X21961044Y-8467656D01*
X22031756Y-8467656D01*
X22031756Y-8721656D02*
X22031756Y-8650944D01*
X21961044Y-8650944D01*
X21961044Y-8721656D01*
X22031756Y-8721656D01*
X24560056Y-7744256D02*
X24560056Y-7673544D01*
X24489344Y-7673544D01*
X24489344Y-7744256D01*
X24560056Y-7744256D01*
X24814056Y-7744256D02*
X24814056Y-7673544D01*
X24743344Y-7673544D01*
X24743344Y-7744256D01*
X24814056Y-7744256D01*
X25068056Y-7744256D02*
X25068056Y-7673544D01*
X24997344Y-7673544D01*
X24997344Y-7744256D01*
X25068056Y-7744256D01*
X25322056Y-7744256D02*
X25322056Y-7673544D01*
X25251344Y-7673544D01*
X25251344Y-7744256D01*
X25322056Y-7744256D01*
D11*
X21644499Y-13941126D02*
X21644499Y-13741126D01*
X21692118Y-13741126D01*
X21720690Y-13750649D01*
X21739737Y-13769697D01*
X21749261Y-13788745D01*
X21758785Y-13826840D01*
X21758785Y-13855411D01*
X21749261Y-13893507D01*
X21739737Y-13912554D01*
X21720690Y-13931602D01*
X21692118Y-13941126D01*
X21644499Y-13941126D01*
X21844499Y-13941126D02*
X21844499Y-13807792D01*
X21844499Y-13845887D02*
X21854023Y-13826840D01*
X21863547Y-13817316D01*
X21882594Y-13807792D01*
X21901642Y-13807792D01*
X21968309Y-13941126D02*
X21968309Y-13807792D01*
X21968309Y-13741126D02*
X21958785Y-13750649D01*
X21968309Y-13760173D01*
X21977832Y-13750649D01*
X21968309Y-13741126D01*
X21968309Y-13760173D01*
X22092118Y-13941126D02*
X22073070Y-13931602D01*
X22063547Y-13912554D01*
X22063547Y-13741126D01*
X22196880Y-13941126D02*
X22177832Y-13931602D01*
X22168309Y-13912554D01*
X22168309Y-13741126D01*
X22425451Y-13941126D02*
X22425451Y-13741126D01*
X22492118Y-13883983D01*
X22558785Y-13741126D01*
X22558785Y-13941126D01*
X22739737Y-13941126D02*
X22739737Y-13836364D01*
X22730213Y-13817316D01*
X22711166Y-13807792D01*
X22673070Y-13807792D01*
X22654023Y-13817316D01*
X22739737Y-13931602D02*
X22720689Y-13941126D01*
X22673070Y-13941126D01*
X22654023Y-13931602D01*
X22644499Y-13912554D01*
X22644499Y-13893507D01*
X22654023Y-13874459D01*
X22673070Y-13864935D01*
X22720689Y-13864935D01*
X22739737Y-13855411D01*
X22834975Y-13807792D02*
X22834975Y-14007792D01*
X22834975Y-13817316D02*
X22854023Y-13807792D01*
X22892118Y-13807792D01*
X22911166Y-13817316D01*
X22920689Y-13826840D01*
X22930213Y-13845887D01*
X22930213Y-13903030D01*
X22920689Y-13922078D01*
X22911166Y-13931602D01*
X22892118Y-13941126D01*
X22854023Y-13941126D01*
X22834975Y-13931602D01*
X23015928Y-13922078D02*
X23025451Y-13931602D01*
X23015928Y-13941126D01*
X23006404Y-13931602D01*
X23015928Y-13922078D01*
X23015928Y-13941126D01*
X23015928Y-13817316D02*
X23025451Y-13826840D01*
X23015928Y-13836364D01*
X23006404Y-13826840D01*
X23015928Y-13817316D01*
X23015928Y-13836364D01*
D12*
X21346880Y-14250649D02*
X21386880Y-14290649D01*
X21386880Y-14250649D02*
X21346880Y-14290649D01*
D11*
X21682594Y-14161126D02*
X21701642Y-14161126D01*
X21720690Y-14170649D01*
X21730213Y-14180173D01*
X21739737Y-14199221D01*
X21749261Y-14237316D01*
X21749261Y-14284935D01*
X21739737Y-14323030D01*
X21730213Y-14342078D01*
X21720690Y-14351602D01*
X21701642Y-14361126D01*
X21682594Y-14361126D01*
X21663547Y-14351602D01*
X21654023Y-14342078D01*
X21644499Y-14323030D01*
X21634975Y-14284935D01*
X21634975Y-14237316D01*
X21644499Y-14199221D01*
X21654023Y-14180173D01*
X21663547Y-14170649D01*
X21682594Y-14161126D01*
X21834975Y-14342078D02*
X21844499Y-14351602D01*
X21834975Y-14361126D01*
X21825451Y-14351602D01*
X21834975Y-14342078D01*
X21834975Y-14361126D01*
X22015928Y-14227792D02*
X22015928Y-14361126D01*
X21968309Y-14151602D02*
X21920690Y-14294459D01*
X22044499Y-14294459D01*
X22158785Y-14161126D02*
X22177832Y-14161126D01*
X22196880Y-14170649D01*
X22206404Y-14180173D01*
X22215928Y-14199221D01*
X22225451Y-14237316D01*
X22225451Y-14284935D01*
X22215928Y-14323030D01*
X22206404Y-14342078D01*
X22196880Y-14351602D01*
X22177832Y-14361126D01*
X22158785Y-14361126D01*
X22139737Y-14351602D01*
X22130213Y-14342078D01*
X22120690Y-14323030D01*
X22111166Y-14284935D01*
X22111166Y-14237316D01*
X22120690Y-14199221D01*
X22130213Y-14180173D01*
X22139737Y-14170649D01*
X22158785Y-14161126D01*
X22349261Y-14161126D02*
X22368309Y-14161126D01*
X22387356Y-14170649D01*
X22396880Y-14180173D01*
X22406404Y-14199221D01*
X22415928Y-14237316D01*
X22415928Y-14284935D01*
X22406404Y-14323030D01*
X22396880Y-14342078D01*
X22387356Y-14351602D01*
X22368309Y-14361126D01*
X22349261Y-14361126D01*
X22330213Y-14351602D01*
X22320690Y-14342078D01*
X22311166Y-14323030D01*
X22301642Y-14284935D01*
X22301642Y-14237316D01*
X22311166Y-14199221D01*
X22320690Y-14180173D01*
X22330213Y-14170649D01*
X22349261Y-14161126D01*
X22501642Y-14361126D02*
X22501642Y-14227792D01*
X22501642Y-14246840D02*
X22511166Y-14237316D01*
X22530213Y-14227792D01*
X22558785Y-14227792D01*
X22577832Y-14237316D01*
X22587356Y-14256364D01*
X22587356Y-14361126D01*
X22587356Y-14256364D02*
X22596880Y-14237316D01*
X22615928Y-14227792D01*
X22644499Y-14227792D01*
X22663547Y-14237316D01*
X22673070Y-14256364D01*
X22673070Y-14361126D01*
X22768308Y-14361126D02*
X22768308Y-14227792D01*
X22768308Y-14246840D02*
X22777832Y-14237316D01*
X22796880Y-14227792D01*
X22825451Y-14227792D01*
X22844499Y-14237316D01*
X22854023Y-14256364D01*
X22854023Y-14361126D01*
X22854023Y-14256364D02*
X22863547Y-14237316D01*
X22882594Y-14227792D01*
X22911166Y-14227792D01*
X22930213Y-14237316D01*
X22939737Y-14256364D01*
X22939737Y-14361126D01*
X23330213Y-14151602D02*
X23158785Y-14408745D01*
X23587356Y-14161126D02*
X23606404Y-14161126D01*
X23625451Y-14170649D01*
X23634975Y-14180173D01*
X23644499Y-14199221D01*
X23654023Y-14237316D01*
X23654023Y-14284935D01*
X23644499Y-14323030D01*
X23634975Y-14342078D01*
X23625451Y-14351602D01*
X23606404Y-14361126D01*
X23587356Y-14361126D01*
X23568308Y-14351602D01*
X23558785Y-14342078D01*
X23549261Y-14323030D01*
X23539737Y-14284935D01*
X23539737Y-14237316D01*
X23549261Y-14199221D01*
X23558785Y-14180173D01*
X23568308Y-14170649D01*
X23587356Y-14161126D01*
X23739737Y-14342078D02*
X23749261Y-14351602D01*
X23739737Y-14361126D01*
X23730213Y-14351602D01*
X23739737Y-14342078D01*
X23739737Y-14361126D01*
X23873070Y-14161126D02*
X23892118Y-14161126D01*
X23911166Y-14170649D01*
X23920689Y-14180173D01*
X23930213Y-14199221D01*
X23939737Y-14237316D01*
X23939737Y-14284935D01*
X23930213Y-14323030D01*
X23920689Y-14342078D01*
X23911166Y-14351602D01*
X23892118Y-14361126D01*
X23873070Y-14361126D01*
X23854023Y-14351602D01*
X23844499Y-14342078D01*
X23834975Y-14323030D01*
X23825451Y-14284935D01*
X23825451Y-14237316D01*
X23834975Y-14199221D01*
X23844499Y-14180173D01*
X23854023Y-14170649D01*
X23873070Y-14161126D01*
X24130213Y-14361126D02*
X24015928Y-14361126D01*
X24073070Y-14361126D02*
X24073070Y-14161126D01*
X24054023Y-14189697D01*
X24034975Y-14208745D01*
X24015928Y-14218268D01*
X24311166Y-14161126D02*
X24215928Y-14161126D01*
X24206404Y-14256364D01*
X24215928Y-14246840D01*
X24234975Y-14237316D01*
X24282594Y-14237316D01*
X24301642Y-14246840D01*
X24311166Y-14256364D01*
X24320689Y-14275411D01*
X24320689Y-14323030D01*
X24311166Y-14342078D01*
X24301642Y-14351602D01*
X24282594Y-14361126D01*
X24234975Y-14361126D01*
X24215928Y-14351602D01*
X24206404Y-14342078D01*
X24387356Y-14161126D02*
X24520689Y-14161126D01*
X24434975Y-14361126D01*
X24587356Y-14161126D02*
X24587356Y-14199221D01*
X24663547Y-14161126D02*
X24663547Y-14199221D01*
X24958785Y-14437316D02*
X24949261Y-14427792D01*
X24930213Y-14399221D01*
X24920689Y-14380173D01*
X24911166Y-14351602D01*
X24901642Y-14303983D01*
X24901642Y-14265887D01*
X24911166Y-14218268D01*
X24920689Y-14189697D01*
X24930213Y-14170649D01*
X24949261Y-14142078D01*
X24958785Y-14132554D01*
X25015928Y-14161126D02*
X25139737Y-14161126D01*
X25073070Y-14237316D01*
X25101642Y-14237316D01*
X25120689Y-14246840D01*
X25130213Y-14256364D01*
X25139737Y-14275411D01*
X25139737Y-14323030D01*
X25130213Y-14342078D01*
X25120689Y-14351602D01*
X25101642Y-14361126D01*
X25044499Y-14361126D01*
X25025451Y-14351602D01*
X25015928Y-14342078D01*
X25254023Y-14246840D02*
X25234975Y-14237316D01*
X25225451Y-14227792D01*
X25215928Y-14208745D01*
X25215928Y-14199221D01*
X25225451Y-14180173D01*
X25234975Y-14170649D01*
X25254023Y-14161126D01*
X25292118Y-14161126D01*
X25311166Y-14170649D01*
X25320689Y-14180173D01*
X25330213Y-14199221D01*
X25330213Y-14208745D01*
X25320689Y-14227792D01*
X25311166Y-14237316D01*
X25292118Y-14246840D01*
X25254023Y-14246840D01*
X25234975Y-14256364D01*
X25225451Y-14265887D01*
X25215928Y-14284935D01*
X25215928Y-14323030D01*
X25225451Y-14342078D01*
X25234975Y-14351602D01*
X25254023Y-14361126D01*
X25292118Y-14361126D01*
X25311166Y-14351602D01*
X25320689Y-14342078D01*
X25330213Y-14323030D01*
X25330213Y-14284935D01*
X25320689Y-14265887D01*
X25311166Y-14256364D01*
X25292118Y-14246840D01*
X25568308Y-14361126D02*
X25568308Y-14161126D01*
X25654023Y-14361126D02*
X25654023Y-14256364D01*
X25644499Y-14237316D01*
X25625451Y-14227792D01*
X25596880Y-14227792D01*
X25577832Y-14237316D01*
X25568308Y-14246840D01*
X25777832Y-14361126D02*
X25758785Y-14351602D01*
X25749261Y-14342078D01*
X25739737Y-14323030D01*
X25739737Y-14265887D01*
X25749261Y-14246840D01*
X25758785Y-14237316D01*
X25777832Y-14227792D01*
X25806404Y-14227792D01*
X25825451Y-14237316D01*
X25834975Y-14246840D01*
X25844499Y-14265887D01*
X25844499Y-14323030D01*
X25834975Y-14342078D01*
X25825451Y-14351602D01*
X25806404Y-14361126D01*
X25777832Y-14361126D01*
X25958785Y-14361126D02*
X25939737Y-14351602D01*
X25930213Y-14332554D01*
X25930213Y-14161126D01*
X26111166Y-14351602D02*
X26092118Y-14361126D01*
X26054023Y-14361126D01*
X26034975Y-14351602D01*
X26025451Y-14332554D01*
X26025451Y-14256364D01*
X26034975Y-14237316D01*
X26054023Y-14227792D01*
X26092118Y-14227792D01*
X26111166Y-14237316D01*
X26120689Y-14256364D01*
X26120689Y-14275411D01*
X26025451Y-14294459D01*
X26196880Y-14351602D02*
X26215928Y-14361126D01*
X26254023Y-14361126D01*
X26273070Y-14351602D01*
X26282594Y-14332554D01*
X26282594Y-14323030D01*
X26273070Y-14303983D01*
X26254023Y-14294459D01*
X26225451Y-14294459D01*
X26206404Y-14284935D01*
X26196880Y-14265887D01*
X26196880Y-14256364D01*
X26206404Y-14237316D01*
X26225451Y-14227792D01*
X26254023Y-14227792D01*
X26273070Y-14237316D01*
X26349261Y-14437316D02*
X26358785Y-14427792D01*
X26377832Y-14399221D01*
X26387356Y-14380173D01*
X26396880Y-14351602D01*
X26406404Y-14303983D01*
X26406404Y-14265887D01*
X26396880Y-14218268D01*
X26387356Y-14189697D01*
X26377832Y-14170649D01*
X26358785Y-14142078D01*
X26349261Y-14132554D01*
D13*
X21386880Y-14534649D02*
G75*
G03*
X21386880Y-14534649I-30000J0D01*
G01*
D11*
X21682594Y-14425126D02*
X21701642Y-14425126D01*
X21720690Y-14434649D01*
X21730213Y-14444173D01*
X21739737Y-14463221D01*
X21749261Y-14501316D01*
X21749261Y-14548935D01*
X21739737Y-14587030D01*
X21730213Y-14606078D01*
X21720690Y-14615602D01*
X21701642Y-14625126D01*
X21682594Y-14625126D01*
X21663547Y-14615602D01*
X21654023Y-14606078D01*
X21644499Y-14587030D01*
X21634975Y-14548935D01*
X21634975Y-14501316D01*
X21644499Y-14463221D01*
X21654023Y-14444173D01*
X21663547Y-14434649D01*
X21682594Y-14425126D01*
X21834975Y-14606078D02*
X21844499Y-14615602D01*
X21834975Y-14625126D01*
X21825451Y-14615602D01*
X21834975Y-14606078D01*
X21834975Y-14625126D01*
X22015928Y-14425126D02*
X21977832Y-14425126D01*
X21958785Y-14434649D01*
X21949261Y-14444173D01*
X21930213Y-14472745D01*
X21920690Y-14510840D01*
X21920690Y-14587030D01*
X21930213Y-14606078D01*
X21939737Y-14615602D01*
X21958785Y-14625126D01*
X21996880Y-14625126D01*
X22015928Y-14615602D01*
X22025451Y-14606078D01*
X22034975Y-14587030D01*
X22034975Y-14539411D01*
X22025451Y-14520364D01*
X22015928Y-14510840D01*
X21996880Y-14501316D01*
X21958785Y-14501316D01*
X21939737Y-14510840D01*
X21930213Y-14520364D01*
X21920690Y-14539411D01*
X22158785Y-14425126D02*
X22177832Y-14425126D01*
X22196880Y-14434649D01*
X22206404Y-14444173D01*
X22215928Y-14463221D01*
X22225451Y-14501316D01*
X22225451Y-14548935D01*
X22215928Y-14587030D01*
X22206404Y-14606078D01*
X22196880Y-14615602D01*
X22177832Y-14625126D01*
X22158785Y-14625126D01*
X22139737Y-14615602D01*
X22130213Y-14606078D01*
X22120690Y-14587030D01*
X22111166Y-14548935D01*
X22111166Y-14501316D01*
X22120690Y-14463221D01*
X22130213Y-14444173D01*
X22139737Y-14434649D01*
X22158785Y-14425126D01*
X22349261Y-14425126D02*
X22368309Y-14425126D01*
X22387356Y-14434649D01*
X22396880Y-14444173D01*
X22406404Y-14463221D01*
X22415928Y-14501316D01*
X22415928Y-14548935D01*
X22406404Y-14587030D01*
X22396880Y-14606078D01*
X22387356Y-14615602D01*
X22368309Y-14625126D01*
X22349261Y-14625126D01*
X22330213Y-14615602D01*
X22320690Y-14606078D01*
X22311166Y-14587030D01*
X22301642Y-14548935D01*
X22301642Y-14501316D01*
X22311166Y-14463221D01*
X22320690Y-14444173D01*
X22330213Y-14434649D01*
X22349261Y-14425126D01*
X22501642Y-14625126D02*
X22501642Y-14491792D01*
X22501642Y-14510840D02*
X22511166Y-14501316D01*
X22530213Y-14491792D01*
X22558785Y-14491792D01*
X22577832Y-14501316D01*
X22587356Y-14520364D01*
X22587356Y-14625126D01*
X22587356Y-14520364D02*
X22596880Y-14501316D01*
X22615928Y-14491792D01*
X22644499Y-14491792D01*
X22663547Y-14501316D01*
X22673070Y-14520364D01*
X22673070Y-14625126D01*
X22768308Y-14625126D02*
X22768308Y-14491792D01*
X22768308Y-14510840D02*
X22777832Y-14501316D01*
X22796880Y-14491792D01*
X22825451Y-14491792D01*
X22844499Y-14501316D01*
X22854023Y-14520364D01*
X22854023Y-14625126D01*
X22854023Y-14520364D02*
X22863547Y-14501316D01*
X22882594Y-14491792D01*
X22911166Y-14491792D01*
X22930213Y-14501316D01*
X22939737Y-14520364D01*
X22939737Y-14625126D01*
X23330213Y-14415602D02*
X23158785Y-14672745D01*
X23587356Y-14425126D02*
X23606404Y-14425126D01*
X23625451Y-14434649D01*
X23634975Y-14444173D01*
X23644499Y-14463221D01*
X23654023Y-14501316D01*
X23654023Y-14548935D01*
X23644499Y-14587030D01*
X23634975Y-14606078D01*
X23625451Y-14615602D01*
X23606404Y-14625126D01*
X23587356Y-14625126D01*
X23568308Y-14615602D01*
X23558785Y-14606078D01*
X23549261Y-14587030D01*
X23539737Y-14548935D01*
X23539737Y-14501316D01*
X23549261Y-14463221D01*
X23558785Y-14444173D01*
X23568308Y-14434649D01*
X23587356Y-14425126D01*
X23739737Y-14606078D02*
X23749261Y-14615602D01*
X23739737Y-14625126D01*
X23730213Y-14615602D01*
X23739737Y-14606078D01*
X23739737Y-14625126D01*
X23873070Y-14425126D02*
X23892118Y-14425126D01*
X23911166Y-14434649D01*
X23920689Y-14444173D01*
X23930213Y-14463221D01*
X23939737Y-14501316D01*
X23939737Y-14548935D01*
X23930213Y-14587030D01*
X23920689Y-14606078D01*
X23911166Y-14615602D01*
X23892118Y-14625126D01*
X23873070Y-14625126D01*
X23854023Y-14615602D01*
X23844499Y-14606078D01*
X23834975Y-14587030D01*
X23825451Y-14548935D01*
X23825451Y-14501316D01*
X23834975Y-14463221D01*
X23844499Y-14444173D01*
X23854023Y-14434649D01*
X23873070Y-14425126D01*
X24015928Y-14444173D02*
X24025451Y-14434649D01*
X24044499Y-14425126D01*
X24092118Y-14425126D01*
X24111166Y-14434649D01*
X24120689Y-14444173D01*
X24130213Y-14463221D01*
X24130213Y-14482268D01*
X24120689Y-14510840D01*
X24006404Y-14625126D01*
X24130213Y-14625126D01*
X24196880Y-14425126D02*
X24320689Y-14425126D01*
X24254023Y-14501316D01*
X24282594Y-14501316D01*
X24301642Y-14510840D01*
X24311166Y-14520364D01*
X24320689Y-14539411D01*
X24320689Y-14587030D01*
X24311166Y-14606078D01*
X24301642Y-14615602D01*
X24282594Y-14625126D01*
X24225451Y-14625126D01*
X24206404Y-14615602D01*
X24196880Y-14606078D01*
X24492118Y-14425126D02*
X24454023Y-14425126D01*
X24434975Y-14434649D01*
X24425451Y-14444173D01*
X24406404Y-14472745D01*
X24396880Y-14510840D01*
X24396880Y-14587030D01*
X24406404Y-14606078D01*
X24415928Y-14615602D01*
X24434975Y-14625126D01*
X24473070Y-14625126D01*
X24492118Y-14615602D01*
X24501642Y-14606078D01*
X24511166Y-14587030D01*
X24511166Y-14539411D01*
X24501642Y-14520364D01*
X24492118Y-14510840D01*
X24473070Y-14501316D01*
X24434975Y-14501316D01*
X24415928Y-14510840D01*
X24406404Y-14520364D01*
X24396880Y-14539411D01*
X24587356Y-14425126D02*
X24587356Y-14463221D01*
X24663547Y-14425126D02*
X24663547Y-14463221D01*
X24958785Y-14701316D02*
X24949261Y-14691792D01*
X24930213Y-14663221D01*
X24920689Y-14644173D01*
X24911166Y-14615602D01*
X24901642Y-14567983D01*
X24901642Y-14529887D01*
X24911166Y-14482268D01*
X24920689Y-14453697D01*
X24930213Y-14434649D01*
X24949261Y-14406078D01*
X24958785Y-14396554D01*
X25139737Y-14625126D02*
X25025451Y-14625126D01*
X25082594Y-14625126D02*
X25082594Y-14425126D01*
X25063547Y-14453697D01*
X25044499Y-14472745D01*
X25025451Y-14482268D01*
X25368308Y-14615602D02*
X25387356Y-14625126D01*
X25425451Y-14625126D01*
X25444499Y-14615602D01*
X25454023Y-14596554D01*
X25454023Y-14587030D01*
X25444499Y-14567983D01*
X25425451Y-14558459D01*
X25396880Y-14558459D01*
X25377832Y-14548935D01*
X25368308Y-14529887D01*
X25368308Y-14520364D01*
X25377832Y-14501316D01*
X25396880Y-14491792D01*
X25425451Y-14491792D01*
X25444499Y-14501316D01*
X25568308Y-14625126D02*
X25549261Y-14615602D01*
X25539737Y-14596554D01*
X25539737Y-14425126D01*
X25673070Y-14625126D02*
X25654023Y-14615602D01*
X25644499Y-14606078D01*
X25634975Y-14587030D01*
X25634975Y-14529887D01*
X25644499Y-14510840D01*
X25654023Y-14501316D01*
X25673070Y-14491792D01*
X25701642Y-14491792D01*
X25720689Y-14501316D01*
X25730213Y-14510840D01*
X25739737Y-14529887D01*
X25739737Y-14587030D01*
X25730213Y-14606078D01*
X25720689Y-14615602D01*
X25701642Y-14625126D01*
X25673070Y-14625126D01*
X25796880Y-14491792D02*
X25873070Y-14491792D01*
X25825451Y-14425126D02*
X25825451Y-14596554D01*
X25834975Y-14615602D01*
X25854023Y-14625126D01*
X25873070Y-14625126D01*
X25920689Y-14701316D02*
X25930213Y-14691792D01*
X25949261Y-14663221D01*
X25958785Y-14644173D01*
X25968308Y-14615602D01*
X25977832Y-14567983D01*
X25977832Y-14529887D01*
X25968308Y-14482268D01*
X25958785Y-14453697D01*
X25949261Y-14434649D01*
X25930213Y-14406078D01*
X25920689Y-14396554D01*
D14*
X21348780Y-14760549D02*
X21348780Y-14836749D01*
X21310680Y-14798649D02*
X21386880Y-14798649D01*
D11*
X21682594Y-14689126D02*
X21701642Y-14689126D01*
X21720690Y-14698649D01*
X21730213Y-14708173D01*
X21739737Y-14727221D01*
X21749261Y-14765316D01*
X21749261Y-14812935D01*
X21739737Y-14851030D01*
X21730213Y-14870078D01*
X21720690Y-14879602D01*
X21701642Y-14889126D01*
X21682594Y-14889126D01*
X21663547Y-14879602D01*
X21654023Y-14870078D01*
X21644499Y-14851030D01*
X21634975Y-14812935D01*
X21634975Y-14765316D01*
X21644499Y-14727221D01*
X21654023Y-14708173D01*
X21663547Y-14698649D01*
X21682594Y-14689126D01*
X21834975Y-14870078D02*
X21844499Y-14879602D01*
X21834975Y-14889126D01*
X21825451Y-14879602D01*
X21834975Y-14870078D01*
X21834975Y-14889126D01*
X21911166Y-14689126D02*
X22044499Y-14689126D01*
X21958785Y-14889126D01*
X22206404Y-14689126D02*
X22168309Y-14689126D01*
X22149261Y-14698649D01*
X22139737Y-14708173D01*
X22120690Y-14736745D01*
X22111166Y-14774840D01*
X22111166Y-14851030D01*
X22120690Y-14870078D01*
X22130213Y-14879602D01*
X22149261Y-14889126D01*
X22187356Y-14889126D01*
X22206404Y-14879602D01*
X22215928Y-14870078D01*
X22225451Y-14851030D01*
X22225451Y-14803411D01*
X22215928Y-14784364D01*
X22206404Y-14774840D01*
X22187356Y-14765316D01*
X22149261Y-14765316D01*
X22130213Y-14774840D01*
X22120690Y-14784364D01*
X22111166Y-14803411D01*
X22301642Y-14708173D02*
X22311166Y-14698649D01*
X22330213Y-14689126D01*
X22377832Y-14689126D01*
X22396880Y-14698649D01*
X22406404Y-14708173D01*
X22415928Y-14727221D01*
X22415928Y-14746268D01*
X22406404Y-14774840D01*
X22292118Y-14889126D01*
X22415928Y-14889126D01*
X22501642Y-14889126D02*
X22501642Y-14755792D01*
X22501642Y-14774840D02*
X22511166Y-14765316D01*
X22530213Y-14755792D01*
X22558785Y-14755792D01*
X22577832Y-14765316D01*
X22587356Y-14784364D01*
X22587356Y-14889126D01*
X22587356Y-14784364D02*
X22596880Y-14765316D01*
X22615928Y-14755792D01*
X22644499Y-14755792D01*
X22663547Y-14765316D01*
X22673070Y-14784364D01*
X22673070Y-14889126D01*
X22768308Y-14889126D02*
X22768308Y-14755792D01*
X22768308Y-14774840D02*
X22777832Y-14765316D01*
X22796880Y-14755792D01*
X22825451Y-14755792D01*
X22844499Y-14765316D01*
X22854023Y-14784364D01*
X22854023Y-14889126D01*
X22854023Y-14784364D02*
X22863547Y-14765316D01*
X22882594Y-14755792D01*
X22911166Y-14755792D01*
X22930213Y-14765316D01*
X22939737Y-14784364D01*
X22939737Y-14889126D01*
X23330213Y-14679602D02*
X23158785Y-14936745D01*
X23587356Y-14689126D02*
X23606404Y-14689126D01*
X23625451Y-14698649D01*
X23634975Y-14708173D01*
X23644499Y-14727221D01*
X23654023Y-14765316D01*
X23654023Y-14812935D01*
X23644499Y-14851030D01*
X23634975Y-14870078D01*
X23625451Y-14879602D01*
X23606404Y-14889126D01*
X23587356Y-14889126D01*
X23568308Y-14879602D01*
X23558785Y-14870078D01*
X23549261Y-14851030D01*
X23539737Y-14812935D01*
X23539737Y-14765316D01*
X23549261Y-14727221D01*
X23558785Y-14708173D01*
X23568308Y-14698649D01*
X23587356Y-14689126D01*
X23739737Y-14870078D02*
X23749261Y-14879602D01*
X23739737Y-14889126D01*
X23730213Y-14879602D01*
X23739737Y-14870078D01*
X23739737Y-14889126D01*
X23873070Y-14689126D02*
X23892118Y-14689126D01*
X23911166Y-14698649D01*
X23920689Y-14708173D01*
X23930213Y-14727221D01*
X23939737Y-14765316D01*
X23939737Y-14812935D01*
X23930213Y-14851030D01*
X23920689Y-14870078D01*
X23911166Y-14879602D01*
X23892118Y-14889126D01*
X23873070Y-14889126D01*
X23854023Y-14879602D01*
X23844499Y-14870078D01*
X23834975Y-14851030D01*
X23825451Y-14812935D01*
X23825451Y-14765316D01*
X23834975Y-14727221D01*
X23844499Y-14708173D01*
X23854023Y-14698649D01*
X23873070Y-14689126D01*
X24006404Y-14689126D02*
X24130213Y-14689126D01*
X24063547Y-14765316D01*
X24092118Y-14765316D01*
X24111166Y-14774840D01*
X24120689Y-14784364D01*
X24130213Y-14803411D01*
X24130213Y-14851030D01*
X24120689Y-14870078D01*
X24111166Y-14879602D01*
X24092118Y-14889126D01*
X24034975Y-14889126D01*
X24015928Y-14879602D01*
X24006404Y-14870078D01*
X24254023Y-14689126D02*
X24273070Y-14689126D01*
X24292118Y-14698649D01*
X24301642Y-14708173D01*
X24311166Y-14727221D01*
X24320689Y-14765316D01*
X24320689Y-14812935D01*
X24311166Y-14851030D01*
X24301642Y-14870078D01*
X24292118Y-14879602D01*
X24273070Y-14889126D01*
X24254023Y-14889126D01*
X24234975Y-14879602D01*
X24225451Y-14870078D01*
X24215928Y-14851030D01*
X24206404Y-14812935D01*
X24206404Y-14765316D01*
X24215928Y-14727221D01*
X24225451Y-14708173D01*
X24234975Y-14698649D01*
X24254023Y-14689126D01*
X24444499Y-14689126D02*
X24463547Y-14689126D01*
X24482594Y-14698649D01*
X24492118Y-14708173D01*
X24501642Y-14727221D01*
X24511166Y-14765316D01*
X24511166Y-14812935D01*
X24501642Y-14851030D01*
X24492118Y-14870078D01*
X24482594Y-14879602D01*
X24463547Y-14889126D01*
X24444499Y-14889126D01*
X24425451Y-14879602D01*
X24415928Y-14870078D01*
X24406404Y-14851030D01*
X24396880Y-14812935D01*
X24396880Y-14765316D01*
X24406404Y-14727221D01*
X24415928Y-14708173D01*
X24425451Y-14698649D01*
X24444499Y-14689126D01*
X24587356Y-14689126D02*
X24587356Y-14727221D01*
X24663547Y-14689126D02*
X24663547Y-14727221D01*
X24958785Y-14965316D02*
X24949261Y-14955792D01*
X24930213Y-14927221D01*
X24920689Y-14908173D01*
X24911166Y-14879602D01*
X24901642Y-14831983D01*
X24901642Y-14793887D01*
X24911166Y-14746268D01*
X24920689Y-14717697D01*
X24930213Y-14698649D01*
X24949261Y-14670078D01*
X24958785Y-14660554D01*
X25044499Y-14889126D02*
X25082594Y-14889126D01*
X25101642Y-14879602D01*
X25111166Y-14870078D01*
X25130213Y-14841507D01*
X25139737Y-14803411D01*
X25139737Y-14727221D01*
X25130213Y-14708173D01*
X25120689Y-14698649D01*
X25101642Y-14689126D01*
X25063547Y-14689126D01*
X25044499Y-14698649D01*
X25034975Y-14708173D01*
X25025451Y-14727221D01*
X25025451Y-14774840D01*
X25034975Y-14793887D01*
X25044499Y-14803411D01*
X25063547Y-14812935D01*
X25101642Y-14812935D01*
X25120689Y-14803411D01*
X25130213Y-14793887D01*
X25139737Y-14774840D01*
X25377832Y-14889126D02*
X25377832Y-14689126D01*
X25463547Y-14889126D02*
X25463547Y-14784364D01*
X25454023Y-14765316D01*
X25434975Y-14755792D01*
X25406404Y-14755792D01*
X25387356Y-14765316D01*
X25377832Y-14774840D01*
X25587356Y-14889126D02*
X25568308Y-14879602D01*
X25558785Y-14870078D01*
X25549261Y-14851030D01*
X25549261Y-14793887D01*
X25558785Y-14774840D01*
X25568308Y-14765316D01*
X25587356Y-14755792D01*
X25615928Y-14755792D01*
X25634975Y-14765316D01*
X25644499Y-14774840D01*
X25654023Y-14793887D01*
X25654023Y-14851030D01*
X25644499Y-14870078D01*
X25634975Y-14879602D01*
X25615928Y-14889126D01*
X25587356Y-14889126D01*
X25768308Y-14889126D02*
X25749261Y-14879602D01*
X25739737Y-14860554D01*
X25739737Y-14689126D01*
X25920689Y-14879602D02*
X25901642Y-14889126D01*
X25863547Y-14889126D01*
X25844499Y-14879602D01*
X25834975Y-14860554D01*
X25834975Y-14784364D01*
X25844499Y-14765316D01*
X25863547Y-14755792D01*
X25901642Y-14755792D01*
X25920689Y-14765316D01*
X25930213Y-14784364D01*
X25930213Y-14803411D01*
X25834975Y-14822459D01*
X26006404Y-14879602D02*
X26025451Y-14889126D01*
X26063547Y-14889126D01*
X26082594Y-14879602D01*
X26092118Y-14860554D01*
X26092118Y-14851030D01*
X26082594Y-14831983D01*
X26063547Y-14822459D01*
X26034975Y-14822459D01*
X26015928Y-14812935D01*
X26006404Y-14793887D01*
X26006404Y-14784364D01*
X26015928Y-14765316D01*
X26034975Y-14755792D01*
X26063547Y-14755792D01*
X26082594Y-14765316D01*
X26158785Y-14965316D02*
X26168308Y-14955792D01*
X26187356Y-14927221D01*
X26196880Y-14908173D01*
X26206404Y-14879602D01*
X26215928Y-14831983D01*
X26215928Y-14793887D01*
X26206404Y-14746268D01*
X26196880Y-14717697D01*
X26187356Y-14698649D01*
X26168308Y-14670078D01*
X26158785Y-14660554D01*
D10*
X21372236Y-15098005D02*
X21372236Y-15027294D01*
X21301524Y-15027294D01*
X21301524Y-15098005D01*
X21372236Y-15098005D01*
D11*
X21749261Y-15153126D02*
X21634975Y-15153126D01*
X21692118Y-15153126D02*
X21692118Y-14953126D01*
X21673070Y-14981697D01*
X21654023Y-15000745D01*
X21634975Y-15010268D01*
X21834975Y-15134078D02*
X21844499Y-15143602D01*
X21834975Y-15153126D01*
X21825451Y-15143602D01*
X21834975Y-15134078D01*
X21834975Y-15153126D01*
X21968309Y-14953126D02*
X21987356Y-14953126D01*
X22006404Y-14962649D01*
X22015928Y-14972173D01*
X22025451Y-14991221D01*
X22034975Y-15029316D01*
X22034975Y-15076935D01*
X22025451Y-15115030D01*
X22015928Y-15134078D01*
X22006404Y-15143602D01*
X21987356Y-15153126D01*
X21968309Y-15153126D01*
X21949261Y-15143602D01*
X21939737Y-15134078D01*
X21930213Y-15115030D01*
X21920690Y-15076935D01*
X21920690Y-15029316D01*
X21930213Y-14991221D01*
X21939737Y-14972173D01*
X21949261Y-14962649D01*
X21968309Y-14953126D01*
X22158785Y-14953126D02*
X22177832Y-14953126D01*
X22196880Y-14962649D01*
X22206404Y-14972173D01*
X22215928Y-14991221D01*
X22225451Y-15029316D01*
X22225451Y-15076935D01*
X22215928Y-15115030D01*
X22206404Y-15134078D01*
X22196880Y-15143602D01*
X22177832Y-15153126D01*
X22158785Y-15153126D01*
X22139737Y-15143602D01*
X22130213Y-15134078D01*
X22120690Y-15115030D01*
X22111166Y-15076935D01*
X22111166Y-15029316D01*
X22120690Y-14991221D01*
X22130213Y-14972173D01*
X22139737Y-14962649D01*
X22158785Y-14953126D01*
X22349261Y-14953126D02*
X22368309Y-14953126D01*
X22387356Y-14962649D01*
X22396880Y-14972173D01*
X22406404Y-14991221D01*
X22415928Y-15029316D01*
X22415928Y-15076935D01*
X22406404Y-15115030D01*
X22396880Y-15134078D01*
X22387356Y-15143602D01*
X22368309Y-15153126D01*
X22349261Y-15153126D01*
X22330213Y-15143602D01*
X22320690Y-15134078D01*
X22311166Y-15115030D01*
X22301642Y-15076935D01*
X22301642Y-15029316D01*
X22311166Y-14991221D01*
X22320690Y-14972173D01*
X22330213Y-14962649D01*
X22349261Y-14953126D01*
X22501642Y-15153126D02*
X22501642Y-15019792D01*
X22501642Y-15038840D02*
X22511166Y-15029316D01*
X22530213Y-15019792D01*
X22558785Y-15019792D01*
X22577832Y-15029316D01*
X22587356Y-15048364D01*
X22587356Y-15153126D01*
X22587356Y-15048364D02*
X22596880Y-15029316D01*
X22615928Y-15019792D01*
X22644499Y-15019792D01*
X22663547Y-15029316D01*
X22673070Y-15048364D01*
X22673070Y-15153126D01*
X22768308Y-15153126D02*
X22768308Y-15019792D01*
X22768308Y-15038840D02*
X22777832Y-15029316D01*
X22796880Y-15019792D01*
X22825451Y-15019792D01*
X22844499Y-15029316D01*
X22854023Y-15048364D01*
X22854023Y-15153126D01*
X22854023Y-15048364D02*
X22863547Y-15029316D01*
X22882594Y-15019792D01*
X22911166Y-15019792D01*
X22930213Y-15029316D01*
X22939737Y-15048364D01*
X22939737Y-15153126D01*
X23330213Y-14943602D02*
X23158785Y-15200745D01*
X23587356Y-14953126D02*
X23606404Y-14953126D01*
X23625451Y-14962649D01*
X23634975Y-14972173D01*
X23644499Y-14991221D01*
X23654023Y-15029316D01*
X23654023Y-15076935D01*
X23644499Y-15115030D01*
X23634975Y-15134078D01*
X23625451Y-15143602D01*
X23606404Y-15153126D01*
X23587356Y-15153126D01*
X23568308Y-15143602D01*
X23558785Y-15134078D01*
X23549261Y-15115030D01*
X23539737Y-15076935D01*
X23539737Y-15029316D01*
X23549261Y-14991221D01*
X23558785Y-14972173D01*
X23568308Y-14962649D01*
X23587356Y-14953126D01*
X23739737Y-15134078D02*
X23749261Y-15143602D01*
X23739737Y-15153126D01*
X23730213Y-15143602D01*
X23739737Y-15134078D01*
X23739737Y-15153126D01*
X23873070Y-14953126D02*
X23892118Y-14953126D01*
X23911166Y-14962649D01*
X23920689Y-14972173D01*
X23930213Y-14991221D01*
X23939737Y-15029316D01*
X23939737Y-15076935D01*
X23930213Y-15115030D01*
X23920689Y-15134078D01*
X23911166Y-15143602D01*
X23892118Y-15153126D01*
X23873070Y-15153126D01*
X23854023Y-15143602D01*
X23844499Y-15134078D01*
X23834975Y-15115030D01*
X23825451Y-15076935D01*
X23825451Y-15029316D01*
X23834975Y-14991221D01*
X23844499Y-14972173D01*
X23854023Y-14962649D01*
X23873070Y-14953126D01*
X24006404Y-14953126D02*
X24130213Y-14953126D01*
X24063547Y-15029316D01*
X24092118Y-15029316D01*
X24111166Y-15038840D01*
X24120689Y-15048364D01*
X24130213Y-15067411D01*
X24130213Y-15115030D01*
X24120689Y-15134078D01*
X24111166Y-15143602D01*
X24092118Y-15153126D01*
X24034975Y-15153126D01*
X24015928Y-15143602D01*
X24006404Y-15134078D01*
X24225451Y-15153126D02*
X24263547Y-15153126D01*
X24282594Y-15143602D01*
X24292118Y-15134078D01*
X24311166Y-15105507D01*
X24320689Y-15067411D01*
X24320689Y-14991221D01*
X24311166Y-14972173D01*
X24301642Y-14962649D01*
X24282594Y-14953126D01*
X24244499Y-14953126D01*
X24225451Y-14962649D01*
X24215928Y-14972173D01*
X24206404Y-14991221D01*
X24206404Y-15038840D01*
X24215928Y-15057887D01*
X24225451Y-15067411D01*
X24244499Y-15076935D01*
X24282594Y-15076935D01*
X24301642Y-15067411D01*
X24311166Y-15057887D01*
X24320689Y-15038840D01*
X24492118Y-15019792D02*
X24492118Y-15153126D01*
X24444499Y-14943602D02*
X24396880Y-15086459D01*
X24520689Y-15086459D01*
X24587356Y-14953126D02*
X24587356Y-14991221D01*
X24663547Y-14953126D02*
X24663547Y-14991221D01*
X24958785Y-15229316D02*
X24949261Y-15219792D01*
X24930213Y-15191221D01*
X24920689Y-15172173D01*
X24911166Y-15143602D01*
X24901642Y-15095983D01*
X24901642Y-15057887D01*
X24911166Y-15010268D01*
X24920689Y-14981697D01*
X24930213Y-14962649D01*
X24949261Y-14934078D01*
X24958785Y-14924554D01*
X25044499Y-15153126D02*
X25082594Y-15153126D01*
X25101642Y-15143602D01*
X25111166Y-15134078D01*
X25130213Y-15105507D01*
X25139737Y-15067411D01*
X25139737Y-14991221D01*
X25130213Y-14972173D01*
X25120689Y-14962649D01*
X25101642Y-14953126D01*
X25063547Y-14953126D01*
X25044499Y-14962649D01*
X25034975Y-14972173D01*
X25025451Y-14991221D01*
X25025451Y-15038840D01*
X25034975Y-15057887D01*
X25044499Y-15067411D01*
X25063547Y-15076935D01*
X25101642Y-15076935D01*
X25120689Y-15067411D01*
X25130213Y-15057887D01*
X25139737Y-15038840D01*
X25377832Y-15153126D02*
X25377832Y-14953126D01*
X25463547Y-15153126D02*
X25463547Y-15048364D01*
X25454023Y-15029316D01*
X25434975Y-15019792D01*
X25406404Y-15019792D01*
X25387356Y-15029316D01*
X25377832Y-15038840D01*
X25587356Y-15153126D02*
X25568308Y-15143602D01*
X25558785Y-15134078D01*
X25549261Y-15115030D01*
X25549261Y-15057887D01*
X25558785Y-15038840D01*
X25568308Y-15029316D01*
X25587356Y-15019792D01*
X25615928Y-15019792D01*
X25634975Y-15029316D01*
X25644499Y-15038840D01*
X25654023Y-15057887D01*
X25654023Y-15115030D01*
X25644499Y-15134078D01*
X25634975Y-15143602D01*
X25615928Y-15153126D01*
X25587356Y-15153126D01*
X25768308Y-15153126D02*
X25749261Y-15143602D01*
X25739737Y-15124554D01*
X25739737Y-14953126D01*
X25920689Y-15143602D02*
X25901642Y-15153126D01*
X25863547Y-15153126D01*
X25844499Y-15143602D01*
X25834975Y-15124554D01*
X25834975Y-15048364D01*
X25844499Y-15029316D01*
X25863547Y-15019792D01*
X25901642Y-15019792D01*
X25920689Y-15029316D01*
X25930213Y-15048364D01*
X25930213Y-15067411D01*
X25834975Y-15086459D01*
X26006404Y-15143602D02*
X26025451Y-15153126D01*
X26063547Y-15153126D01*
X26082594Y-15143602D01*
X26092118Y-15124554D01*
X26092118Y-15115030D01*
X26082594Y-15095983D01*
X26063547Y-15086459D01*
X26034975Y-15086459D01*
X26015928Y-15076935D01*
X26006404Y-15057887D01*
X26006404Y-15048364D01*
X26015928Y-15029316D01*
X26034975Y-15019792D01*
X26063547Y-15019792D01*
X26082594Y-15029316D01*
X26158785Y-15229316D02*
X26168308Y-15219792D01*
X26187356Y-15191221D01*
X26196880Y-15172173D01*
X26206404Y-15143602D01*
X26215928Y-15095983D01*
X26215928Y-15057887D01*
X26206404Y-15010268D01*
X26196880Y-14981697D01*
X26187356Y-14962649D01*
X26168308Y-14934078D01*
X26158785Y-14924554D01*
M02*
