%TF.GenerationSoftware,KiCad,Pcbnew,(6.0.10)*%
%TF.CreationDate,2023-02-27T19:56:58-05:00*%
%TF.ProjectId,ECG_2.0,4543475f-322e-4302-9e6b-696361645f70,rev?*%
%TF.SameCoordinates,Original*%
%TF.FileFunction,Paste,Top*%
%TF.FilePolarity,Positive*%
%FSLAX46Y46*%
G04 Gerber Fmt 4.6, Leading zero omitted, Abs format (unit mm)*
G04 Created by KiCad (PCBNEW (6.0.10)) date 2023-02-27 19:56:58*
%MOMM*%
%LPD*%
G01*
G04 APERTURE LIST*
G04 Aperture macros list*
%AMRoundRect*
0 Rectangle with rounded corners*
0 $1 Rounding radius*
0 $2 $3 $4 $5 $6 $7 $8 $9 X,Y pos of 4 corners*
0 Add a 4 corners polygon primitive as box body*
4,1,4,$2,$3,$4,$5,$6,$7,$8,$9,$2,$3,0*
0 Add four circle primitives for the rounded corners*
1,1,$1+$1,$2,$3*
1,1,$1+$1,$4,$5*
1,1,$1+$1,$6,$7*
1,1,$1+$1,$8,$9*
0 Add four rect primitives between the rounded corners*
20,1,$1+$1,$2,$3,$4,$5,0*
20,1,$1+$1,$4,$5,$6,$7,0*
20,1,$1+$1,$6,$7,$8,$9,0*
20,1,$1+$1,$8,$9,$2,$3,0*%
%AMFreePoly0*
4,1,19,-2.250000,0.000000,-2.234168,0.154524,-2.178607,0.322035,-2.086000,0.472272,-1.961315,0.597174,-1.811240,0.690043,-1.643826,0.745897,-1.488000,0.762000,1.488000,0.762000,1.642524,0.746168,1.810035,0.690607,1.960272,0.598000,2.085174,0.473315,2.178043,0.323240,2.233897,0.155826,2.250000,0.000000,2.250000,-0.762000,-2.250000,-0.762000,-2.250000,0.000000,-2.250000,0.000000,
$1*%
%AMFreePoly1*
4,1,19,-2.250000,0.762000,2.250000,0.762000,2.250000,0.000000,2.234168,-0.154524,2.178607,-0.322035,2.086000,-0.472272,1.961315,-0.597174,1.811240,-0.690043,1.643826,-0.745897,1.488000,-0.762000,-1.488000,-0.762000,-1.642524,-0.746168,-1.810035,-0.690607,-1.960272,-0.598000,-2.085174,-0.473315,-2.178043,-0.323240,-2.233897,-0.155826,-2.250000,0.000000,-2.250000,0.762000,-2.250000,0.762000,
$1*%
G04 Aperture macros list end*
%ADD10C,0.010000*%
%ADD11RoundRect,0.150000X0.512500X0.150000X-0.512500X0.150000X-0.512500X-0.150000X0.512500X-0.150000X0*%
%ADD12RoundRect,0.175000X-0.175000X-0.300000X0.175000X-0.300000X0.175000X0.300000X-0.175000X0.300000X0*%
%ADD13RoundRect,0.087500X-0.587500X-0.087500X0.587500X-0.087500X0.587500X0.087500X-0.587500X0.087500X0*%
%ADD14FreePoly0,270.000000*%
%ADD15FreePoly1,270.000000*%
%ADD16RoundRect,0.250000X0.350000X0.450000X-0.350000X0.450000X-0.350000X-0.450000X0.350000X-0.450000X0*%
%ADD17RoundRect,0.250000X-0.475000X0.337500X-0.475000X-0.337500X0.475000X-0.337500X0.475000X0.337500X0*%
%ADD18RoundRect,0.250000X-0.450000X0.350000X-0.450000X-0.350000X0.450000X-0.350000X0.450000X0.350000X0*%
%ADD19RoundRect,0.150000X0.150000X-0.512500X0.150000X0.512500X-0.150000X0.512500X-0.150000X-0.512500X0*%
%ADD20R,0.800000X0.400000*%
%ADD21R,0.400000X0.800000*%
%ADD22R,1.450000X1.450000*%
%ADD23R,0.700000X0.700000*%
%ADD24RoundRect,0.250000X0.450000X-0.350000X0.450000X0.350000X-0.450000X0.350000X-0.450000X-0.350000X0*%
%ADD25RoundRect,0.250000X-0.337500X-0.475000X0.337500X-0.475000X0.337500X0.475000X-0.337500X0.475000X0*%
%ADD26RoundRect,0.381000X0.762000X0.381000X-0.762000X0.381000X-0.762000X-0.381000X0.762000X-0.381000X0*%
%ADD27RoundRect,0.250000X-0.350000X-0.450000X0.350000X-0.450000X0.350000X0.450000X-0.350000X0.450000X0*%
%ADD28R,1.140000X0.600000*%
%ADD29R,1.140000X0.300000*%
%ADD30RoundRect,0.218750X0.218750X0.256250X-0.218750X0.256250X-0.218750X-0.256250X0.218750X-0.256250X0*%
%ADD31RoundRect,0.250000X0.475000X-0.337500X0.475000X0.337500X-0.475000X0.337500X-0.475000X-0.337500X0*%
%ADD32RoundRect,0.218750X0.256250X-0.218750X0.256250X0.218750X-0.256250X0.218750X-0.256250X-0.218750X0*%
%ADD33RoundRect,0.218750X-0.256250X0.218750X-0.256250X-0.218750X0.256250X-0.218750X0.256250X0.218750X0*%
%ADD34RoundRect,0.250000X0.337500X0.475000X-0.337500X0.475000X-0.337500X-0.475000X0.337500X-0.475000X0*%
%ADD35RoundRect,0.625000X-0.625000X-0.625000X0.625000X-0.625000X0.625000X0.625000X-0.625000X0.625000X0*%
G04 APERTURE END LIST*
%TO.C,U10*%
G36*
X234335000Y-79174000D02*
G01*
X232885000Y-79174000D01*
X232885000Y-78324000D01*
X233485000Y-77724000D01*
X234335000Y-77724000D01*
X234335000Y-79174000D01*
G37*
D10*
X234335000Y-79174000D02*
X232885000Y-79174000D01*
X232885000Y-78324000D01*
X233485000Y-77724000D01*
X234335000Y-77724000D01*
X234335000Y-79174000D01*
%TD*%
D11*
%TO.C,U11*%
X232664000Y-104582000D03*
X232664000Y-103632000D03*
X232664000Y-102682000D03*
X230389000Y-102682000D03*
X230389000Y-103632000D03*
X230389000Y-104582000D03*
%TD*%
D12*
%TO.C,U2*%
X236044000Y-89834000D03*
X236904000Y-91014000D03*
X236904000Y-89834000D03*
X236044000Y-91014000D03*
D13*
X234299000Y-89449000D03*
X234299000Y-90099000D03*
X234299000Y-90749000D03*
X234299000Y-91399000D03*
X238649000Y-91399000D03*
X238649000Y-90749000D03*
X238649000Y-90099000D03*
X238649000Y-89449000D03*
%TD*%
D14*
%TO.C,L1*%
X227306000Y-96012000D03*
D15*
X224306000Y-96012000D03*
%TD*%
D16*
%TO.C,R11*%
X227568000Y-106680000D03*
X225568000Y-106680000D03*
%TD*%
D17*
%TO.C,C12*%
X241808000Y-89894500D03*
X241808000Y-91969500D03*
%TD*%
D18*
%TO.C,R4*%
X215900000Y-82820000D03*
X215900000Y-84820000D03*
%TD*%
D19*
%TO.C,U6*%
X223078000Y-91561500D03*
X224028000Y-91561500D03*
X224978000Y-91561500D03*
X224978000Y-89286500D03*
X223078000Y-89286500D03*
%TD*%
D16*
%TO.C,R3*%
X250936000Y-106199000D03*
X248936000Y-106199000D03*
%TD*%
D17*
%TO.C,C13*%
X230378000Y-95990500D03*
X230378000Y-98065500D03*
%TD*%
D20*
%TO.C,U10*%
X229685000Y-76424000D03*
X229685000Y-77224000D03*
X229685000Y-78024000D03*
X229685000Y-78824000D03*
X229685000Y-79624000D03*
X229685000Y-80424000D03*
X229685000Y-81224000D03*
X229685000Y-82024000D03*
X229685000Y-82824000D03*
X229685000Y-83624000D03*
X229685000Y-84424000D03*
D21*
X230785000Y-85324000D03*
X231585000Y-85324000D03*
X232385000Y-85324000D03*
X233185000Y-85324000D03*
X233985000Y-85324000D03*
X234785000Y-85324000D03*
X235585000Y-85324000D03*
X236385000Y-85324000D03*
X237185000Y-85324000D03*
X237985000Y-85324000D03*
X238785000Y-85324000D03*
X239585000Y-85324000D03*
X240385000Y-85324000D03*
D20*
X241485000Y-84424000D03*
X241485000Y-83624000D03*
X241485000Y-82824000D03*
X241485000Y-82024000D03*
X241485000Y-81224000D03*
X241485000Y-80424000D03*
X241485000Y-79624000D03*
X241485000Y-78824000D03*
X241485000Y-78024000D03*
X241485000Y-77224000D03*
X241485000Y-76424000D03*
D21*
X240385000Y-75524000D03*
X239585000Y-75524000D03*
X238785000Y-75524000D03*
X237985000Y-75524000D03*
X237185000Y-75524000D03*
X236385000Y-75524000D03*
X235585000Y-75524000D03*
X234785000Y-75524000D03*
X233985000Y-75524000D03*
X233185000Y-75524000D03*
X232385000Y-75524000D03*
X231585000Y-75524000D03*
X230785000Y-75524000D03*
D22*
X235585000Y-80424000D03*
X233610000Y-80424000D03*
X237560000Y-78449000D03*
X233610000Y-82399000D03*
X237560000Y-80424000D03*
X235585000Y-82399000D03*
X235585000Y-78449000D03*
X237560000Y-82399000D03*
D23*
X241535000Y-75474000D03*
X241535000Y-85374000D03*
X229635000Y-85374000D03*
X229635000Y-75474000D03*
%TD*%
D16*
%TO.C,R10*%
X251428000Y-80010000D03*
X249428000Y-80010000D03*
%TD*%
D24*
%TO.C,R1*%
X246634000Y-98536000D03*
X246634000Y-96536000D03*
%TD*%
D25*
%TO.C,C1*%
X230102500Y-93726000D03*
X232177500Y-93726000D03*
%TD*%
D26*
%TO.C,U8*%
X244022000Y-100036000D03*
X244022000Y-95036000D03*
X235022000Y-100036000D03*
X235022000Y-95036000D03*
%TD*%
D25*
%TO.C,C4*%
X225663000Y-100330000D03*
X227738000Y-100330000D03*
%TD*%
%TO.C,C5*%
X217021500Y-99441000D03*
X219096500Y-99441000D03*
%TD*%
D27*
%TO.C,R8*%
X225060000Y-81280000D03*
X227060000Y-81280000D03*
%TD*%
D17*
%TO.C,C6*%
X227330000Y-89132500D03*
X227330000Y-91207500D03*
%TD*%
D28*
%TO.C,U9*%
X249245500Y-89405000D03*
X249245500Y-88605000D03*
D29*
X249245500Y-87455000D03*
X249245500Y-86455000D03*
X249245500Y-85955000D03*
X249245500Y-84955000D03*
D28*
X249245500Y-83005000D03*
X249245500Y-83805000D03*
D29*
X249245500Y-84455000D03*
X249245500Y-85455000D03*
X249245500Y-86955000D03*
X249245500Y-87955000D03*
%TD*%
D30*
%TO.C,D2*%
X254533500Y-106172000D03*
X252958500Y-106172000D03*
%TD*%
%TO.C,D1*%
X254533500Y-103378000D03*
X252958500Y-103378000D03*
%TD*%
D16*
%TO.C,Rprog1*%
X231632000Y-91186000D03*
X229632000Y-91186000D03*
%TD*%
D31*
%TO.C,C8*%
X216352500Y-96287500D03*
X216352500Y-94212500D03*
%TD*%
D32*
%TO.C,D3*%
X215900000Y-88900000D03*
X215900000Y-87325000D03*
%TD*%
D16*
%TO.C,R12*%
X232394000Y-100264000D03*
X230394000Y-100264000D03*
%TD*%
D11*
%TO.C,U3*%
X246231500Y-86675000D03*
X246231500Y-85725000D03*
X246231500Y-84775000D03*
X243956500Y-84775000D03*
X243956500Y-85725000D03*
X243956500Y-86675000D03*
%TD*%
D24*
%TO.C,R6*%
X220726000Y-91932000D03*
X220726000Y-89932000D03*
%TD*%
D33*
%TO.C,D4*%
X222885000Y-76047500D03*
X222885000Y-77622500D03*
%TD*%
D24*
%TO.C,R5*%
X218694000Y-96250000D03*
X218694000Y-94250000D03*
%TD*%
D17*
%TO.C,C2*%
X246126000Y-103356500D03*
X246126000Y-105431500D03*
%TD*%
D16*
%TO.C,R2*%
X250936000Y-103378000D03*
X248936000Y-103378000D03*
%TD*%
%TO.C,R9*%
X246602000Y-88900000D03*
X244602000Y-88900000D03*
%TD*%
D31*
%TO.C,C9*%
X225044000Y-79269500D03*
X225044000Y-77194500D03*
%TD*%
%TO.C,C10*%
X227330000Y-79269500D03*
X227330000Y-77194500D03*
%TD*%
D11*
%TO.C,U12*%
X228092000Y-104582000D03*
X228092000Y-103632000D03*
X228092000Y-102682000D03*
X225817000Y-102682000D03*
X225817000Y-103632000D03*
X225817000Y-104582000D03*
%TD*%
D31*
%TO.C,C7*%
X221385000Y-96287500D03*
X221385000Y-94212500D03*
%TD*%
D34*
%TO.C,C3*%
X241829500Y-87630000D03*
X239754500Y-87630000D03*
%TD*%
D24*
%TO.C,R7*%
X222885000Y-81645000D03*
X222885000Y-79645000D03*
%TD*%
D35*
%TO.C,U1*%
X216575000Y-110363000D03*
X221575000Y-110363000D03*
%TD*%
D31*
%TO.C,C11*%
X246872000Y-82825500D03*
X246872000Y-80750500D03*
%TD*%
M02*
